<?xml version="1.0" encoding="iso-8859-1"?>
<!-- Generator: Adobe Illustrator 19.0.0, SVG Export Plug-In . SVG Version: 6.00 Build 0)  -->
<svg version="1.1" id="Layer_1" xmlns="http://www.w3.org/2000/svg" xmlns:xlink="http://www.w3.org/1999/xlink" x="0px" y="0px"
	 viewBox="0 0 511.979 511.979" style="enable-background:new 0 0 511.979 511.979;" xml:space="preserve">
<g id="honey">
	<g id="fill">
		<path style="fill:#ABEBF4;" d="M351.742,210.861c-28.59-43.839,10.483-82.912,10.483-82.912H38.838
			c0,0,39.074,39.074,10.483,82.912C27.139,244.873-4.808,313.878,16.26,391.172c11.057,40.567,48.325,68.426,90.372,68.426h187.799
			c42.046,0,79.315-27.859,90.372-68.426C405.871,313.878,373.924,244.873,351.742,210.861z"/>
		<path style="fill:#8ED7E8;" d="M38.838,127.949c0,0,39.074,39.073,10.483,82.912C27.139,244.873-4.808,313.878,16.26,391.172
			c11.057,40.566,48.325,68.425,90.372,68.425h50.529c-18.808-30.613-49.399-95.198-29.786-168.244
			c25.385-94.541,155.986-90.501,223.609-81.679c-27.124-43.353,11.241-81.725,11.241-81.725H38.838z"/>
		<path style="fill:#FFEB99;" d="M16.26,391.172c11.057,40.566,48.325,68.426,90.372,68.426h187.799
			c42.046,0,79.315-27.859,90.372-68.426c15.249-55.945,2.723-107.542-13.77-144.677H30.03
			C13.537,283.63,1.011,335.227,16.26,391.172z"/>
		<path style="fill:#FFDE55;" d="M153.096,246.495H30.03C13.537,283.63,1.011,335.227,16.26,391.172
			c11.057,40.567,48.325,68.426,90.372,68.426h50.529c-18.808-30.613-49.399-95.199-29.786-168.244
			C132.34,272.861,141.337,258.146,153.096,246.495z"/>
		<path style="fill:#CCF8FF;" d="M351.099,162.597H49.964c-23.355,0-42.464-19.109-42.464-42.464v0
			c0-23.355,19.109-42.464,42.464-42.464h301.134c23.355,0,42.464,19.109,42.464,42.464v0
			C393.563,143.489,374.454,162.597,351.099,162.597z"/>
		<path style="fill:#FFB864;" d="M371.122,168.267l-38.435,18.962l94.164,233.229c8.772,21.727,34.165,31.412,55.178,21.045h0
			c21.013-10.367,28.779-36.411,16.875-56.593L371.122,168.267z"/>
		<path style="fill:#F4A651;" d="M371.122,168.267l-38.435,18.962l29.327,72.639c12.668-15.465,28.148-28.194,41.084-37.388
			L371.122,168.267z"/>
		<path style="fill:#FFDAAA;" d="M359.561,100.783l-73.392,36.208c-12.587,6.21-27.966,0.992-34.176-11.595v0
			c-6.21-12.587-0.992-27.966,11.595-34.176l73.392-36.208c12.587-6.21,27.966-0.992,34.176,11.595l0,0
			C377.366,79.194,372.148,94.573,359.561,100.783z"/>
		<path style="fill:#FFDAAA;" d="M400.172,183.1l-73.392,36.208c-12.587,6.21-27.966,0.992-34.176-11.595l0,0
			c-6.21-12.587-0.992-27.966,11.595-34.176l73.392-36.208c12.587-6.21,27.966-0.992,34.176,11.595l0,0
			C417.977,161.51,412.759,176.89,400.172,183.1z"/>
		<path style="fill:#FFC477;" d="M393.378,135.275l-100.414,49.54c-12.587,6.21-27.966,0.992-34.176-11.595l0,0
			c-6.21-12.587-0.992-27.966,11.595-34.176l100.414-49.54c12.587-6.21,27.966-0.992,34.176,11.595l0,0
			C411.183,113.686,405.965,129.066,393.378,135.275z"/>
		<path style="fill:#FFEB99;" d="M88.441,77.669v104.113c0,13.326,10.903,24.23,24.229,24.23l0,0
			c13.326,0,24.229-10.903,24.229-24.23V126.42c0-8.802,7.202-16.004,16.004-16.004c8.802,0,16.004,7.202,16.004,16.004v35.336
			c0,13.326,10.903,24.23,24.23,24.23h0c13.326,0,24.229-10.903,24.229-24.23V77.669H88.441z"/>
		<path style="fill:#57565C;" d="M281.188,362.845c-4.143,0-7.5-3.358-7.5-7.5v-12.451c0-4.142,3.357-7.5,7.5-7.5s7.5,3.358,7.5,7.5
			v12.451C288.688,359.487,285.331,362.845,281.188,362.845z"/>
		<path style="fill:#57565C;" d="M119.875,362.845c-4.143,0-7.5-3.358-7.5-7.5v-12.451c0-4.142,3.357-7.5,7.5-7.5s7.5,3.358,7.5,7.5
			v12.451C127.375,359.487,124.017,362.845,119.875,362.845z"/>
		<path style="fill:#57565C;" d="M200.531,370.698c-9.707,0-19.414-3.141-27.514-9.424c-3.273-2.539-3.868-7.25-1.329-10.523
			c2.537-3.274,7.25-3.869,10.522-1.33c10.787,8.367,25.854,8.367,36.641,0c3.271-2.539,7.984-1.944,10.522,1.33
			c2.539,3.273,1.944,7.984-1.329,10.523C219.945,367.557,210.238,370.698,200.531,370.698z"/>
	</g>
	<g id="stroke">
		<path d="M281.188,335.395c-4.143,0-7.5,3.358-7.5,7.5v12.451c0,4.142,3.357,7.5,7.5,7.5s7.5-3.358,7.5-7.5v-12.451
			C288.688,338.752,285.331,335.395,281.188,335.395z"/>
		<path d="M119.875,335.395c-4.143,0-7.5,3.358-7.5,7.5v12.451c0,4.142,3.357,7.5,7.5,7.5s7.5-3.358,7.5-7.5v-12.451
			C127.375,338.752,124.017,335.395,119.875,335.395z"/>
		<path d="M218.852,349.422c-10.787,8.367-25.853,8.367-36.641,0c-3.272-2.539-7.985-1.944-10.522,1.33
			c-2.539,3.273-1.944,7.984,1.329,10.523c8.1,6.283,17.807,9.424,27.514,9.424s19.414-3.141,27.514-9.424
			c3.273-2.539,3.868-7.25,1.329-10.523C226.836,347.478,222.123,346.883,218.852,349.422z"/>
		<path d="M505.364,381.1l-21.857-37.058c-2.104-3.567-6.703-4.754-10.27-2.65c-3.568,2.104-4.754,6.703-2.65,10.27l21.857,37.058
			c4.685,7.943,11.069,33.918-13.733,46.056c-24.803,12.138-41.452-8.575-44.905-17.127l-81.739-202.454l29.457-14.533
			l74.009,125.475c3.391,5.179,9.074,3.355,10.27,2.65c3.568-2.105,4.754-6.703,2.65-10.27l-73.439-124.51l8.478-4.183
			c7.884-3.89,14.05-10.558,16.63-19.013c6.298-20.636-7.856-34.525-12.371-37.662c7.829-9.709,9.82-23.469,3.949-35.37
			c-3.89-7.884-14.286-18.738-30.493-18.391c0.257-5.513-0.841-11.07-3.323-16.101c-8.056-16.328-27.893-23.056-44.221-15.002
			l-44.356,21.883H49.964C22.414,70.169,0,92.583,0,120.133c0,54.078,51.761,49.964,51.761,49.964
			c1.779,12.728-1.137,25.036-8.722,36.666c-5.449,8.355-12.855,20.918-19.885,36.741c-0.016,0.036-0.032,0.071-0.048,0.108
			C6.95,280.014-7.192,333.649,9.024,393.144c11.868,43.543,52.006,73.954,97.607,73.954h187.799
			c45.602,0,85.739-30.411,97.607-73.954c2.314-8.488,4.066-17.122,5.259-25.854l22.6,55.975
			c18.027,42.185,58.825,28.233,65.451,24.964c11.88-5.861,20.865-16.504,24.65-29.199
			C513.783,406.335,512.094,392.51,505.364,381.1z M396.854,176.374l-73.392,36.208c-14.31,5.552-22.015-3.896-24.132-8.188
			c-2.141-4.339-2.396-9.405-0.792-13.966l95.911-47.318c4.596,1.494,8.432,4.755,10.591,9.132
			C409.437,161.152,405.765,171.978,396.854,176.374z M340.298,61.738c8.911-4.396,19.736-0.723,24.132,8.187
			c2.141,4.339,2.396,9.405,0.792,13.967l-53.927,26.604c-3.714,1.832-5.24,6.33-3.408,10.044c1.833,3.714,6.329,5.241,10.044,3.408
			l56.183-27.718c4.292-2.118,18.473-4.423,24.131,8.187c5.658,12.609-3.896,22.015-8.187,24.132l-100.414,49.539
			c-4.292,2.118-9.175,2.428-13.751,0.875c-4.577-1.553-8.264-4.771-10.38-9.062c-4.396-8.91-0.724-19.736,8.187-24.132
			l16.876-8.326c3.714-1.832,5.24-6.33,3.408-10.044c-1.833-3.714-6.329-5.241-10.044-3.408l-14.63,7.218
			c-4.596-1.494-8.431-4.755-10.591-9.132c-2.117-4.291-2.428-9.175-0.875-13.751c1.553-4.577,4.771-8.263,9.063-10.38
			L340.298,61.738z M249.403,155.097h-24.536V85.169h34.114c-7.238,3.97-12.659,10.43-15.342,18.338
			c-2.84,8.371-2.168,31.2,12.368,37.659C251.002,146.309,249.674,153.833,249.403,155.097z M152.904,102.916
			c-12.96,0-23.504,10.544-23.504,23.504v55.362c0,9.225-7.505,16.73-16.73,16.73s-16.729-7.505-16.729-16.73V85.169h113.926v76.586
			c0,9.225-7.505,16.729-16.73,16.729c-9.225,0-16.73-7.505-16.73-16.729V126.42C176.408,113.46,165.864,102.916,152.904,102.916z
			 M144.4,155.097V126.42c0-4.689,3.815-8.504,8.504-8.504c4.689,0,8.503,3.815,8.503,8.504v28.678H144.4z M15,120.133
			c0-19.279,15.685-34.964,34.964-34.964h30.977v69.928H49.964C30.685,155.097,15,139.412,15,120.133z M377.567,389.199
			c-10.094,37.033-44.281,62.898-83.136,62.898H106.632c-38.855,0-73.041-25.865-83.136-62.898
			c-14.454-53.029-2.879-101.262,11.446-135.204h37.568c4.142,0,7.5-3.358,7.5-7.5c0-4.142-3.358-7.5-7.5-7.5H41.856
			c5.003-9.989,9.897-18.133,13.747-24.037c9.255-14.19,13.019-29.242,11.28-44.861h14.058v11.684
			c0,17.496,14.234,31.73,31.729,31.73s31.73-14.234,31.73-31.73v-11.684h18.128c3.673,13.46,16,23.387,30.609,23.387
			c14.609,0,26.936-9.927,30.609-23.387h25.935c0.563,2.201,4.497,24.279,32.874,24.826c-0.258,5.514,0.84,11.074,3.323,16.108
			c5.745,11.645,21.892,24.23,44.221,15.003l8.478-4.183l6.922,17.144H103.475c-4.142,0-7.5,3.358-7.5,7.5
			c0,4.142,3.358,7.5,7.5,7.5h248.08l32.567,80.662C384.577,353.205,382.379,371.545,377.567,389.199z"/>
	</g>
</g>
<g>
</g>
<g>
</g>
<g>
</g>
<g>
</g>
<g>
</g>
<g>
</g>
<g>
</g>
<g>
</g>
<g>
</g>
<g>
</g>
<g>
</g>
<g>
</g>
<g>
</g>
<g>
</g>
<g>
</g>
</svg>
