<?xml version="1.0" encoding="iso-8859-1"?>
<!-- Generator: Adobe Illustrator 19.0.0, SVG Export Plug-In . SVG Version: 6.00 Build 0)  -->
<svg version="1.1" id="Layer_1" xmlns="http://www.w3.org/2000/svg" xmlns:xlink="http://www.w3.org/1999/xlink" x="0px" y="0px"
	 viewBox="0 0 511.994 511.994" style="enable-background:new 0 0 511.994 511.994;" xml:space="preserve">
<g id="pumpkin">
	<g id="fill_2_">
		<path style="fill:#C68D6D;" d="M176.567,135.164c0,0,43.007-29.714,36.227-98.42c-1.172-11.873,7.033-22.643,18.772-24.773
			l22.646-4.109c8.032-1.457,16.212,1.466,21.544,7.646c16.37,18.971,49.225,63.609,52.728,119.655
			C327.545,136.102,176.567,135.164,176.567,135.164z"/>
		<path style="fill:#B2785B;" d="M211.261,75.356c-8.027,41.376-34.694,59.807-34.694,59.807s150.978,0.938,151.917,0
			c-2.694-43.103-22.741-79.449-39.307-102.572C277.047,48.93,254.208,66.983,211.261,75.356z"/>
		<path style="fill:#8DC971;" d="M445.271,152.427c-6.474-17.784-1.554-31.641,4.825-40.954c3.504-5.116,0.453-12.044-5.687-12.913
			c-11.177-1.58-24.721-7.306-33.471-24.087c-3.996-7.664-14.089-9.408-20.322-3.419c-13.083,12.57-34.794,26.089-61.62,15.19
			c-9.531-3.873-19.739,4.155-17.865,14.27c4.526,24.439,2.219,55.968-29.308,77.364c37.068-8.815,61.886,10.767,76.861,30.604
			c6.198,8.211,19.011,6.099,22.588-3.547c10.068-27.149,34.698-34.04,52.804-35.206C442.7,169.173,448.228,160.549,445.271,152.427
			z"/>
		<path style="fill:#9AD880;" d="M399.623,93.553c-13.103-13.657-14.196-28.321-12.12-39.416c1.141-6.095-4.448-11.202-10.416-9.518
			c-10.863,3.066-25.566,3.296-40.346-8.525c-6.75-5.398-16.688-2.919-19.973,5.076c-6.895,16.782-21.3,37.916-50.243,38.773
			c-10.283,0.305-16.381,11.77-10.584,20.268c14.007,20.532,24.625,50.308,4.419,82.611c30.354-23.03,60.965-15.134,82.674-3.03
			c8.986,5.01,19.855-2.095,19.234-12.364c-1.749-28.903,18.003-45.151,34.096-53.527C404.031,109.911,405.607,99.79,399.623,93.553
			z"/>
		<ellipse style="fill:#FFB05A;" cx="150.687" cy="310.884" rx="132.813" ry="193.61"/>
		<ellipse style="fill:#FFB05A;" cx="361.307" cy="310.884" rx="132.813" ry="193.61"/>
		<path style="fill:#FFA143;" d="M283.5,310.884c0-51.296-13.679-97.924-36.016-132.567h-96.673c0,0-69.201,58.707-65.536,208.267
			c0.835,34.058-2.713,62.056-8.675,85.011c21.163,20.773,46.654,32.898,74.087,32.898C224.037,504.494,283.5,417.811,283.5,310.884
			z"/>
		<path style="fill:#FFA143;" d="M228.494,310.884c0-51.296,13.679-97.924,36.016-132.567h96.673c0,0,69.201,58.707,65.536,208.267
			c-0.835,34.058,2.712,62.058,8.673,85.013c-21.164,20.773-46.653,32.897-74.085,32.897
			C287.956,504.494,228.494,417.811,228.494,310.884z"/>
		<ellipse style="fill:#FFC477;" cx="255.997" cy="310.884" rx="144.341" ry="193.61"/>
		<path style="fill:#57565C;" d="M255.996,345.21L255.996,345.21c-15.52,0-28.1-12.581-28.1-28.1v-20.43
			c0-4.237,3.434-7.671,7.671-7.671h40.859c4.237,0,7.671,3.434,7.671,7.671v20.43C284.096,332.629,271.516,345.21,255.996,345.21z"
			/>
		<ellipse style="fill:#FF8DAE;" cx="162.001" cy="317.11" rx="29.973" ry="23.869"/>
		<ellipse style="fill:#FF8DAE;" cx="349.993" cy="317.11" rx="29.973" ry="23.869"/>
		<path style="fill:#57565C;" d="M336.654,304.007c-4.143,0-7.5-3.358-7.5-7.5v-12.451c0-4.142,3.357-7.5,7.5-7.5
			c4.143,0,7.5,3.358,7.5,7.5v12.451C344.154,300.649,340.796,304.007,336.654,304.007z"/>
		<path style="fill:#57565C;" d="M175.34,304.007c-4.143,0-7.5-3.358-7.5-7.5v-12.451c0-4.142,3.357-7.5,7.5-7.5
			c4.143,0,7.5,3.358,7.5,7.5v12.451C182.84,300.649,179.483,304.007,175.34,304.007z"/>
	</g>
	<g id="stroke_2_">
		<path d="M336.654,304.007c4.143,0,7.5-3.358,7.5-7.5v-12.451c0-4.142-3.357-7.5-7.5-7.5c-4.142,0-7.5,3.358-7.5,7.5v12.451
			C329.154,300.649,332.511,304.007,336.654,304.007z"/>
		<path d="M175.34,276.557c-4.143,0-7.5,3.358-7.5,7.5v12.451c0,4.142,3.357,7.5,7.5,7.5c4.143,0,7.5-3.358,7.5-7.5v-12.451
			C182.84,279.915,179.483,276.557,175.34,276.557z"/>
		<path d="M220.396,296.68v20.43c0,19.63,15.97,35.6,35.6,35.6c19.629,0,35.6-15.97,35.601-35.6v-20.43
			c0-8.365-6.806-15.171-15.171-15.171h-40.859C227.202,281.509,220.396,288.315,220.396,296.68z M276.597,296.68v20.43
			c-0.001,11.359-9.242,20.601-20.601,20.601s-20.6-9.241-20.6-20.6v-20.43C235.396,296.586,276.597,296.586,276.597,296.68z"/>
		<path d="M453.454,159.009c0.313-3.056-0.054-6.176-1.135-9.147c-4.475-12.289-3.141-23.778,3.964-34.149
			c3.122-4.558,3.664-10.282,1.45-15.311c-2.216-5.029-6.804-8.494-12.275-9.267c-12.447-1.76-21.824-8.533-27.87-20.128
			c-3.023-5.799-8.431-9.727-14.834-10.776c-2.893-0.473-5.776-0.315-8.501,0.414c0.099-1.684,0.298-3.391,0.624-5.127
			c1.017-5.431-0.799-10.886-4.856-14.593c-4.058-3.706-9.654-5.022-14.97-3.522c-12.098,3.416-23.412,1.005-33.625-7.164
			c-5.106-4.084-11.639-5.495-17.921-3.87c-6.23,1.612-11.215,5.968-13.674,11.952c-1.038,2.527-2.139,4.871-3.292,7.05
			c-9.034-15.056-18.344-26.926-25.106-34.762c-7.044-8.164-17.986-12.044-28.56-10.125l-22.646,4.108
			c-15.503,2.813-26.439,17.259-24.897,32.889c0.579,5.864,0.794,11.669,0.64,17.254c-0.114,4.141,3.15,7.59,7.29,7.704
			c4.139,0.121,7.59-3.15,7.704-7.29c0.171-6.212-0.066-12.653-0.707-19.142c-0.781-7.912,4.775-15.229,12.647-16.657l22.646-4.108
			c5.374-0.976,10.936,1.006,14.526,5.166c7.191,8.333,17.446,21.531,26.921,38.413c-9.973,10.392-21.474,13.353-30.695,13.626
			c-7.579,0.225-14.423,4.556-17.861,11.304c-3.429,6.73-2.942,14.464,1.304,20.686c1.218,1.785,2.358,3.581,3.428,5.381
			c-36.342,2.75-53.241,12.62-53.892,12.277c5.928-8.221,12.555-19.881,16.877-35.004c1.138-3.982-1.167-8.134-5.15-9.272
			c-3.982-1.135-8.133,1.168-9.272,5.15c-4.233,14.809-10.972,25.753-16.514,32.889c-11.207-4.045-22.76-6.086-34.536-6.086
			c-38.023,0-73.572,21.296-100.098,59.964c-25.933,37.805-40.215,87.931-40.215,141.146c0,53.215,14.282,103.341,40.215,141.146
			c26.526,38.668,62.075,59.964,100.098,59.964c17.548,0,34.58-4.539,50.713-13.47c17.204,8.775,35.683,13.47,54.597,13.47
			c40.981,0,79.364-21.21,108.077-59.724c28.222-37.855,43.764-88.066,43.764-141.386c0-53.319-15.542-103.531-43.764-141.386
			c-11.309-15.168-24.122-27.64-37.998-37.202c11.397-4.991,23.204-7.522,35.231-7.522c69.098,0,125.313,83.489,125.313,186.11
			c0,102.622-56.216,186.11-125.313,186.11c-5.692,0-11.417-0.577-17.016-1.715c-4.068-0.828-8.018,1.796-8.844,5.855
			c-0.825,4.06,1.797,8.019,5.855,8.844c6.58,1.337,13.31,2.016,20.004,2.016c38.023,0,73.572-21.296,100.098-59.964
			c25.934-37.805,40.216-87.931,40.216-141.146C501.62,204.597,456.184,162.422,453.454,159.009z M392.838,310.883
			c0,102.622-61.387,186.11-136.841,186.11c-43.7,0-85.164-28.869-110.915-77.225c-1.946-3.656-6.488-5.041-10.145-3.094
			c-3.656,1.947-5.042,6.489-3.095,10.145c14.201,26.667,32.905,47.96,54.225,62.587c-11.436,5.033-23.287,7.587-35.381,7.587
			c-69.098,0-125.313-83.489-125.313-186.11c0-102.621,56.215-186.11,125.313-186.11c12.037,0,23.844,2.524,35.24,7.517
			c-13.88,9.563-26.696,22.036-38.007,37.207c-28.222,37.855-43.764,88.066-43.764,141.386c0,30.548,5.024,59.883,14.933,87.188
			c1.413,3.894,5.716,5.902,9.609,4.492c3.894-1.413,5.904-5.715,4.492-9.609c-9.312-25.66-14.033-53.272-14.033-82.07
			c0-102.621,61.387-186.11,136.841-186.11S392.838,208.262,392.838,310.883z M310.764,123.144
			c-12.772-6.511-26.243-10.713-40.125-12.451c-2.358-4.937-5.202-9.869-8.502-14.708c-1.599-2.342-0.764-4.573-0.33-5.423
			c0.964-1.891,2.811-3.058,4.941-3.121c17.999-0.534,45.119-10.078,56.958-43.419c0.779-2.194,2.607-2.886,3.556-3.132
			c1.666-0.431,3.43-0.065,4.795,1.063c22.93,18.939,47.528,9.755,47.846,10.045c0.317,0.29-6.821,26.465,14.309,46.748
			c1.277,1.226,1.768,2.983,1.49,4.679c-0.159,0.967-0.734,2.749-2.798,3.823c-3.062,1.593-5.987,3.322-8.74,5.155
			c-7.48-1.732-15.116-2.63-22.857-2.63C343.846,109.773,326.859,114.276,310.764,123.144z M402.861,118.628
			c4.067-3.109,6.792-7.61,7.641-12.767c1.053-6.403-0.939-12.781-5.467-17.5c-3.762-3.92-6.535-8.123-8.344-12.578
			c1.418-0.905,5.644-1.862,7.596,2.158c13.721,28.258,39.545,28.113,39.718,28.507c0.174,0.393-11.421,12.701-9.167,32.915
			C424.822,130.524,414.094,123.565,402.861,118.628z"/>
	</g>
</g>
<g>
</g>
<g>
</g>
<g>
</g>
<g>
</g>
<g>
</g>
<g>
</g>
<g>
</g>
<g>
</g>
<g>
</g>
<g>
</g>
<g>
</g>
<g>
</g>
<g>
</g>
<g>
</g>
<g>
</g>
</svg>
