<?xml version="1.0" encoding="iso-8859-1"?>
<!-- Generator: Adobe Illustrator 19.0.0, SVG Export Plug-In . SVG Version: 6.00 Build 0)  -->
<svg version="1.1" id="Layer_1" xmlns="http://www.w3.org/2000/svg" xmlns:xlink="http://www.w3.org/1999/xlink" x="0px" y="0px"
	 viewBox="0 0 511.918 511.918" style="enable-background:new 0 0 511.918 511.918;" xml:space="preserve">
<g id="acorn">
	<g id="fill_3_">
		<path style="fill:#A56950;" d="M255.933,138.72L255.933,138.72c-16.655,0-30.282-13.627-30.282-30.282V37.782
			c0-16.655,13.627-30.282,30.282-30.282l0,0c16.655,0,30.282,13.627,30.282,30.282v70.657
			C286.215,125.094,272.588,138.72,255.933,138.72z"/>
		<path style="fill:#FFC477;" d="M409.836,237.867H102.031c0,0-29.03,188.216,108.731,256.103c28.493,14.04,61.849,14.04,90.341,0
			C438.865,426.083,409.836,237.867,409.836,237.867z"/>
		<path style="fill:#FFB05A;" d="M394.266,299.892v-62.026H102.031c0,0-29.03,188.217,108.731,256.103
			c17.179,8.466,36.136,11.826,54.719,10.083c-19.158-16.74-31.632-35.848-39.666-54.499c-17.003-39.469,7.829-84.461,50.231-91.463
			C360.142,344.202,394.266,299.892,394.266,299.892z"/>
		<path style="fill:#C68D6D;" d="M255.933,65.962c-96.239,0-176.711,67.505-196.651,157.747
			c-5.891,26.663,7.718,53.785,32.423,65.418c33.066,15.569,88.03,33.781,164.228,33.781s131.162-18.212,164.228-33.781
			c24.705-11.632,38.314-38.754,32.423-65.418C432.645,133.467,352.172,65.962,255.933,65.962z"/>
		<path style="fill:#B2785B;" d="M250.855,157.284l-17.437-17.437c-5.239-5.239-5.239-13.734,0-18.973l17.437-17.437
			c5.239-5.239,13.734-5.239,18.973,0l17.437,17.437c5.239,5.239,5.239,13.734,0,18.973l-17.437,17.437
			C264.589,162.523,256.095,162.523,250.855,157.284z"/>
		<path style="fill:#B2785B;" d="M314.93,221.359l-17.437-17.437c-5.239-5.239-5.239-13.734,0-18.973l17.437-17.437
			c5.239-5.239,13.734-5.239,18.973,0l17.437,17.437c5.239,5.239,5.239,13.734,0,18.973l-17.437,17.437
			C328.664,226.598,320.169,226.598,314.93,221.359z"/>
		<path style="fill:#B2785B;" d="M250.855,285.433l-17.437-17.437c-5.239-5.239-5.239-13.734,0-18.973l17.437-17.437
			c5.239-5.239,13.734-5.239,18.973,0l17.437,17.437c5.239,5.239,5.239,13.734,0,18.973l-17.437,17.437
			C264.589,290.672,256.095,290.672,250.855,285.433z"/>
		<path style="fill:#57565C;" d="M336.59,389.483c-4.143,0-7.5-3.358-7.5-7.5v-12.451c0-4.142,3.357-7.5,7.5-7.5s7.5,3.358,7.5,7.5
			v12.451C344.09,386.126,340.733,389.483,336.59,389.483z"/>
		<path style="fill:#57565C;" d="M175.277,389.483c-4.143,0-7.5-3.358-7.5-7.5v-12.451c0-4.142,3.357-7.5,7.5-7.5
			c4.143,0,7.5,3.358,7.5,7.5v12.451C182.777,386.126,179.419,389.483,175.277,389.483z"/>
		<path style="fill:#57565C;" d="M255.933,397.336c-9.707,0-19.414-3.141-27.514-9.424c-3.273-2.539-3.868-7.25-1.329-10.523
			c2.537-3.274,7.25-3.869,10.522-1.33c10.787,8.367,25.854,8.367,36.641,0c3.271-2.539,7.984-1.944,10.522,1.33
			c2.539,3.273,1.944,7.984-1.329,10.523C275.347,394.195,265.64,397.336,255.933,397.336z"/>
		<path style="fill:#B2785B;" d="M184.041,79.173C121.533,103.07,73.974,157.219,59.283,223.709
			c-5.891,26.663,7.718,53.785,32.423,65.418c28.067,13.215,71.931,28.336,131.145,32.606
			C122.43,248.754,161.904,128.42,184.041,79.173z"/>
	</g>
	<g id="stroke_3_">
		<path d="M336.59,389.483c4.143,0,7.5-3.358,7.5-7.5v-12.451c0-4.142-3.357-7.5-7.5-7.5c-4.142,0-7.5,3.358-7.5,7.5v12.451
			C329.09,386.126,332.448,389.483,336.59,389.483z"/>
		<path d="M175.277,389.483c4.143,0,7.5-3.358,7.5-7.5v-12.451c0-4.142-3.357-7.5-7.5-7.5c-4.143,0-7.5,3.358-7.5,7.5v12.451
			C167.777,386.126,171.134,389.483,175.277,389.483z"/>
		<path d="M228.42,387.913c8.1,6.283,17.807,9.424,27.514,9.424s19.414-3.141,27.514-9.424c3.273-2.539,3.868-7.25,1.329-10.523
			c-2.538-3.274-7.251-3.868-10.522-1.33c-10.787,8.367-25.853,8.367-36.641,0c-3.272-2.539-7.985-1.945-10.522,1.33
			C224.552,380.663,225.146,385.374,228.42,387.913z"/>
		<path d="M459.907,222.091c-10.099-45.703-35.776-87.225-72.306-116.916c-37.06-30.123-83.82-46.712-131.668-46.712
			c-7.633,0-15.238,0.427-22.781,1.259V37.782c0-12.562,10.22-22.782,22.781-22.782c11.513,0,21.235,8.62,22.618,20.05
			c0.497,4.113,4.238,7.045,8.346,6.545c4.112-0.497,7.043-4.234,6.545-8.346C291.151,14.294,275.025,0,255.933,0
			c-20.833,0-37.781,16.949-37.781,37.782v24.155c-34.251,6.319-66.684,21.126-93.887,43.238
			c-36.529,29.691-62.207,71.213-72.306,116.916c-3.212,14.537-1.313,29.916,5.346,43.304c6.629,13.326,21.188,26.624,35.136,32.321
			c1.897,39.139,9.655,74.519,23.114,105.195c19.503,44.449,50.42,77.349,91.892,97.786c15.181,7.48,31.833,11.221,48.486,11.221
			c16.653,0,33.306-3.74,48.486-11.221c42.063-20.728,73.252-54.257,92.702-99.656c15.771-36.814,20.933-75.355,22.316-103.323
			c1.335-0.605,22.986-8.998,35.123-32.324C461.463,252.131,463.119,236.628,459.907,222.091z M416.966,282.341
			c-32.037,15.085-85.981,33.067-161.032,33.067c-31.46,0-61.9-3.183-90.477-9.461c-4.043-0.889-8.046,1.67-8.935,5.716
			c-0.889,4.046,1.67,8.046,5.716,8.935c29.632,6.51,61.156,9.811,93.696,9.811c64.403,0,113.965-12.847,148.091-26.197
			c-1.819,25.85-7.083,59.163-20.69,90.923c-18.001,42.017-46.782,73.006-85.545,92.107c-26.209,12.915-57.502,12.915-83.711,0
			c-38.216-18.832-66.742-49.233-84.786-90.357c-11.896-27.112-19.084-58.25-21.447-92.677c8.493,3.324,17.277,6.371,26.298,9.092
			c3.966,1.196,8.15-1.049,9.347-5.014c1.196-3.966-1.049-8.15-5.015-9.347c-15.371-4.637-30.032-10.221-43.574-16.598
			c-21.809-10.268-33.443-33.713-28.295-57.014c9.371-42.411,33.208-80.948,67.12-108.513
			c34.394-27.957,77.795-43.353,122.207-43.353s87.814,15.396,122.207,43.353c33.912,27.564,57.749,66.102,67.12,108.513
			C450.409,248.628,438.774,272.073,416.966,282.341z"/>
		<path d="M245.552,162.587c4.078,4.078,9.434,6.116,14.79,6.116c5.355,0,10.713-2.039,14.79-6.116l17.438-17.437
			c8.154-8.155,8.154-21.424,0-29.579l-17.438-17.437c-8.156-8.155-21.424-8.155-29.58,0l-17.437,17.437
			c-3.95,3.95-6.126,9.203-6.126,14.79c0,5.587,2.176,10.839,6.126,14.79L245.552,162.587z M238.723,126.177l17.437-17.437
			c3.651-3.584,7.248-1.117,8.365,0l17.438,17.437c2.307,2.307,2.307,6.06,0,8.366l-17.438,17.437c-4.182,4.112-7.248,1.117-8.365,0
			l-17.437-17.437C237.604,133.426,235.1,130.36,238.723,126.177z"/>
		<path d="M339.207,162.208c-8.156-8.156-21.425-8.154-29.581,0l-17.436,17.437c-8.154,8.155-8.154,21.424,0,29.58l17.436,17.437
			c4.078,4.078,9.435,6.117,14.79,6.117c5.357,0,10.713-2.039,14.791-6.117l17.437-17.437c8.154-8.156,8.154-21.425,0-29.58
			L339.207,162.208z M346.036,198.619l-17.436,17.437c-3.695,3.373-7.249,1.117-8.366,0l-17.436-17.437
			c-2.307-2.307-2.307-6.06,0-8.367l17.436-17.437c3.705-3.645,7.249-1.117,8.366,0l17.436,17.437
			C348.343,192.559,348.343,196.312,346.036,198.619z"/>
		<path d="M275.132,226.283c-8.156-8.155-21.424-8.155-29.58,0l-17.437,17.437c-8.154,8.155-8.154,21.424,0,29.58l17.437,17.436
			c4.078,4.078,9.434,6.116,14.79,6.116c5.355,0,10.713-2.039,14.789-6.116l17.438-17.436c8.154-8.156,8.154-21.425,0-29.58
			L275.132,226.283z M281.963,262.693l-17.438,17.437c-3.483,3.576-7.248,1.117-8.365,0l-17.437-17.437
			c-2.307-2.307-2.307-6.06,0-8.367l17.437-17.437c3.611-3.455,7.248-1.117,8.365,0l17.438,17.437
			C284.268,256.633,284.268,260.387,281.963,262.693z"/>
	</g>
</g>
<g>
</g>
<g>
</g>
<g>
</g>
<g>
</g>
<g>
</g>
<g>
</g>
<g>
</g>
<g>
</g>
<g>
</g>
<g>
</g>
<g>
</g>
<g>
</g>
<g>
</g>
<g>
</g>
<g>
</g>
</svg>
