<?xml version="1.0" encoding="iso-8859-1"?>
<!-- Generator: Adobe Illustrator 19.0.0, SVG Export Plug-In . SVG Version: 6.00 Build 0)  -->
<svg version="1.1" id="Layer_1" xmlns="http://www.w3.org/2000/svg" xmlns:xlink="http://www.w3.org/1999/xlink" x="0px" y="0px"
	 viewBox="0 0 511.957 511.957" style="enable-background:new 0 0 511.957 511.957;" xml:space="preserve">
<g id="mushroom">
	<g id="fill_4_">
		<path style="fill:#FFC477;" d="M323.719,434.804c0,37.412-30.329,61.154-67.741,61.154s-67.741-23.741-67.741-61.154
			s30.329-215.25,67.741-215.25S323.719,397.392,323.719,434.804z"/>
		<path style="fill:#FFB05A;" d="M255.978,219.554c-29.39,0-54.408,109.744-63.786,174.948c16.506-6.293,36.418-10.736,57.632-8.612
			c32.118,3.215,53.634-6.73,66.057-15.67C304.515,305.284,281.954,219.554,255.978,219.554z"/>
		<ellipse style="fill:#FFDAAA;" cx="255.978" cy="227.338" rx="201.75" ry="109.465"/>
		<path style="fill:#FFC477;" d="M255.978,117.873c-111.423,0-201.75,49.009-201.75,109.465c0,60.456,90.326,109.465,201.75,109.465
			c20.068,0,39.423-1.585,57.718-4.545c49.46-28.211,56.193-65.2,56.193-65.2V136.985
			C337.472,124.93,298.247,117.873,255.978,117.873z"/>
		<path style="fill:#AA8F88;" d="M473.037,231.367c26.496-16.631,38.073-49.545,27.621-79.03
			C472.873,73.966,373.861,15.999,255.978,15.999S39.083,73.966,11.299,152.337c-10.453,29.485,1.124,62.399,27.621,79.03
			c33.833,21.236,98.053,44.495,217.059,44.495S439.204,252.602,473.037,231.367z"/>
		<path style="fill:#9B807B;" d="M62.92,80.407c-24.178,20.565-42.09,45.048-51.621,71.93c-10.453,29.485,1.125,62.399,27.621,79.03
			c22.499,14.121,58.45,29.14,114.997,37.616C84.543,218.626,67.122,129.382,62.92,80.407z"/>
		<path style="fill:#57565C;" d="M255.978,228.74L255.978,228.74c-15.52,0-28.1-12.581-28.1-28.1v-20.43
			c0-4.237,3.434-7.671,7.671-7.671h40.859c4.237,0,7.671,3.434,7.671,7.671v20.43C284.078,216.159,271.498,228.74,255.978,228.74z"
			/>
		<ellipse style="fill:#FFA6BB;" cx="161.983" cy="200.64" rx="29.973" ry="23.869"/>
		<ellipse style="fill:#FFA6BB;" cx="349.974" cy="200.64" rx="29.973" ry="23.869"/>
		<path style="fill:#57565C;" d="M336.635,187.537c-4.143,0-7.5-3.358-7.5-7.5v-12.451c0-4.142,3.357-7.5,7.5-7.5
			c4.143,0,7.5,3.358,7.5,7.5v12.451C344.135,184.179,340.778,187.537,336.635,187.537z"/>
		<path style="fill:#57565C;" d="M175.322,187.537c-4.143,0-7.5-3.358-7.5-7.5v-12.451c0-4.142,3.357-7.5,7.5-7.5s7.5,3.358,7.5,7.5
			v12.451C182.822,184.179,179.464,187.537,175.322,187.537z"/>
		<path style="fill:#F2D6C4;" d="M243.956,98.364c43.213,0.206,78.79-32.917,82.431-75.227c-22.348-4.647-45.972-7.138-70.408-7.138
			c-32.848,0-64.228,4.5-93.013,12.689C169.047,67.987,202.92,98.168,243.956,98.364z"/>
		<path style="fill:#F2D6C4;" d="M111.294,100.948c0-16.612-6.588-31.685-17.27-42.774c-39.139,23.507-68.197,55.366-81.848,91.757
			c10.382,7.947,23.367,12.683,37.451,12.683C83.685,162.615,111.294,135.006,111.294,100.948z"/>
		<circle style="fill:#F2D6C4;" cx="402.755" cy="108.75" r="22.808"/>
		<path style="fill:#E5C7B7;" d="M12.177,149.932c10.382,7.947,23.367,12.683,37.451,12.683c10.056,0,19.548-2.406,27.935-6.676
			c-8.925-28.308-12.911-55.354-14.643-75.532C39.471,100.354,21.905,123.998,12.177,149.932z"/>
	</g>
	<g id="stroke_4_">
		<path d="M329.135,167.587v12.451c0,4.142,3.358,7.5,7.5,7.5c4.143,0,7.5-3.358,7.5-7.5v-12.451c0-4.142-3.357-7.5-7.5-7.5
			C332.493,160.087,329.135,163.444,329.135,167.587z"/>
		<path d="M167.822,167.587v12.451c0,4.142,3.357,7.5,7.5,7.5c4.143,0,7.5-3.358,7.5-7.5v-12.451c0-4.142-3.357-7.5-7.5-7.5
			C171.179,160.087,167.822,163.444,167.822,167.587z"/>
		<path d="M507.727,149.831C491.939,105.3,454.212,66.549,401.493,40.715c-3.722-1.824-8.213-0.285-10.036,3.435
			c-1.822,3.72-0.284,8.212,3.436,10.035c49.177,24.098,84.228,59.846,98.696,100.658c9.203,25.959-1.117,55.471-24.539,70.171
			c-57.08,35.827-147.375,43.348-213.071,43.348s-155.991-7.521-213.071-43.348c-21.403-13.433-31.855-39.231-26.479-63.386
			c10.122,5.57,21.423,8.486,33.199,8.486c38.139,0,69.166-31.028,69.166-69.166c0-14.795-4.671-28.951-13.286-40.728
			c16.152-8.949,33.496-16.327,51.756-22.06c4.485,17.63,14.29,33.626,28.168,45.691c16.212,14.093,36.982,21.911,58.487,22.014
			c0.146,0,0.289,0.001,0.435,0.001c22.558,0,44.111-8.389,60.728-23.646c14.523-13.334,24.155-30.855,27.647-50.014
			c11.8,2.774,23.348,6.197,34.598,10.285c3.895,1.417,8.196-0.594,9.61-4.487c1.415-3.893-0.595-8.196-4.487-9.611
			C336.123,15.192,296.936,8.499,255.978,8.499c-118.724,0-222.246,58.118-251.749,141.332c-5.62,15.854-5.64,33.37-0.055,49.32
			c5.575,15.921,24.044,39.083,45.11,46.683c7.611,27.297,32.117,52.088,69.424,70.088c37.934,18.302,86.685,28.382,137.27,28.382
			c16.035,0,31.664-1.006,46.696-2.903c8.509,40.178,13.545,78.447,13.545,93.404c0,15.704-5.965,29.167-17.25,38.936
			c-10.964,9.491-26.231,14.718-42.991,14.718s-32.027-5.227-42.991-14.718c-11.285-9.769-17.25-23.232-17.25-38.936
			c0-10.813,2.848-37.123,9.208-71.526c0.753-4.073-1.939-7.986-6.012-8.739c-4.066-0.754-7.985,1.938-8.738,6.011
			c-5.657,30.598-9.458,60.439-9.458,74.254c0,39.781,31.644,68.654,75.241,68.654s75.241-28.873,75.241-68.654
			c0-15.607-5.08-54.751-13.677-95.603c75.151-12.793,132.61-48.47,145.13-93.368c23.75-11.861,39.534-30.762,45.11-46.683
			C513.367,183.201,513.347,165.685,507.727,149.831z M318.038,29.121c-2.849,16.106-10.901,30.848-23.1,42.048
			c-13.842,12.71-31.793,19.696-50.585,19.696c-0.12,0-0.241-0.001-0.361-0.001c-17.915-0.085-35.217-6.596-48.718-18.334
			c-11.684-10.158-19.911-23.648-23.593-38.505c26.666-6.945,55.034-10.526,84.297-10.526
			C277.234,23.499,297.972,25.393,318.038,29.121z M92.533,67.925c7.292,9.442,11.261,20.961,11.261,33.023
			c0,29.868-24.299,54.166-54.166,54.166c-10.107,0-19.765-2.743-28.25-7.959C34.295,116.848,59.11,89.231,92.533,67.925z
			 M388.313,301.639c-36.175,17.839-83.172,27.664-132.335,27.664c-48.375,0-94.81-9.55-130.753-26.892
			c-26.995-13.024-46.368-29.549-56.18-47.603c57.708,23.133,131.047,28.553,186.932,28.553c55.885,0,129.223-5.42,186.931-28.552
			C433.308,272.49,414.542,288.705,388.313,301.639z"/>
		<path d="M235.549,165.039c-8.365,0-15.171,6.806-15.171,15.171v20.43c0,19.63,15.97,35.6,35.6,35.6s35.601-15.97,35.602-35.6
			v-20.43c0-8.365-6.806-15.171-15.171-15.171H235.549z M276.579,180.21v20.43c-0.001,11.359-9.242,20.601-20.602,20.601
			c-11.358,0-20.6-9.241-20.6-20.6c0,0,0.077-20.601,0.171-20.601C235.549,180.039,276.579,180.116,276.579,180.21z"/>
		<path d="M381.324,130.18c5.724,5.725,13.335,8.877,21.431,8.877s15.706-3.153,21.431-8.877c5.724-5.725,8.877-13.335,8.877-21.431
			c0-8.096-3.153-15.707-8.877-21.431c-5.725-5.725-13.335-8.877-21.431-8.877s-15.707,3.152-21.432,8.877
			C369.508,99.136,369.508,118.363,381.324,130.18z M391.93,97.926c2.891-2.891,6.735-4.483,10.824-4.483
			c4.089,0,7.933,1.592,10.824,4.483c2.891,2.891,4.483,6.735,4.483,10.824s-1.593,7.933-4.484,10.824
			c-2.891,2.891-6.734,4.483-10.823,4.483c-4.089,0-7.934-1.592-10.824-4.483C385.963,113.605,385.962,103.894,391.93,97.926z"/>
	</g>
</g>
<g>
</g>
<g>
</g>
<g>
</g>
<g>
</g>
<g>
</g>
<g>
</g>
<g>
</g>
<g>
</g>
<g>
</g>
<g>
</g>
<g>
</g>
<g>
</g>
<g>
</g>
<g>
</g>
<g>
</g>
</svg>
