<?xml version="1.0" encoding="iso-8859-1"?>
<!-- Generator: Adobe Illustrator 19.0.0, SVG Export Plug-In . SVG Version: 6.00 Build 0)  -->
<svg version="1.1" id="Layer_1" xmlns="http://www.w3.org/2000/svg" xmlns:xlink="http://www.w3.org/1999/xlink" x="0px" y="0px"
	 viewBox="0 0 512 512" style="enable-background:new 0 0 512 512;" xml:space="preserve">
<g id="apple">
	<g id="fill_5_">
		
			<ellipse transform="matrix(0.7071 0.7071 -0.7071 0.7071 157.9098 -196.5109)" style="fill:#B2E59C;" cx="316.165" cy="92.359" rx="49.968" ry="90.53"/>
		<path style="fill:#9AD880;" d="M323,27.113c-14.134,6.399-28.801,16.545-42.169,29.913
			c-35.354,35.354-48.196,79.834-28.682,99.348c19.514,19.514,63.993,6.673,99.348-28.682c9.751-9.751,17.785-20.189,23.904-30.613
			C359.648,64.775,339.048,41.725,323,27.113z"/>
		<path style="fill:#B2785B;" d="M256,203.764L256,203.764c-16.546,0-30.083-13.538-30.083-30.084V37.583
			C225.917,21.038,239.454,7.5,256,7.5l0,0c16.546,0,30.083,13.538,30.083,30.083v136.097
			C286.083,190.227,272.546,203.764,256,203.764z"/>
		<path style="fill:#F27564;" d="M352.599,92.359c-24.172,0-46.829,10.074-66.336,27.668c-17.216,15.527-43.311,15.527-60.527,0
			c-19.507-17.593-42.164-27.668-66.336-27.668c-73.163,0-129.375,88.316-112.264,206.071
			C63.503,411.056,129.42,504.5,202.583,504.5c15.631,0,28.657-4.214,39.479-11.949c8.294-5.927,19.583-5.927,27.876,0
			c10.822,7.735,23.848,11.949,39.479,11.949c73.163,0,139.08-93.444,155.446-206.071
			C481.974,180.675,425.763,92.359,352.599,92.359z"/>
		<path style="fill:#E5675A;" d="M272.006,246.636c72.87-66.036,80.594-154.277,80.594-154.277
			c-24.172,0-46.829,10.074-66.336,27.667c-17.216,15.527-43.311,15.527-60.527,0c-19.507-17.593-42.164-27.667-66.336-27.667
			c-73.163,0-129.375,88.316-112.264,206.071C63.503,411.056,129.42,504.5,202.583,504.5c15.631,0,28.657-4.214,39.479-11.949
			c8.294-5.927,19.583-5.927,27.876,0c10.822,7.735,23.848,11.949,39.479,11.949c13.711,0,27.168-3.282,40.092-9.357
			c-60.02-29.496-91.907-70.54-108.532-108.902C220.08,338.02,233.063,281.926,272.006,246.636z"/>
		<path style="fill:#57565C;" d="M336.657,256.103c-4.143,0-7.5-3.358-7.5-7.5v-12.451c0-4.142,3.357-7.5,7.5-7.5s7.5,3.358,7.5,7.5
			v12.451C344.157,252.745,340.799,256.103,336.657,256.103z"/>
		<path style="fill:#57565C;" d="M175.343,256.103c-4.143,0-7.5-3.358-7.5-7.5v-12.451c0-4.142,3.357-7.5,7.5-7.5
			c4.143,0,7.5,3.358,7.5,7.5v12.451C182.843,252.745,179.486,256.103,175.343,256.103z"/>
		<path style="fill:#57565C;" d="M256,263.956c-9.707,0-19.414-3.141-27.514-9.424c-3.273-2.539-3.868-7.25-1.329-10.523
			c2.537-3.274,7.25-3.869,10.522-1.33c10.787,8.367,25.854,8.367,36.641,0c3.271-2.539,7.984-1.944,10.522,1.33
			c2.539,3.273,1.944,7.984-1.329,10.523C275.414,260.815,265.707,263.956,256,263.956z"/>
	</g>
	<g id="stroke_5_">
		<path d="M344.157,248.603v-12.451c0-4.142-3.357-7.5-7.5-7.5s-7.5,3.358-7.5,7.5v12.451c0,4.142,3.357,7.5,7.5,7.5
			S344.157,252.745,344.157,248.603z"/>
		<path d="M182.843,248.603v-12.451c0-4.142-3.357-7.5-7.5-7.5c-4.143,0-7.5,3.358-7.5,7.5v12.451c0,4.142,3.357,7.5,7.5,7.5
			C179.486,256.103,182.843,252.745,182.843,248.603z"/>
		<path d="M256,263.956c9.707,0,19.414-3.141,27.514-9.424c3.273-2.539,3.868-7.25,1.329-10.523
			c-2.538-3.274-7.251-3.868-10.522-1.33c-10.787,8.367-25.853,8.367-36.641,0c-3.272-2.539-7.985-1.945-10.522,1.33
			c-2.539,3.273-1.944,7.984,1.329,10.523C236.586,260.815,246.293,263.956,256,263.956z"/>
		<path d="M468.866,198.467c-7.025-29.394-19.634-55.213-36.464-74.665c-21.728-25.113-50.069-38.944-79.802-38.944
			c-20.507,0-40.657,6.771-59.016,19.715V55.356c30.477-26.727,66.489-36.513,81.293-21.709c6.377,6.377,8.432,17.179,5.787,30.416
			c-0.812,4.062,1.821,8.026,5.885,8.824c4.459,0.876,8.112-2.319,8.824-5.885c3.659-18.313,0.147-33.925-9.89-43.961
			c-19.18-19.181-56.986-13.218-91.937,13.033C292.749,16.048,276.217,0,256,0c-20.724,0-37.583,16.86-37.583,37.583v66.99
			c-18.359-12.945-38.509-19.715-59.016-19.715c-29.733,0-58.075,13.831-79.802,38.944c-16.83,19.452-29.439,45.271-36.464,74.665
			c-7.47,31.254-8.621,65.249-3.419,101.041c4.051,27.878,11.081,54.867,20.894,80.215c1.496,3.863,5.839,5.783,9.702,4.287
			c3.863-1.495,5.782-5.839,4.287-9.702c-9.407-24.3-16.149-50.192-20.039-76.958c-9.479-65.236,4.122-126.445,36.384-163.734
			c19.107-22.085,42.78-33.758,68.458-33.758c21.443,0,42.644,8.899,61.313,25.737c20.116,18.144,50.457,18.144,70.573,0
			c18.669-16.837,39.87-25.737,61.313-25.737c25.679,0,49.351,11.673,68.458,33.758c32.262,37.289,45.863,98.498,36.384,163.734
			c-7.865,54.124-27.41,104.515-55.034,141.892C374.88,476.488,341.855,497,309.417,497c-13.697,0-25.185-3.451-35.118-10.551
			c-10.945-7.822-25.652-7.823-36.598,0c-9.934,7.1-21.421,10.551-35.118,10.551c-42.581,0-85.907-35.651-115.899-95.367
			c-1.858-3.701-6.366-5.196-10.068-3.336c-3.701,1.859-5.195,6.367-3.336,10.068c15.475,30.812,34.978,56.542,56.399,74.406
			C152.607,501.893,177.817,512,202.583,512c16.698,0,31.448-4.491,43.84-13.348c5.729-4.093,13.426-4.093,19.154,0
			c12.392,8.857,27.142,13.348,43.84,13.348c37.317,0,74.626-22.673,105.054-63.843c29.068-39.331,49.601-92.122,57.814-148.649
			C477.486,263.716,476.336,229.722,468.866,198.467z M233.417,116.642V37.583C233.417,25.131,243.547,15,256,15
			c12.453,0,22.583,10.131,22.583,22.583v79.058C265.19,126.703,246.81,126.703,233.417,116.642z"/>
	</g>
</g>
<g>
</g>
<g>
</g>
<g>
</g>
<g>
</g>
<g>
</g>
<g>
</g>
<g>
</g>
<g>
</g>
<g>
</g>
<g>
</g>
<g>
</g>
<g>
</g>
<g>
</g>
<g>
</g>
<g>
</g>
</svg>
