<?xml version="1.0" encoding="iso-8859-1"?>
<!-- Generator: Adobe Illustrator 19.0.0, SVG Export Plug-In . SVG Version: 6.00 Build 0)  -->
<svg version="1.1" id="Layer_1" xmlns="http://www.w3.org/2000/svg" xmlns:xlink="http://www.w3.org/1999/xlink" x="0px" y="0px"
	 viewBox="0 0 512 512" style="enable-background:new 0 0 512 512;" xml:space="preserve">
<g id="basket">
	<g id="fill_6_">
		<path style="fill:#EAB9A4;" d="M123.565,251.025v-60.308c0-35.172,13.832-68.374,38.946-93.488
			C187.626,72.115,220.828,58.283,256,58.283c35.172,0,68.374,13.832,93.488,38.946c25.115,25.115,38.946,58.316,38.946,93.488
			v60.308h50.784v-60.308C439.218,89.948,356.77,7.5,256,7.5h0C155.23,7.5,72.782,89.948,72.782,190.718v60.308H123.565z"/>
		<path style="fill:#C68D6D;" d="M342.872,504.5H169.128c-53.21,0-96.346-43.135-96.346-96.346V214.066h366.436v194.089
			C439.218,461.365,396.082,504.5,342.872,504.5z"/>
		<path style="fill:#BC8264;" d="M72.782,214.066v194.089c0,53.21,43.135,96.346,96.346,96.346h47.43
			c-11.323-23.44-16.835-49.088-19.257-72.223c-3.269-31.239,16.083-59.983,45.92-69.799c17.26-5.678,25.503-18.409,25.503-18.409
			V214.066H72.782z"/>
		<path style="fill:#DD9F80;" d="M438.862,276.805H73.138c-17.253,0-31.37-14.116-31.37-31.37v0c0-17.253,14.116-31.37,31.37-31.37
			h365.723c17.253,0,31.37,14.116,31.37,31.37v0C470.231,262.689,456.115,276.805,438.862,276.805z"/>
		<path style="fill:#B2E59C;" d="M128.458,214.066h255.085l-96.267,117.252c-16.189,19.718-46.363,19.718-62.552,0L128.458,214.066z
			"/>
		<path style="fill:#A86F56;" d="M138.253,371.85L121.2,354.797c-4.799-4.799-4.799-12.581,0-17.38l17.053-17.053
			c4.799-4.799,12.581-4.799,17.38,0l17.053,17.053c4.799,4.799,4.799,12.581,0,17.38l-17.053,17.053
			C150.834,376.65,143.053,376.65,138.253,371.85z"/>
		<path style="fill:#BC8264;" d="M370.215,401.194l17.053-17.053c4.799-4.799,4.799-12.581,0-17.38l-17.053-17.053
			c-4.799-4.799-12.581-4.799-17.38,0l-17.053,17.053c-4.799,4.799-4.799,12.581,0,17.38l17.053,17.053
			C357.634,405.993,365.416,405.993,370.215,401.194z"/>
		<path style="fill:#BC8264;" d="M313.991,457.418l17.053-17.053c4.8-4.799,4.8-12.581,0-17.38l-17.053-17.053
			c-4.799-4.799-12.581-4.799-17.38,0l-17.053,17.053c-4.799,4.799-4.799,12.581,0,17.38l17.053,17.053
			C301.41,462.217,309.192,462.217,313.991,457.418z"/>
		<path style="fill:#9AD880;" d="M203.962,214.066h-75.504l96.267,117.252c16.189,19.718,46.363,19.718,62.552,0l11.316-13.783
			C258.188,293.325,222.532,243.363,203.962,214.066z"/>
	</g>
	<g id="stroke_6_">
		<path d="M477.731,245.436c0-18.742-13.334-34.428-31.014-38.072v-16.646c0-44.953-16.105-88.68-45.35-123.128
			c-2.681-3.158-7.414-3.543-10.571-0.863c-3.158,2.681-3.544,7.414-0.863,10.571c26.945,31.739,41.785,72.019,41.785,113.42v15.848
			h-35.784v-15.848c0-37.175-14.611-72.26-41.143-98.792C328.26,65.395,293.175,50.783,256,50.783s-72.26,14.611-98.792,41.143
			c-26.531,26.532-41.143,61.616-41.143,98.792v15.848H80.282v-15.848c0-46.733,18.334-90.805,51.624-124.094
			C165.195,33.333,209.267,15,256,15c41.625,0,82.073,14.983,113.894,42.189c3.149,2.691,7.883,2.322,10.575-0.827
			c2.691-3.148,2.321-7.883-0.827-10.575C345.106,16.261,301.196,0,256,0c-50.74,0-98.578,19.894-134.701,56.017
			C85.176,92.14,65.282,139.977,65.282,190.718v16.646c-17.679,3.643-31.014,19.329-31.014,38.072
			c0,18.742,13.334,34.428,31.014,38.071v124.648C65.282,465.415,111.867,512,169.128,512h173.744
			c57.261,0,103.846-46.585,103.846-103.846V283.507C464.397,279.863,477.731,264.177,477.731,245.436z M281.479,326.559
			c-6.287,7.657-15.573,12.048-25.479,12.048c-9.906,0-19.193-4.391-25.479-12.048l-86.201-104.993h223.361L281.479,326.559z
			 M131.065,190.718c0-33.169,13.051-64.486,36.749-88.185C191.513,78.835,222.831,65.783,256,65.783s64.487,13.051,88.185,36.749
			c23.698,23.699,36.749,55.017,36.749,88.185v15.848H131.065V190.718z M342.872,497H169.128c-48.99,0-88.846-39.856-88.846-88.846
			V284.305h62.204c4.142,0,7.5-3.358,7.5-7.5c0-4.142-3.358-7.5-7.5-7.5H73.138c-13.162,0-23.87-10.708-23.87-23.87
			c0-13.162,10.708-23.87,23.87-23.87h51.773l94.017,114.512c9.146,11.14,22.659,17.529,37.072,17.529s27.926-6.389,37.072-17.529
			l42.506-51.772h96.14v123.849C431.718,457.144,391.862,497,342.872,497z M438.862,269.305h-90.968l39.195-47.74h51.773
			c13.162,0,23.87,10.708,23.87,23.87C462.731,258.597,452.023,269.305,438.862,269.305z"/>
		<path d="M160.937,315.06c-7.716-7.716-20.27-7.716-27.987,0l-17.053,17.053c-3.738,3.738-5.796,8.708-5.796,13.994
			c0,5.287,2.059,10.256,5.796,13.994l17.053,17.053c3.738,3.738,8.707,5.796,13.994,5.796c5.286,0,10.256-2.059,13.993-5.796
			L177.99,360.1c7.716-7.716,7.716-20.271,0-27.987L160.937,315.06z M167.384,349.494l-17.054,17.053
			c-0.904,0.905-3.391,3.54-6.773,0l-17.053-17.054c-0.905-0.904-3.235-3.387,0-6.773l17.053-17.053
			c3.383-2.982,5.84-0.934,6.774-0.001l17.054,17.054C170.753,346.107,168.288,348.589,167.384,349.494z"/>
		<path d="M375.519,344.402c-7.716-7.714-20.27-7.715-27.987,0l-17.054,17.054c-3.738,3.738-5.796,8.708-5.796,13.994
			c0,5.286,2.059,10.255,5.796,13.993l17.053,17.053c3.738,3.738,8.707,5.797,13.994,5.797s10.256-2.059,13.994-5.797l17.053-17.053
			c3.738-3.738,5.797-8.707,5.797-13.994c0-5.287-2.059-10.256-5.797-13.994L375.519,344.402z M381.965,378.837l-17.053,17.053
			c-0.905,0.905-3.387,3.105-6.774,0l-17.054-17.053c-0.904-0.905-3.017-3.387,0-6.774l17.054-17.054
			c3.387-2.974,5.84-0.934,6.774,0l17.053,17.054C385.516,375.455,382.87,377.932,381.965,378.837z"/>
		<path d="M319.294,400.626c-7.717-7.715-20.271-7.715-27.987,0.001l-17.054,17.054c-7.716,7.716-7.716,20.271,0,27.987
			l17.053,17.053c3.738,3.738,8.707,5.796,13.994,5.796c5.286,0,10.256-2.058,13.994-5.796l17.053-17.053
			c7.716-7.716,7.716-20.271,0-27.987L319.294,400.626z M325.741,435.061l-17.053,17.053c-0.905,0.905-3.387,3.036-6.774,0
			l-17.054-17.053c-0.904-0.905-2.949-3.387,0-6.774l17.054-17.054c3.387-3.14,5.84-0.934,6.774,0l17.053,17.054
			C329.263,431.674,326.646,434.156,325.741,435.061z"/>
	</g>
</g>
<g>
</g>
<g>
</g>
<g>
</g>
<g>
</g>
<g>
</g>
<g>
</g>
<g>
</g>
<g>
</g>
<g>
</g>
<g>
</g>
<g>
</g>
<g>
</g>
<g>
</g>
<g>
</g>
<g>
</g>
</svg>
