<?xml version="1.0" encoding="iso-8859-1"?>
<!-- Generator: Adobe Illustrator 19.0.0, SVG Export Plug-In . SVG Version: 6.00 Build 0)  -->
<svg version="1.1" id="Layer_1" xmlns="http://www.w3.org/2000/svg" xmlns:xlink="http://www.w3.org/1999/xlink" x="0px" y="0px"
	 viewBox="0 0 512.029 512.029" style="enable-background:new 0 0 512.029 512.029;" xml:space="preserve">
<g id="trunk">
	<g id="fill_7_">
		<path style="fill:#C68D6D;" d="M7.5,107.585v296.86c0,39.732,92.091,71.941,205.69,71.941s205.69-32.209,205.69-71.941v-296.86
			H7.5z"/>
		<path style="fill:#B2785B;" d="M418.88,404.444V262.83H281.544c0,0-21.966,77.696,46.86,133.196
			c12.992,10.477,21.538,25.503,23.352,42.095c0.655,5.993,1.081,12.516,1.06,19.153C393.438,444.131,418.88,425.324,418.88,404.444
			z"/>
		<path style="fill:#DD9F80;" d="M484.433,293.223c18.562-9.072,24.275-29.491,17.021-55.489
			c-7.255-25.998-22.715-40.508-43.292-38.659c0,0-152.345,19.256-154.297,19.801c-20.333,5.674-28.239,41.009-17.66,78.923
			c10.58,37.914,35.64,64.05,55.973,58.376C344.129,355.63,484.433,293.223,484.433,293.223z"/>
		<path style="fill:#FFDAAA;" d="M449.542,252.219c11.795,42.268,34.89,41.003,34.89,41.003
			c18.562-9.072,24.275-29.491,17.021-55.489c-7.255-25.998-22.715-40.508-43.292-38.659
			C458.161,199.075,437.748,209.951,449.542,252.219z"/>
		<path style="fill:#B2785B;" d="M86.447,310.123L86.447,310.123c-13.867,0-25.212-11.345-25.212-25.212V110.576
			c0-13.867,11.345-25.212,25.212-25.212l0,0c13.867,0,25.212,11.345,25.212,25.212v174.335
			C111.659,298.778,100.314,310.123,86.447,310.123z"/>
		<path style="fill:#B2785B;" d="M187.978,291.985L187.978,291.985c-13.867,0-25.212,11.345-25.212,25.212v157.011
			c16.136,1.422,33.026,2.178,50.424,2.178V317.197C213.19,303.331,201.845,291.985,187.978,291.985z"/>
		<circle style="fill:#B2785B;" cx="86.447" cy="371.333" r="25.212"/>
		<ellipse style="fill:#FFDAAA;" cx="213.19" cy="107.585" rx="205.69" ry="71.941"/>
		<path style="fill:#FFC477;" d="M230.806,35.904c-5.807-0.172-11.682-0.26-17.616-0.26C99.591,35.643,7.5,67.853,7.5,107.585
			c0,26.817,41.957,50.208,104.159,62.581L230.806,35.904z"/>
	</g>
	<g id="stroke_7_">
		<path d="M508.677,235.717c-8.428-30.201-27.079-46.28-51.188-44.112c0,0-21.574,2.723-31.109,3.931v-87.951
			c0-17.664-14.048-30.951-25.833-38.986c-14.982-10.216-36.626-19.196-62.592-25.971c-4.008-1.049-8.105,1.355-9.15,5.363
			c-1.046,4.008,1.355,8.105,5.363,9.15c47.626,12.427,77.212,31.756,77.212,50.444c0,15.327-20.644,31.697-55.222,43.791
			c-38.074,13.317-88.848,20.651-142.968,20.651c-54.12,0-104.895-7.334-142.969-20.651C35.644,139.282,15,122.912,15,107.585
			c0-15.556,20.127-31.517,55.221-43.791c38.074-13.316,88.848-20.65,142.969-20.65c32.38,0,64.566,2.728,93.08,7.89
			c4.078,0.739,7.978-1.968,8.716-6.044c0.738-4.076-1.968-7.978-6.044-8.716c-29.8-5.395-62.016-8.13-95.752-8.13
			c-55.763,0-108.296,7.632-147.921,21.492C23.18,64.356,0,84.936,0,107.585v296.859c0,22.648,23.18,43.229,65.269,57.95
			c39.625,13.859,92.158,21.492,147.921,21.492c55.763,0,108.296-7.632,147.921-21.492c42.09-14.721,65.27-35.301,65.27-57.95
			v-77.216c16.712-7.418,61.346-27.268,61.346-27.268C509.469,289.334,517.104,265.918,508.677,235.717z M442.318,254.235
			c5.977,21.418,14.961,32.98,23.138,39.218c-52.735,23.442-119.953,53.259-125.609,55.581
			c-17.377,4.441-38.361-24.372-46.42-53.251c-4.79-17.166-5.737-34.177-2.667-47.898c2.624-11.731,8.012-19.612,14.812-21.695
			c6.069-0.945,79.005-10.24,136.247-17.488C438.049,218.272,436.338,232.806,442.318,254.235z M411.38,404.444
			c0,15.556-20.128,31.517-55.222,43.791c-38.074,13.316-88.848,20.65-142.968,20.65c-14.615,0-28.981-0.54-42.924-1.582V317.197
			c0-9.767,7.945-17.712,17.712-17.712c9.767,0,17.712,7.945,17.712,17.712v127.831c0,4.142,3.358,7.5,7.5,7.5
			c4.142,0,7.5-3.358,7.5-7.5V317.197c0-18.038-14.674-32.712-32.712-32.712c-18.038,0-32.712,14.674-32.712,32.712V465.97
			c-31.845-3.296-60.983-9.319-85.045-17.734C35.127,435.961,15,420,15,404.444V137.828c9.054,8.603,22.081,16.483,38.735,23.331
			v123.752c0,18.038,14.674,32.712,32.712,32.712s32.712-14.674,32.712-32.712v-26.273c0-4.142-3.358-7.5-7.5-7.5
			s-7.5,3.358-7.5,7.5v26.273c0,9.767-7.945,17.712-17.712,17.712s-17.712-7.945-17.712-17.712V166.718
			c10.942,3.659,22.818,6.855,35.424,9.565v51.39c0,4.142,3.358,7.5,7.5,7.5s7.5-3.358,7.5-7.5v-48.451
			c28.844,5.104,60.865,7.804,94.031,7.804c55.763,0,108.296-7.633,147.921-21.492c22.255-7.784,39.219-17.207,50.27-27.707v59.61
			c-107.426,13.628-108.93,14.046-109.532,14.214c-12.622,3.522-21.758,15.227-25.726,32.958
			c-3.601,16.092-2.586,35.698,2.858,55.205c10.662,38.209,35.953,72.037,65.213,63.583c0.523-0.151,1.739-0.488,67.187-29.514
			V404.444z M482.849,285.576c-4.326-0.777-17.773-5.592-26.083-35.372c-8.31-29.78,0.7-40.862,4-43.767
			c20.799-0.585,29.874,20.449,33.464,33.313C497.819,252.613,500.948,275.307,482.849,285.576z"/>
		<path d="M86.447,338.621c-18.038,0-32.712,14.675-32.712,32.712s14.674,32.712,32.712,32.712s32.712-14.674,32.712-32.712
			S104.485,338.621,86.447,338.621z M86.447,389.045c-9.767,0-17.712-7.945-17.712-17.712s7.945-17.712,17.712-17.712
			s17.712,7.946,17.712,17.712S96.214,389.045,86.447,389.045z"/>
	</g>
</g>
<g>
</g>
<g>
</g>
<g>
</g>
<g>
</g>
<g>
</g>
<g>
</g>
<g>
</g>
<g>
</g>
<g>
</g>
<g>
</g>
<g>
</g>
<g>
</g>
<g>
</g>
<g>
</g>
<g>
</g>
</svg>
