<?xml version="1.0" encoding="iso-8859-1"?>
<!-- Generator: Adobe Illustrator 19.0.0, SVG Export Plug-In . SVG Version: 6.00 Build 0)  -->
<svg version="1.1" id="Layer_1" xmlns="http://www.w3.org/2000/svg" xmlns:xlink="http://www.w3.org/1999/xlink" x="0px" y="0px"
	 viewBox="0 0 512 512" style="enable-background:new 0 0 512 512;" xml:space="preserve">
<g id="wheat">
	<g id="fill_8_">
		<path style="fill:#F4A651;" d="M146.408,504.5L146.408,504.5c-11.861,0-21.565-9.704-21.565-21.565V235.501
			c0-11.861,9.704-21.565,21.565-21.565l0,0c11.861,0,21.565,9.704,21.565,21.565v247.434
			C167.973,494.796,158.269,504.5,146.408,504.5z"/>
		<path style="fill:#D8853A;" d="M146.408,213.935L146.408,213.935c-11.861,0-21.565,9.704-21.565,21.565v99.372
			c17.839-3.212,32.003-9.112,43.131-15.948v-83.424C167.973,223.64,158.269,213.935,146.408,213.935z"/>
		<ellipse style="fill:#FFB864;" cx="146.408" cy="75.047" rx="37.246" ry="67.546"/>
		
			<ellipse transform="matrix(-0.7071 0.7071 -0.7071 -0.7071 265.0075 116.308)" style="fill:#FFC477;" cx="108.416" cy="113.039" rx="37.246" ry="67.546"/>
		
			<ellipse transform="matrix(0.7071 0.7071 -0.7071 0.7071 133.9404 -97.2825)" style="fill:#FFDAAA;" cx="184.4" cy="113.039" rx="37.246" ry="67.546"/>
		
			<ellipse transform="matrix(-0.7071 0.7071 -0.7071 -0.7071 303.5328 209.316)" style="fill:#F4A651;" cx="108.416" cy="167.522" rx="37.246" ry="67.546"/>
		
			<ellipse transform="matrix(0.7071 0.7071 -0.7071 0.7071 172.4657 -81.3248)" style="fill:#FFB864;" cx="184.4" cy="167.522" rx="37.246" ry="67.546"/>
		
			<ellipse transform="matrix(-0.7071 0.7071 -0.7071 -0.7071 342.058 302.3244)" style="fill:#FFC477;" cx="108.416" cy="222.005" rx="37.246" ry="67.546"/>
		
			<ellipse transform="matrix(0.7071 0.7071 -0.7071 0.7071 210.9907 -65.3671)" style="fill:#FFDAAA;" cx="184.4" cy="222.005" rx="37.246" ry="67.546"/>
		<path style="fill:#F4A651;" d="M365.592,504.5L365.592,504.5c-11.861,0-21.565-9.704-21.565-21.565V318.463
			c0-11.861,9.704-21.565,21.565-21.565l0,0c11.861,0,21.565,9.704,21.565,21.565v164.472
			C387.158,494.796,377.453,504.5,365.592,504.5z"/>
		<path style="fill:#D8853A;" d="M365.592,296.897L365.592,296.897c-11.861,0-21.565,9.704-21.565,21.565v99.372
			c17.839-3.212,32.003-9.112,43.131-15.948v-83.424C387.158,306.602,377.453,296.897,365.592,296.897z"/>
		<ellipse style="fill:#FFB864;" cx="365.592" cy="158.008" rx="37.246" ry="67.547"/>
		
			<ellipse transform="matrix(-0.7071 0.7071 -0.7071 -0.7071 697.8414 102.9465)" style="fill:#FFC477;" cx="327.6" cy="196.001" rx="37.246" ry="67.546"/>
		
			<ellipse transform="matrix(0.7071 0.7071 -0.7071 0.7071 256.8008 -227.9701)" style="fill:#FFDAAA;" cx="403.585" cy="196.001" rx="37.246" ry="67.546"/>
		
			<ellipse transform="matrix(-0.7071 0.7071 -0.7071 -0.7071 736.3666 195.9547)" style="fill:#F4A651;" cx="327.6" cy="250.484" rx="37.246" ry="67.546"/>
		
			<ellipse transform="matrix(0.7071 0.7071 -0.7071 0.7071 295.326 -212.0124)" style="fill:#FFB864;" cx="403.585" cy="250.484" rx="37.246" ry="67.546"/>
		
			<ellipse transform="matrix(-0.7071 0.7071 -0.7071 -0.7071 774.8918 288.9625)" style="fill:#FFC477;" cx="327.6" cy="304.967" rx="37.246" ry="67.546"/>
		
			<ellipse transform="matrix(0.7071 0.7071 -0.7071 0.7071 333.8518 -196.0548)" style="fill:#FFDAAA;" cx="403.585" cy="304.967" rx="37.246" ry="67.546"/>
	</g>
	<g id="stroke_8_">
		<path d="M237.466,59.973c-10.746-10.748-28.64-11.515-47.691-3.847C184.872,23.033,167.54,0,146.408,0
			c-15.27,0-29.25,12.455-37.4,33.316c-1.507,3.858,0.399,8.208,4.257,9.715c3.86,1.507,8.209-0.398,9.716-4.257
			C128.709,24.11,137.686,15,146.408,15c13.702,0,26.311,21.297,29.138,48.32c-17.505,9.458-27.123,22.586-29.137,24.907
			c-13.027-13.181-35.869-30.397-51.061-34.789c-16.743-4.84-30.944-2.519-39.999,6.535c-11.908,11.908-11.968,32.627-0.505,55.02
			c-11.393,11.987-11.295,32.422,0.005,54.491c-17.036,17.945-7.536,54.699,21.925,84.162c12.581,12.58,26.915,21.768,40.568,26.577
			v202.712c0,16.027,13.039,29.065,29.065,29.065s29.065-13.039,29.065-29.065V280.291c9.766-3.432,20.003-9.172,29.949-17.13
			c3.234-2.588,3.759-7.308,1.171-10.542c-2.589-3.235-7.31-3.759-10.542-1.171c-21.259,17.008-44.521,22.605-54.11,13.017
			c-4.942-4.943-5.938-14.137-2.732-25.226c3.701-12.8,12.28-26.39,24.158-38.267c11.877-11.878,25.468-20.457,38.267-24.158
			c11.092-3.206,20.284-2.21,25.226,2.732c9.17,9.17,4.209,31.621-11.539,52.223c-2.516,3.29-1.888,7.997,1.403,10.513
			c3.291,2.516,7.998,1.886,10.513-1.404c20.715-27.098,25.053-56.299,10.733-71.398c11.296-22.067,11.394-42.501,0.002-54.487
			C249.433,92.599,249.373,71.88,237.466,59.973z M163.367,92.005c11.877-11.878,25.468-20.457,38.267-24.158
			c11.092-3.206,20.284-2.21,25.226,2.732c6.752,6.751,5.919,20.993-1.752,36.572c-19.57-5.999-48.375,4.758-72.348,28.73
			c-2.222,2.222-4.333,4.505-6.346,6.828c-2.024-2.337-7.558-8.002-8.162-8.583C141.073,120.607,150.278,105.094,163.367,92.005z
			 M95.349,162.404c-10.416-3.011-19.845-3.247-27.666-0.818c-7.648-15.56-8.471-29.779-1.725-36.523
			c4.941-4.942,14.139-5.938,25.225-2.732c12.8,3.701,33.842,17.111,45.893,32.594c-5.055,7.582-8.935,15.378-11.446,23.01
			C115.802,170.68,105.426,165.318,95.349,162.404z M65.957,70.58c4.941-4.942,14.139-5.938,25.225-2.732
			c12.8,3.701,33.842,16.842,45.89,32.595c-5.06,7.585-8.935,15.376-11.442,23.009c-9.827-7.254-20.203-12.617-30.281-15.531
			c-10.415-3.011-19.845-3.247-27.666-0.818C60.035,91.543,59.212,77.325,65.957,70.58z M63.225,204.771
			c-3.207-11.088-2.211-20.283,2.732-25.226c4.941-4.942,14.139-5.938,25.225-2.732c12.8,3.701,35.305,18.006,45.892,32.598
			c-14.063,21.104-18.486,43.056-11.24,57.91c-12.314-3.526-26.306-12.137-38.452-24.283
			C75.504,231.161,66.925,217.571,63.225,204.771z M160.474,283.772v199.163c0,7.756-6.309,14.065-14.065,14.065
			c-7.756,0-14.065-6.31-14.065-14.065V283.741c1.821,0.195,8.818,0.854,14.065,0.854
			C151.655,284.595,158.712,283.954,160.474,283.772z M146.411,197.195c-2.024-2.336-7.554-8.003-8.157-8.584
			c2.827-13.516,12.066-29.076,25.113-42.123c11.877-11.878,25.468-20.457,38.267-24.158c11.092-3.206,20.284-2.209,25.226,2.732
			c6.752,6.751,5.919,20.993-1.752,36.572C184.4,152.815,148.415,194.885,146.411,197.195z"/>
		<path d="M457.155,197.953c11.463-22.392,11.402-43.111-0.505-55.018c-9.053-9.054-23.255-11.377-39.999-6.535
			c-2.55,0.737-5.119,1.644-7.693,2.684c-4.904-33.091-22.235-56.122-43.366-56.122c-21.144,0-38.466,23.028-43.365,56.126
			c-19.051-7.668-36.945-6.901-47.694,3.847c-11.906,11.907-11.966,32.625-0.505,55.018c-11.393,11.987-11.295,32.423,0.004,54.491
			c-17.037,17.945-7.536,54.701,21.926,84.163c12.58,12.58,26.914,21.768,40.567,26.578v67.925c0,4.142,3.357,7.5,7.5,7.5
			c4.143,0,7.5-3.358,7.5-7.5v-64.406c1.821,0.195,6.854,0.805,13.972,0.805s12.35-0.573,14.158-0.766v116.192
			c0,7.756-6.309,14.065-14.065,14.065c-7.756,0-14.065-6.31-14.065-14.065V464.7c0-4.142-3.357-7.5-7.5-7.5
			c-4.143,0-7.5,3.358-7.5,7.5v18.234c0,16.027,13.039,29.065,29.065,29.065s29.065-13.039,29.065-29.065V363.225
			c13.908-4.893,28.164-14.214,40.568-26.618c13.638-13.638,23.567-29.516,27.96-44.707c4.746-16.416,2.589-30.382-6.035-39.456
			C468.451,230.376,468.549,209.94,457.155,197.953z M416.651,245.366c-15.191,4.393-31.068,14.323-44.707,27.961
			c-2.22,2.221-4.331,4.506-6.348,6.832c-2.025-2.337-7.557-8.003-8.159-8.583c2.826-13.516,12.065-29.077,25.114-42.126
			c11.877-11.877,25.467-20.456,38.267-24.158c11.087-3.206,20.282-2.211,25.225,2.732c6.745,6.745,5.923,20.963-1.726,36.523
			C436.496,242.119,427.066,242.355,416.651,245.366z M286.892,244.597c-7.671-15.579-8.504-29.821-1.753-36.573
			c4.943-4.942,14.139-5.938,25.227-2.732c12.799,3.701,26.39,12.28,38.267,24.158c2.707,2.707,5.252,5.535,7.626,8.436
			c-5.05,7.575-8.927,15.364-11.438,22.988C324.419,245.802,302.66,239.765,286.892,244.597z M420.819,150.81
			c11.087-3.207,20.282-2.21,25.225,2.732c6.745,6.745,5.923,20.963-1.726,36.523c-7.822-2.429-17.252-2.193-27.666,0.818
			c-15.191,4.393-31.068,14.323-44.707,27.961c-2.222,2.222-4.333,4.505-6.346,6.828c-2.024-2.336-7.56-8-8.163-8.581
			c2.821-13.52,12.026-29.034,25.117-42.123C394.429,163.09,408.019,154.511,420.819,150.81z M365.592,97.962
			c13.704,0,26.316,21.306,29.14,48.337c-16.029,8.089-27.125,22.569-29.139,24.891c-2.023-2.335-12.451-16.076-29.14-24.908
			C339.281,119.25,351.88,97.962,365.592,97.962z M285.14,153.542c4.943-4.942,14.139-5.939,25.227-2.732
			c12.799,3.701,35.886,16.45,45.89,32.595c-5.055,7.578-8.927,15.361-11.435,22.988c-20.402-15.073-42.16-21.11-57.929-16.278
			C279.221,174.535,278.389,160.293,285.14,153.542z M282.408,287.733c-3.206-11.089-2.21-20.284,2.731-25.226
			c4.943-4.942,14.139-5.939,25.227-2.732c12.799,3.701,35.365,17.442,45.892,32.598c-5.614,8.426-9.815,17.151-12.275,25.661
			c-3.624,12.533-3.232,23.644,0.993,32.237c-12.305-3.534-26.277-12.137-38.41-24.271
			C294.689,314.123,286.109,300.533,282.408,287.733z M448.776,287.733c-3.7,12.799-12.279,26.39-24.157,38.267
			c-11.877,11.877-25.468,20.457-38.268,24.158c-11.087,3.206-20.282,2.211-25.226-2.732c-4.942-4.943-5.938-14.137-2.731-25.226
			c3.7-12.799,12.28-26.39,24.158-38.267c11.877-11.877,25.414-20.645,38.267-24.158c10.822-2.958,22.19-0.302,25.225,2.732
			C450.986,267.45,451.983,276.645,448.776,287.733z"/>
	</g>
</g>
<g>
</g>
<g>
</g>
<g>
</g>
<g>
</g>
<g>
</g>
<g>
</g>
<g>
</g>
<g>
</g>
<g>
</g>
<g>
</g>
<g>
</g>
<g>
</g>
<g>
</g>
<g>
</g>
<g>
</g>
</svg>
