<?xml version="1.0" encoding="iso-8859-1"?>
<!-- Generator: Adobe Illustrator 19.0.0, SVG Export Plug-In . SVG Version: 6.00 Build 0)  -->
<svg version="1.1" id="Layer_1" xmlns="http://www.w3.org/2000/svg" xmlns:xlink="http://www.w3.org/1999/xlink" x="0px" y="0px"
	 viewBox="0 0 512 512" style="enable-background:new 0 0 512 512;" xml:space="preserve">
<g id="umbrella">
	<g id="fill_9_">
		<rect x="238.842" y="272.711" style="fill:#EAEAEA;" width="34.314" height="149.518"/>
		<path style="fill:#D8D7DA;" d="M238.842,342.042c0,0,14.45-18.866,34.314-2.204v-67.127h-34.314V342.042z"/>
		<path style="fill:#8ED7E8;" d="M210.54,504.5c-34.528,0-62.618-28.091-62.618-62.618c0-9.476,7.682-17.157,17.157-17.157
			c9.476,0,17.157,7.682,17.157,17.157c0,15.606,12.697,28.303,28.304,28.303c15.606,0,28.303-12.697,28.303-28.303v-59.284
			c0-9.476,7.682-17.157,17.157-17.157c9.476,0,17.157,7.682,17.157,17.157v59.284C273.157,476.409,245.066,504.5,210.54,504.5z"/>
		<path style="fill:#B2E59C;" d="M256,110.949c-26.823,0-127.813,10.326-188.969,134.104c-4.549,9.207,0.555,20.233,10.491,22.832
			c21.704,5.677,56.746,21.616,79.365,66.719c5.779,11.524,21.294,13.476,30.081,4.043C200.789,323.808,223.103,308.3,256,308.3
			c32.897,0,55.211,15.507,69.033,30.345c8.787,9.433,24.302,7.481,30.081-4.043c22.618-45.103,57.66-61.041,79.365-66.719
			c9.936-2.599,15.04-13.625,10.491-22.832C383.814,121.275,282.823,110.949,256,110.949z"/>
		<path style="fill:#9AD880;" d="M233.838,250.484c-67.363-22.242-76.881-76.476-75.845-109.783
			c-31.677,19.528-64.929,51.661-90.962,104.352c-4.549,9.207,0.555,20.233,10.491,22.832c21.704,5.677,56.746,21.616,79.365,66.719
			c5.779,11.524,21.294,13.476,30.081,4.043C200.789,323.808,223.103,308.3,256,308.3c27.694,0,47.888,10.993,61.829,23.322
			C308.682,302.576,286.541,267.885,233.838,250.484z"/>
		<path style="fill:#C8EFB9;" d="M273.426,112.085c-7.31-0.883-13.262-1.133-17.425-1.133c-4.163,0-10.116,0.25-17.426,1.133
			c-40.232,31.642-62.915,167.447-68.512,232.287c5.908,1.017,12.322-0.803,16.905-5.723c13.822-14.838,36.136-30.345,69.033-30.345
			c32.897,0,55.211,15.507,69.033,30.345c4.583,4.92,10.997,6.74,16.904,5.723C336.34,279.532,313.658,143.727,273.426,112.085z"/>
		<path style="fill:#CCF8FF;" d="M500.098,128.771c0,15.789-12.8,28.589-28.589,28.589c-15.789,0-28.589-12.8-28.589-28.589
			s12.8-53.077,28.589-53.077C487.298,75.694,500.098,112.982,500.098,128.771z"/>
		<path style="fill:#CCF8FF;" d="M69.079,128.771c0,15.789-12.8,28.589-28.589,28.589c-15.789,0-28.589-12.8-28.589-28.589
			s12.8-53.077,28.589-53.077C56.28,75.694,69.079,112.982,69.079,128.771z"/>
		<path style="fill:#CCF8FF;" d="M278.161,48.645c0,12.24-9.922,22.161-22.162,22.161s-22.161-9.922-22.161-22.161
			S243.76,7.5,256,7.5S278.161,36.405,278.161,48.645z"/>
		<path style="fill:#B2E59C;" d="M233.838,250.484c-19.254-6.357-33.773-15.321-44.68-25.668
			c-10.131,43.436-16.479,89.245-19.096,119.556c5.908,1.017,12.322-0.803,16.905-5.723c13.822-14.838,36.136-30.345,69.033-30.345
			c27.695,0,47.888,10.989,61.829,23.319C308.683,302.575,286.544,267.886,233.838,250.484z"/>
	</g>
	<g id="stroke_9_">
		<path d="M409.605,178.13c-2.743-3.105-7.484-3.398-10.586-0.655c-3.104,2.743-3.397,7.482-0.654,10.586
			c15.174,17.174,28.592,37.466,39.879,60.312c1.171,2.369,1.21,5,0.112,7.407c-1.099,2.408-3.204,4.175-5.776,4.848
			c-20.959,5.482-59.765,21.946-84.17,70.612c-0.052,0.104-0.117,0.197-0.172,0.298c-3.343-31.868-10.06-76.276-20.289-117.564
			c-10.174-41.065-21.822-71.429-34.762-90.73c23.246,5.6,53.469,17.59,83.135,43.044c3.143,2.697,7.88,2.336,10.575-0.808
			c2.698-3.143,2.336-7.878-0.808-10.576C330.444,107.16,272.449,103.449,256,103.449c-21.27,0-130.665,6.667-195.693,138.282
			c-3.158,6.394-3.271,13.785-0.309,20.277c2.979,6.528,8.674,11.315,15.626,13.133c22.606,5.913,53.892,21.612,74.559,62.825
			c3.825,7.627,10.792,13.559,19.332,13.912c11.386,0.47,17.927-2.735,22.942-8.12C209.735,325.207,231.115,315.8,256,315.8
			c3.375,0,6.681,0.189,9.926,0.534v43.7c-3.039-1.342-9.926-4.154-19.583-0.122v-17.871c0-4.142-3.357-7.5-7.5-7.5
			c-4.143,0-7.5,3.358-7.5,7.5v99.84c0,11.471-9.332,20.803-20.803,20.803c-11.472,0-20.805-9.332-20.805-20.803
			c0-13.596-11.062-24.657-24.657-24.657c-13.596,0-24.657,11.061-24.657,24.657c0,38.663,31.455,70.118,70.119,70.118
			c38.663,0,70.117-31.455,70.117-70.118l0.269-122.575c14.484,4.269,27.417,12.426,38.619,24.45
			c5.872,6.304,14.447,9.338,22.941,8.12c8.461-1.214,15.507-6.285,19.332-13.912c20.667-41.212,51.952-56.912,74.558-62.825
			c6.953-1.818,12.648-6.605,15.627-13.133c2.962-6.492,2.849-13.883-0.31-20.277C439.818,217.695,425.658,196.297,409.605,178.13z
			 M265.657,441.882c0,30.392-24.726,55.118-55.117,55.118c-30.392,0-55.119-24.726-55.119-55.118c0-5.325,4.332-9.657,9.657-9.657
			c5.325,0,9.657,4.332,9.657,9.657c0,19.742,16.062,35.803,35.805,35.803c19.742,0,35.803-16.061,35.803-35.803v-38.775v-20.508
			c0-5.325,4.332-9.657,9.657-9.657s9.657,4.332,9.657,9.657V441.882z M79.419,260.628c-2.571-0.673-4.677-2.439-5.775-4.848
			c-1.098-2.407-1.059-5.038,0.111-7.406c42.517-86.052,104.556-115.249,145.008-125.054
			c-12.921,19.304-24.552,49.643-34.713,90.654c-10.229,41.288-16.945,85.695-20.288,117.563c-0.055-0.101-0.12-0.193-0.172-0.297
			C139.185,282.575,100.379,266.111,79.419,260.628z M256,300.8c-44.396,0-76.481,34.498-77.612,35.088
			c7.237-72.576,29.576-187.169,63.25-216.599c6.407-0.692,22.463-0.686,28.693-0.026c33.69,29.384,56.041,144.024,63.281,216.623
			C332.481,335.297,300.396,300.8,256,300.8z"/>
		<path d="M498.544,93.188c-7.489-16.352-16.838-24.995-27.034-24.995c-10.197,0-19.546,8.643-27.034,24.995
			c-5.416,11.824-9.055,26.124-9.055,35.582c0,19.899,16.19,36.088,36.089,36.088c19.899,0,36.088-16.189,36.088-36.088
			C507.598,119.313,503.959,105.013,498.544,93.188z M471.51,149.859c-11.629,0-21.089-9.461-21.089-21.088
			c0-6.232,2.643-18.311,7.692-29.336c5.11-11.159,10.526-16.241,13.396-16.241c2.869,0,8.285,5.082,13.397,16.241
			c5.049,11.025,7.691,23.104,7.691,29.336C492.598,140.399,483.138,149.859,471.51,149.859z"/>
		<path d="M76.579,128.771c0-9.458-3.639-23.758-9.055-35.582C60.036,76.837,50.688,68.194,40.49,68.194
			c-10.196,0-19.545,8.643-27.034,24.995c-5.415,11.824-9.054,26.124-9.054,35.582c0,19.899,16.188,36.088,36.088,36.088
			S76.579,148.67,76.579,128.771z M40.49,149.859c-11.628,0-21.088-9.461-21.088-21.088c0-6.232,2.643-18.311,7.691-29.336
			c5.111-11.159,10.527-16.241,13.396-16.241c2.87,0,8.286,5.082,13.396,16.241c5.05,11.025,7.692,23.104,7.692,29.336
			C61.579,140.399,52.119,149.859,40.49,149.859z"/>
		<path d="M256,78.306c16.355,0,29.661-13.306,29.661-29.662C285.661,36.143,275.463,0,256,0s-29.662,36.143-29.662,48.645
			C226.338,65,239.645,78.306,256,78.306z M247.148,26.605C251.518,17.065,255.298,15,256,15c0.701,0,4.481,2.065,8.852,11.605
			c3.773,8.239,5.81,17.504,5.81,22.039c0,8.084-6.577,14.662-14.661,14.662c-8.085,0-14.662-6.577-14.662-14.662
			C241.338,44.11,243.374,34.845,247.148,26.605z"/>
	</g>
</g>
<g>
</g>
<g>
</g>
<g>
</g>
<g>
</g>
<g>
</g>
<g>
</g>
<g>
</g>
<g>
</g>
<g>
</g>
<g>
</g>
<g>
</g>
<g>
</g>
<g>
</g>
<g>
</g>
<g>
</g>
</svg>
