<?xml version="1.0" encoding="iso-8859-1"?>
<!-- Generator: Adobe Illustrator 19.0.0, SVG Export Plug-In . SVG Version: 6.00 Build 0)  -->
<svg version="1.1" id="Layer_1" xmlns="http://www.w3.org/2000/svg" xmlns:xlink="http://www.w3.org/1999/xlink" x="0px" y="0px"
	 viewBox="0 0 511.982 511.982" style="enable-background:new 0 0 511.982 511.982;" xml:space="preserve">
<g id="kite">
	<g id="fill_10_">
		<path style="fill:#CCF8FF;" d="M325.122,504.482c-46.973,0-85.228-38.215-85.278-85.188l-0.187-178.504
			c-0.009-8.843,7.152-16.019,15.995-16.028c0.005,0,0.011,0,0.017,0c8.835,0,16.001,7.157,16.011,15.995l0.187,178.504
			c0.031,29.334,23.921,53.199,53.255,53.199c29.365,0,53.255-23.89,53.255-53.255V346.93c0-8.843,7.169-16.011,16.011-16.011
			c8.843,0,16.011,7.168,16.011,16.011v72.275C410.4,466.227,372.144,504.482,325.122,504.482z"/>
		<path style="fill:#FFEB99;" d="M50.663,225.717L50.663,225.717c-1.678-8.654,3.18-17.309,11.499-20.225
			c48.71-17.069,58.612-63.72,58.715-64.234l35.059,7.012c-0.419,2.096-4.507,21.091-18.73,42.213
			c-11.262,16.726-30.878,37.415-63.031,48.698C63.867,242.799,52.742,236.44,50.663,225.717z"/>
		<path style="fill:#FFEB99;" d="M461.193,225.717L461.193,225.717c1.678-8.654-3.179-17.309-11.499-20.225
			c-48.71-17.069-58.612-63.72-58.715-64.234l-35.059,7.012c0.419,2.096,4.507,21.091,18.73,42.213
			c11.262,16.726,30.878,37.415,63.031,48.698C447.988,242.799,459.114,236.44,461.193,225.717z"/>
		<path style="fill:#B2E59C;" d="M229.118,348.853L123.426,158.755c-6.657-11.973-4.568-26.91,5.119-36.597L234.237,16.467
			c11.979-11.979,31.402-11.979,43.381,0L383.31,122.158c9.687,9.687,11.776,24.623,5.119,36.597L282.738,348.853
			C271.048,369.878,240.808,369.878,229.118,348.853z"/>
		<path style="fill:#9AD880;" d="M231.782,214.352c-46.47-34.698-60.437-90.228-63.862-131.568l-39.374,39.374
			c-9.687,9.687-11.776,24.623-5.119,36.597l105.691,190.098c11.69,21.026,41.93,21.026,53.62,0l27.581-49.608
			C290.963,270.536,264.853,239.045,231.782,214.352z"/>
		<path style="fill:#C8EFB9;" d="M234.237,16.467L128.546,122.158c-4.573,4.573-7.429,10.319-8.495,16.367h271.754
			c-1.066-6.048-3.922-11.794-8.495-16.367L277.619,16.467C265.639,4.487,246.217,4.487,234.237,16.467z"/>
		<path style="fill:#9AD880;" d="M282.738,348.853l105.691-190.098c6.657-11.973,4.568-26.91-5.12-36.597L277.619,16.467
			c-5.99-5.99-13.84-8.985-21.691-8.985v357.14C266.41,364.622,276.893,359.366,282.738,348.853z"/>
		<path style="fill:#B2E59C;" d="M255.928,7.482v131.043h135.877c-1.066-6.048-3.922-11.794-8.495-16.367L277.619,16.467
			C271.629,10.477,263.778,7.482,255.928,7.482z"/>
		<path style="fill:#8DC971;" d="M255.928,234.608v130.014c10.483,0,20.965-5.256,26.81-15.769l27.581-49.608
			C295.945,277.924,277.838,255.073,255.928,234.608z"/>
		<path style="fill:#B2E59C;" d="M167.919,82.784l-39.374,39.374c-4.573,4.573-7.429,10.319-8.495,16.367h58.971
			C172.523,119.165,169.327,99.779,167.919,82.784z"/>
	</g>
	<path id="stroke_10_" d="M452.174,198.414c-34.965-12.252-48.139-40.817-52.424-53.722c0.205-10.178-3.628-20.328-11.137-27.837
		L282.922,11.163c-14.885-14.885-39.104-14.884-53.988,0L123.243,116.855c-7.509,7.509-11.343,17.659-11.137,27.837
		c-4.284,12.903-17.458,41.47-52.424,53.722c-11.719,4.107-18.572,16.423-16.381,28.73c4.584,25.752,30.618,20.076,33.358,19.114
		c18.221-6.394,34.4-16.279,48.089-29.38c2.993-2.864,3.097-7.612,0.233-10.604c-2.865-2.993-7.613-3.097-10.604-0.233
		c-12.134,11.613-26.459,20.484-42.685,26.063c-9.525,3.275-13.083-4.811-13.666-7.816c-0.973-5.018,1.871-10.056,6.617-11.719
		c29.29-10.264,45.579-30.216,54.359-46.34l103.562,186.267c2.533,4.557,5.845,8.428,9.723,11.501l0.058,55.303
		c0.015,13.685,2.956,26.872,8.743,39.197c1.277,2.719,4.97,5.944,9.977,3.602c3.752-1.755,5.362-6.227,3.602-9.977
		c-4.846-10.32-7.309-21.369-7.321-32.838l-0.05-48.138c2.785,0.63,8.634,2.156,17.022,0.058l0.051,48.062
		c0.035,33.465,27.29,60.691,60.755,60.691c33.501,0,60.755-27.254,60.755-60.755V346.93c0-4.693,3.818-8.511,8.511-8.511
		c4.693,0,8.511,3.818,8.511,8.511v72.275c0,42.887-34.891,77.777-77.778,77.777c-19.777,0-38.643-7.468-53.119-21.029
		c-3.023-2.831-7.768-2.677-10.601,0.346c-2.831,3.023-2.677,7.77,0.346,10.601c17.267,16.174,39.773,25.082,63.374,25.082
		c51.158,0,92.778-41.62,92.778-92.777V346.93c0-12.964-10.547-23.511-23.511-23.511c-12.964,0-23.511,10.547-23.511,23.511v72.275
		c0,25.229-20.526,45.755-45.755,45.755c-25.203,0-45.729-20.504-45.755-45.707l-0.058-55.049c3.991-3.105,7.394-7.048,9.985-11.707
		l83.994-151.073c12.052,15.716,31.708,34.236,61.911,44.835c2.74,0.961,27.471,8.397,33.358-19.115
		C471.172,214.92,463.893,202.521,452.174,198.414z M239.54,21.77c2.585-2.585,5.641-4.404,8.888-5.51v114.766H130.96
		C131.797,129.762,239.54,21.77,239.54,21.77z M129.981,155.11c-1.589-2.858-2.507-5.956-2.795-9.085h121.242v209.881
		c-5.351-1.799-9.878-5.523-12.755-10.698L129.981,155.11z M276.183,345.208c-2.877,5.175-7.404,8.899-12.755,10.698V146.025h40.271
		c4.142,0,7.5-3.358,7.5-7.5c0-4.142-3.358-7.5-7.5-7.5h-40.271V16.26c3.247,1.106,6.303,2.926,8.888,5.51
		c0,0,107.743,107.992,108.58,109.255h-44.814c-4.142,0-7.5,3.358-7.5,7.5c0,4.142,3.358,7.5,7.5,7.5h48.588
		c-0.288,3.129-1.206,6.227-2.795,9.085L276.183,345.208z M453.83,224.289c-0.583,3.005-4.659,10.965-13.665,7.816
		c-30.344-10.611-48.684-30.282-58.837-45.143l11.527-20.732c8.78,16.124,25.069,36.077,54.359,46.34
		C451.959,214.233,454.803,219.271,453.83,224.289z"/>
</g>
<g>
</g>
<g>
</g>
<g>
</g>
<g>
</g>
<g>
</g>
<g>
</g>
<g>
</g>
<g>
</g>
<g>
</g>
<g>
</g>
<g>
</g>
<g>
</g>
<g>
</g>
<g>
</g>
<g>
</g>
</svg>
