<?xml version="1.0" encoding="iso-8859-1"?>
<!-- Generator: Adobe Illustrator 19.0.0, SVG Export Plug-In . SVG Version: 6.00 Build 0)  -->
<svg version="1.1" id="Layer_1" xmlns="http://www.w3.org/2000/svg" xmlns:xlink="http://www.w3.org/1999/xlink" x="0px" y="0px"
	 viewBox="0 0 512 512" style="enable-background:new 0 0 512 512;" xml:space="preserve">
<g id="grapes">
	<g id="fill_11_">
		<circle style="fill:#A673DD;" cx="256" cy="439.788" r="64.712"/>
		<path style="fill:#966DCC;" d="M320.705,438.859c-0.498-35.31-29.265-63.783-64.694-63.783c-35.739,0-64.712,28.973-64.712,64.712
			c0,5.697,0.723,11.217,2.105,16.48C247.219,459.259,291.461,448.951,320.705,438.859z"/>
		<path style="fill:#9AD880;" d="M391.103,198.276c-17.623-16.796-15.188-38.738-9.559-54.903
			c2.41-6.921-4.175-13.507-11.096-11.096c-16.164,5.629-38.107,8.064-54.903-9.559l-50.834,18.559l-4.533,112.367
			c32.824-14.443,57.314-6.486,71.764,2.324c6.954,4.24,16.021,0.893,18.525-6.857c6.903-21.37,22.218-30.529,36.405-34.255
			C394.262,212.914,396.635,203.548,391.103,198.276z"/>
		<path style="fill:#9AD880;" d="M131.887,198.276c17.623-16.796,15.188-38.738,9.559-54.903
			c-2.41-6.921,4.175-13.507,11.096-11.096c16.164,5.629,38.107,8.064,54.903-9.559c5.272-5.531,14.638-3.159,16.579,4.232
			c3.726,14.186,12.885,29.502,34.255,36.405c7.75,2.503,11.097,11.571,6.857,18.525c-8.81,14.45-16.767,38.94-2.324,71.764
			c-32.824-14.443-57.314-6.486-71.764,2.324c-6.954,4.24-16.021,0.893-18.525-6.857c-6.903-21.37-22.218-30.529-36.405-34.255
			C128.728,212.914,126.355,203.548,131.887,198.276z"/>
		<path style="fill:#B2E59C;" d="M256,290.425c-8.265,0-14.965-6.7-14.965-14.965V22.465c0-8.265,6.7-14.965,14.965-14.965
			c8.265,0,14.965,6.7,14.965,14.965V275.46C270.965,283.725,264.265,290.425,256,290.425z"/>
		<circle style="fill:#BA81EF;" cx="299.828" cy="351.944" r="64.712"/>
		<path style="fill:#A673DD;" d="M299.828,287.232c-35.739,0-64.712,28.972-64.712,64.712c0,4.523,0.464,8.939,1.347,13.2
			c62.11,2.146,104.177-9.656,127.786-19.366C361.146,312.93,333.488,287.232,299.828,287.232z"/>
		<circle style="fill:#CF92FF;" cx="212.172" cy="351.944" r="64.712"/>
		<path style="fill:#BA81EF;" d="M212.172,287.232c-35.739,0-64.712,28.972-64.712,64.712c0,5.702,0.737,11.229,2.121,16.496
			c21.286-3.665,46.616-5.532,76.099-3.8c18.261,1.073,34.9,0.948,49.958-0.002c0.816-4.105,1.245-8.349,1.245-12.694
			C276.884,316.204,247.912,287.232,212.172,287.232z"/>
		<circle style="fill:#DFAEFF;" cx="343.655" cy="264.099" r="64.712"/>
		<circle style="fill:#DFAEFF;" cx="168.345" cy="264.099" r="64.712"/>
		<circle style="fill:#EAC2FF;" cx="256" cy="264.099" r="64.712"/>
		<path style="fill:#C8EFB9;" d="M296.398,148.963c-30.527,0-55.363-24.836-55.363-55.363s24.836-55.362,55.363-55.362
			c30.527,0,55.363,24.835,55.363,55.362S326.925,148.963,296.398,148.963z M296.398,68.168c-14.023,0-25.432,11.409-25.432,25.432
			s11.409,25.433,25.432,25.433S321.83,107.623,321.83,93.6S310.421,68.168,296.398,68.168z"/>
	</g>
	<g id="stroke_11_">
		<path d="M415.867,264.099c0-18.295-6.852-35.012-18.108-47.75c1.537-1.896,2.685-4.136,3.328-6.633
			c1.568-6.083-0.275-12.547-4.811-16.869c-11.967-11.406-14.541-27.221-7.65-47.007c2.069-5.943,0.602-12.387-3.829-16.817
			c-4.431-4.43-10.875-5.898-16.817-3.829c-7.015,2.443-13.572,3.684-19.62,3.737c6.873-10.076,10.899-22.241,10.899-35.332
			c0-17.779-7.604-34.815-20.864-46.74c-3.081-2.77-7.822-2.519-10.592,0.562c-2.77,3.08-2.519,7.822,0.561,10.592
			c10.101,9.084,15.894,22.055,15.894,35.586c0,26.392-21.471,47.863-47.863,47.863c-26.392,0-47.863-21.471-47.863-47.863
			s21.473-48.201,47.863-47.862c6.126,0.079,14.451,1.527,15.802-5.734c0.758-4.072-2.163-8.115-6.283-8.545
			c-12.665-1.324-21.766,0.204-27.452,1.9V22.465C278.465,10.078,268.387,0,256,0s-22.465,10.078-22.465,22.465v109.306
			c-0.879-2.128-3.015-15.474-14.65-19.038c-6.006-1.84-12.547,0.276-16.869,4.811c-11.404,11.967-27.22,14.542-47.007,7.65
			c-5.942-2.07-12.387-0.602-16.817,3.829c-4.431,4.431-5.898,10.875-3.828,16.817c6.89,19.786,4.316,35.602-7.651,47.007
			c-4.508,4.297-6.169,10.46-4.967,16.151c-15.651,13.256-25.612,33.032-25.612,55.101c0,30.847,19.448,57.225,46.721,67.551
			c-1.92,6.56-2.893,13.358-2.893,20.293c0,30.852,19.454,57.234,46.734,67.557c-1.919,6.555-2.906,13.347-2.906,20.288
			C183.788,479.606,216.182,512,256,512c18.239,0,35.651-6.818,49.031-19.197c13.303-12.309,21.447-29,22.934-47.001
			c0.341-4.129-2.729-7.751-6.857-8.092c-4.143-0.342-7.751,2.73-8.092,6.857c-1.177,14.251-7.63,27.472-18.172,37.225
			C284.245,491.599,270.45,497,256,497c-31.547,0-57.212-25.665-57.212-57.212c0-5.641,0.814-11.155,2.409-16.465
			c3.58,0.548,31.859,4.348,54.768-14.015c12.553,9.614,27.895,14.848,43.863,14.848c39.818,0,72.212-32.394,72.212-72.212
			c0-6.941-0.988-13.733-2.907-20.288C396.413,321.333,415.867,294.951,415.867,264.099z M335.711,142.601
			c23.179,5.307,38.717-3.681,38.48-2.972c-15.301,45.896,12.371,66.343,12.371,66.343c-0.006,0.022-0.015,0.049-0.022,0.073
			c-12.001-8.889-26.838-14.157-42.886-14.157c-15.969,0-31.311,5.233-43.863,14.847c-6.363-4.869-13.555-8.7-21.327-11.251v-41.642
			C284.152,155.538,310.847,162.359,335.711,142.601z M248.535,22.465c0-4.116,3.349-7.465,7.465-7.465
			c4.116,0,7.465,3.349,7.465,7.465v17.617c-5.627,3.476-10.661,7.816-14.93,12.83V22.465z M263.465,147.117v45.156
			c-2.455-0.253-4.945-0.385-7.465-0.385c-2.518,0-5.006,0.144-7.465,0.396v-57.996
			C252.804,139.301,257.838,143.642,263.465,147.117z M148.798,139.629c-0.179-0.726,39.957,13.454,66.343-12.371
			c0.357-0.35,1.419,18.733,18.394,30.408v37.783c-7.777,2.529-15.001,6.34-21.404,11.226
			c-12.538-9.577-34.985-21.766-68.534-10.417C154.332,181.482,156.024,168.95,148.798,139.629z M111.133,264.099
			c0-31.546,25.665-57.211,57.212-57.211c11.798,0,23.162,3.608,32.706,10.27c-7.155,8.384-12.463,18.497-15.216,29.806
			c-0.98,4.025,1.488,8.082,5.513,9.062c4.021,0.979,8.081-1.489,9.061-5.513c6.253-25.686,29.113-43.625,55.591-43.625
			c31.547,0,57.212,25.665,57.212,57.211c0,31.547-25.665,57.212-57.212,57.212c-26.915,0-49.86-18.302-55.798-44.507
			c-0.915-4.04-4.933-6.573-8.972-5.657c-4.04,0.915-6.573,4.932-5.657,8.972c2.581,11.391,7.978,22.009,15.544,30.874
			c-9.558,6.692-20.947,10.318-32.772,10.318C136.798,321.311,111.133,295.646,111.133,264.099z M154.96,351.944
			c0-5.635,0.813-11.152,2.408-16.465c3.58,0.548,30.382,5.024,54.815-13.996c12.526,9.568,28.852,18.081,54.786,13.997
			c1.595,5.309,2.415,10.821,2.415,16.465c0,31.547-25.665,57.212-57.212,57.212C180.626,409.156,154.96,383.491,154.96,351.944z
			 M357.04,351.944c0,31.547-25.665,57.212-57.212,57.212c-11.834,0-23.232-3.632-32.794-10.335
			c10.804-12.625,17.351-28.997,17.351-46.877c0-6.945-0.991-13.734-2.91-20.287c6.623-2.506,12.781-5.957,18.314-10.191
			c12.552,9.616,30.674,16.864,54.84,14.012C356.224,340.789,357.04,346.303,357.04,351.944z M343.655,321.311
			c-11.84,0-23.235-3.629-32.797-10.332c10.805-12.626,17.353-28.998,17.353-46.88c0-17.881-6.547-34.252-17.351-46.877
			c9.562-6.702,20.96-10.334,32.794-10.334c31.547,0,57.212,25.665,57.212,57.211C400.867,295.646,375.202,321.311,343.655,321.311z
			"/>
		<path d="M263.465,93.6c0,18.159,14.773,32.933,32.933,32.933c18.159,0,32.932-14.773,32.932-32.933
			c0-18.159-14.773-32.932-32.932-32.932C278.239,60.668,263.465,75.441,263.465,93.6z M314.33,93.6
			c0,9.888-8.045,17.933-17.932,17.933c-9.888,0-17.933-8.044-17.933-17.933c0-9.888,8.044-17.932,17.933-17.932
			C306.286,75.668,314.33,83.712,314.33,93.6z"/>
	</g>
</g>
<g>
</g>
<g>
</g>
<g>
</g>
<g>
</g>
<g>
</g>
<g>
</g>
<g>
</g>
<g>
</g>
<g>
</g>
<g>
</g>
<g>
</g>
<g>
</g>
<g>
</g>
<g>
</g>
<g>
</g>
</svg>
