<?xml version="1.0" encoding="iso-8859-1"?>
<!-- Generator: Adobe Illustrator 19.0.0, SVG Export Plug-In . SVG Version: 6.00 Build 0)  -->
<svg version="1.1" id="Layer_1" xmlns="http://www.w3.org/2000/svg" xmlns:xlink="http://www.w3.org/1999/xlink" x="0px" y="0px"
	 viewBox="0 0 512.043 512.043" style="enable-background:new 0 0 512.043 512.043;" xml:space="preserve">
<g id="tree">
	<g id="fill_13_">
		<path style="fill:#B2785B;" d="M256.022,504.543L256.022,504.543c-23.446,0-42.63-19.183-42.63-42.629v-141.05
			c0-23.446,19.183-42.629,42.63-42.629h0c23.446,0,42.63,19.183,42.63,42.629v141.05
			C298.651,485.36,279.468,504.543,256.022,504.543z"/>
		<path style="fill:#935B45;" d="M256.022,278.234L256.022,278.234c-23.446,0-42.63,19.183-42.63,42.63V443.39
			c34.712-6.132,63.302-18.833,85.259-32.076v-90.45C298.651,297.418,279.468,278.234,256.022,278.234z"/>
		<path style="fill:#F27564;" d="M473.108,287.38c-53.38-67.4-106.404-149.336-106.404-149.336H145.339
			c0,0-53.023,81.937-106.404,149.336c-9.508,12.005-2.283,29.808,12.914,31.7c23.643,2.943,53.517,5.153,70.675,0.664
			c0,0-8.23,29.275-17.41,56.232c-6.425,18.866,9.434,37.78,29.16,34.93c37.112-5.362,89.105-20.253,121.748-61.004
			c32.642,40.752,84.635,55.642,121.748,61.004c19.726,2.85,35.586-16.064,29.16-34.93c-9.181-26.957-17.41-56.232-17.41-56.232
			c17.158,4.49,47.033,2.279,70.676-0.664C475.391,317.188,482.616,299.385,473.108,287.38z"/>
		<path style="fill:#E5675A;" d="M287.813,221.753c18.677-6.822,31.102-15.907,31.102-15.907v-67.802H145.339
			c0,0-53.023,81.937-106.404,149.336c-9.508,12.005-2.283,29.808,12.914,31.7c23.643,2.943,53.517,5.153,70.676,0.664
			c0,0-8.23,29.275-17.41,56.232c-6.425,18.866,9.434,37.78,29.16,34.93c18.162-2.624,39.875-7.525,61.152-16.627
			c22.651-37.122,36.342-83.424,44.172-117.54C245.395,251.478,263.469,230.644,287.813,221.753z"/>
		<path style="fill:#F79389;" d="M403.016,107.513c-47.555-18.675-100.619-65.8-128.136-92.351
			c-10.529-10.158-27.187-10.158-37.716,0c-27.517,26.55-80.581,73.675-128.136,92.351c-12.795,5.025-12.578,23.188,0.222,28.199
			c32.611,12.767,67.388,7.885,67.388,7.885l-12.165,40.673c-5.086,17.004,13.719,31.163,28.655,21.576l62.894-40.372l62.894,40.372
			c14.936,9.587,33.741-4.572,28.655-21.576l-12.165-40.673c0,0,34.778,4.882,67.388-7.885
			C415.594,130.7,415.81,112.537,403.016,107.513z"/>
		<path style="fill:#57565C;" d="M336.678,270.381c-4.143,0-7.5-3.358-7.5-7.5v-12.451c0-4.142,3.357-7.5,7.5-7.5
			c4.143,0,7.5,3.358,7.5,7.5v12.451C344.178,267.023,340.821,270.381,336.678,270.381z"/>
		<path style="fill:#57565C;" d="M175.365,270.381c-4.143,0-7.5-3.358-7.5-7.5v-12.451c0-4.142,3.357-7.5,7.5-7.5
			c4.143,0,7.5,3.358,7.5,7.5v12.451C182.865,267.023,179.507,270.381,175.365,270.381z"/>
		<path style="fill:#57565C;" d="M256.022,278.234c-9.707,0-19.414-3.141-27.514-9.424c-3.273-2.539-3.868-7.25-1.329-10.523
			c2.537-3.274,7.25-3.869,10.522-1.33c10.787,8.367,25.854,8.367,36.641,0c3.271-2.539,7.984-1.944,10.522,1.33
			c2.539,3.273,1.944,7.984-1.329,10.523C275.436,275.093,265.729,278.234,256.022,278.234z"/>
		<path style="fill:#F9867A;" d="M227.706,24.131c-29.12,27.147-76.1,66.661-118.679,83.382
			c-12.795,5.024-12.578,23.188,0.222,28.199c32.611,12.767,67.389,7.885,67.389,7.885l-12.165,40.673
			c-2.558,8.551,0.927,16.383,6.923,20.837C225.948,150.205,229.61,65.333,227.706,24.131z"/>
	</g>
	<g id="stroke_13_">
		<path d="M336.678,242.931c-4.143,0-7.5,3.358-7.5,7.5v12.451c0,4.142,3.357,7.5,7.5,7.5c4.143,0,7.5-3.358,7.5-7.5v-12.451
			C344.178,246.289,340.821,242.931,336.678,242.931z"/>
		<path d="M175.365,242.931c-4.143,0-7.5,3.358-7.5,7.5v12.451c0,4.142,3.357,7.5,7.5,7.5c4.143,0,7.5-3.358,7.5-7.5v-12.451
			C182.865,246.289,179.507,242.931,175.365,242.931z"/>
		<path d="M274.342,256.958c-10.787,8.367-25.853,8.367-36.641,0c-3.273-2.539-7.985-1.944-10.523,1.33
			c-2.539,3.273-1.944,7.984,1.329,10.523c8.1,6.283,17.807,9.424,27.514,9.424s19.414-3.141,27.514-9.424
			c3.273-2.539,3.868-7.25,1.329-10.523C282.326,255.014,277.613,254.42,274.342,256.958z"/>
		<path d="M478.987,282.724c-39.132-49.409-78.18-106.829-95.991-133.582c7.328-1.422,14.967-3.485,22.532-6.446
			c8.788-3.441,14.471-11.768,14.476-21.215c0.005-9.326-5.588-17.548-14.247-20.949c-46.363-18.207-98.637-64.683-125.67-90.767
			c-13.494-13.02-34.636-13.02-48.132,0c-10.715,10.338-27.524,25.908-46.76,41.373c-3.229,2.595-3.741,7.316-1.145,10.544
			c2.596,3.229,7.316,3.743,10.544,1.146c19.673-15.816,36.84-31.716,47.776-42.269c7.656-7.385,19.649-7.385,27.302,0
			c27.837,26.858,81.818,74.776,130.603,93.934c4.391,1.725,4.729,5.778,4.729,6.979c-0.001,1.248-0.359,5.46-4.944,7.255
			c-30.293,11.86-63.29,7.486-63.611,7.442c-2.527-0.352-5.066,0.601-6.731,2.539c-1.665,1.938-2.23,4.589-1.497,7.037
			l12.165,40.674c2.151,7.193-2.629,11.477-4.145,12.619c-1.516,1.142-6.955,4.553-13.273,0.496l-62.894-40.372
			c-2.469-1.585-5.635-1.585-8.104,0l-62.893,40.372c-6.318,4.055-11.757,0.645-13.273-0.496c-1.517-1.142-6.297-5.426-4.145-12.619
			l12.165-40.673c0.732-2.447,0.168-5.099-1.497-7.037c-1.666-1.938-4.206-2.894-6.732-2.539
			c-0.325,0.047-33.184,4.471-63.611-7.442c-4.585-1.795-4.943-6.007-4.944-7.255c0-1.201,0.339-5.254,4.729-6.979
			c17.458-6.855,37.083-17.987,58.329-33.085c3.376-2.399,4.168-7.082,1.768-10.458c-2.398-3.376-7.08-4.169-10.458-1.769
			c-20.253,14.392-38.799,24.94-55.122,31.35c-8.659,3.401-14.252,11.623-14.247,20.949c0.005,9.447,5.688,17.774,14.476,21.215
			c7.564,2.962,15.204,5.025,22.532,6.447c-17.807,26.749-56.85,84.161-95.991,133.582c-6.184,7.807-7.624,17.968-3.853,27.18
			c3.758,9.18,11.878,15.393,21.719,16.618c25.742,3.204,46.203,4.068,61.084,2.583c-3.229,10.957-8.458,28.207-13.991,44.453
			c-3.852,11.31-1.593,23.552,6.044,32.749c7.681,9.249,19.381,13.744,31.287,12.022c21.042-3.04,46.352-9.011,70.546-20.553v64.138
			c0,27.642,22.488,50.129,50.13,50.129s50.13-22.488,50.13-50.129v-44.898c0-4.142-3.357-7.5-7.5-7.5c-4.143,0-7.5,3.358-7.5,7.5
			v44.898c0,19.371-15.759,35.129-35.13,35.129s-35.13-15.759-35.13-35.129v-72.143c12.64-7.532,24.631-16.835,35.13-28.338
			c34.093,37.354,83.951,51.271,120.676,56.896c17.904,2.742,24.688-4.076,31.287-12.022c7.637-9.196,9.896-21.439,6.044-32.749
			c-5.533-16.245-10.762-33.495-13.991-44.452c14.882,1.481,35.342,0.62,61.084-2.583c9.841-1.225,17.961-7.438,21.719-16.618
			C486.611,300.692,485.171,290.531,478.987,282.724z M468.958,304.221c-1.677,4.097-5.3,6.869-9.69,7.416
			c-31.521,3.922-54.982,4.217-67.851,0.851c-2.599-0.678-5.366,0.083-7.25,2.001c-1.883,1.918-2.596,4.697-1.868,7.285
			c0.082,0.294,8.39,29.781,17.53,56.62c2.155,6.329,0.891,13.181-3.385,18.33c-4.319,5.201-10.893,7.729-17.603,6.76
			c-36.263-5.239-85.992-19.602-116.967-58.271c-1.423-1.777-3.577-2.811-5.853-2.811s-4.431,1.034-5.854,2.811
			c-30.975,38.669-80.704,53.031-116.967,58.271c-6.701,0.966-13.283-1.559-17.603-6.76c-4.275-5.148-5.54-12-3.385-18.33
			c9.141-26.839,17.448-56.326,17.53-56.62c0.727-2.588,0.015-5.367-1.868-7.285c-1.884-1.918-4.649-2.679-7.25-2.001
			c-12.867,3.367-36.332,3.073-67.851-0.851c-4.391-0.547-8.014-3.319-9.69-7.416c-1.691-4.128-1.044-8.683,1.729-12.185
			c42.738-53.964,85.296-117.276,100.72-140.615c8.112,0.691,15.285,0.701,20.788,0.492l-9.035,30.208
			c-3.226,10.785,0.501,22.129,9.494,28.9c4.772,3.594,16.083,8.421,30.398,1.136l58.842-37.771l58.842,37.771
			c9.476,6.081,21.406,5.635,30.399-1.136c8.992-6.771,12.719-18.115,9.493-28.9l-9.035-30.208
			c5.505,0.209,12.678,0.198,20.788-0.493c15.427,23.344,57.992,86.667,100.721,140.616
			C470.002,295.538,470.649,300.093,468.958,304.221z"/>
	</g>
</g>
<g>
</g>
<g>
</g>
<g>
</g>
<g>
</g>
<g>
</g>
<g>
</g>
<g>
</g>
<g>
</g>
<g>
</g>
<g>
</g>
<g>
</g>
<g>
</g>
<g>
</g>
<g>
</g>
<g>
</g>
</svg>
