<?xml version="1.0" encoding="iso-8859-1"?>
<!-- Generator: Adobe Illustrator 19.0.0, SVG Export Plug-In . SVG Version: 6.00 Build 0)  -->
<svg version="1.1" id="Layer_1" xmlns="http://www.w3.org/2000/svg" xmlns:xlink="http://www.w3.org/1999/xlink" x="0px" y="0px"
	 viewBox="0 0 512.03 512.03" style="enable-background:new 0 0 512.03 512.03;" xml:space="preserve">
<g id="hot_chocolate">
	<g id="fill_14_">
		<path style="fill:#ABEBF4;" d="M459.873,256.754c-24.004-30.092-74.796-29.492-113.448,1.34
			c-38.652,30.832-50.526,80.22-26.522,110.312c24.004,30.092,74.796,29.492,113.448-1.34
			C472.003,336.234,483.877,286.845,459.873,256.754z M345.126,348.286c-12.435-15.589-2.426-45.948,21.419-64.969
			c23.845-19.021,55.67-22.032,68.105-6.443c12.435,15.589,2.426,45.948-21.419,64.969
			C389.386,360.864,357.561,363.874,345.126,348.286z"/>
		<path style="fill:#8ED7E8;" d="M346.425,258.1c-38.651,30.832-50.526,80.22-26.522,110.312c21.11,26.463,62.932,29.187,99,8.49
			c4.319-17.832,7.028-34.437,8.552-49.761c-3.932,5.299-8.7,10.303-14.224,14.709c-23.845,19.021-55.67,22.031-68.105,6.443
			c-12.435-15.589-2.426-45.948,21.419-64.969c20.361-16.242,46.527-20.823,61.484-12.107c-1.19-13.973-3.289-25.893-5.573-35.597
			C398.555,231.6,370.2,239.135,346.425,258.1z"/>
		<path style="fill:#ABEBF4;" d="M296.266,504.53h-152.96c-17.543,0-31.765-14.222-31.765-31.765v-46.598h216.49v46.598
			C328.031,490.308,313.81,504.53,296.266,504.53z"/>
		<path style="fill:#8ED7E8;" d="M111.541,426.166v46.598c0,17.543,14.222,31.765,31.765,31.765h50.386
			c79.396-15.84,106.482-51.27,106.482-51.27v-27.093H111.541z"/>
		<path style="fill:#EDD9D1;" d="M184.585,216.403c0-25.067,10.02-39.137,16.652-48.448c4.687-6.582,6.102-8.569,6.102-15.451
			c0-6.882-1.414-8.869-6.102-15.45c-6.632-9.311-16.652-23.381-16.652-48.449c0-25.066,10.021-39.135,16.652-48.445
			c4.687-6.58,28.912-44.376,53.738-28.969c24.826,15.407-0.774,52.66-7.406,61.97c-4.686,6.579-6.101,8.565-6.101,15.444
			c0,6.882,1.414,8.869,6.102,15.451c6.632,9.311,16.652,23.381,16.652,48.448c0,25.068-10.02,39.138-16.652,48.449L184.585,216.403
			z"/>
		<path style="fill:#CCF8FF;" d="M259.012,459.38h-78.451c-77.76,0-140.797-63.037-140.797-140.797V225.4
			c0-26.796,21.723-48.519,48.519-48.519H351.29c26.796,0,48.519,21.723,48.519,48.519v93.182
			C399.809,396.342,336.772,459.38,259.012,459.38z"/>
		<path style="fill:#ABEBF4;" d="M177.828,360.799l4.383-183.918H88.283c-26.796,0-48.519,21.723-48.519,48.519v93.182
			c0,77.76,63.037,140.797,140.797,140.797h7.309c-8.457-7.664-14.83-16.164-19.597-24.292c-9.055-15.44-8.59-34.474,0.407-49.949
			C175.319,373.721,177.828,360.799,177.828,360.799z"/>
		<path style="fill:#DD9F80;" d="M122.688,176.881v154.173c0,19.59,16.029,35.619,35.619,35.619h0
			c19.591,0,35.619-16.029,35.619-35.619v-88.242c0-14.223,11.637-25.86,25.86-25.86c14.223,0,25.86,11.637,25.86,25.86v26.898
			c0,19.591,16.029,35.619,35.619,35.619h0c19.59,0,35.619-16.029,35.619-35.619v-92.829H122.688z"/>
		<circle style="fill:#DD9F80;" cx="281.265" cy="377.993" r="35.619"/>
		<path style="fill:#EDD9D1;" d="M119.175,141.784c-13.568,0-25.579-9.741-27.986-23.565c-5.512-31.641-2.441-62.174,8.881-88.299
			c6.246-14.412,22.99-21.035,37.407-14.786c14.413,6.247,21.033,22.994,14.786,37.407c-4.809,11.093-9.305,29.753-5.035,55.917
			C152.668,141.784,120.795,141.784,119.175,141.784z"/>
	</g>
	<g id="stroke_14_">
		<path d="M465.737,252.077c-13.361-16.75-34.337-25.619-58.428-24.975c0,0,1.733-57.72-56.02-57.72h-81.109
			c1.022-5.398,3.113-16.162-0.286-35.248c-0.726-4.079-4.822-6.656-8.876-5.807c-4.055,0.848-6.805,4.856-5.808,8.876
			c2.997,12.081,0.9,26.888-0.347,32.179h-45.461c3.614-5.251,5.434-8.98,5.434-16.878c0-9.281-2.504-12.797-7.493-19.801
			c-6.439-9.044-15.26-21.428-15.26-44.098c0-22.665,15.855-44.941,16.24-45.496c16.763-24.129,31.129-32.725,42.694-25.546
			c3.786,2.35,5.922,5.297,6.721,9.278c1.903,9.473-4.03,24.77-16.279,41.968c-4.988,7.003-7.492,10.518-7.492,19.795
			c0,12.088,10.017,23.345,11.328,25.342c2.274,3.461,6.925,4.424,10.386,2.151c3.462-2.274,4.426-6.924,2.151-10.386
			c-1.467-2.233-8.865-9.715-8.865-17.107c0-4.482,0.266-4.855,4.71-11.093c19.044-26.739,20.718-43.92,18.768-53.625
			c-1.603-7.982-6.278-14.576-13.518-19.069c-8.914-5.532-23.344-9.082-41.461,5.428c-10.319,8.264-18.128,19.505-21.463,24.305
			c-0.345,0.497-18.921,24.38-18.921,54.054c0,27.464,11.294,43.323,18.042,52.8c4.445,6.24,4.711,6.614,4.711,11.099
			c0,4.485-7.309,14.752-8.713,16.878H88.283c-30.889,0-56.019,25.13-56.019,56.019v93.182c0,53.795,28.794,100.988,71.777,126.986
			v27.196c0,21.651,17.614,39.265,39.265,39.265h152.96c21.651,0,39.266-17.614,39.266-39.265v-27.196
			c20.02-12.109,36.955-28.819,49.342-48.651c18.786-2.928,37.085-11.171,53.154-23.989c3.238-2.583,3.77-7.302,1.186-10.54
			c-2.584-3.239-7.304-3.77-10.54-1.186c-10.459,8.343-22.314,14.566-34.419,18.202c3.136-6.946,5.744-14.177,7.79-21.639
			c5.605-2.756,10.93-6.123,15.862-10.058c27.442-21.89,37.794-56.469,22.606-75.51c-7.148-8.961-18.982-13.414-33.205-12.758
			v-17.311c19.493-0.609,36.278,6.236,46.701,19.302c16.368,20.521,13.893,52.635-6.161,79.914
			c-2.453,3.337-1.85,8.195,1.601,10.485c5.115,3.395,9.016,0.398,10.485-1.601C484.059,317.413,486.39,277.969,465.737,252.077z
			 M320.532,472.765c0,13.38-10.886,24.265-24.266,24.265h-152.96c-13.38,0-24.265-10.885-24.265-24.265v-19.261
			c18.751,8.584,39.585,13.376,61.52,13.376h78.451c21.934,0,42.769-4.792,61.52-13.376V472.765z M259.012,451.879h-78.451
			c-73.5,0-133.297-59.797-133.297-133.297V225.4c0-22.618,18.4-41.019,41.019-41.019h221.102v85.329
			c0,15.505-12.614,28.119-28.12,28.119c-15.505,0-28.119-12.614-28.119-28.119v-26.898c0-18.395-14.965-33.36-33.359-33.36
			c-18.395,0-33.36,14.965-33.36,33.36v88.242c0,15.505-12.614,28.119-28.119,28.119s-28.119-12.614-28.119-28.119V211.077
			c0-4.142-3.357-7.5-7.5-7.5c-4.142,0-7.5,3.358-7.5,7.5v119.977c0,23.776,19.343,43.119,43.119,43.119
			c23.776,0,43.119-19.343,43.119-43.119v-88.242c0-10.123,8.236-18.36,18.36-18.36c10.123,0,18.359,8.236,18.359,18.36v26.898
			c0,23.776,19.344,43.119,43.12,43.119c23.776,0,43.119-19.343,43.119-43.119v-85.329h26.904c22.618,0,41.02,18.401,41.02,41.019
			v93.182C392.309,373.992,350.073,451.879,259.012,451.879z M428.787,281.55c8.812,11.046,1.955,37.613-22.733,56.326
			c0.825-6.317,1.254-12.756,1.254-19.294v-44.124C416.879,273.896,424.681,276.401,428.787,281.55z"/>
		<path d="M281.265,334.874c-23.776,0-43.119,19.343-43.119,43.12c0,23.776,19.343,43.119,43.119,43.119s43.12-19.343,43.12-43.119
			C324.385,354.217,305.041,334.874,281.265,334.874z M281.265,406.112c-15.505,0-28.119-12.614-28.119-28.119
			c0-15.505,12.614-28.12,28.119-28.12c15.506,0,28.12,12.614,28.12,28.12C309.385,393.498,296.771,406.112,281.265,406.112z"/>
		<path d="M119.175,149.284c3.113,0,41.547-1.003,35.456-42.035c-3.69-24.859,0.22-41.819,4.514-51.726
			c7.88-18.184-0.463-39.481-18.686-47.27c-27.413-11.718-43.452,9.876-47.271,18.685C81.284,54.409,78.037,86.419,83.8,119.506
			C86.806,136.76,101.683,149.284,119.175,149.284z M106.953,32.902c2.225-5.133,11.652-17.01,27.542-10.887
			c10.775,4.152,15.479,16.947,10.887,27.542c-5.092,11.75-10.004,31.686-5.555,60.107c3.435,21.943-16.304,24.619-20.651,24.619
			c-10.184,0-18.846-7.298-20.598-17.352C93.318,86.737,96.213,57.68,106.953,32.902z"/>
	</g>
</g>
<g>
</g>
<g>
</g>
<g>
</g>
<g>
</g>
<g>
</g>
<g>
</g>
<g>
</g>
<g>
</g>
<g>
</g>
<g>
</g>
<g>
</g>
<g>
</g>
<g>
</g>
<g>
</g>
<g>
</g>
</svg>
