<?xml version="1.0" encoding="iso-8859-1"?>
<!-- Generator: Adobe Illustrator 19.0.0, SVG Export Plug-In . SVG Version: 6.00 Build 0)  -->
<svg version="1.1" id="Layer_1" xmlns="http://www.w3.org/2000/svg" xmlns:xlink="http://www.w3.org/1999/xlink" x="0px" y="0px"
	 viewBox="0 0 512.005 512.005" style="enable-background:new 0 0 512.005 512.005;" xml:space="preserve">
<g id="cloud_1">
	<g id="fill_15_">
		<path style="fill:#CCF8FF;" d="M476.801,141.69c-15.701-15.72-35.442-24.774-55.805-27.259
			c-14.866-1.814-27.579-11.298-34.472-24.594c-24.451-47.165-73.713-79.394-130.508-79.394
			c-56.792,0-106.052,32.226-130.504,79.387c-6.987,13.475-19.985,22.732-35.041,24.659c-18.058,2.312-35.679,9.822-50.505,22.767
			C2.169,170.26-3.4,227.723,27.367,267.363c18.914,24.369,47.109,36.962,75.515,36.921h306.462v-0.027
			c25.793-0.004,51.541-10.386,70.407-31.051C513.869,235.836,512.562,177.492,476.801,141.69z"/>
		<path style="fill:#ABEBF4;" d="M167.848,212.649c-65.87-91.412,23.701-187.086,24.139-187.554
			c-28.523,13.839-51.907,36.64-66.475,64.735c-6.987,13.475-19.985,22.732-35.041,24.659c-18.058,2.312-35.679,9.822-50.505,22.767
			C2.169,170.26-3.4,227.723,27.367,267.364c18.914,24.369,47.109,36.962,75.515,36.921h118.626
			C207.283,274.694,189.447,242.623,167.848,212.649z"/>
		<path style="fill:#8ED7E8;" d="M305.355,452.211c0,27.256-22.095,49.351-49.351,49.351c-27.256,0-49.351-22.095-49.351-49.351
			c0-27.256,22.095-83.746,49.351-83.746C283.26,368.465,305.355,424.955,305.355,452.211z"/>
		<path style="fill:#7AC1DD;" d="M155.72,410.658c0,21.839-17.704,39.542-39.542,39.542c-21.839,0-39.542-17.704-39.542-39.542
			c0-21.839,17.704-67.102,39.542-67.102C138.017,343.556,155.72,388.82,155.72,410.658z"/>
		<path style="fill:#7AC1DD;" d="M435.374,410.658c0,21.839-17.704,39.542-39.542,39.542c-21.839,0-39.542-17.704-39.542-39.542
			c0-21.839,17.704-67.102,39.542-67.102C417.67,343.556,435.374,388.82,435.374,410.658z"/>
		<path style="fill:#57565C;" d="M256.004,232.245L256.004,232.245c-15.52,0-28.1-12.581-28.1-28.1v-20.43
			c0-4.237,3.434-7.671,7.671-7.671h40.859c4.237,0,7.671,3.434,7.671,7.671v20.43C284.104,219.664,271.524,232.245,256.004,232.245
			z"/>
		<ellipse style="fill:#FFA6BB;" cx="162.009" cy="204.144" rx="29.973" ry="23.869"/>
		<ellipse style="fill:#FFA6BB;" cx="350" cy="204.144" rx="29.973" ry="23.869"/>
		<path style="fill:#57565C;" d="M336.662,191.041c-4.143,0-7.5-3.358-7.5-7.5v-12.451c0-4.142,3.357-7.5,7.5-7.5
			c4.143,0,7.5,3.358,7.5,7.5v12.451C344.162,187.684,340.804,191.041,336.662,191.041z"/>
		<path style="fill:#57565C;" d="M175.348,191.041c-4.143,0-7.5-3.358-7.5-7.5v-12.451c0-4.142,3.357-7.5,7.5-7.5
			c4.143,0,7.5,3.358,7.5,7.5v12.451C182.848,187.684,179.491,191.041,175.348,191.041z"/>
	</g>
	<g id="stroke_15_">
		<path d="M329.162,171.091v12.451c0,4.142,3.357,7.5,7.5,7.5c4.143,0,7.5-3.358,7.5-7.5v-12.451c0-4.142-3.357-7.5-7.5-7.5
			C332.519,163.591,329.162,166.949,329.162,171.091z"/>
		<path d="M167.848,171.091v12.451c0,4.142,3.357,7.5,7.5,7.5c4.143,0,7.5-3.358,7.5-7.5v-12.451c0-4.142-3.357-7.5-7.5-7.5
			C171.205,163.591,167.848,166.949,167.848,171.091z"/>
		<path d="M511.979,206.692c-0.598-26.648-11.206-51.615-29.872-70.303c-16.413-16.432-37.231-26.6-60.203-29.403
			c-12.06-1.472-22.798-9.173-28.722-20.601c-8.085-15.596-18.701-29.615-31.552-41.67c-3.021-2.833-7.767-2.682-10.602,0.339
			c-2.833,3.022-2.682,7.768,0.339,10.602c11.609,10.889,21.197,23.551,28.497,37.633c8.205,15.828,23.241,26.515,40.222,28.587
			c19.611,2.393,37.387,11.077,51.408,25.114c15.925,15.944,24.977,37.266,25.487,60.038c0.511,22.772-7.576,44.479-22.771,61.122
			c-16.595,18.177-40.238,28.604-64.869,28.608c-0.214,0-306.472,0.027-306.472,0.027c-0.045,0-0.087,0-0.132,0
			c-27.356,0-52.663-12.395-69.447-34.02c-13.701-17.653-20.048-39.75-17.872-62.22c2.176-22.47,12.646-42.94,29.479-57.639
			c13.188-11.515,29.275-18.769,46.524-20.977c17.367-2.223,32.6-12.932,40.747-28.646c24.095-46.471,71.55-75.339,123.846-75.339
			c25.585,0,50.6,6.989,72.337,20.213c3.54,2.154,8.153,1.029,10.306-2.51c2.152-3.539,1.029-8.153-2.51-10.306
			c-24.088-14.652-51.797-22.397-80.133-22.397c-57.921,0-110.479,31.97-137.163,83.435c-5.882,11.346-16.849,19.074-29.335,20.672
			c-20.209,2.587-39.05,11.079-54.485,24.557C15.305,148.834,3.037,172.803,0.49,199.098c-2.547,26.297,4.893,52.174,20.952,72.864
			c19.648,25.314,49.27,39.823,81.285,39.822c0.051,0,0.104,0,0.155,0c0,0,306.906-0.01,307.125-0.029
			c28.596-0.189,56.002-12.372,75.283-33.492C503.098,258.758,512.576,233.34,511.979,206.692z"/>
		<path d="M256.005,360.965c-15.068,0-29.834,12.695-41.579,35.748c-9.135,17.93-15.272,40.233-15.272,55.499
			c0,31.348,25.503,56.851,56.851,56.851s56.851-25.503,56.851-56.851c0-15.266-6.137-37.569-15.272-55.499
			C285.839,373.66,271.073,360.965,256.005,360.965z M256.005,494.062c-23.077,0-41.851-18.774-41.851-41.851
			c0-12.907,5.608-32.929,13.637-48.69c8.791-17.255,19.338-27.557,28.213-27.557c8.876,0,19.422,10.302,28.213,27.557
			c8.029,15.76,13.637,35.782,13.637,48.69C297.855,475.288,279.081,494.062,256.005,494.062z"/>
		<path d="M116.178,336.056c-18.971,0-31.547,22.035-37.355,35.169c-1.675,3.789,0.038,8.217,3.826,9.893
			c3.787,1.673,8.217-0.038,9.893-3.826c7.047-15.938,16.325-26.235,23.637-26.235c15.068,0,32.043,38.882,32.043,59.602
			c0,17.668-14.374,32.042-32.043,32.042c-35.079,0-31.873-36.201-31.537-38.635c0.565-4.103-2.302-7.888-6.406-8.454
			c-4.107-0.566-7.888,2.303-8.454,6.406c-0.429,3.109-6.487,55.683,46.396,55.683c25.939,0,47.043-21.103,47.043-47.042
			c0-12.446-4.983-30.588-12.399-45.145C141.144,346.518,128.841,336.056,116.178,336.056z"/>
		<path d="M395.831,336.056c-12.663,0-24.966,10.461-34.644,29.457c-7.416,14.557-12.399,32.699-12.399,45.145
			c0,25.939,21.103,47.042,47.043,47.042c25.939,0,47.042-21.103,47.042-47.042c0-12.446-4.983-30.588-12.399-45.145
			C420.797,346.518,408.494,336.056,395.831,336.056z M395.831,442.701c-17.669,0-32.043-14.374-32.043-32.042
			c0-10.131,4.426-25.896,10.764-38.336c6.784-13.316,14.739-21.266,21.278-21.266c15.068,0,32.042,38.882,32.042,59.602
			C427.874,428.327,413.5,442.701,395.831,442.701z"/>
		<path d="M235.575,168.543c-8.365,0-15.171,6.806-15.171,15.171v20.43c0,19.63,15.97,35.6,35.6,35.6
			c19.629,0,35.6-15.97,35.601-35.6v-20.43c0-8.366-6.806-15.171-15.171-15.171H235.575z M276.605,183.715v20.429
			c0,11.359-9.242,20.601-20.601,20.601c-11.359,0-20.6-9.241-20.6-20.6v-20.43C235.404,183.62,276.605,183.62,276.605,183.715z"/>
	</g>
</g>
<g>
</g>
<g>
</g>
<g>
</g>
<g>
</g>
<g>
</g>
<g>
</g>
<g>
</g>
<g>
</g>
<g>
</g>
<g>
</g>
<g>
</g>
<g>
</g>
<g>
</g>
<g>
</g>
<g>
</g>
</svg>
