<?xml version="1.0" encoding="iso-8859-1"?>
<!-- Generator: Adobe Illustrator 19.0.0, SVG Export Plug-In . SVG Version: 6.00 Build 0)  -->
<svg version="1.1" id="Layer_1" xmlns="http://www.w3.org/2000/svg" xmlns:xlink="http://www.w3.org/1999/xlink" x="0px" y="0px"
	 viewBox="0 0 512 512" style="enable-background:new 0 0 512 512;" xml:space="preserve">
<g id="socks">
	<g id="fill_16_">
		<path style="fill:#8DC971;" d="M444.992,187.824H303.65V74.741c0-20.128,16.317-36.445,36.445-36.445h68.453
			c20.128,0,36.444,16.317,36.444,36.445V187.824z"/>
		<path style="fill:#9AD880;" d="M313.916,157.027H172.574V43.945c0-20.128,16.317-36.445,36.445-36.445h68.453
			c20.128,0,36.445,16.317,36.445,36.445V157.027z"/>
		<path style="fill:#8DC971;" d="M252.69,7.5h-43.671c-20.128,0-36.445,16.317-36.445,36.445v113.082h72.388
			C237.375,71.917,244.84,28.833,252.69,7.5z"/>
		<path style="fill:#79A85E;" d="M410.134,167.804c-4.142,0-7.5-3.358-7.5-7.5V75.222c0-4.142,3.358-7.5,7.5-7.5
			c4.142,0,7.5,3.358,7.5,7.5v85.083C417.634,164.446,414.277,167.804,410.134,167.804z"/>
		<path style="fill:#79A85E;" d="M374.321,167.804c-4.142,0-7.5-3.358-7.5-7.5V75.222c0-4.142,3.358-7.5,7.5-7.5
			c4.142,0,7.5,3.358,7.5,7.5v85.083C381.821,164.446,378.463,167.804,374.321,167.804z"/>
		<path style="fill:#709956;" d="M338.508,167.804c-4.142,0-7.5-3.358-7.5-7.5V75.222c0-4.142,3.358-7.5,7.5-7.5s7.5,3.358,7.5,7.5
			v85.083C346.008,164.446,342.65,167.804,338.508,167.804z"/>
		<path style="fill:#F27564;" d="M277.994,162.206v100.736l-77.225,77.224c-37.593,37.594-37.593,98.545,0,136.139
			c18.797,18.797,43.434,28.195,68.07,28.195s49.273-9.398,68.07-28.195l105.42-105.42c18.053-18.053,28.195-42.539,28.195-68.07
			v-140.61c0-17.72-14.365-32.085-32.085-32.085H310.079C292.359,130.121,277.994,144.486,277.994,162.206z"/>
		<path style="fill:#8DC971;" d="M470.523,302.815v-45.31c-40.28-2.952-79.54,20.178-95.255,59.699
			c-14.207,35.728-5.211,74.919,19.773,100.967l47.287-47.287C460.38,352.832,470.523,328.346,470.523,302.815z"/>
		<path style="fill:#B2E59C;" d="M435.825,173.163c-1.784-0.669-6.212-2.069-11.07,0l-50.44,18.928l-50.433-18.928
			c-3.568-1.339-7.501-1.339-11.071,0l-34.818,13.067v33.653l40.353-15.144l50.432,18.928c3.568,1.339,7.501,1.339,11.07,0.001
			l50.441-18.928l40.233,15.098v-33.653L435.825,173.163z"/>
		<path style="fill:#86BC69;" d="M279.059,137.008c-4.142,0-7.5-3.358-7.5-7.5V44.425c0-4.142,3.358-7.5,7.5-7.5
			c4.142,0,7.5,3.358,7.5,7.5v85.083C286.559,133.65,283.201,137.008,279.059,137.008z"/>
		<path style="fill:#86BC69;" d="M243.245,137.008c-4.142,0-7.5-3.358-7.5-7.5V44.425c0-4.142,3.358-7.5,7.5-7.5s7.5,3.358,7.5,7.5
			v85.083C250.745,133.65,247.387,137.008,243.245,137.008z"/>
		<path style="fill:#7FB762;" d="M207.431,137.008c-4.142,0-7.5-3.358-7.5-7.5V44.425c0-4.142,3.358-7.5,7.5-7.5s7.5,3.358,7.5,7.5
			v85.083C214.931,133.65,211.573,137.008,207.431,137.008z"/>
		<path style="fill:#F79389;" d="M146.918,131.409v100.736l-77.225,77.224c-37.593,37.594-37.593,98.545,0,136.139
			c18.797,18.797,43.434,28.195,68.07,28.195s49.273-9.398,68.07-28.195l105.42-105.42c18.053-18.053,28.195-42.539,28.195-68.07
			v-140.61c0-17.72-14.365-32.085-32.085-32.085H179.003C161.283,99.324,146.918,113.689,146.918,131.409z"/>
		<path style="fill:#F27564;" d="M179.003,99.324c-17.72,0-32.085,14.365-32.085,32.085v100.736l-77.225,77.224
			c-37.593,37.594-37.593,98.545,0,136.139c0,0,143.724-172.555,142.939-233.077c-1.05-80.963,30.613-113.107,30.613-113.107
			H179.003z"/>
		<path style="fill:#9AD880;" d="M339.447,272.019v-45.31c-40.28-2.952-79.54,20.178-95.255,59.699
			c-14.207,35.728-5.212,74.919,19.773,100.967l47.287-47.287C329.304,322.035,339.447,297.549,339.447,272.019z"/>
		<path style="fill:#C8EFB9;" d="M304.749,142.366c-1.784-0.669-6.212-2.069-11.07,0l-50.44,18.928l-50.433-18.928
			c-3.568-1.339-7.501-1.339-11.071,0l-34.818,13.067v33.653l40.353-15.144l50.432,18.928c3.568,1.339,7.501,1.339,11.07,0
			l50.441-18.928l40.233,15.098v-33.653L304.749,142.366z"/>
		<path style="fill:#B2E59C;" d="M192.806,142.366c-3.568-1.339-7.502-1.339-11.071,0l-34.818,13.067v33.653l40.353-15.144
			l26.416,9.914c1.083-11.957,2.908-22.502,5.134-31.726L192.806,142.366z"/>
	</g>
	<path id="stroke_16_" d="M438.438,122.621h-20.803V75.222c0-4.142-3.358-7.5-7.5-7.5c-4.142,0-7.5,3.358-7.5,7.5v47.399h-20.814
		V75.222c0-4.142-3.358-7.5-7.5-7.5c-4.142,0-7.5,3.358-7.5,7.5v47.399h-20.813V75.222c0-4.142-3.358-7.5-7.5-7.5
		s-7.5,3.358-7.5,7.5v24.46c-2.914-2.177-6.139-3.955-9.591-5.271V52.627c5.213-4.423,11.744-6.83,18.678-6.83h68.453
		c15.96,0,28.944,12.984,28.944,28.944V97.89c0,4.142,3.358,7.5,7.5,7.5c4.142,0,7.5-3.358,7.5-7.5V74.741
		c0-24.231-19.713-43.944-43.944-43.944h-68.453c-6.904,0-13.542,1.579-19.528,4.554C316.559,15.221,298.762,0,277.471,0h-68.453
		c-24.231,0-43.945,19.713-43.945,43.945v50.416c-14.974,5.649-25.656,20.122-25.656,37.048v97.629l-57.286,57.285
		c-2.929,2.929-2.929,7.678,0,10.607c2.928,2.929,7.677,2.929,10.606,0l59.482-59.482c1.407-1.406,2.197-3.314,2.197-5.303v-37.863
		l32.853-12.33l47.796,17.939c2.634,0.989,8.678,3.124,16.341,0.001l47.805-17.939l32.733,12.283v24.717
		c-18.788,0.085-37.057,5.307-53.272,15.292c-18.897,11.636-33.23,28.715-41.453,49.392c-13.894,34.941-7.372,74.751,16.434,103.441
		l-53.128,53.128c-16.765,16.765-39.056,25.998-62.766,25.998c-23.711,0-46.002-9.233-62.767-25.998
		c-33.369-33.37-34.823-86.976-3.312-122.04c2.769-3.081,2.516-7.823-0.565-10.591c-3.082-2.77-7.823-2.516-10.591,0.565
		c-36.842,40.995-35.146,103.664,3.862,142.672c19.598,19.598,45.656,30.392,73.373,30.392c16.801,0,32.989-3.973,47.502-11.461
		C188.355,473.93,213.777,512,268.839,512c27.717,0,53.774-10.793,73.373-30.392l105.42-105.42
		c19.599-19.599,30.392-45.657,30.392-73.373v-140.61C478.023,140.378,460.265,122.621,438.438,122.621z M346.947,189.831
		l24.733,9.282c1.699,0.637,3.571,0.638,5.271,0l50.44-18.928c2.035-0.775,3.759-0.766,5.799,0l29.833,11.195v17.632l-30.099-11.294
		c-1.698-0.637-3.57-0.638-5.27,0l-50.438,18.928c-1.872,0.702-3.933,0.702-5.802,0l-24.467-9.183V189.831z M463.023,162.206v13.152
		l-24.564-9.217c-5.627-2.112-11.321-2.093-16.476,0.052l-47.668,17.888l-27.368-10.271v-36.188h91.491
		C451.994,137.621,463.023,148.649,463.023,162.206z M209.019,15h68.453c15.961,0,28.945,12.984,28.945,28.945v47.879h-19.857
		V44.425c0-4.142-3.358-7.5-7.5-7.5c-4.142,0-7.5,3.358-7.5,7.5v47.398h-20.814V44.425c0-4.142-3.358-7.5-7.5-7.5
		s-7.5,3.358-7.5,7.5v47.398h-20.813V44.425c0-4.142-3.358-7.5-7.5-7.5s-7.5,3.358-7.5,7.5v47.398h-19.857V43.945
		C180.074,27.984,193.058,15,209.019,15z M179.003,106.824h128.359c13.556,0,24.585,11.029,24.585,24.586v13.152l-24.565-9.218
		c-5.628-2.111-11.321-2.091-16.475,0.052l-47.668,17.888l-47.797-17.938c-5.268-1.979-11.072-1.977-16.342-0.001l-24.682,9.263
		v-13.198C154.418,117.853,165.446,106.824,179.003,106.824z M301.848,166.92c-1.698-0.638-3.571-0.638-5.27,0l-50.439,18.928
		c-1.871,0.702-3.931,0.703-5.802,0l-50.432-18.928c-1.699-0.638-3.571-0.637-5.27,0l-30.218,11.34v-17.631l29.952-11.241
		c1.871-0.702,3.931-0.702,5.801,0l50.433,18.928c0.85,0.319,2.641,0.957,5.27,0l50.44-18.928c0.102-0.039,0.203-0.079,0.303-0.122
		c1.608-0.685,3.458-0.643,5.496,0.122l29.833,11.195v17.631L301.848,166.92z M251.161,289.18
		c13.331-33.524,45.245-55.052,80.786-55.225v38.064c0,23.709-9.233,46-25.998,62.767l-41.624,41.624
		C244.721,351.999,239.472,318.573,251.161,289.18z M437.025,365.582l-41.63,41.63c-6.857-8.552-12.126-18.416-15.398-28.903
		c-1.233-3.955-5.441-6.162-9.393-4.926c-3.954,1.233-6.16,5.439-4.926,9.393c3.991,12.794,10.531,24.791,19.064,35.09
		l-53.136,53.136C314.84,487.767,292.549,497,268.839,497c-46.881,0-68.296-31.917-70.735-35.123
		c4.594-3.297,8.954-6.988,13.032-11.065l105.42-105.42c19.599-19.6,30.392-45.657,30.392-73.373v-48.535l19.196,7.204
		c2.634,0.989,5.401,1.483,8.17,1.483c2.768,0,5.536-0.494,8.171-1.482l47.805-17.939l32.733,12.283v24.717
		c-18.789,0.086-37.056,5.307-53.272,15.292c-18.896,11.636-33.23,28.715-41.453,49.392c-4.461,11.219-6.896,22.974-7.237,34.937
		c-0.118,4.141,3.143,7.593,7.283,7.711c0.073,0.002,0.145,0.003,0.218,0.003c4.043,0,7.377-3.219,7.493-7.286
		c0.291-10.205,2.371-20.238,6.182-29.822c13.33-33.524,45.243-55.053,80.786-55.225v38.064
		C463.023,326.525,453.79,348.815,437.025,365.582z"/>
</g>
<g>
</g>
<g>
</g>
<g>
</g>
<g>
</g>
<g>
</g>
<g>
</g>
<g>
</g>
<g>
</g>
<g>
</g>
<g>
</g>
<g>
</g>
<g>
</g>
<g>
</g>
<g>
</g>
<g>
</g>
</svg>
