<?xml version="1.0" encoding="iso-8859-1"?>
<!-- Generator: Adobe Illustrator 19.0.0, SVG Export Plug-In . SVG Version: 6.00 Build 0)  -->
<svg version="1.1" id="Layer_1" xmlns="http://www.w3.org/2000/svg" xmlns:xlink="http://www.w3.org/1999/xlink" x="0px" y="0px"
	 viewBox="0 0 512 512" style="enable-background:new 0 0 512 512;" xml:space="preserve">
<g id="hat_1">
	<g id="fill_17_">
		<path style="fill:#ABEBF4;" d="M325.391,98.959l-11.277,9.126l1.521,14.443c1.28,12.158-8.967,22.406-21.126,21.125l-14.443-1.521
			l-9.126,11.277c-7.692,9.505-22.187,9.505-29.879,0l-9.126-11.277l-14.443,1.521c-12.158,1.28-22.406-8.967-21.125-21.126
			l1.521-14.443l-11.277-9.126c-9.505-7.692-9.505-22.187,0-29.879l11.277-9.126l-1.521-14.443
			c-1.28-12.158,8.967-22.406,21.126-21.125l14.443,1.521l9.126-11.277c7.692-9.505,22.187-9.505,29.879,0l9.126,11.278
			l14.443-1.521c12.158-1.28,22.406,8.967,21.125,21.126l-1.521,14.443l11.277,9.126C334.896,76.772,334.896,91.267,325.391,98.959z
			"/>
		<path style="fill:#8ED7E8;" d="M270.94,153.41l9.126-11.277l14.443,1.521c12.158,1.281,22.406-8.967,21.126-21.125l-1.521-14.443
			l11.277-9.126c9.505-7.692,9.505-22.187,0-29.879l-11.277-9.126c0,0-58.017-32.718-116.227,0l-11.277,9.126
			c-9.505,7.692-9.505,22.187,0,29.879l11.277,9.126l-1.521,14.443c-1.281,12.158,8.967,22.406,21.125,21.126l14.443-1.521
			l9.126,11.277C248.752,162.916,263.248,162.916,270.94,153.41z"/>
		<path style="fill:#FCE5CA;" d="M453.19,447.587H58.81V290c0-108.905,88.285-197.19,197.19-197.19h0
			c108.905,0,197.19,88.285,197.19,197.19V447.587z"/>
		<path style="fill:#EDCFB2;" d="M198.996,306.916c-58.82-63.128-60.869-134.812-54.06-179.877
			C92.944,162.546,58.81,222.29,58.81,290v157.587h212.273C264.571,408.965,246.253,357.634,198.996,306.916z"/>
		<ellipse style="fill:#8ED7E8;" cx="428.2" cy="438.295" rx="57.004" ry="66.205"/>
		<ellipse style="fill:#8ED7E8;" cx="83.8" cy="438.295" rx="57.004" ry="66.205"/>
		<ellipse style="fill:#ABEBF4;" cx="342.1" cy="438.295" rx="57.004" ry="66.205"/>
		<ellipse style="fill:#ABEBF4;" cx="169.9" cy="438.295" rx="57.004" ry="66.205"/>
		<ellipse style="fill:#CCF8FF;" cx="256" cy="438.295" rx="57.004" ry="66.205"/>
		<path style="fill:#57565C;" d="M336.657,224.901c-4.143,0-7.5-3.358-7.5-7.5V204.95c0-4.142,3.357-7.5,7.5-7.5s7.5,3.358,7.5,7.5
			v12.451C344.157,221.543,340.799,224.901,336.657,224.901z"/>
		<path style="fill:#57565C;" d="M175.343,224.901c-4.143,0-7.5-3.358-7.5-7.5V204.95c0-4.142,3.357-7.5,7.5-7.5
			c4.143,0,7.5,3.358,7.5,7.5v12.451C182.843,221.543,179.486,224.901,175.343,224.901z"/>
		<path style="fill:#57565C;" d="M256,232.754c-9.707,0-19.414-3.141-27.514-9.424c-3.273-2.539-3.868-7.25-1.329-10.523
			c2.537-3.274,7.25-3.869,10.522-1.33c10.787,8.367,25.853,8.367,36.641,0c3.272-2.539,7.984-1.944,10.522,1.33
			c2.539,3.273,1.944,7.984-1.329,10.523C275.414,229.613,265.707,232.754,256,232.754z"/>
		<path style="fill:#EDCFB2;" d="M314.08,339.99l-16.57,16.57c-3.93,3.93-10.303,3.93-14.233,0l-16.57-16.57
			c-3.93-3.93-3.93-10.303,0-14.233l16.57-16.57c3.93-3.93,10.303-3.93,14.233,0l16.57,16.57
			C318.011,329.688,318.011,336.06,314.08,339.99z"/>
		<path style="fill:#EDCFB2;" d="M363.066,291.005l-16.57,16.57c-3.93,3.93-10.303,3.93-14.233,0l-16.57-16.57
			c-3.93-3.93-3.93-10.303,0-14.233l16.57-16.57c3.93-3.93,10.303-3.93,14.233,0l16.57,16.57
			C366.996,280.702,366.996,287.074,363.066,291.005z"/>
		<path style="fill:#EDCFB2;" d="M412.052,339.99l-16.57,16.57c-3.93,3.93-10.303,3.93-14.233,0l-16.57-16.57
			c-3.93-3.93-3.93-10.303,0-14.233l16.57-16.57c3.93-3.93,10.303-3.93,14.233,0l16.57,16.57
			C415.982,329.688,415.982,336.06,412.052,339.99z"/>
	</g>
	<g id="stroke_17_">
		<path d="M344.157,217.401V204.95c0-4.142-3.357-7.5-7.5-7.5c-4.142,0-7.5,3.358-7.5,7.5v12.451c0,4.142,3.358,7.5,7.5,7.5
			C340.799,224.901,344.157,221.543,344.157,217.401z"/>
		<path d="M167.843,204.95v12.451c0,4.142,3.357,7.5,7.5,7.5c4.143,0,7.5-3.358,7.5-7.5V204.95c0-4.142-3.357-7.5-7.5-7.5
			C171.201,197.45,167.843,200.808,167.843,204.95z"/>
		<path d="M284.843,212.807c-2.538-3.274-7.251-3.868-10.522-1.33c-10.787,8.367-25.853,8.367-36.641,0
			c-3.272-2.539-7.985-1.944-10.522,1.33c-2.539,3.273-1.944,7.984,1.329,10.523c8.1,6.283,17.807,9.424,27.514,9.424
			c9.707,0,19.414-3.141,27.514-9.424C286.787,220.791,287.382,216.08,284.843,212.807z"/>
		<path d="M460.69,374.663V290c0-54.231-20.996-105.335-59.119-143.9c-2.914-2.946-7.661-2.973-10.607-0.061
			c-2.946,2.912-2.974,7.661-0.061,10.606c35.33,35.738,54.787,83.098,54.787,133.354v77.367c-5.566-1.795-11.428-2.776-17.49-2.776
			c-16.032,0-31.313,6.788-43.075,18.85c-11.424-11.711-26.506-18.85-43.025-18.85c-16.032,0-31.313,6.788-43.075,18.85
			c-11.424-11.711-26.507-18.85-43.025-18.85c-35.567,0-64.504,33.064-64.504,73.705c0,16.008,4.504,30.829,12.12,42.928
			C194.484,491.303,182.443,497,169.9,497c-27.296,0-49.504-26.335-49.504-58.705c0-32.37,22.207-58.705,49.504-58.705
			c5.357,0,10.624,1.011,15.656,3.005c3.849,1.525,8.209-0.359,9.736-4.21c1.526-3.851-0.359-8.21-4.209-9.736
			c-6.798-2.694-13.925-4.06-21.182-4.06c-16.519,0-31.602,7.14-43.025,18.85c-11.762-12.062-35.199-25.477-60.565-16.074V290
			c0-104.595,85.095-189.69,189.69-189.69c40.527,0,79.187,12.598,111.8,36.431c3.341,2.443,8.035,1.715,10.48-1.63
			c2.443-3.344,1.714-8.037-1.631-10.48c-13.314-9.73-27.562-17.721-42.498-23.902c3.773-4.693,5.868-10.545,5.868-16.709
			c0-8.102-3.612-15.672-9.911-20.77l-8.109-6.562l1.095-10.391c0.848-8.057-1.951-15.962-7.679-21.691
			c-5.728-5.729-13.636-8.524-21.691-7.679l-10.392,1.094l-6.563-8.109C271.673,3.612,264.103,0,256,0h0
			c-8.102,0-15.673,3.613-20.77,9.911l-6.563,8.109l-10.39-1.094c-8.061-0.851-15.963,1.95-21.691,7.678
			c-5.729,5.728-8.527,13.634-7.679,21.691l1.094,10.391l-8.109,6.563c-6.299,5.097-9.911,12.668-9.911,20.77
			c0,6.197,2.119,12.078,5.93,16.783C103.672,131.558,51.31,204.774,51.31,290v84.663c-19.13,12.802-32.014,36.524-32.014,63.633
			c0,40.641,28.936,73.705,64.503,73.705c16.032,0,31.313-6.788,43.075-18.85C138.298,504.86,153.381,512,169.9,512
			c16.031,0,31.312-6.788,43.075-18.85C224.398,504.86,239.481,512,256,512c16.519,0,31.602-7.14,43.026-18.85
			c11.762,12.062,27.043,18.85,43.075,18.85c16.519,0,31.601-7.139,43.025-18.85C396.888,505.212,412.168,512,428.2,512
			c35.567,0,64.504-33.064,64.504-73.705C492.704,411.186,479.82,387.465,460.69,374.663z M186.98,84.02
			c0-3.554,1.584-6.874,4.347-9.11l11.277-9.126c1.976-1.599,3.007-4.088,2.741-6.616l-1.521-14.443
			c-0.373-3.534,0.855-7.002,3.368-9.514c2.513-2.513,5.981-3.743,9.514-3.367l14.443,1.521c2.528,0.266,5.018-0.766,6.616-2.741
			l9.126-11.277C249.126,16.584,252.447,15,256,15c3.553,0,6.874,1.585,9.109,4.347l9.126,11.277
			c1.599,1.976,4.09,3.004,6.615,2.741l14.443-1.521c3.54-0.372,7.002,0.856,9.514,3.368c2.513,2.513,3.74,5.981,3.368,9.514
			l-1.522,14.443c-0.266,2.527,0.766,5.017,2.741,6.616l11.277,9.126c2.762,2.235,4.347,5.556,4.347,9.109
			c0,6.659-6.621,10.95-6.621,10.95C298.438,88.593,277.462,85.31,256,85.31c-21.726,0-42.667,3.415-62.329,9.715
			C193.671,95.025,186.98,90.858,186.98,84.02z M83.799,497c-27.296,0-49.503-26.335-49.503-58.705
			c0-32.37,22.207-58.705,49.503-58.705c12.544,0,24.585,5.698,33.716,15.777c-7.616,12.1-12.12,26.92-12.12,42.928
			c0,16.008,4.504,30.829,12.12,42.928C108.384,491.303,96.343,497,83.799,497z M256,497c-27.296,0-49.504-26.335-49.504-58.705
			c0-32.37,22.207-58.705,49.504-58.705c27.297,0,49.504,26.335,49.504,58.705C305.504,470.665,283.297,497,256,497z M342.101,497
			c-12.544,0-24.585-5.697-33.717-15.777c7.616-12.099,12.12-26.92,12.12-42.928c0-16.008-4.504-30.829-12.12-42.928
			c9.132-10.079,21.173-15.777,33.716-15.777c27.297,0,49.504,26.335,49.504,58.705C391.605,470.665,369.398,497,342.101,497z
			 M428.2,497c-12.543,0-24.584-5.697-33.716-15.776c7.617-12.099,12.12-26.92,12.12-42.929c0-16.009-4.504-30.829-12.12-42.929
			c9.132-10.079,21.172-15.776,33.716-15.776c27.297,0,49.504,26.335,49.504,58.705C477.704,470.665,455.497,497,428.2,497z"/>
		<path d="M277.974,361.863c3.317,3.318,7.728,5.145,12.42,5.145c4.691,0,9.102-1.827,12.42-5.145l16.569-16.57
			c3.318-3.317,5.146-7.729,5.146-12.42c0-4.691-1.827-9.103-5.145-12.419l-16.57-16.57c-3.318-3.318-7.728-5.145-12.42-5.145
			c-4.692,0-9.103,1.827-12.419,5.145l-16.572,16.571c-6.847,6.848-6.847,17.991,0.001,24.839L277.974,361.863z M272.009,331.061
			l16.572-16.571c1.812-1.534,2.972-0.653,3.625,0l16.571,16.571c1.722,1.813,0.653,2.972,0,3.625c0,0,0,0.001-0.001,0.001
			l-16.57,16.57c-1.425,1.372-2.972,0.654-3.626,0l-16.57-16.57C271.01,333.688,271.01,332.06,272.009,331.061z"/>
		<path d="M339.379,318.023c4.692,0,9.103-1.827,12.419-5.145l16.572-16.571c0,0,0,0,0-0.001c6.847-6.848,6.847-17.99-0.001-24.839
			l-16.57-16.57c-3.317-3.318-7.727-5.145-12.42-5.145c-4.691,0-9.102,1.827-12.42,5.145l-16.57,16.57
			c-3.317,3.317-5.145,7.729-5.145,12.42s1.827,9.102,5.145,12.419l16.571,16.571C330.277,316.196,334.688,318.023,339.379,318.023z
			 M320.996,282.075l16.569-16.57c1.809-1.565,2.973-0.654,3.627-0.001l16.57,16.57c1,1,1,2.627,0,3.627l-16.571,16.571
			c-0.653,0.653-1.817,1.603-3.625,0l-16.571-16.571C320.342,285.047,319.464,283.888,320.996,282.075z"/>
		<path d="M375.944,361.864c3.318,3.318,7.729,5.145,12.42,5.145c4.692,0,9.102-1.827,12.421-5.145l16.569-16.57
			c3.318-3.317,5.145-7.729,5.145-12.42c0-4.691-1.827-9.103-5.145-12.419l-16.57-16.57c-6.849-6.848-17.99-6.849-24.841,0
			l-16.569,16.57c-3.318,3.317-5.145,7.728-5.145,12.42c0,4.692,1.827,9.103,5.145,12.42L375.944,361.864z M369.981,331.061
			l16.57-16.57c1.813-1.601,2.973-0.654,3.626,0l16.571,16.571c1.811,1.817,0.653,2.972,0,3.625c0,0,0,0.001-0.001,0.001
			l-16.57,16.57c-0.653,0.654-1.813,1.45-3.626,0l-16.571-16.571C369.327,334.033,368.36,332.874,369.981,331.061z"/>
	</g>
</g>
<g>
</g>
<g>
</g>
<g>
</g>
<g>
</g>
<g>
</g>
<g>
</g>
<g>
</g>
<g>
</g>
<g>
</g>
<g>
</g>
<g>
</g>
<g>
</g>
<g>
</g>
<g>
</g>
<g>
</g>
</svg>
