<?xml version="1.0" encoding="iso-8859-1"?>
<!-- Generator: Adobe Illustrator 19.0.0, SVG Export Plug-In . SVG Version: 6.00 Build 0)  -->
<svg version="1.1" id="Layer_1" xmlns="http://www.w3.org/2000/svg" xmlns:xlink="http://www.w3.org/1999/xlink" x="0px" y="0px"
	 viewBox="0 0 512 512" style="enable-background:new 0 0 512 512;" xml:space="preserve">
<g id="pear">
	<g id="fill_18_">
		
			<ellipse transform="matrix(0.7071 0.7071 -0.7071 0.7071 138.083 -191.5255)" style="fill:#C8EFB9;" cx="300.234" cy="70.918" rx="30.195" ry="54.772"/>
		<path style="fill:#B2E59C;" d="M321.585,92.27c3.88-3.88,7.308-7.935,10.257-12.055c-12.151-19.344-28.593-31.393-43.667-38.847
			c-3.171,2.454-6.282,5.189-9.292,8.199c-21.39,21.39-29.17,48.289-17.378,60.081C273.296,121.44,300.195,113.66,321.585,92.27z"/>
		<path style="fill:#EAB9A4;" d="M256,134.337L256,134.337c-12.258,0-22.287-10.029-22.287-22.287V29.787
			C233.713,17.529,243.742,7.5,256,7.5l0,0c12.258,0,22.287,10.029,22.287,22.287v82.263
			C278.287,124.308,268.258,134.337,256,134.337z"/>
		<path style="fill:#9AD880;" d="M329.083,156.196c0,0,0.689-75.157-73.083-75.157c-73.772,0-73.083,75.157-73.083,75.157
			c0,39.915-15.898,77.945-43.416,106.86c-27.45,28.844-44.298,67.869-44.298,110.831C95.203,462.693,167.194,504.5,256,504.5
			c88.806,0,160.797-41.807,160.797-130.613c0-42.961-16.849-81.987-44.298-110.831
			C344.981,234.142,329.083,196.112,329.083,156.196z"/>
		<path style="fill:#8DC971;" d="M287.573,86.832c-8.613-3.614-19.015-5.793-31.574-5.793c-73.772,0-73.083,75.157-73.083,75.157
			c0,39.915-15.898,77.945-43.416,106.86c-27.45,28.844-44.298,67.869-44.298,110.831c0,61.509,34.543,100.474,85.282,118.615
			c-14.665-100.54,70.054-189.54,66.843-306.324C245.622,124.079,271.988,97.231,287.573,86.832z"/>
		<path style="fill:#57565C;" d="M255.999,412.644L255.999,412.644c-15.52,0-28.1-12.581-28.1-28.1v-20.43
			c0-4.237,3.434-7.671,7.671-7.671h40.859c4.237,0,7.671,3.434,7.671,7.671v20.43C284.099,400.063,271.52,412.644,255.999,412.644z
			"/>
		<ellipse style="fill:#FFD7E2;" cx="162.004" cy="384.543" rx="29.973" ry="23.869"/>
		<ellipse style="fill:#FFD7E2;" cx="349.996" cy="384.543" rx="29.973" ry="23.869"/>
		<path style="fill:#57565C;" d="M336.657,371.441c-4.143,0-7.5-3.358-7.5-7.5V351.49c0-4.142,3.357-7.5,7.5-7.5s7.5,3.358,7.5,7.5
			v12.451C344.157,368.083,340.799,371.441,336.657,371.441z"/>
		<path style="fill:#57565C;" d="M175.343,371.441c-4.143,0-7.5-3.358-7.5-7.5V351.49c0-4.142,3.357-7.5,7.5-7.5
			c4.143,0,7.5,3.358,7.5,7.5v12.451C182.843,368.083,179.486,371.441,175.343,371.441z"/>
	</g>
	<g id="stroke_18_">
		<path d="M329.157,351.49v12.451c0,4.142,3.357,7.5,7.5,7.5c4.143,0,7.5-3.358,7.5-7.5V351.49c0-4.142-3.357-7.5-7.5-7.5
			C332.514,343.99,329.157,347.348,329.157,351.49z"/>
		<path d="M167.843,351.49v12.451c0,4.142,3.357,7.5,7.5,7.5c4.142,0,7.5-3.358,7.5-7.5V351.49c0-4.142-3.358-7.5-7.5-7.5
			C171.201,343.99,167.843,347.348,167.843,351.49z"/>
		<path d="M377.931,257.886c-26.663-28.018-41.348-64.132-41.348-101.621c0.012-1.332,0.04-29.309-16.447-52.505
			c2.318-1.951,20.2-12.623,29.786-43.046c4.409-13.991,2.067-26.106-5.655-33.829c-12.563-12.563-36.502-9.168-58.479,6.894
			c0,0-0.45-33.779-29.787-33.779c-16.425,0-29.787,13.362-29.787,29.787v22.058c0,4.142,3.357,7.5,7.5,7.5
			c4.143,0,7.5-3.358,7.5-7.5V29.787C241.213,21.633,247.847,15,256,15c8.153,0,14.787,6.633,14.787,14.787v44.795
			c-4.714-0.681-9.636-1.043-14.787-1.043c-23.595,0-42.656,7.164-56.657,21.293c-23.988,24.209-23.939,59.924-23.926,61.364
			c0,37.557-14.685,73.671-41.348,101.689C104.17,289.303,87.703,330.5,87.703,373.887c0,44.161,17.336,80.343,50.133,104.635
			C167.404,500.424,208.266,512,256,512c56.242,0,103.472-16.443,132.988-46.3c2.912-2.946,2.885-7.694-0.062-10.606
			c-2.946-2.913-7.694-2.885-10.606,0.061C351.644,482.139,308.203,497,256,497c-44.496,0-82.27-10.558-109.236-30.531
			c-29.236-21.655-44.061-52.804-44.061-92.581c0-39.52,14.998-77.044,42.231-105.661c29.33-30.82,45.482-70.606,45.482-112.083
			c-0.002-0.309,0.071-31.145,19.659-50.832C221.15,94.182,236.601,88.539,256,88.539s34.85,5.643,45.924,16.772
			c19.588,19.686,19.661,50.522,19.659,50.885c0,41.424,16.152,81.21,45.482,112.03c27.233,28.616,42.232,66.141,42.232,105.661
			c0,22.285-4.785,42.147-14.223,59.034c-2.02,3.616-0.727,8.185,2.888,10.206c3.617,2.019,8.186,0.727,10.206-2.888
			c10.702-19.15,16.129-41.474,16.129-66.352C424.297,330.5,407.83,289.303,377.931,257.886z M310.217,92.498
			c-7-6.405-15.168-11.188-24.43-14.353V53.31c19.285-18.408,40.485-23.204,47.873-15.818c3.63,3.63,4.19,10.542,1.853,19.054
			C329.246,79.367,312.296,90.761,310.217,92.498z"/>
		<path d="M235.57,348.943c-8.365,0-15.171,6.806-15.171,15.171v20.43c0,19.63,15.97,35.6,35.6,35.6s35.601-15.97,35.602-35.6
			v-20.43c0-8.365-6.806-15.171-15.171-15.171H235.57z M276.601,384.543c-0.001,11.359-9.242,20.6-20.602,20.6
			c-11.358,0-20.6-9.241-20.6-20.6c0,0,0.077-20.601,0.171-20.601h40.859C276.523,363.943,276.601,384.543,276.601,384.543z"/>
	</g>
</g>
<g>
</g>
<g>
</g>
<g>
</g>
<g>
</g>
<g>
</g>
<g>
</g>
<g>
</g>
<g>
</g>
<g>
</g>
<g>
</g>
<g>
</g>
<g>
</g>
<g>
</g>
<g>
</g>
<g>
</g>
</svg>
