<?xml version="1.0" encoding="iso-8859-1"?>
<!-- Generator: Adobe Illustrator 19.0.0, SVG Export Plug-In . SVG Version: 6.00 Build 0)  -->
<svg version="1.1" id="Layer_1" xmlns="http://www.w3.org/2000/svg" xmlns:xlink="http://www.w3.org/1999/xlink" x="0px" y="0px"
	 viewBox="0 0 512 512" style="enable-background:new 0 0 512 512;" xml:space="preserve">
<g id="jam">
	<g id="fill_19_">
		<path style="fill:#CCF8FF;" d="M356.84,504.5H153.848c-45.939,0-83.179-37.241-83.179-83.179V135.149H440.02v286.172
			C440.02,467.259,402.779,504.5,356.84,504.5z"/>
		<path style="fill:#ABEBF4;" d="M70.669,421.321c0,45.939,37.241,83.179,83.18,83.179h55.959
			c-23.467-27.53-29.613-78.435-30.072-121.309c-0.422-39.433,28.152-73.143,67.086-79.41
			c116.664-18.779,193.193-74.867,193.198-74.871v-93.761H70.669V421.321z"/>
		<path style="fill:#F79389;" d="M441.331,109.098H70.669l-25.794,57.834c-4.193,9.4,0.535,20.39,10.252,23.786
			c18.956,6.624,25.208,21.849,53.949,21.849c36.73,0,36.73-24.868,73.46-24.868c36.732,0,36.732,24.868,73.464,24.868
			c36.732,0,36.732-24.868,73.464-24.868c36.73,0,36.73,24.868,73.46,24.868c28.74,0,34.993-15.225,53.949-21.849
			c9.717-3.396,14.445-14.385,10.252-23.786L441.331,109.098z"/>
		<path style="fill:#F9867A;" d="M166.069,109.098h-95.4l-25.794,57.834c-4.193,9.4,0.535,20.39,10.252,23.786
			c18.956,6.624,25.208,21.849,53.949,21.849c22.511,0,31.233-9.346,43.063-16.578C159.48,172.146,165.461,142.698,166.069,109.098z
			"/>
		<path style="fill:#F79389;" d="M440.02,109.098H70.669V55.786c0-26.667,21.618-48.286,48.285-48.286h272.78
			c26.667,0,48.285,21.618,48.285,48.286V109.098z"/>
		<path style="fill:#F9867A;" d="M166.097,99.388c-0.689-52.348,14.95-78.704,29.519-91.888h-76.662
			c-26.667,0-48.285,21.618-48.285,48.286v53.312h95.401C166.127,105.897,166.141,102.662,166.097,99.388z"/>
		<path style="fill:#FFDAAA;" d="M436.742,132.725H75.275c-15.52,0-28.217-12.698-28.217-28.217l0,0
			c0-15.52,12.698-28.217,28.217-28.217h361.467c15.52,0,28.217,12.698,28.217,28.217l0,0
			C464.959,120.028,452.262,132.725,436.742,132.725z"/>
		<path style="fill:#FFC477;" d="M136.59,104.508L136.59,104.508c0-15.52,12.698-28.217,28.217-28.217H75.275
			c-15.52,0-28.217,12.698-28.217,28.217l0,0c0,15.52,12.698,28.217,28.217,28.217h89.532
			C149.288,132.725,136.59,120.028,136.59,104.508z"/>
		<path style="fill:#FCE5CA;" d="M440.02,251.689H70.669v169.632c0,8.053,1.142,15.83,3.277,23.195h362.797
			c2.135-7.365,3.277-15.142,3.277-23.195V251.689z"/>
		<path style="fill:#FFDAAA;" d="M70.669,251.689v169.632c0,8.053,1.142,15.83,3.277,23.195h111.187
			c-3.767-20.098-5.186-41.563-5.398-61.324c-0.422-39.433,28.151-73.143,67.086-79.41c67.649-10.889,121.801-34.322,155.366-52.092
			H70.669z"/>
		<circle style="fill:#E5675A;" cx="226.426" cy="376.754" r="35.042"/>
		<circle style="fill:#F27564;" cx="284.263" cy="376.754" r="35.042"/>
		<path style="fill:#8DC971;" d="M287.429,367.562c-5.63,0-7.745-3.823-7.493-7.958c1.339-21.928-4.379-41.001-17.018-56.888
			c-4.629,35.503-29.917,61.37-31.171,62.631c-2.92,2.939-7.668,2.954-10.606,0.034c-2.937-2.917-2.954-7.662-0.04-10.601
			c0.43-0.437,30.851-31.708,27.255-69.286c-0.596-6.228,3.063-8.575,7.063-8.578c3.884-0.003,6.837,3.408,7.147,3.686
			c23.417,21.001,34.298,47.889,32.343,79.916C294.665,364.498,291.362,367.561,287.429,367.562z"/>
	</g>
	<g id="stroke_19_">
		<path d="M473.975,163.877L459.69,131.85c7.799-6.557,12.769-16.378,12.769-27.342c0-15.939-10.497-29.47-24.94-34.052v-14.67
			C447.52,25.025,422.494,0,391.734,0h-272.78c-30.76,0-55.785,25.025-55.785,55.786v15.121
			c-13.754,4.97-23.611,18.155-23.611,33.601c0,10.958,4.964,20.774,12.757,27.331l-14.289,32.039
			c-2.853,6.397-2.896,13.754-0.12,20.186c2.772,6.422,8.147,11.429,14.747,13.735c3.914,1.368,7.269,3.211,10.517,5.262v91.098
			c0,4.142,3.357,7.5,7.5,7.5c4.143,0,7.5-3.358,7.5-7.5v-34.97H432.52v162.132c0,5.381-0.574,10.629-1.647,15.695H79.816
			c-1.073-5.066-1.647-10.314-1.647-15.695v-94.015c0-4.142-3.357-7.5-7.5-7.5c-4.143,0-7.5,3.358-7.5,7.5v94.015
			c0,50,40.679,90.679,90.679,90.679H356.84c50.001,0,90.68-40.679,90.68-90.679V203.897c3.661-2.388,7.386-4.546,11.828-6.099
			c6.599-2.306,11.975-7.312,14.747-13.735C476.871,177.632,476.828,170.275,473.975,163.877z M118.954,15h272.78
			c22.489,0,40.785,18.296,40.785,40.786v13.005H78.169V55.786C78.169,33.296,96.465,15,118.954,15z M78.169,244.189v-31.547
			c7.574,4.121,16.997,7.426,30.907,7.426c20.665,0,31.434-7.291,40.934-13.724c8.832-5.98,16.46-11.145,32.525-11.145
			c16.065,0,23.694,5.165,32.526,11.145c9.502,6.433,20.271,13.724,40.938,13.724s31.435-7.291,40.938-13.724
			c8.832-5.98,16.461-11.145,32.526-11.145c16.065,0,23.693,5.165,32.525,11.145c9.501,6.433,20.27,13.724,40.935,13.724
			c13.118,0,22.246-2.939,29.596-6.73v30.852H78.169z M356.84,497H153.848c-30.805,0-57.351-18.511-69.149-44.984H425.99
			C414.192,478.489,387.645,497,356.84,497z M454.398,183.638c-7.802,2.603-13.449,6.563-18.947,10.285
			c-8.833,5.98-16.462,11.145-32.527,11.145c-16.064,0-23.692-5.165-32.524-11.145c-9.501-6.433-20.271-13.724-40.936-13.724
			c-20.666,0-31.435,7.291-40.936,13.723c-8.834,5.98-16.462,11.145-32.528,11.145s-23.694-5.165-32.528-11.145
			c-9.501-6.432-20.27-13.723-40.936-13.723c-20.665,0-31.435,7.291-40.936,13.724c-8.832,5.98-16.46,11.145-32.524,11.145
			c-16.066,0-23.694-5.165-32.527-11.145c-5.498-3.722-11.228-7.447-18.948-10.285c-7.932-2.915-7.042-11.037-5.876-13.651
			l13.873-31.105c3.08,0.868,6.324,1.343,9.678,1.343h298.371c4.143,0,7.5-3.358,7.5-7.5c0-4.142-3.357-7.5-7.5-7.5H75.275
			c-11.424,0-20.718-9.294-20.718-20.718c0-11.423,9.294-20.717,20.718-20.717h361.467c11.423,0,20.717,9.294,20.717,20.717
			c0,11.424-9.294,20.718-20.717,20.718H405.95c-4.143,0-7.5,3.358-7.5,7.5c0,4.142,3.357,7.5,7.5,7.5h30.792
			c3.349,0,6.587-0.473,9.663-1.339l13.871,31.1C461.441,172.602,462.561,180.915,454.398,183.638z"/>
		<path d="M226.426,334.211c-23.458,0-42.543,19.085-42.543,42.543s19.085,42.542,42.543,42.542c4.143,0,7.5-3.358,7.5-7.5
			c0-4.142-3.357-7.5-7.5-7.5c-15.188,0-27.543-12.355-27.543-27.542c0-15.013,12.077-27.251,27.025-27.529
			c-2.78,3.47-4.703,5.449-4.808,5.557c-2.914,2.939-2.896,7.683,0.04,10.601c2.938,2.919,7.687,2.905,10.606-0.034
			c0.486-0.489,4.58-4.68,9.678-11.678c1.749,1.137,3.374,2.472,4.839,3.993c-2.898,5.746-4.542,12.229-4.542,19.092
			c0,23.458,19.084,42.542,42.542,42.542s42.542-19.084,42.542-42.542c0-20.248-14.223-37.225-33.199-41.496
			c-3.688-21.12-14.069-39.434-31.04-54.655c-0.31-0.278-3.264-3.689-7.147-3.686c-4,0.003-7.66,2.35-7.063,8.578
			c1.854,19.378-5.338,37.066-12.799,49.727C232.586,334.569,229.531,334.211,226.426,334.211z M311.805,376.754
			c0,15.187-12.355,27.542-27.542,27.542s-27.542-12.355-27.542-27.542c0-13.746,10.123-25.172,23.305-27.216
			c0.135,3.288,0.119,6.638-0.09,10.066c-0.252,4.134,1.864,7.958,7.493,7.958c3.934-0.001,7.236-3.064,7.479-7.043
			c0.188-3.073,0.254-6.098,0.206-9.075C304.92,355.664,311.805,365.419,311.805,376.754z M262.917,302.716
			c7.577,9.523,12.647,20.2,15.22,31.942c-8.73,1.265-16.606,5.19-22.785,10.924c-1.806-1.676-3.747-3.183-5.799-4.513
			C255.44,330.692,260.983,317.551,262.917,302.716z"/>
	</g>
</g>
<g>
</g>
<g>
</g>
<g>
</g>
<g>
</g>
<g>
</g>
<g>
</g>
<g>
</g>
<g>
</g>
<g>
</g>
<g>
</g>
<g>
</g>
<g>
</g>
<g>
</g>
<g>
</g>
<g>
</g>
</svg>
