<?xml version="1.0" encoding="iso-8859-1"?>
<!-- Generator: Adobe Illustrator 19.0.0, SVG Export Plug-In . SVG Version: 6.00 Build 0)  -->
<svg version="1.1" id="Layer_1" xmlns="http://www.w3.org/2000/svg" xmlns:xlink="http://www.w3.org/1999/xlink" x="0px" y="0px"
	 viewBox="0 0 512 512" style="enable-background:new 0 0 512 512;" xml:space="preserve">
<g id="sunflower">
	<g id="fill_20_">
		
			<ellipse transform="matrix(-0.4067 0.9136 -0.9136 -0.4067 657.3207 409.4742)" style="fill:#9AD880;" cx="195.689" cy="418.193" rx="33.918" ry="65.981"/>
		<path style="fill:#8DC971;" d="M209.482,387.209c-2.774-1.235-5.541-2.354-8.299-3.358c-5.503,16.583-11.027,41.871-7.099,70.027
			c28.848,9.434,55.201,6.165,61.884-8.851C263.586,427.914,242.773,402.028,209.482,387.209z"/>
		
			<ellipse transform="matrix(0.4067 0.9136 -0.9136 0.4067 569.7361 -40.8425)" style="fill:#9AD880;" cx="316.311" cy="418.193" rx="33.918" ry="65.981"/>
		<path style="fill:#8DC971;" d="M302.518,387.209c2.774-1.235,5.542-2.354,8.3-3.359c5.503,16.583,11.026,41.872,7.098,70.028
			c-28.848,9.434-55.201,6.165-61.884-8.851C248.414,427.914,269.227,402.028,302.518,387.209z"/>
		<path style="fill:#B2E59C;" d="M256,504.5L256,504.5c-13.579,0-24.69-11.11-24.69-24.69V328.266c0-13.579,11.11-24.69,24.69-24.69
			l0,0c13.579,0,24.69,11.11,24.69,24.69V479.81C280.69,493.39,269.579,504.5,256,504.5z"/>
		<path style="fill:#9AD880;" d="M256,303.576L256,303.576c-13.579,0-24.69,11.111-24.69,24.69v91.392
			c20.358-1.343,36.903-9.801,49.38-19.392v-72C280.69,314.687,269.579,303.576,256,303.576z"/>
		<path style="fill:#FFDE55;" d="M390.129,188.309c27.521-10.48,45.242-30.212,40.71-46.971
			c-4.532-16.76-29.783-24.87-58.835-20.051c18.594-22.837,24.075-48.785,11.77-61.034c-12.305-12.248-38.228-6.647-60.978,12.053
			c4.684-29.074-3.543-54.287-20.324-58.742s-36.43,13.358-46.783,40.927c-10.48-27.521-30.212-45.242-46.972-40.71
			c-16.76,4.532-24.87,29.783-20.051,58.835c-22.837-18.594-48.785-24.075-61.033-11.77c-12.248,12.305-6.647,38.228,12.052,60.978
			c-29.074-4.684-54.287,3.543-58.742,20.324c-4.455,16.78,13.358,36.43,40.927,46.783c-27.521,10.48-45.242,30.212-40.71,46.972
			c4.532,16.76,29.783,24.87,58.835,20.051c-18.594,22.837-24.075,48.786-11.77,61.034c12.305,12.248,38.228,6.647,60.978-12.053
			c-4.684,29.074,3.543,54.287,20.324,58.742s36.43-13.358,46.783-40.927c10.48,27.521,30.212,45.242,46.971,40.71
			c16.76-4.532,24.87-29.783,20.052-58.835c22.837,18.594,48.785,24.075,61.034,11.77c12.248-12.305,6.647-38.228-12.052-60.978
			c29.074,4.684,54.287-3.543,58.742-20.324C435.511,218.311,417.698,198.662,390.129,188.309z"/>
		<path style="fill:#FFEB99;" d="M385.559,153.904c23.91-17.191,35.976-40.809,27.295-55.844
			c-8.681-15.036-35.167-16.396-62.01-4.284c12.112-26.843,10.752-53.33-4.284-62.01c-15.036-8.681-38.654,3.385-55.845,27.295
			C287.783,29.758,273.362,7.5,256,7.5s-31.783,22.258-34.715,51.56c-17.191-23.91-40.809-35.976-55.844-27.295
			c-15.036,8.681-16.396,35.167-4.284,62.01c-26.843-12.112-53.329-10.752-62.01,4.284c-8.681,15.036,3.385,38.654,27.295,55.844
			c-29.303,2.932-51.561,17.354-51.561,34.715c0,17.362,22.258,31.783,51.56,34.715c-23.91,17.191-35.976,40.809-27.295,55.844
			c8.681,15.036,35.167,16.396,62.01,4.284c-12.112,26.843-10.751,53.329,4.284,62.01c15.036,8.681,38.654-3.385,55.844-27.295
			c2.932,29.302,17.354,51.56,34.715,51.56s31.783-22.258,34.715-51.56c17.191,23.91,40.809,35.976,55.845,27.295
			c15.036-8.681,16.396-35.167,4.284-62.01c26.843,12.112,53.329,10.752,62.01-4.284c8.681-15.036-3.384-38.654-27.295-55.844
			c29.302-2.932,51.56-17.354,51.56-34.715C437.12,171.258,414.862,156.837,385.559,153.904z"/>
		<circle style="fill:#DD9F80;" cx="256" cy="188.62" r="102.031"/>
		<path style="fill:#C68D6D;" d="M259.009,165.534l-13.803-13.803c-3.868-3.868-3.868-10.139,0-14.007l13.803-13.803
			c3.868-3.868,10.139-3.868,14.007,0l13.803,13.803c3.868,3.868,3.868,10.139,0,14.007l-13.803,13.803
			C269.148,169.402,262.877,169.402,259.009,165.534z"/>
		<path style="fill:#C68D6D;" d="M302.901,209.426l-13.803-13.803c-3.868-3.868-3.868-10.139,0-14.007l13.803-13.803
			c3.868-3.868,10.139-3.868,14.007,0l13.803,13.803c3.868,3.868,3.868,10.139,0,14.007l-13.803,13.803
			C313.04,213.294,306.769,213.294,302.901,209.426z"/>
		<path style="fill:#C68D6D;" d="M259.009,253.319l-13.803-13.803c-3.868-3.868-3.868-10.139,0-14.007l13.803-13.803
			c3.868-3.868,10.139-3.868,14.007,0l13.803,13.803c3.868,3.868,3.868,10.139,0,14.007l-13.803,13.803
			C269.148,257.187,262.877,257.187,259.009,253.319z"/>
	</g>
	<g id="stroke_20_">
		<path d="M444.62,188.62c0-8.791-4.053-16.895-11.203-23.634c5.217-8.517,6.885-17.389,4.663-25.606
			c-2.179-8.058-7.929-14.792-16.468-19.511c2.651-9.227,2.054-18.083-2.262-25.558c-4.394-7.611-11.954-12.602-21.512-14.864
			c0.252-9.983-2.766-18.53-8.772-24.509c-5.913-5.886-14.263-8.844-24.018-8.663c-2.318-9.317-7.262-16.688-14.737-21.004
			c-7.613-4.396-16.658-4.938-26.07-2.115c-4.768-8.776-11.617-14.657-19.843-16.841c-8.023-2.129-16.779-0.52-25.134,4.505
			C272.598,3.911,264.631,0,256,0c-8.791,0-16.895,4.053-23.634,11.203c-8.518-5.217-17.39-6.885-25.605-4.663
			c-8.057,2.179-14.792,7.929-19.512,16.468c-9.227-2.651-18.083-2.054-25.558,2.262c-7.613,4.395-12.605,11.957-14.866,21.519
			c-9.985-0.26-18.502,2.732-24.506,8.765c-5.869,5.896-8.856,14.266-8.677,24.022c-9.31,2.319-16.676,7.262-20.99,14.733
			c-4.396,7.613-4.938,16.659-2.115,26.07c-8.776,4.768-14.657,11.617-16.841,19.843c-2.14,8.063-0.528,16.775,4.507,25.132
			c-6.91,6.665-10.821,14.633-10.821,23.265c0,8.791,4.053,16.895,11.203,23.634c-5.217,8.517-6.885,17.389-4.663,25.605
			c2.179,8.055,7.929,14.792,16.468,19.511c-2.651,9.227-2.054,18.083,2.262,25.558c4.395,7.613,11.958,12.605,21.519,14.866
			c-0.259,9.985,2.732,18.502,8.765,24.506c5.729,5.704,13.795,8.685,23.2,8.685c0.27,0,0.546-0.012,0.819-0.017
			c2.318,9.315,7.263,16.684,14.736,20.999c7.613,4.395,16.658,4.937,26.069,2.115c4.768,8.777,11.617,14.657,19.844,16.841
			c2.326,0.618,9.041,1.554,16.207-0.47v15.569c-3.62-2.035-7.381-3.934-11.278-5.669c-17.17-7.644-34.976-11.384-50.134-10.533
			c-16.938,0.95-28.956,7.517-33.84,18.49c-4.884,10.974-1.72,24.298,8.91,37.519c9.513,11.832,24.209,22.558,41.379,30.201
			c15.372,6.842,31.029,10.515,44.963,10.646v13.133c0,17.75,14.44,32.19,32.19,32.19s32.19-14.44,32.19-32.19v-76.176
			c5.349-3.584,11.172-6.813,17.378-9.576c31.485-14.015,59.09-11.063,64.17,0.353c5.082,11.416-11.199,33.902-42.685,47.917
			c-5.394,2.401-10.896,4.386-16.352,5.898c-3.992,1.107-6.33,5.24-5.223,9.231c0.921,3.321,4.317,6.31,9.231,5.223
			c6.251-1.382,12.375-3.947,18.444-6.649c17.17-7.643,31.866-18.369,41.379-30.201c10.63-13.221,13.794-26.545,8.91-37.519
			c-4.885-10.974-16.903-17.54-33.84-18.49c-15.161-0.854-32.964,2.89-50.134,10.533c-3.889,1.731-7.656,3.625-11.278,5.662v-15.963
			c6.729,2.282,14.666,1.29,17.049,0.646c8.051-2.177,14.792-7.931,19.513-16.469c9.227,2.651,18.083,2.054,25.557-2.26
			c7.613-4.395,12.605-11.958,14.867-21.52c0.396,0.01,0.797,0.031,1.189,0.031c9.474,0,17.551-3.003,23.317-8.796
			c5.886-5.913,8.845-14.263,8.664-24.017c9.317-2.318,16.688-7.263,21.003-14.738c4.395-7.612,4.937-16.655,2.116-26.065
			c8.78-4.765,14.652-11.607,16.84-19.848c2.133-8.037,0.532-16.781-4.499-25.139C440.711,205.213,444.62,197.248,444.62,188.62z
			 M423.6,143.295c1.243,4.599-0.312,9.238-2.48,13.031c-5.405-2.878-11.592-5.257-18.422-7.014
			c5.173-5.071,9.435-10.37,12.713-15.708C418.98,135.767,422.411,138.9,423.6,143.295z M382.872,78.092
			c-6.126,0.208-12.68,1.242-19.481,3.137c1.944-6.978,2.986-13.698,3.156-19.96c4.16,0.089,8.706,1.084,11.937,4.299
			C381.846,68.915,382.862,73.634,382.872,78.092z M300.548,20.813c4.604,1.222,7.844,4.889,10.045,8.662
			c-5.195,3.242-10.348,7.411-15.285,12.447c-1.807-7.024-4.268-13.372-7.258-18.884C291.75,20.995,296.151,19.645,300.548,20.813z
			 M210.676,21.02c4.6-1.241,9.239,0.313,13.03,2.479c-2.878,5.405-5.256,11.591-7.014,18.421
			c-5.071-5.173-10.37-9.435-15.708-12.713C203.146,25.64,206.28,22.209,210.676,21.02z M145.473,61.768
			c0.21,6.12,1.244,12.667,3.136,19.46c-6.986-1.946-13.713-2.988-19.98-3.156c0.08-4.263,1.121-8.723,4.32-11.937
			C136.309,62.76,141.105,61.787,145.473,61.768z M88.193,144.072c1.222-4.604,4.889-7.844,8.662-10.045
			c3.242,5.195,7.411,10.348,12.447,15.285c-7.015,1.805-13.356,4.263-18.864,7.247C88.436,152.913,87.023,148.477,88.193,144.072z
			 M88.4,233.943c-1.243-4.598,0.312-9.238,2.479-13.03c5.405,2.878,11.591,5.256,18.422,7.014
			c-5.173,5.071-9.435,10.37-12.713,15.708C93.026,241.475,89.59,238.341,88.4,233.943z M129.149,299.147
			c6.12-0.21,12.667-1.244,19.461-3.137c-1.946,6.985-2.989,13.712-3.156,19.98c-4.261-0.08-8.722-1.12-11.936-4.32
			C130.141,308.31,129.168,303.515,129.149,299.147z M211.452,356.427c-4.604-1.222-7.844-4.889-10.045-8.662
			c5.195-3.242,10.348-7.41,15.285-12.446c1.807,7.023,4.268,13.37,7.257,18.881C220.215,356.262,215.833,357.59,211.452,356.427z
			 M184.946,442.328c-31.486-14.015-47.766-36.501-42.685-47.917c5.082-11.415,32.685-14.368,64.17-0.353
			c6.217,2.767,12.04,5.976,17.378,9.553v48.055C212.012,451.511,198.231,448.241,184.946,442.328z M256,497
			c-9.479,0-17.19-7.711-17.19-17.19V371.633c5.241,3.629,11.048,5.607,17.19,5.607s11.949-1.977,17.19-5.607V479.81
			C273.19,489.289,265.478,497,256,497z M301.324,356.219c-4.598,1.241-9.237-0.314-13.03-2.48
			c2.878-5.405,5.256-11.591,7.014-18.421c5.072,5.173,10.371,9.435,15.709,12.713C308.863,351.582,305.726,355.028,301.324,356.219
			z M366.527,315.471c-0.21-6.12-1.244-12.667-3.137-19.46c6.978,1.944,13.698,2.986,19.96,3.155
			c-0.089,4.16-1.084,8.706-4.3,11.936C375.69,314.478,370.895,315.452,366.527,315.471z M406.359,275.429
			c-6.383,11.058-29.413,11.583-52.431,1.198c-2.842-1.282-6.182-0.672-8.388,1.533c-2.206,2.205-2.816,5.545-1.533,8.388
			c10.386,23.017,9.859,46.047-1.198,52.431c-11.056,6.384-31.265-4.676-46.005-25.178c-1.82-2.532-5.02-3.672-8.03-2.866
			c-3.013,0.807-5.211,3.395-5.522,6.497c-2.515,25.126-14.485,44.808-27.252,44.808c-12.767,0-24.738-19.682-27.252-44.808
			c-0.311-3.103-2.509-5.69-5.522-6.497c-0.644-0.172-1.295-0.256-1.941-0.256c-2.375,0-4.658,1.131-6.089,3.123
			c-14.741,20.502-34.95,31.559-46.005,25.178c-11.057-6.384-11.583-29.414-1.198-52.431c1.283-2.843,0.672-6.183-1.533-8.388
			c-2.205-2.205-5.545-2.816-8.388-1.533c-23.016,10.386-46.047,9.859-52.431-1.198c-6.384-11.057,4.675-31.265,25.178-46.005
			c2.532-1.82,3.674-5.018,2.867-8.03c-0.807-3.013-3.395-5.211-6.497-5.522c-25.126-2.514-44.808-14.485-44.808-27.253
			s19.682-24.738,44.808-27.252c3.103-0.311,5.69-2.509,6.497-5.522c0.807-3.012-0.334-6.21-2.867-8.03
			c-20.502-14.741-31.562-34.948-25.178-46.005c6.383-11.057,29.414-11.584,52.431-1.197c2.844,1.283,6.183,0.672,8.388-1.533
			c2.205-2.205,2.816-5.545,1.533-8.388c-10.385-23.017-9.859-46.047,1.198-52.431c11.058-6.381,31.265,4.677,46.005,25.178
			c1.82,2.533,5.019,3.674,8.03,2.867c3.013-0.807,5.211-3.395,5.522-6.498C231.262,34.682,243.233,15,256,15
			c12.767,0,24.738,19.682,27.252,44.808c0.311,3.103,2.509,5.69,5.522,6.498c3.011,0.805,6.209-0.334,8.03-2.867
			c14.74-20.501,34.947-31.56,46.005-25.178c11.057,6.384,11.583,29.414,1.198,52.431c-1.283,2.843-0.672,6.183,1.533,8.388
			c2.205,2.205,5.544,2.815,8.388,1.533c23.018-10.385,46.048-9.859,52.431,1.197c6.384,11.057-4.676,31.265-25.178,46.005
			c-2.532,1.82-3.674,5.018-2.867,8.03c0.807,3.013,3.395,5.211,6.497,5.522c25.126,2.515,44.808,14.485,44.808,27.252
			s-19.682,24.738-44.808,27.253c-3.103,0.311-5.69,2.509-6.497,5.522c-0.807,3.012,0.334,6.21,2.867,8.03
			C401.683,244.165,412.743,264.373,406.359,275.429z M423.807,233.167c-1.22,4.595-4.86,7.83-8.663,10.044
			c-3.242-5.195-7.41-10.348-12.446-15.285c7.023-1.807,13.37-4.268,18.882-7.257C423.638,224.397,424.971,228.782,423.807,233.167z
			"/>
		<path d="M256,79.089c-60.395,0-109.531,49.135-109.531,109.531c0,12.654,2.141,25.059,6.363,36.872
			c1.394,3.9,5.686,5.931,9.587,4.538c3.9-1.395,5.932-5.686,4.538-9.587c-3.642-10.188-5.488-20.895-5.488-31.823
			c0-52.124,42.406-94.531,94.531-94.531s94.531,42.406,94.531,94.531S308.125,283.15,256,283.15
			c-29.855,0-57.335-13.666-75.392-37.494c-2.502-3.303-7.208-3.95-10.507-1.448c-3.301,2.502-3.95,7.206-1.448,10.507
			c20.917,27.603,52.754,43.434,87.347,43.434c60.396,0,109.531-49.135,109.531-109.531S316.396,79.089,256,79.089z"/>
		<path d="M278.319,118.617c-6.786-6.786-17.828-6.786-24.613,0l-13.803,13.803c-3.288,3.287-5.099,7.658-5.099,12.307
			c0,4.648,1.811,9.02,5.098,12.307l13.803,13.803c3.287,3.288,7.658,5.098,12.307,5.098c4.649,0,9.02-1.811,12.307-5.098
			l13.804-13.804c6.785-6.786,6.785-17.827,0-24.613L278.319,118.617z M281.516,146.427l-13.804,13.804
			c-0.612,0.612-1.704,1.465-3.4-0.001l-13.803-13.803c-0.613-0.613-1.367-1.7,0-3.4l13.803-13.803
			c1.697-1.434,2.932-0.469,3.401-0.001l13.804,13.804C282.454,143.964,282.453,145.49,281.516,146.427z"/>
		<path d="M278.697,188.62c0,4.648,1.81,9.02,5.098,12.307l13.803,13.803c3.287,3.288,7.658,5.098,12.307,5.098
			c4.649,0,9.02-1.811,12.307-5.098l13.804-13.804c6.785-6.786,6.785-17.827,0-24.613l-13.804-13.804
			c-6.786-6.786-17.828-6.786-24.613,0l-13.803,13.803C280.508,179.6,278.697,183.97,278.697,188.62z M294.401,186.919
			l13.803-13.803c1.697-1.537,2.932-0.469,3.401,0l13.804,13.804c0.938,0.938,0.937,2.463,0,3.4l-13.804,13.804
			c-0.612,0.612-1.704,1.543-3.4-0.001l-13.803-13.803C293.789,189.707,293.139,188.62,294.401,186.919z"/>
		<path d="M239.902,244.819l13.803,13.803c3.287,3.288,7.658,5.098,12.307,5.098c4.649,0,9.02-1.811,12.307-5.098l13.804-13.804
			c6.785-6.786,6.785-17.827,0-24.613l-13.804-13.804c-6.786-6.786-17.828-6.786-24.613,0l-13.803,13.803
			c-3.288,3.287-5.099,7.658-5.099,12.307C234.804,237.161,236.615,241.532,239.902,244.819z M250.509,230.812l13.803-13.803
			c1.701-1.547,2.932-0.469,3.401-0.001l13.804,13.804c0.938,0.938,0.937,2.463,0,3.4l-13.804,13.804
			c-0.612,0.612-1.704,1.54-3.4-0.001l-13.803-13.803C249.896,233.6,248.985,232.516,250.509,230.812z"/>
	</g>
</g>
<g>
</g>
<g>
</g>
<g>
</g>
<g>
</g>
<g>
</g>
<g>
</g>
<g>
</g>
<g>
</g>
<g>
</g>
<g>
</g>
<g>
</g>
<g>
</g>
<g>
</g>
<g>
</g>
<g>
</g>
</svg>
