<?xml version="1.0" encoding="iso-8859-1"?>
<!-- Generator: Adobe Illustrator 19.0.0, SVG Export Plug-In . SVG Version: 6.00 Build 0)  -->
<svg version="1.1" id="Layer_1" xmlns="http://www.w3.org/2000/svg" xmlns:xlink="http://www.w3.org/1999/xlink" x="0px" y="0px"
	 viewBox="0 0 511.985 511.985" style="enable-background:new 0 0 511.985 511.985;" xml:space="preserve">
<g id="carrot">
	<g id="fill_21_">
		<path style="fill:#9AD880;" d="M283.664,143.977c0,0,5.9-52.211,39.58-89.79c11.165-12.458,6.564-32.19-9.06-38.17l-18.167-6.954
			c-11.614-4.445-24.729,0.796-29.98,12.069c-10.762,23.102-25.613,65.783-23.83,122.846H283.664z"/>
		<path style="fill:#8DC971;" d="M262.544,29.031c-10.199,24.303-21.933,63.855-20.336,114.945h41.456
			c0,0,3.909-34.587,23.522-67.721C294.48,51.501,275.904,36.914,262.544,29.031z"/>
		<path style="fill:#B2E59C;" d="M228.321,143.977c0,0-5.9-52.211-39.58-89.79c-11.165-12.458-6.564-32.19,9.059-38.17l18.167-6.954
			c11.614-4.445,24.729,0.796,29.98,12.069c10.762,23.102,25.613,65.783,23.83,122.846H228.321z"/>
		<path style="fill:#FFB278;" d="M411.453,235.711c0,85.859-69.602,268.774-155.461,268.774S100.532,321.569,100.532,235.711
			s69.602-131.969,155.461-131.969S411.453,149.852,411.453,235.711z"/>
		<path style="fill:#FFA05F;" d="M255.992,103.742c-85.859,0-155.461,46.11-155.461,131.969c0,72.893,50.17,215.744,117.862,257.226
			c-27.31-62.483-30.508-126.661-27.048-173.798c2.717-37.007,22.335-70.465,52.835-91.599
			c43.262-29.978,76.619-82.131,91.489-108.13C312.369,109.047,285.117,103.742,255.992,103.742z"/>
		<path style="fill:#57565C;" d="M336.649,218.019c-4.143,0-7.5-3.358-7.5-7.5v-12.451c0-4.142,3.357-7.5,7.5-7.5
			c4.143,0,7.5,3.358,7.5,7.5v12.451C344.149,214.661,340.792,218.019,336.649,218.019z"/>
		<path style="fill:#57565C;" d="M175.336,218.019c-4.143,0-7.5-3.358-7.5-7.5v-12.451c0-4.142,3.357-7.5,7.5-7.5
			c4.143,0,7.5,3.358,7.5,7.5v12.451C182.836,214.661,179.478,218.019,175.336,218.019z"/>
		<path style="fill:#57565C;" d="M255.992,225.872c-9.707,0-19.414-3.141-27.514-9.424c-3.274-2.539-3.868-7.25-1.329-10.523
			c2.537-3.274,7.25-3.869,10.522-1.33c10.787,8.367,25.854,8.367,36.641,0c3.272-2.539,7.984-1.944,10.522,1.33
			c2.539,3.273,1.944,7.984-1.329,10.523C275.406,222.731,265.699,225.872,255.992,225.872z"/>
		<path style="fill:#FF9B57;" d="M242.061,315.314c0-13.573-11.105-24.679-24.679-24.679H107.147
			c3.331,15.798,7.854,32.512,13.42,49.357h96.815C230.956,339.993,242.061,328.887,242.061,315.314z"/>
		<path style="fill:#FF9B57;" d="M284.978,393.499c-13.573,0-24.679,11.105-24.679,24.679v0c0,13.573,11.105,24.679,24.679,24.679
			h57.405c10.178-14.939,19.506-31.727,27.792-49.357H284.978z"/>
		<circle style="fill:#FF9B57;" cx="304.47" cy="315.314" r="24.679"/>
		<path style="fill:#FF8C3E;" d="M120.568,339.993h69.761c0.175-7.252,0.53-14.224,1.017-20.854
			c0.72-9.806,2.625-19.359,5.606-28.503h-89.804C110.478,306.434,115.002,323.148,120.568,339.993z"/>
	</g>
	<g id="stroke_21_">
		<path d="M344.149,210.519v-12.451c0-4.142-3.357-7.5-7.5-7.5c-4.143,0-7.5,3.358-7.5,7.5v12.451c0,4.142,3.357,7.5,7.5,7.5
			C340.792,218.019,344.149,214.661,344.149,210.519z"/>
		<path d="M182.836,210.519v-12.451c0-4.142-3.357-7.5-7.5-7.5c-4.143,0-7.5,3.358-7.5,7.5v12.451c0,4.142,3.357,7.5,7.5,7.5
			C179.478,218.019,182.836,214.661,182.836,210.519z"/>
		<path d="M274.313,204.596c-10.787,8.367-25.853,8.367-36.641,0c-3.272-2.539-7.985-1.944-10.522,1.33
			c-2.539,3.273-1.944,7.984,1.329,10.523c8.1,6.283,17.807,9.424,27.514,9.424c9.707,0,19.414-3.141,27.514-9.424
			c3.273-2.539,3.868-7.25,1.329-10.523C282.297,202.652,277.584,202.057,274.313,204.596z"/>
		<path d="M370.574,131.648c-18.326-14.5-41.43-24.855-67.383-30.487c6.737-16.378,15.336-30.472,25.639-41.968
			c6.933-7.736,9.621-18.357,7.19-28.413c-2.409-9.961-9.568-18.099-19.153-21.767l-18.167-6.954
			c-15.254-5.838-32.586,1.148-39.459,15.906c-1.114,2.391-2.188,4.841-3.24,7.321c-1.111-2.621-2.202-5.065-3.254-7.321
			c-6.874-14.757-24.207-21.746-39.459-15.906l-18.167,6.954c-9.584,3.668-16.744,11.806-19.153,21.767
			c-2.432,10.055,0.256,20.677,7.189,28.413c10.299,11.491,18.898,25.58,25.635,41.954c-27.353,5.93-51.492,17.114-70.322,32.897
			c-3.174,2.661-3.591,7.392-0.93,10.566c2.662,3.174,7.39,3.591,10.566,0.93c26.387-22.117,64.702-34.298,107.888-34.298
			c41.669,0,79.056,11.424,105.273,32.169c27.926,22.097,42.688,54.013,42.688,92.3c0,39.779-15.581,99.77-38.588,150.289h-80.387
			c-17.744,0-32.179,14.436-32.179,32.179c0,17.743,14.435,32.179,32.179,32.179h22.906c4.142,0,7.5-3.358,7.5-7.5
			c0-4.142-3.358-7.5-7.5-7.5h-22.906c-9.472,0-17.179-7.707-17.179-17.179c0-9.472,7.707-17.179,17.179-17.179h73.188
			c-14.336,28.358-30.539,51.931-46.949,68.245c-18.516,18.408-37.097,27.741-55.225,27.741c-18.128,0-36.709-9.333-55.225-27.741
			c-16.807-16.707-33.401-41.015-47.99-70.294c-8.063-16.181-15.376-33.699-21.651-51.457h86.255
			c17.743,0,32.179-14.435,32.179-32.179s-14.436-32.179-32.179-32.179H113.314c-3.404-17.411-5.282-33.636-5.282-47.425
			c0-26.431,6.88-49.614,20.449-68.904c2.383-3.388,1.569-8.066-1.819-10.449c-3.387-2.382-8.065-1.569-10.449,1.819
			c-15.381,21.867-23.18,47.953-23.18,77.534c0,46.036,18.615,114.325,46.321,169.929c19.79,39.716,61.258,106.345,116.64,106.345
			s96.851-66.629,116.64-106.345c27.706-55.604,46.321-123.894,46.321-169.929C418.953,192.675,402.224,156.691,370.574,131.648z
			 M272.836,24.298c3.564-7.651,12.569-11.268,20.5-8.232l18.167,6.954c5.047,1.932,8.668,6.045,9.936,11.284
			c1.29,5.334-0.088,10.756-3.78,14.876c-12.081,13.479-21.999,30.043-29.548,49.284c-4.291-0.607-8.646-1.088-13.055-1.447
			c-2.471-19.412-6.617-36.333-11.153-50.426C266.572,38.83,269.56,31.331,272.836,24.298z M223.872,98.46
			c-7.55-19.241-17.468-35.804-29.546-49.28c-3.692-4.119-5.07-9.541-3.78-14.875c1.267-5.239,4.888-9.352,9.936-11.284
			l18.167-6.954c7.933-3.036,16.937,0.581,20.501,8.232c7.173,15.397,16.29,39.956,20.679,71.977
			C258.553,96.255,242.061,95.391,223.872,98.46z M217.383,298.135c9.472,0,17.179,7.707,17.179,17.179s-7.706,17.179-17.179,17.179
			h-91.287c-3.684-11.581-6.896-23.133-9.544-34.357H217.383z"/>
		<path d="M304.47,283.135c-17.743,0-32.179,14.436-32.179,32.179s14.436,32.179,32.179,32.179
			c17.743,0,32.179-14.435,32.179-32.179S322.214,283.135,304.47,283.135z M304.47,332.493c-9.472,0-17.179-7.706-17.179-17.179
			s7.707-17.179,17.179-17.179c9.472,0,17.179,7.707,17.179,17.179S313.943,332.493,304.47,332.493z"/>
	</g>
</g>
<g>
</g>
<g>
</g>
<g>
</g>
<g>
</g>
<g>
</g>
<g>
</g>
<g>
</g>
<g>
</g>
<g>
</g>
<g>
</g>
<g>
</g>
<g>
</g>
<g>
</g>
<g>
</g>
<g>
</g>
</svg>
