<?xml version="1.0" encoding="iso-8859-1"?>
<!-- Generator: Adobe Illustrator 19.0.0, SVG Export Plug-In . SVG Version: 6.00 Build 0)  -->
<svg version="1.1" id="Layer_1" xmlns="http://www.w3.org/2000/svg" xmlns:xlink="http://www.w3.org/1999/xlink" x="0px" y="0px"
	 viewBox="0 0 512 512" style="enable-background:new 0 0 512 512;" xml:space="preserve">
<g id="bee">
	<g id="fill_22_">
		
			<ellipse transform="matrix(-0.9425 -0.3342 0.3342 -0.9425 577.4537 386.5046)" style="fill:#ABEBF4;" cx="321.97" cy="143.586" rx="99.506" ry="135.989"/>
		<path style="fill:#8ED7E8;" d="M291.425,27.053c-26.722,16.872-50.093,46.194-63.242,83.283
			c-25.096,70.787-3.451,143.058,48.346,161.422c51.797,18.363,114.131-24.135,139.227-94.922c1.666-4.699,3.124-9.397,4.383-14.093
			C396.005,87.992,328.161,45.311,291.425,27.053z"/>
		
			<ellipse transform="matrix(0.9425 -0.3342 0.3342 0.9425 -35.1181 83.0193)" style="fill:#CCF8FF;" cx="223.749" cy="143.586" rx="99.506" ry="135.989"/>
		<path style="fill:#706F77;" d="M70.165,349.637v-90.856L18.53,285.944c-14.707,7.736-14.707,28.795,0,36.531L70.165,349.637z"/>
		<path style="fill:#585860;" d="M173.938,492.797c-5.006-7.818-2.727-18.215,5.092-23.221c11.069-7.088,16.841-17.389,17.645-31.49
			c0.631-11.061-2.195-20.155-2.223-20.241c-2.925-8.811,1.846-18.325,10.657-21.251c8.809-2.925,18.325,1.847,21.25,10.658
			c6.812,20.521,9.538,65.968-29.2,90.637C187.162,504.255,177.148,497.809,173.938,492.797z"/>
		<path style="fill:#585860;" d="M383.527,492.797c-5.006-7.818-2.727-18.215,5.092-23.221c11.069-7.088,16.841-17.389,17.645-31.49
			c0.631-11.061-2.195-20.155-2.223-20.241c-2.925-8.811,1.846-18.325,10.657-21.251c8.81-2.925,18.325,1.847,21.25,10.658
			c6.812,20.521,9.538,65.968-29.201,90.637C396.751,504.255,386.736,497.809,383.527,492.797z"/>
		<path style="fill:#FFEB99;" d="M360.571,448.139H186.81c-79.161,0-143.929-64.768-143.929-143.929v0
			c0-79.161,64.768-143.929,143.929-143.929h173.761c79.161,0,143.929,64.768,143.929,143.929v0
			C504.5,383.371,439.732,448.139,360.571,448.139z"/>
		<path style="fill:#FFDE55;" d="M186.81,448.139h158.469c-32.995-23.658-75.163-45.976-127.548-59.876
			C98.712,356.681,94.374,244.113,99.624,189.889c-34.43,26.361-56.743,67.865-56.743,114.321v0
			C42.881,383.371,107.649,448.139,186.81,448.139z"/>
		<path style="fill:#898890;" d="M246.876,207.191c4.029-17.251,9.217-32.96,14.84-46.91h-71.521
			c-17.407,59.823-23.043,132.809-15.888,189.427c4.07,32.208,11.385,65.087,21.861,98.432h70.893
			c-12.579-35.479-21.182-70.24-25.67-103.974C235.009,296.188,236.854,250.103,246.876,207.191z"/>
		<path style="fill:#706F77;" d="M267.061,448.139c-5.861-16.531-10.861-32.913-14.981-49.101
			c-10.93-3.977-22.362-7.595-34.349-10.775c-15.113-4.01-28.374-9.325-40.004-15.661c4.276,24.849,10.435,50.053,18.441,75.538
			H267.061z"/>
		<path style="fill:#898890;" d="M90.043,492.797c-5.006-7.818-2.727-18.215,5.092-23.221c11.069-7.088,16.841-17.389,17.645-31.49
			c0.631-11.061-2.195-20.155-2.223-20.241c-2.925-8.811,1.846-18.325,10.657-21.251c8.809-2.925,18.325,1.847,21.25,10.658
			c6.812,20.521,9.538,65.968-29.2,90.637C103.267,504.255,93.253,497.809,90.043,492.797z"/>
		<path style="fill:#898890;" d="M299.632,492.797c-5.006-7.818-2.727-18.215,5.092-23.221c11.069-7.088,16.841-17.389,17.645-31.49
			c0.631-11.061-2.195-20.155-2.223-20.241c-2.925-8.811,1.846-18.325,10.657-21.251c8.809-2.925,18.325,1.847,21.25,10.658
			c6.812,20.521,9.538,65.968-29.2,90.637C312.856,504.255,302.841,497.809,299.632,492.797z"/>
		<path style="fill:#57565C;" d="M448.853,314.008c-4.143,0-7.5-3.358-7.5-7.5v-12.451c0-4.142,3.357-7.5,7.5-7.5s7.5,3.358,7.5,7.5
			v12.451C456.353,310.651,452.996,314.008,448.853,314.008z"/>
		<path style="fill:#57565C;" d="M287.54,314.008c-4.143,0-7.5-3.358-7.5-7.5v-12.451c0-4.142,3.357-7.5,7.5-7.5
			c4.143,0,7.5,3.358,7.5,7.5v12.451C295.04,310.651,291.682,314.008,287.54,314.008z"/>
		<path style="fill:#57565C;" d="M368.197,321.861c-9.707,0-19.414-3.141-27.514-9.424c-3.274-2.539-3.868-7.25-1.329-10.523
			c2.537-3.274,7.25-3.869,10.522-1.33c10.787,8.367,25.853,8.367,36.641,0c3.271-2.539,7.984-1.944,10.522,1.33
			c2.539,3.273,1.944,7.984-1.329,10.523C387.611,318.72,377.904,321.861,368.197,321.861z"/>
	</g>
	<g id="stroke_22_">
		<path d="M448.853,286.558c-4.143,0-7.5,3.358-7.5,7.5v12.451c0,4.142,3.357,7.5,7.5,7.5c4.142,0,7.5-3.358,7.5-7.5v-12.451
			C456.353,289.915,452.996,286.558,448.853,286.558z"/>
		<path d="M287.54,286.558c-4.143,0-7.5,3.358-7.5,7.5v12.451c0,4.142,3.357,7.5,7.5,7.5c4.143,0,7.5-3.358,7.5-7.5v-12.451
			C295.04,289.915,291.682,286.558,287.54,286.558z"/>
		<path d="M386.517,300.585c-10.787,8.367-25.853,8.367-36.641,0c-3.272-2.539-7.985-1.944-10.522,1.33
			c-2.539,3.273-1.945,7.984,1.329,10.523c8.1,6.283,17.806,9.424,27.513,9.424c9.707,0,19.414-3.141,27.514-9.424
			c3.273-2.538,3.868-7.25,1.329-10.523C394.501,298.641,389.788,298.046,386.517,300.585z"/>
		<path d="M512,304.209c0-40.289-15.795-78.272-44.476-106.953c-12.18-12.18-26.043-22.026-41.043-29.336
			c20.542-71.494-3.628-140.808-56.566-159.576c-30.744-10.9-66.667-2.288-97.038,22.993C243.244,6.665,207.623-2.935,175.803,8.345
			c-26.795,9.5-47.084,32.285-57.129,64.157c-9.177,29.12-8.871,63.018,0.769,96.133c-14.442,7.232-27.8,16.836-39.586,28.622
			c-19.394,19.394-32.886,43.045-39.597,68.782l-25.221,13.267C5.762,284.186,0,293.728,0,304.209
			c0,10.481,5.762,20.024,15.039,24.904l25.284,13.301c3.347,12.76,8.357,25.082,14.948,36.599
			c12.156,21.241,29.414,39.376,50.001,52.624c1.226,6.752-1.068,14.479-2.463,17.932c-1.551,3.841,0.305,8.212,4.146,9.763
			c3.84,1.551,8.212-0.305,9.763-4.146c2.01-4.976,3.205-10.586,3.551-16.673c0.726-12.73-2.561-22.9-2.593-23.032
			c-1.819-7.641,3.542-10.986,5.902-11.769c4.872-1.618,10.151,1.031,11.769,5.902c6.191,18.65,8.702,59.779-26.111,81.949
			c-6.417,4.084-12.098-1.595-12.876-2.811c-2.224-3.473-1.926-7.913,0.741-11.049c2.684-3.156,2.301-7.889-0.854-10.572
			c-3.155-2.683-7.888-2.3-10.572,0.854c-6.969,8.195-7.75,19.791-1.946,28.855c2.768,4.322,16.414,18.006,33.566,7.375
			c21.915-13.583,31.648-33.576,35.141-52.562c10.116,2.37,20.47,3.686,30.913,3.924c-2.161,2.94-4.935,5.488-8.36,7.681
			c-5.469,3.501-9.247,8.923-10.638,15.266c-1.391,6.343-0.229,12.847,3.273,18.315c2.767,4.322,16.172,18.088,33.566,7.375
			c17.928-11.042,29.511-28.025,34.305-48.577h31.543c0.008,0,0.017,0.002,0.025,0.002c0.015,0,0.031-0.002,0.046-0.002h41.899
			c-2.157,2.919-4.919,5.439-8.326,7.621c-5.469,3.501-9.247,8.923-10.638,15.266c-1.391,6.342-0.229,12.847,3.272,18.315
			c0,0,0,0,0,0.001c2.769,4.321,7.599,8.006,12.922,9.853c2.589,0.898,5.224,1.344,7.837,1.344c4.444,0,8.826-1.288,12.808-3.823
			c20.233-12.885,30.21-30.855,34.316-48.585c11.641-0.047,23.084-1.418,34.164-4.033c-2.346,4.703-5.899,8.532-10.787,11.661
			c-5.469,3.501-9.247,8.923-10.638,15.266s-0.538,13.059,3.273,18.315c3.66,5.049,16.218,18.138,33.565,7.375
			c34.846-21.62,37.591-57.727,36.548-76.032c7.133-5.03,13.892-10.713,20.2-17.021C496.205,382.482,512,344.498,512,304.209z
			 M132.979,77.011c8.596-27.274,25.585-46.64,47.836-54.528c21.009-7.449,45.115-3.926,67.874,9.92
			c23.255,14.147,43.214,37.783,56.198,66.554c1.703,3.775,6.145,5.453,9.921,3.751c3.775-1.704,5.455-6.146,3.751-9.921
			c-9.039-20.028-20.941-37.312-34.564-51.192c26.162-21.202,55.334-28.178,80.909-19.111c22.149,7.853,39.101,27.1,47.73,54.194
			c8.171,25.656,8.09,55.677-0.082,85.307c-16.453-6.044-33.986-9.204-51.982-9.204h-25.909
			c-0.968-10.027-2.783-20.117-5.445-30.089c-1.068-4.002-5.177-6.38-9.181-5.312c-4.002,1.068-6.38,5.179-5.312,9.181
			c2.323,8.699,3.949,17.486,4.869,26.22H186.81c-18.551,0-36.61,3.357-53.501,9.771C125.018,132.875,124.858,102.78,132.979,77.011
			z M22.022,315.838c-4.397-2.313-7.022-6.66-7.022-11.628c0-4.968,2.625-9.315,7.022-11.628l14.587-7.673
			c-0.811,6.355-1.229,12.798-1.229,19.302c0,6.472,0.423,12.924,1.252,19.313L22.022,315.838z M149.583,404.889
			c-4.225-12.722-17.957-19.472-30.731-15.413c-15.002,4.767-16.412,18.339-16.613,21.564
			c-13.675-10.869-25.258-24.294-33.949-39.479c-11.717-20.472-17.91-43.762-17.91-67.352c0-36.282,14.235-70.499,40.083-96.346
			c24.295-24.295,55.984-38.328,89.833-39.926c-3.126,11.824-5.865,24.225-8.158,37.009c-0.731,4.077,1.981,7.975,6.059,8.706
			c0.448,0.08,0.893,0.119,1.333,0.119c3.562,0,6.723-2.548,7.373-6.178c2.48-13.835,5.491-27.2,8.964-39.813h54.954
			c-4.496,12.34-8.275,24.977-11.247,37.705c-10.229,43.799-12.118,90.79-5.616,139.668c4.11,30.888,11.711,62.962,22.599,95.485
			h-54.852c-9.465-31.091-16.177-61.972-19.955-91.872c-4.054-32.072-3.92-70.573,0.375-108.412
			c0.467-4.116-2.491-7.831-6.606-8.298c-4.116-0.468-7.831,2.491-8.298,6.606c-4.426,38.992-4.552,78.762-0.352,111.985
			c3.707,29.332,10.155,59.554,19.175,89.978c-10.852-0.061-21.616-1.404-32.074-4.013
			C154.268,424.112,152.213,412.811,149.583,404.889z M193.131,491.563c-6.418,4.084-12.099-1.595-12.877-2.811
			c-1.341-2.094-4.07-7.99,2.821-12.861c7.822-5.529,13.878-11.962,17.343-20.253h19.602
			C215.699,470.858,206.695,482.925,193.131,491.563z M318.825,491.563c-6.417,4.088-12.1-1.596-12.877-2.811
			c-1.341-2.094-1.786-4.585-1.254-7.014c0.533-2.429,1.979-4.505,4.074-5.847c13.057-8.36,20.151-20.936,21.089-37.378
			c0.726-12.731-2.551-22.903-2.593-23.032c-0.784-2.36-0.602-4.884,0.513-7.107c1.115-2.223,3.029-3.879,5.39-4.662
			c4.867-1.619,10.15,1.029,11.768,5.903C351.127,428.265,353.638,469.393,318.825,491.563z M402.72,491.563
			c-8.127,5.236-12.227-1.795-12.877-2.811c-1.341-2.094-3.54-8.533,2.82-12.861c10.694-7.277,17.621-16.895,20.101-29.536
			c6.747-2.49,13.311-5.464,19.648-8.909C431.749,453.484,426.155,476.465,402.72,491.563z M363.384,440.604
			c0.904-14.072-1.304-26.958-4.212-35.716c-4.225-12.721-18.008-19.633-30.732-15.412c-6.163,2.046-11.16,6.37-14.071,12.174
			c-2.9,5.783-3.16,12.279-1.372,18.464c4.396,15.205,1.727,19.555,1.609,20.524h-42.214
			c-11.454-33.253-19.383-66.017-23.567-97.463c-6.262-47.074-4.461-92.252,5.355-134.279c3.25-13.917,7.505-27.722,12.652-41.116
			h93.74c36.282,0,70.498,14.235,96.346,40.083C482.765,233.711,497,267.928,497,304.21c0,36.282-14.235,70.499-40.083,96.346
			C431.738,425.734,398.618,439.888,363.384,440.604z"/>
	</g>
</g>
<g>
</g>
<g>
</g>
<g>
</g>
<g>
</g>
<g>
</g>
<g>
</g>
<g>
</g>
<g>
</g>
<g>
</g>
<g>
</g>
<g>
</g>
<g>
</g>
<g>
</g>
<g>
</g>
<g>
</g>
</svg>
