<?xml version="1.0" encoding="iso-8859-1"?>
<!-- Generator: Adobe Illustrator 19.0.0, SVG Export Plug-In . SVG Version: 6.00 Build 0)  -->
<svg version="1.1" id="Layer_1" xmlns="http://www.w3.org/2000/svg" xmlns:xlink="http://www.w3.org/1999/xlink" x="0px" y="0px"
	 viewBox="0 0 512.011 512.011" style="enable-background:new 0 0 512.011 512.011;" xml:space="preserve">
<g id="honeycomb">
	<g id="fill_24_">
		<path style="fill:#C68D6D;" d="M334.778,21.764c-5.535-12.206-19.918-17.616-32.123-12.08
			c-37.375,16.946-83.399,20.74-107.509,21.493c-13.396,0.418-23.916,11.618-23.498,25.014c0.41,13.139,9.258,23.498,25.015,23.498
			c9.711,0,20.696-0.529,32.428-1.734v56.507c0,13.861,11.341,25.202,25.202,25.202h0c13.861,0,25.202-11.341,25.202-25.202V68.946
			c14.588-3.791,29.242-8.728,43.202-15.058C334.905,48.353,340.313,33.971,334.778,21.764z"/>
		<path style="fill:#B2785B;" d="M254.293,159.664L254.293,159.664c13.861,0,25.202-11.341,25.202-25.202V68.946
			c0,0-22.797,7.319-50.404,9.009v56.507C229.091,148.323,240.432,159.664,254.293,159.664z"/>
		<path style="fill:#FFDAAA;" d="M353.449,201.098H158.563c-24.332,0-44.239-19.908-44.239-44.239v0
			c0-24.332,19.908-44.239,44.239-44.239h194.886c24.332,0,44.239,19.908,44.239,44.239v0
			C397.688,181.19,377.78,201.098,353.449,201.098z"/>
		<path style="fill:#FFC477;" d="M181.602,156.859L181.602,156.859c0-24.332,19.908-44.239,44.239-44.239h-67.279
			c-24.332,0-44.239,19.908-44.239,44.239v0c0,24.332,19.908,44.239,44.239,44.239h67.279
			C201.51,201.098,181.602,181.19,181.602,156.859z"/>
		<path style="fill:#FFC477;" d="M392.927,277.356H119.085c-24.332,0-44.239-19.908-44.239-44.239v0
			c0-24.332,19.908-44.239,44.239-44.239h273.842c24.332,0,44.239,19.908,44.239,44.239v0
			C437.166,257.448,417.258,277.356,392.927,277.356z"/>
		<path style="fill:#FFB864;" d="M142.125,233.116L142.125,233.116c0-24.332,19.908-44.239,44.239-44.239h-67.279
			c-24.331,0-44.239,19.908-44.239,44.239v0c0,24.332,19.908,44.239,44.239,44.239h67.279
			C162.032,277.356,142.125,257.448,142.125,233.116z"/>
		<path style="fill:#FFDAAA;" d="M353.449,416.033H158.563c-24.332,0-44.239,19.908-44.239,44.239v0
			c0,24.332,19.908,44.239,44.239,44.239h194.886c24.332,0,44.239-19.908,44.239-44.239v0
			C397.688,435.94,377.78,416.033,353.449,416.033z"/>
		<path style="fill:#FFC477;" d="M181.602,460.272L181.602,460.272c0-24.332,19.907-44.239,44.239-44.239h-67.279
			c-24.332,0-44.239,19.908-44.239,44.239l0,0c0,24.332,19.908,44.239,44.239,44.239h67.279
			C201.51,504.511,181.602,484.604,181.602,460.272z"/>
		<path style="fill:#FFC477;" d="M392.927,339.775H119.085c-24.332,0-44.239,19.908-44.239,44.239v0
			c0,24.332,19.908,44.239,44.239,44.239h273.842c24.332,0,44.239-19.908,44.239-44.239v0
			C437.166,359.683,417.258,339.775,392.927,339.775z"/>
		<path style="fill:#FFB864;" d="M142.124,384.014L142.124,384.014c0-24.332,19.908-44.239,44.239-44.239h-67.279
			c-24.331,0-44.239,19.908-44.239,44.239v0c0,24.332,19.908,44.239,44.239,44.239h67.279
			C162.032,428.254,142.124,408.346,142.124,384.014z"/>
		<path style="fill:#FFDAAA;" d="M420.728,353.613H91.284c-24.332,0-44.239-19.908-44.239-44.239v0
			c0-24.332,19.908-44.239,44.239-44.239h329.444c24.332,0,44.239,19.908,44.239,44.239v0
			C464.967,333.706,445.059,353.613,420.728,353.613z"/>
		<path style="fill:#FFC477;" d="M114.324,309.374L114.324,309.374c0-24.332,19.908-44.239,44.239-44.239H91.284
			c-24.332,0-44.239,19.908-44.239,44.239v0c0,24.332,19.908,44.239,44.239,44.239h67.279
			C134.231,353.613,114.324,333.706,114.324,309.374z"/>
		<circle style="fill:#8C716B;" cx="256.006" cy="309.374" r="75.449"/>
		<path style="fill:#755B57;" d="M225.842,309.374c0-33.78,22.209-62.373,52.815-71.99c-7.148-2.246-14.761-3.459-22.651-3.459
			c-41.669,0-75.449,33.78-75.449,75.449c0,41.669,33.78,75.449,75.449,75.449c7.89,0,15.503-1.213,22.651-3.459
			C248.051,371.747,225.842,343.154,225.842,309.374z"/>
		<path style="fill:#FFEB99;" d="M256.006,384.823c-17.957,0-34.44-6.266-47.395-16.741v56.19c0,10.179,8.328,18.507,18.507,18.507
			s18.507-8.328,18.507-18.507v-6.415c0-8.907,7.287-16.194,16.194-16.194h0c8.906,0,16.194,7.287,16.194,16.194v19.865
			c0,10.179,8.328,18.507,18.507,18.507c10.179,0,18.507-8.328,18.507-18.507v-81.343
			C301.203,373.725,279.91,384.823,256.006,384.823z"/>
	</g>
	<path id="stroke_24_" d="M472.466,309.374c0-22.868-14.918-42.305-35.528-49.124c5.028-8.091,7.728-17.412,7.728-27.134
		c0-26.544-20.096-48.473-45.871-51.397c4.168-7.544,6.394-16.037,6.394-24.861c0-28.529-23.21-51.739-51.739-51.739h-66.453V74.69
		c13.846-3.874,26.873-8.564,38.798-13.972c7.729-3.504,13.631-9.808,16.617-17.751c2.987-7.942,2.702-16.573-0.803-24.302
		c-3.504-7.728-9.808-13.629-17.75-16.616c-7.944-2.987-16.573-2.702-24.3,0.803c-36.19,16.409-81.098,20.092-104.646,20.828
		c-17.508,0.547-31.307,15.236-30.76,32.744c0.574,18.401,13.64,30.765,32.511,30.765c8.014,0,16.368-0.343,24.928-1.021v18.95
		h-63.028c-28.529,0-51.739,23.21-51.739,51.74c0,8.719,2.266,17.282,6.43,24.856c-25.793,2.908-45.908,24.845-45.908,51.402
		c0,9.603,2.747,19.015,7.753,27.125c-20.624,6.811-35.554,26.255-35.554,49.132c0,22.575,14.538,41.807,34.739,48.856
		c-4.511,7.801-6.939,16.673-6.939,25.784c0,26.557,20.115,48.494,45.908,51.402c-4.164,7.574-6.431,16.137-6.431,24.856
		c0,28.529,23.21,51.739,51.739,51.739h194.887c28.529,0,51.739-23.21,51.739-51.739c0-8.823-2.225-17.316-6.394-24.861
		c25.775-2.924,45.871-24.853,45.871-51.397c0-9.152-2.41-18.003-6.921-25.79C457.937,351.169,472.466,331.942,472.466,309.374z
		 M196.663,72.19c-10.652,0-17.201-6.068-17.519-16.232c-0.288-9.242,6.995-16.995,16.236-17.284
		c24.667-0.771,71.807-4.674,110.372-22.16c4.078-1.849,17.649-3.55,22.194,8.347c5.051,13.221-4.268,20.347-8.348,22.196
		c-12.745,5.779-26.872,10.701-41.99,14.63c-0.138,0.036-0.264,0.097-0.399,0.14l-0.007-0.022c-0.219,0.07-22.207,7.05-48.569,8.664
		l0.001,0.01c-0.103,0.006-0.207,0.005-0.31,0.016C217.38,71.62,206.727,72.19,196.663,72.19z M236.591,84.887
		c14.548-1.381,27.208-4.049,35.405-6.09v26.323h-35.405V84.887z M119.085,196.377h196.79c4.143,0,7.5-3.358,7.5-7.5
		s-3.357-7.5-7.5-7.5H131.283c-6.115-6.766-9.46-15.365-9.46-24.518c0-20.258,16.481-36.739,36.739-36.739h194.887
		c20.258,0,36.739,16.481,36.739,36.74c0,9.114-3.344,17.745-9.452,24.518h-33.779c-4.142,0-7.5,3.358-7.5,7.5s3.358,7.5,7.5,7.5
		h45.969c20.258,0,36.739,16.481,36.739,36.739c0,9.114-3.344,17.746-9.452,24.518h-99.443
		c-15.213-19.005-38.584-31.21-64.765-31.21c-26.181,0-49.552,12.205-64.765,31.21H91.806c-6.115-6.766-9.461-15.364-9.461-24.518
		C82.345,212.858,98.827,196.377,119.085,196.377z M261.818,394.164c-13.065,0-23.693,10.629-23.693,23.694v6.414
		c0,6.069-4.938,11.007-11.007,11.007s-11.007-4.938-11.007-11.007v-42.199c11.845,6.526,25.441,10.25,39.895,10.25
		c19.458,0,37.358-6.752,51.521-18.013v63.412c0,6.069-4.939,11.007-11.008,11.007c-6.069,0-11.007-4.938-11.007-11.007v-19.865
		C285.512,404.793,274.884,394.164,261.818,394.164z M270.512,420.753h-17.388c0,0-1.116-11.59,8.694-11.59
		C271.629,409.164,270.512,420.753,270.512,420.753z M256.006,377.323c-37.468,0-67.949-30.481-67.949-67.949
		s30.481-67.949,67.949-67.949s67.949,30.482,67.949,67.949S293.473,377.323,256.006,377.323z M54.545,309.374
		c0-20.258,16.481-36.739,36.739-36.739h90.38c-5.499,11.082-8.607,23.552-8.607,36.739c0,13.187,3.108,25.657,8.607,36.739h-90.38
		C71.026,346.113,54.545,329.632,54.545,309.374z M353.449,497.011H158.562c-20.258,0-36.739-16.481-36.739-36.739
		c0-9.153,3.346-17.752,9.461-24.518h14.895c4.143,0,7.5-3.358,7.5-7.5c0-4.142-3.357-7.5-7.5-7.5h-27.094
		c-20.258,0-36.739-16.481-36.739-36.739c0-8.34,2.864-16.408,8.096-22.922c0.281,0.004,100.799,0.021,100.799,0.021
		c2.989,3.734,6.291,7.204,9.871,10.371v49.269h-23.196c-4.143,0-7.5,3.358-7.5,7.5s3.357,7.5,7.5,7.5h25.876
		c4.249,8.597,13.107,14.526,23.327,14.526c10.22,0,19.079-5.929,23.327-14.526h20.067c0,0,0.095,27.976,26.007,27.976
		c25.912,0,26.008-27.976,26.008-27.976h58.209c6.109,6.773,9.452,15.405,9.452,24.518
		C390.188,480.53,373.707,497.011,353.449,497.011z M429.666,384.014c0,20.258-16.482,36.739-36.739,36.739h-70.399v-59.64
		c0,0,98.759-0.017,99.039-0.021C426.805,367.607,429.666,375.634,429.666,384.014z M420.727,346.113h-90.38
		c5.499-11.082,8.607-23.552,8.607-36.739c0-13.187-3.108-25.657-8.607-36.739h90.38c20.258,0,36.739,16.481,36.739,36.739
		C457.466,329.632,440.985,346.113,420.727,346.113z"/>
</g>
<g>
</g>
<g>
</g>
<g>
</g>
<g>
</g>
<g>
</g>
<g>
</g>
<g>
</g>
<g>
</g>
<g>
</g>
<g>
</g>
<g>
</g>
<g>
</g>
<g>
</g>
<g>
</g>
<g>
</g>
</svg>
