<?xml version="1.0" encoding="iso-8859-1"?>
<!-- Generator: Adobe Illustrator 19.0.0, SVG Export Plug-In . SVG Version: 6.00 Build 0)  -->
<svg version="1.1" id="Layer_1" xmlns="http://www.w3.org/2000/svg" xmlns:xlink="http://www.w3.org/1999/xlink" x="0px" y="0px"
	 viewBox="0 0 511.999 511.999" style="enable-background:new 0 0 511.999 511.999;" xml:space="preserve">
<g id="leaf_2">
	<g id="fill_25_">
		<path style="fill:#97AF8C;" d="M468.041,295.364c-30.536-45.312-88.409-6.25-88.409-6.25c-19.081,12.69-44.606-0.99-44.606-23.905
			v0c0-9.61,4.809-18.583,12.811-23.905l56.552-37.61c24.907-16.565,31.389-50,15.106-75.093
			c-28.775-44.344-75.092-15.106-75.092-15.106c-14.66,9.75-34.272-0.761-34.272-18.367V62.553c0-29.701-23.539-54.55-53.236-55.046
			c-30.337-0.506-55.088,23.934-55.088,54.154v33.467c0,17.606-19.612,28.116-34.272,18.367c0,0-45.996-28.882-75.092,15.106
			c-16.503,24.949-9.801,58.528,15.106,75.093l56.552,37.61c8.002,5.322,12.811,14.295,12.811,23.905v0
			c0,22.915-25.526,36.594-44.606,23.905c0,0-57.675-39.934-88.409,6.25c-16.572,24.903-9.802,58.528,15.106,75.093l100.295,66.701
			c58.564,38.948,134.78,38.948,193.344,0l100.295-66.701C477.843,353.892,484.758,320.17,468.041,295.364z"/>
		<path style="fill:#8C9E82;" d="M185.814,187.844c-39.345-23.544-40.764-59.191-36.694-81.791
			c-16.031-4.001-39.35-3.648-56.678,22.548c-16.503,24.949-9.801,58.528,15.106,75.093l56.552,37.61
			c8.002,5.322,12.811,14.295,12.811,23.905v0c0,22.915-25.526,36.594-44.606,23.905c0,0-57.675-39.934-88.409,6.25
			c-16.572,24.903-9.801,58.528,15.106,75.093l100.295,66.702c58.564,38.948,134.78,38.948,193.344,0l24.875-16.543
			C333.748,350.286,250.757,226.706,185.814,187.844z"/>
		<path style="fill:#B2785B;" d="M349.97,170.292L349.97,170.292c-5.016-9.196-16.645-12.616-25.841-7.6L256,199.855l-68.13-37.163
			c-9.196-5.016-20.825-1.596-25.841,7.6v0c-5.016,9.196-1.596,20.825,7.6,25.841L256,243.246l86.371-47.113
			C351.567,191.116,354.987,179.488,349.97,170.292z"/>
		<path style="fill:#B2785B;" d="M354.148,343.869L354.148,343.869c-5.129-9.134-16.799-12.41-25.933-7.281L256,377.144
			l-72.216-40.556c-9.134-5.129-20.803-1.853-25.933,7.28v0c-5.129,9.134-1.853,20.803,7.281,25.933L256,420.833l90.868-51.031
			C356.001,364.672,359.278,353.003,354.148,343.869z"/>
		<path style="fill:#C68D6D;" d="M256,504.5L256,504.5c-10.475,0-19.046-8.571-19.046-19.046V149.74
			c0-10.475,8.571-19.046,19.046-19.046l0,0c10.475,0,19.046,8.571,19.046,19.046v335.714C275.046,495.929,266.475,504.5,256,504.5z
			"/>
	</g>
	<path id="stroke_25_" d="M474.261,291.172c-14.358-21.306-36.32-29.346-63.517-23.243c-19.443,4.36-34.669,14.537-35.265,14.939
		c-6.62,4.401-14.755,4.789-21.763,1.034c-7.007-3.755-11.19-10.743-11.19-18.693c0-7.117,3.538-13.719,9.464-17.66l31.723-21.097
		c3.449-2.294,4.386-6.949,2.092-10.398c-2.294-3.448-6.949-4.386-10.398-2.092l-31.723,21.097c-10.117,6.73-16.157,18-16.157,30.15
		c0,13.572,7.142,25.503,19.105,31.914c11.963,6.411,25.853,5.751,37.188-1.787c0.136-0.092,13.812-9.179,30.565-12.851
		c20.774-4.553,36.735,1.19,47.437,17.069c6.901,10.241,9.374,22.587,6.963,34.764c-2.439,12.32-9.543,22.937-20.003,29.893
		l-100.295,66.702c-19.801,13.168-42.484,22.025-65.94,25.815v-42.203l67.994-38.184c12.762-7.168,17.314-23.382,10.147-36.145
		c-3.462-6.164-15.118-19.991-36.145-10.147l-41.997,23.585V237.308l63.416-34.592c12.85-7.01,17.602-23.166,10.592-36.017
		c-7.009-12.849-23.165-17.601-36.017-10.593l-37.991,20.724v-27.092c0-14.638-11.909-26.546-26.546-26.546
		c-14.638,0-26.546,11.908-26.546,26.546v27.092l-37.992-20.724c-12.85-7.01-29.006-2.256-36.017,10.593
		c-7.009,12.851-2.257,29.007,10.593,36.017l63.415,34.591v116.327l-41.996-23.585c-21.026-8.615-32.684,3.982-36.145,10.147
		c-7.167,12.763-2.615,28.977,10.148,36.145l43.047,24.175c5.392,1.827,8.836-0.416,10.212-2.866
		c2.028-3.612,0.745-8.184-2.867-10.212l-43.046-24.175c-5.551-3.118-7.531-10.17-4.414-15.721
		c1.499-2.671,5.795-8.738,15.721-4.414l49.341,27.71v85.898c-23.496-3.79-46.162-12.626-66.004-25.822L63.154,364.211
		c-10.379-6.902-17.45-17.434-19.909-29.653c-2.459-12.221-0.011-24.664,6.893-35.039c6.775-10.181,15.214-16.121,25.8-18.162
		c24.613-4.744,51.832,13.742,52.096,13.923c0.039,0.026,0.077,0.053,0.116,0.079c11.303,7.516,25.192,8.176,37.155,1.765
		c11.963-6.411,19.105-18.342,19.105-31.914c0-12.15-6.04-23.421-16.157-30.15l-56.552-37.609
		c-21.371-14.213-27.204-43.242-13.004-64.71c10.289-15.555,24.042-22.552,40.895-20.785c12.889,1.35,23.136,7.399,23.908,7.864
		c9.205,6.063,20.487,6.575,30.211,1.362c9.766-5.233,15.596-14.973,15.596-26.052V61.661c0-12.611,4.953-24.427,13.945-33.271
		c8.99-8.842,20.897-13.604,33.517-13.385c25.289,0.423,45.862,21.752,45.862,47.547v32.576c0,11.079,5.831,20.818,15.596,26.052
		c9.726,5.213,21.01,4.701,30.214-1.364c0.82-0.497,11.131-6.612,24.038-7.998c16.869-1.817,30.565,5.209,40.725,20.866
		c13.461,20.742,8.771,48.478-10.677,63.142c-3.307,2.494-3.967,7.196-1.473,10.504c2.494,3.307,7.197,3.968,10.504,1.473
		c25.706-19.383,31.956-55.966,14.229-83.284c-16.959-26.135-39.542-29.409-55.496-27.549c-16.678,1.941-29.36,9.848-29.892,10.184
		c-0.05,0.031-0.101,0.063-0.15,0.097c-4.543,3.022-10.126,3.288-14.938,0.71c-4.81-2.578-7.681-7.374-7.681-12.831V62.553
		c0-33.929-27.19-61.986-60.611-62.545c-16.642-0.263-32.405,6.004-44.286,17.688c-11.883,11.687-18.427,27.3-18.427,43.965v33.468
		c0,5.457-2.872,10.253-7.681,12.831c-4.81,2.577-10.394,2.313-14.938-0.71c-0.055-0.036-0.109-0.071-0.165-0.106
		c-0.528-0.332-13.135-8.149-29.775-10.043c-15.891-1.806-38.434,1.471-55.561,27.363c-18.752,28.35-11.032,66.693,17.208,85.476
		l56.552,37.609c5.926,3.941,9.464,10.543,9.464,17.66c0,7.95-4.183,14.938-11.191,18.693c-6.99,3.745-15.104,3.371-21.715-1.002
		c-2.078-1.427-32.907-22.109-63.328-16.287c-14.567,2.786-26.519,11.061-35.526,24.595c-9.125,13.712-12.361,30.158-9.111,46.309
		c3.249,16.147,12.592,30.064,26.307,39.185l100.295,66.702c22.292,14.824,47.855,24.606,74.311,28.51v13.54
		c0,14.638,11.909,26.546,26.546,26.546c14.638,0,26.546-11.908,26.546-26.546v-13.545c26.409-3.904,51.997-13.707,74.247-28.504
		l100.295-66.702c13.81-9.185,23.19-23.201,26.411-39.469C486.692,321.109,483.411,304.75,474.261,291.172z M331.888,343.128
		c7.975-4.212,14.221,1.743,15.721,4.414c3.117,5.551,1.137,12.602-4.414,15.721l-60.649,34.06v-26.485L331.888,343.128z
		 M327.721,169.276c5.589-3.048,12.617-0.982,15.665,4.608c3.049,5.589,0.982,12.616-4.607,15.665l-56.233,30.674v-26.305
		L327.721,169.276z M173.221,189.549c-5.589-3.049-7.656-10.076-4.608-15.665c3.049-5.589,10.078-7.655,15.665-4.608l45.175,24.642
		v26.305L173.221,189.549z M267.546,485.453c0,6.366-5.18,11.546-11.546,11.546s-11.546-5.18-11.546-11.546v-20.065
		c0-0.006,0-0.012,0-0.017V149.739c0-6.366,5.18-11.546,11.546-11.546s11.546,5.18,11.546,11.546V485.453z"/>
</g>
<g>
</g>
<g>
</g>
<g>
</g>
<g>
</g>
<g>
</g>
<g>
</g>
<g>
</g>
<g>
</g>
<g>
</g>
<g>
</g>
<g>
</g>
<g>
</g>
<g>
</g>
<g>
</g>
<g>
</g>
</svg>
