<?xml version="1.0" encoding="iso-8859-1"?>
<!-- Generator: Adobe Illustrator 19.0.0, SVG Export Plug-In . SVG Version: 6.00 Build 0)  -->
<svg version="1.1" id="Layer_1" xmlns="http://www.w3.org/2000/svg" xmlns:xlink="http://www.w3.org/1999/xlink" x="0px" y="0px"
	 viewBox="0 0 512 512" style="enable-background:new 0 0 512 512;" xml:space="preserve">
<g id="corn">
	<g id="fill_26_">
		<path style="fill:#FFEB99;" d="M400.47,340.939c0,68.128-64.681,123.356-144.47,123.356s-144.47-55.229-144.47-123.356
			S124.798,7.5,256,7.5S400.47,272.811,400.47,340.939z"/>
		<path style="fill:#FFDE55;" d="M393.551,378.764c-34.232-54.548-82.227-121.416-123.173-142.866
			c-54.58-28.592-93.354-116.158-109.431-158.475c-43.454,83.566-49.417,217.847-49.417,263.517
			c0,68.128,64.681,123.356,144.47,123.356C320.338,464.296,374.851,428.392,393.551,378.764z"/>
		<ellipse style="fill:#7FB762;" cx="256" cy="468.626" rx="46.573" ry="35.874"/>
		<path style="fill:#9AD880;" d="M128.579,442.155c56.186,51.762,119.337,46.062,162.103,6.663s50.734-95.939-7.232-149.341
			c-30.489-28.088-120.687-50.53-179.771-62.747c-25.884-5.352-49.019,15.962-43.209,39.808
			C73.731,330.969,98.091,414.067,128.579,442.155z"/>
		<path style="fill:#8DC971;" d="M290.682,448.824c42.766-39.4,50.734-95.939-7.232-149.341c-2.691-2.48-5.846-4.92-9.406-7.309
			l-70.517,36.246c0,0-49.235,49.746-41.237,137.766C208.79,490.377,256.318,480.484,290.682,448.824z"/>
		<path style="fill:#B2E59C;" d="M383.421,442.155c-56.186,51.762-119.337,46.062-162.103,6.663s-50.734-95.939,7.232-149.341
			c30.489-28.088,120.687-50.53,179.771-62.747c25.884-5.352,49.019,15.962,43.209,39.808
			C438.269,330.969,413.909,414.067,383.421,442.155z"/>
		<path style="fill:#57565C;" d="M336.657,211.613c-4.143,0-7.5-3.358-7.5-7.5v-12.451c0-4.142,3.357-7.5,7.5-7.5
			c4.143,0,7.5,3.358,7.5,7.5v12.451C344.157,208.255,340.799,211.613,336.657,211.613z"/>
		<path style="fill:#57565C;" d="M175.343,211.613c-4.143,0-7.5-3.358-7.5-7.5v-12.451c0-4.142,3.357-7.5,7.5-7.5
			c4.143,0,7.5,3.358,7.5,7.5v12.451C182.843,208.255,179.486,211.613,175.343,211.613z"/>
		<path style="fill:#57565C;" d="M256,219.466c-9.707,0-19.414-3.141-27.514-9.424c-3.273-2.539-3.868-7.25-1.329-10.523
			c2.537-3.274,7.25-3.869,10.522-1.33c10.787,8.367,25.854,8.367,36.641,0c3.272-2.539,7.984-1.944,10.522,1.33
			c2.539,3.273,1.944,7.984-1.329,10.523C275.414,216.324,265.707,219.466,256,219.466z"/>
		<path style="fill:#FFDE55;" d="M238.372,85.759l-12.497-12.497c-4.592-4.592-4.592-12.038,0-16.63l12.497-12.497
			c4.592-4.592,12.038-4.592,16.63,0l12.497,12.497c4.592,4.592,4.592,12.038,0,16.63l-12.497,12.497
			C250.409,90.352,242.964,90.352,238.372,85.759z"/>
		<path style="fill:#FFDE55;" d="M287.225,134.612l-12.497-12.497c-4.592-4.592-4.592-12.038,0-16.63l12.497-12.497
			c4.592-4.592,12.038-4.592,16.63,0l12.497,12.497c4.592,4.592,4.592,12.038,0,16.63l-12.497,12.497
			C299.262,139.205,291.817,139.205,287.225,134.612z"/>
	</g>
	<g id="stroke_26_">
		<path d="M329.157,191.662v12.451c0,4.142,3.357,7.5,7.5,7.5c4.143,0,7.5-3.358,7.5-7.5v-12.451c0-4.142-3.357-7.5-7.5-7.5
			C332.514,184.162,329.157,187.52,329.157,191.662z"/>
		<path d="M167.843,191.662v12.451c0,4.142,3.357,7.5,7.5,7.5c4.143,0,7.5-3.358,7.5-7.5v-12.451c0-4.142-3.357-7.5-7.5-7.5
			C171.201,184.162,167.843,187.52,167.843,191.662z"/>
		<path d="M228.486,210.042c8.1,6.283,17.807,9.424,27.514,9.424s19.414-3.141,27.514-9.424c3.274-2.538,3.868-7.25,1.329-10.523
			c-2.538-3.273-7.251-3.868-10.522-1.33c-10.787,8.367-25.853,8.367-36.641,0c-3.272-2.539-7.985-1.944-10.522,1.33
			C224.618,202.792,225.213,207.503,228.486,210.042z"/>
		<path d="M448.682,241.916c-10.679-11.061-26.334-15.746-41.879-12.531c-49.85,10.309-110.489,25.44-150.779,44.313
			c-35.439-16.588-86.814-30.235-129.909-39.824c7.58-59.704,20.21-108.499,37.571-145.104C186.901,39.82,217.96,15,256,15
			c34.613,0,63.511,20.59,85.891,61.198c18.071,32.789,31.745,77.913,40.641,134.118c0.648,4.09,4.492,6.881,8.58,6.235
			c4.091-0.648,6.883-4.489,6.235-8.581C375.814,71.915,326.936,0,256,0c-44.335,0-79.954,27.704-105.868,82.342
			c-17.912,37.766-30.928,87.646-38.729,148.342c-20.375-3.644-37.406,0.173-48.084,11.232
			c-9.643,9.988-13.337,23.254-10.135,36.396c7.417,30.442,19.427,74.324,34.53,110.502c1.201,2.878,4.714,5.883,9.81,4.031
			c3.893-1.415,5.628-5.987,4.032-9.811c-14.728-35.28-26.509-78.353-33.798-108.273c-1.959-8.042,0.356-16.216,6.353-22.427
			c7.086-7.34,17.572-10.431,28.051-8.261c41.661,8.615,97.122,21.959,136.919,38.542c-6.109,3.664-11.381,7.448-15.612,11.345
			c-28.661,26.403-43.81,55.85-43.81,85.154c0,27.163,12.648,53.173,36.577,75.218c6.435,5.928,13.217,11.08,20.281,15.439
			c-13.626,3.115-27.591,3.228-41.701,0.283c-21.342-4.452-41.918-15.695-61.155-33.417c-5.802-5.346-11.786-13.387-17.785-23.902
			c-2.053-3.598-6.633-4.851-10.231-2.798c-3.598,2.053-4.85,6.634-2.797,10.231c6.765,11.856,13.712,21.109,20.65,27.5
			c25.729,23.703,54.543,36.988,83.378,39.16C215.593,502.052,234.671,512,256,512c21.326,0,40.384-9.932,49.108-25.139
			c29.084-2.138,57.762-15.577,83.394-39.19c30.963-28.525,55.328-107.843,70.315-169.358
			C462.019,265.17,458.325,251.904,448.682,241.916z M225.947,486.64c10.12-0.978,20.158-3.361,29.975-7.175
			c9.706,3.779,19.79,6.197,30.122,7.189C278.734,493.033,267.764,497,256,497C236.809,497,227.761,488.234,225.947,486.64z
			 M444.244,274.762c-20.494,84.114-43.899,141.604-65.905,161.878c-25.103,23.126-55.163,35.533-81.456,35.533
			s-49.977-9.978-70.484-28.87c-20.765-19.131-31.74-41.325-31.74-64.186c0-25.004,13.477-50.635,38.973-74.124
			c22.096-20.357,84.674-41.991,176.208-60.919c2.204-0.456,4.409-0.679,6.583-0.679c8.158,0,15.873,3.145,21.469,8.94
			C443.887,258.546,446.203,266.72,444.244,274.762z"/>
		<path d="M246.686,96.694c4.931,0,9.864-1.877,13.618-5.631l12.498-12.498c7.508-7.51,7.508-19.728-0.001-27.236l-12.497-12.496
			c-3.638-3.639-8.474-5.642-13.619-5.642c-5.144,0-9.981,2.003-13.618,5.641l-12.498,12.497c-3.638,3.638-5.641,8.474-5.641,13.618
			c0,5.144,2.003,9.98,5.641,13.619l12.498,12.497C236.824,94.817,241.754,96.695,246.686,96.694z M231.178,61.937l12.498-12.498
			c3.006-2.827,5.218-0.805,6.022,0.001l12.498,12.497c1.66,1.66,1.66,4.362,0,6.022l-12.498,12.497
			c-1.66,1.659-4.362,1.661-6.023,0L231.178,67.96C230.373,67.155,228.718,64.943,231.178,61.937z"/>
		<path d="M309.158,139.916l12.497-12.497c3.638-3.638,5.641-8.474,5.641-13.618c0-5.145-2.003-9.98-5.641-13.619l-12.497-12.497
			c-7.51-7.508-19.727-7.508-27.236,0l-12.498,12.498c-3.637,3.638-5.641,8.474-5.641,13.618c0,5.145,2.003,9.98,5.641,13.618
			l12.497,12.496c3.638,3.639,8.474,5.642,13.619,5.642C300.684,145.557,305.521,143.554,309.158,139.916z M292.528,129.309
			l-12.497-12.497c-0.805-0.804-2.766-3.011,0-6.022l12.497-12.497c3.012-2.536,5.193-0.83,6.023,0l12.497,12.496
			c2.806,3.017,0.805,5.22,0,6.023l-12.498,12.498c-0.804,0.805-3.011,2.47-6.022,0C292.528,129.31,292.528,129.31,292.528,129.309z
			"/>
	</g>
</g>
<g>
</g>
<g>
</g>
<g>
</g>
<g>
</g>
<g>
</g>
<g>
</g>
<g>
</g>
<g>
</g>
<g>
</g>
<g>
</g>
<g>
</g>
<g>
</g>
<g>
</g>
<g>
</g>
<g>
</g>
</svg>
