<?xml version="1.0" encoding="iso-8859-1"?>
<!-- Generator: Adobe Illustrator 19.0.0, SVG Export Plug-In . SVG Version: 6.00 Build 0)  -->
<svg version="1.1" id="Layer_1" xmlns="http://www.w3.org/2000/svg" xmlns:xlink="http://www.w3.org/1999/xlink" x="0px" y="0px"
	 viewBox="0 0 511.998 511.998" style="enable-background:new 0 0 511.998 511.998;" xml:space="preserve">
<g id="berries">
	<g id="fill_27_">
		<path style="fill:#C68D6D;" d="M315.023,422.916c-118.076,0-194.643-63.022-197.911-65.761l41.525-49.542
			c0,0,65.389,52.789,162.543,50.59c0.253-0.006,33.104-2.508,33.056,31.569C354.211,407.623,343.483,422.916,315.023,422.916z"/>
		<path style="fill:#B2785B;" d="M158.526,307.521l-41.413,49.634c2.081,1.743,33.873,27.922,87.168,46.715
			c29.129-17.356,48.074-36.157,59.732-50.617C199.399,340.522,159.033,307.939,158.526,307.521z"/>
		<path style="fill:#C68D6D;" d="M167.583,305.334c0.353-4.168,8.913-102.774,32.083-164.077
			c6.31-16.698,24.962-25.116,41.661-18.807c16.698,6.311,25.118,24.964,18.806,41.661c-19.971,52.839-28.06,145.753-28.139,146.685
			L167.583,305.334z"/>
		<path style="fill:#B2785B;" d="M245.442,218.043c-16.106,5.831-39.675,13.106-69.1,18.676c-5.984,36.578-8.569,66.365-8.76,68.615
			l64.411,5.463C232.049,310.141,236.081,263.831,245.442,218.043z"/>
		<path style="fill:#DD9F80;" d="M7.996,365.027c-3.102-17.57,8.619-34.327,26.182-37.443l0,0
			c0.607-0.109,61.599-11.191,136.46-42.193c67.63-28.007,160.983-78.559,221.658-160.338c10.634-14.334,30.879-17.335,45.216-6.698
			c14.335,10.636,17.335,30.879,6.698,45.215c-31.04,41.836-71.521,79.875-120.32,113.063
			c-38.476,26.167-82.221,49.416-130.018,69.1c-81.088,33.394-145.695,45.159-148.427,45.502
			C22.015,394.177,10.764,380.706,7.996,365.027z"/>
		<circle style="fill:#F27564;" cx="431.779" cy="120.356" r="72.719"/>
		<path style="fill:#E5675A;" d="M478.724,158.531c-40.162,0-72.719-32.557-72.719-72.719c0-13.261,3.576-25.705,9.776-36.41
			c-32.457,7.295-56.72,36.294-56.72,70.953c0,40.162,32.557,72.719,72.719,72.719c26.901,0,50.401-14.626,62.98-36.341
			C489.606,157.891,484.226,158.531,478.724,158.531z"/>
		<circle style="fill:#F27564;" cx="235.68" cy="120.356" r="72.719"/>
		<path style="fill:#E5675A;" d="M216.105,128.985c0-34.756,24.4-63.802,56.994-70.995c-10.931-6.571-23.737-10.354-37.419-10.354
			c-40.162,0-72.719,32.558-72.719,72.719c0,40.162,32.557,72.719,72.719,72.719c5.405,0,10.694-0.594,15.763-1.713
			C230.29,178.645,216.105,155.464,216.105,128.985z"/>
		<circle style="fill:#F27564;" cx="376.84" cy="391.643" r="72.719"/>
		<path style="fill:#E5675A;" d="M359.06,403.867c0-35.751,25.835-65.461,59.832-71.558c-11.869-8.423-26.39-13.385-42.052-13.385
			c-40.162,0-72.719,32.557-72.719,72.719c0,40.161,32.557,72.719,72.719,72.719c4.41,0,8.748-0.396,12.942-1.148
			C371.216,450.038,359.06,428.366,359.06,403.867z"/>
	</g>
	<g id="stroke_27_">
		<path d="M431.78,40.136c-44.233,0-80.22,35.986-80.22,80.219c0,11.765,2.567,22.935,7.136,33.012
			c-33.105,35.049-71.984,63.048-109.448,84.88c2.638-15.023,5.499-28.684,8.547-40.797c33.508-9.628,58.105-40.533,58.105-77.095
			c0-44.232-35.986-80.219-80.22-80.219c-44.233,0-80.219,35.986-80.219,80.219c0,22.86,9.627,43.501,25.021,58.127
			c-9.346,37.356-15.012,77.965-17.854,102.078c-17.061,6.917-34.718,13.351-52.578,19.145c-3.94,1.277-6.098,5.508-4.82,9.448
			c1.029,3.171,4.495,6.338,9.448,4.819c20.134-6.173,39.826-13.782,58.83-21.651c55.291-22.898,132.734-63.009,193.006-125.409
			c14.564,20.357,38.382,33.663,65.265,33.663c44.232,0,80.219-35.986,80.219-80.22C511.998,76.123,476.012,40.136,431.78,40.136z
			 M170.461,120.355c0-35.962,29.257-65.219,65.219-65.219c35.962,0,65.22,29.257,65.22,65.219c0,35.962-29.258,65.22-65.22,65.22
			C199.718,185.575,170.461,156.317,170.461,120.355z M241.655,200.329c-3.324,14.082-6.408,29.952-9.203,47.368
			c-18.958,10.283-37.252,18.976-53.897,26.193c2.84-22.497,7.656-54.69,14.918-85.358
			C205.742,196.156,226.472,200.804,241.655,200.329z M431.78,185.575c-35.962,0-65.22-29.258-65.22-65.22
			c0-35.962,29.258-65.219,65.22-65.219c35.962,0,65.219,29.257,65.219,65.219C496.998,156.317,467.742,185.575,431.78,185.575z"/>
		<path d="M376.84,311.423c-29.263,0-54.905,15.757-68.918,39.225c-25.656-0.731-51.037-5.284-75.711-13.587
			c34.598-16.228,66.736-34.395,95.895-54.226c27.29-18.56,52.288-38.849,74.299-60.303c2.967-2.892,3.027-7.64,0.137-10.605
			c-2.89-2.967-7.638-3.027-10.606-0.137c-21.385,20.844-45.698,40.573-72.265,58.642c-38.049,25.878-81.336,48.879-128.656,68.367
			c-81.683,33.64-145.978,44.921-146.505,44.996c-21.786,2.726-27.598-11.403-29.128-20.072
			c-2.377-13.467,6.642-26.366,20.115-28.757c0.187-0.033,19.048-3.438,48.692-11.766c3.987-1.121,6.312-5.262,5.191-9.249
			c-1.12-3.988-5.262-6.314-9.249-5.192c-28.763,8.081-47.093,11.409-47.264,11.44c-21.601,3.833-36.072,24.527-32.257,46.132
			c2.901,16.434,14.548,32.818,38.503,32.818c2.307,0,4.729-0.152,7.268-0.471c0.401-0.051,34.339-5.815,84.965-22.087
			c30.974,20.068,92.529,51.636,175.225,53.696c13.672,24.761,40.04,41.574,70.27,41.574c16.743,0,32.786-5.107,46.395-14.77
			c3.378-2.398,4.172-7.08,1.773-10.457c-2.398-3.376-7.079-4.173-10.457-1.773c-11.058,7.852-24.098,12.001-37.711,12.001
			c-35.962,0-65.219-29.258-65.219-65.22c0-35.962,29.257-65.219,65.219-65.219s65.22,29.257,65.22,65.219
			c0,11.584-3.073,22.958-8.889,32.892c-2.093,3.575-0.891,8.169,2.684,10.262c3.576,2.094,8.169,0.891,10.262-2.684
			c7.159-12.231,10.943-26.226,10.943-40.47C457.06,347.41,421.074,311.423,376.84,311.423z M149.864,370.409
			c14.661-5.077,39.982-13.96,62.867-24.539c28.606,11.396,58.257,17.944,88.328,19.512c-2.862,8.234-4.437,17.064-4.437,26.26
			c0,8.143,1.228,16.003,3.495,23.414C232.732,411.965,180.714,388.627,149.864,370.409z"/>
	</g>
</g>
<g>
</g>
<g>
</g>
<g>
</g>
<g>
</g>
<g>
</g>
<g>
</g>
<g>
</g>
<g>
</g>
<g>
</g>
<g>
</g>
<g>
</g>
<g>
</g>
<g>
</g>
<g>
</g>
<g>
</g>
</svg>
