<?xml version="1.0" encoding="iso-8859-1"?>
<!-- Generator: Adobe Illustrator 19.0.0, SVG Export Plug-In . SVG Version: 6.00 Build 0)  -->
<svg version="1.1" id="Layer_1" xmlns="http://www.w3.org/2000/svg" xmlns:xlink="http://www.w3.org/1999/xlink" x="0px" y="0px"
	 viewBox="0 0 511.971 511.971" style="enable-background:new 0 0 511.971 511.971;" xml:space="preserve">
<g id="shovel">
	<g id="fill_28_">
		
			<rect x="217.242" y="160.107" transform="matrix(0.7071 0.7071 -0.7071 0.7071 261.3044 -93.1903)" style="fill:#DD9F80;" width="51.802" height="217.441"/>
		<path style="fill:#D8D7DA;" d="M271.144,373.799L138.172,240.827c-18.758-18.758-49.455-17.994-67.148,1.771
			C31.036,287.266-22.629,370.436,28.271,457.35c6.376,10.887,15.463,19.974,26.35,26.35
			c86.913,50.901,170.084-2.765,214.752-42.752C289.138,423.254,289.902,392.557,271.144,373.799z"/>
		<path style="fill:#EAEAEA;" d="M94.474,417.497L94.474,417.497c-10.073-10.073-10.073-26.557,0-36.63l127.169-127.169
			c10.073-10.073,26.557-10.073,36.63,0l0,0c10.073,10.073,10.073,26.557,0,36.63L131.104,417.497
			C121.031,427.57,104.547,427.57,94.474,417.497z"/>
		<path style="fill:#898890;" d="M497.862,133.417L378.554,14.109c-14.903-14.903-29.806,0-29.806,0
			c-22.252,22.252-35.811,50.746-38.177,80.233c-1.324,16.489,0.899,32.23,6.383,46.426c2.988,7.735,1.116,16.503-4.748,22.367
			l-25.123,25.123l36.63,36.63l25.124-25.124c5.863-5.863,14.632-7.736,22.367-4.748c14.196,5.484,29.937,7.706,46.426,6.383
			c29.487-2.367,57.981-15.925,80.233-38.177C497.862,163.223,512.765,148.32,497.862,133.417z M368.141,143.829
			c-20.487-20.487-20.743-54.864-2.831-83.352l86.184,86.184C423.006,164.572,388.629,164.316,368.141,143.829z"/>
		<path style="fill:#C6C5CA;" d="M138.171,240.826c-18.757-18.757-49.455-17.994-67.148,1.771
			c-39.988,44.668-93.653,127.839-42.752,214.752c5.426,9.266,12.824,17.233,21.616,23.329
			c-22.014-107.136,68.239-194.237,104.12-224.017L138.171,240.826z"/>
		<path style="fill:#6C6C75;" d="M316.953,140.769c2.988,7.735,1.116,16.504-4.748,22.367l-25.123,25.123l36.63,36.63l25.124-25.124
			c5.863-5.863,14.632-7.736,22.367-4.748C333.24,176.584,316.953,140.769,316.953,140.769z"/>
	</g>
	<g id="stroke_28_">
		<path d="M292.223,408.05c0.412-14.942-5.182-28.993-15.752-39.563l-42.868-42.868l29.997-29.997l90.563-90.563
			c3.77-3.77,9.407-4.969,14.36-3.055c15.436,5.963,32.167,8.272,49.729,6.863c31.263-2.51,61.426-16.84,84.937-40.351
			c8.122-8.122,14.825-25.588,0-40.413L383.881,8.796c-14.825-14.825-32.291-8.122-40.413,0
			c-23.511,23.511-37.842,53.676-40.351,84.937c-1.409,17.56,0.9,34.291,6.863,49.729c1.914,4.954,0.715,10.591-3.055,14.36
			l-120.56,120.56l-42.868-42.868c-10.57-10.57-24.62-16.164-39.563-15.752c-14.89,0.411-28.555,6.741-38.476,17.823
			c-21.201,23.682-37.595,48.196-48.724,72.86c-1.32,2.924-1.272,7.805,3.751,9.922c3.818,1.609,8.218,0.024,9.922-3.751
			c10.497-23.264,26.05-46.487,46.227-69.026c7.144-7.98,16.987-12.537,27.715-12.834c10.78-0.298,20.916,3.738,28.542,11.364
			l42.868,42.868l-86.565,86.565c-13.023,13.023-13.023,34.213,0,47.237c13.023,13.023,34.213,13.023,47.237,0l86.565-86.565
			l42.868,42.868c7.626,7.625,11.662,17.762,11.364,28.542c-0.297,10.728-4.854,20.57-12.833,27.715
			c-20.081,17.976-51.794,41.922-88.841,53.911c-41.266,13.354-80.67,9.302-117.119-12.044c-9.765-5.719-17.95-13.903-23.667-23.668
			c-19.826-33.851-24.744-70.319-14.618-108.391c1.065-4.004-1.32-8.112-5.32-9.176c-4.004-1.065-8.112,1.317-9.176,5.32
			C-5.538,383.385-0.098,423.7,21.824,461.13c3.507,5.99,7.77,11.493,12.654,16.377c4.883,4.883,10.389,9.147,16.377,12.655
			c91.944,53.846,179.523-4.227,223.545-43.636C285.482,436.605,291.813,422.94,292.223,408.05z M272.691,265.318
			c-1.259-6.209-4.286-12.127-9.091-16.932c-4.806-4.805-10.724-7.832-16.932-9.091l40.438-40.438l26.023,26.023L272.691,265.318z
			 M318.071,94.934c2.223-27.713,15.01-54.536,36.004-75.531c0.025-0.025,9.471-9.729,19.2,0l119.308,119.308
			c9.83,9.83-0.001,19.199,0,19.2c-20.994,20.994-47.817,33.78-75.531,36.005c-15.297,1.228-29.806-0.758-43.123-5.903
			c-10.486-4.051-22.409-1.523-30.372,6.441l-19.82,19.82l-26.024-26.023l19.82-19.82c1.699-1.698,3.134-3.585,4.326-5.591
			c2.367,3.181,4.909,6.771,8.242,10.066c3.505,3.465,7.613,3.238,10.591,0.555c3.078-2.772,3.328-7.514,0.555-10.592
			c-11.012-12.23-16.593-23.444-17.351-25.021C318.811,124.586,316.849,110.15,318.071,94.934z M99.801,412.184
			c-7.175-7.175-7.175-18.849,0-26.023L226.97,258.992c7.175-7.175,18.849-7.175,26.023,0c7.175,7.175,7.175,18.849,0,26.023
			L125.825,412.184C118.65,419.359,106.976,419.359,99.801,412.184z"/>
		<path d="M362.862,149.123c22.46,22.46,60.558,24.055,92.648,3.879c1.932-1.215,3.206-3.243,3.461-5.511
			c0.255-2.268-0.536-4.528-2.15-6.142l-86.184-86.184c-1.614-1.614-3.875-2.405-6.142-2.15c-2.268,0.255-4.295,1.529-5.51,3.461
			C338.808,88.566,340.403,126.664,362.862,149.123z M439.17,144.911c-24.024,11.479-50.06,9.247-65.702-6.395
			c-15.641-15.641-17.872-41.676-6.394-65.701L439.17,144.911z"/>
	</g>
</g>
<g>
</g>
<g>
</g>
<g>
</g>
<g>
</g>
<g>
</g>
<g>
</g>
<g>
</g>
<g>
</g>
<g>
</g>
<g>
</g>
<g>
</g>
<g>
</g>
<g>
</g>
<g>
</g>
<g>
</g>
</svg>
