<?xml version="1.0" encoding="iso-8859-1"?>
<!-- Generator: Adobe Illustrator 19.0.0, SVG Export Plug-In . SVG Version: 6.00 Build 0)  -->
<svg version="1.1" id="Layer_1" xmlns="http://www.w3.org/2000/svg" xmlns:xlink="http://www.w3.org/1999/xlink" x="0px" y="0px"
	 viewBox="0 0 512 512" style="enable-background:new 0 0 512 512;" xml:space="preserve">
<g id="hazelnut">
	<g id="fill_29_">
		<path style="fill:#EAB9A4;" d="M375.16,71.355H136.839c0,0-129.339,46.069-129.339,182.343
			c0,100.067,132.902,136.161,204.104,193.173c0,0,44.396,36.9,87.702,0.866l0,0C370.508,390.726,504.5,353.765,504.5,253.699
			C504.5,117.424,375.16,71.355,375.16,71.355z"/>
		<path style="fill:#DD9F80;" d="M208.383,71.355h-71.544c0,0-129.339,46.072-129.339,182.346
			c0,100.067,132.902,136.161,204.104,193.173c0,0,18.833,15.646,43.926,16.611c-32.534-44.283-64.159-94.294-87.713-146.449
			C121.032,213.439,166.008,124.84,208.383,71.355z"/>
		<ellipse style="fill:#FFDAAA;" cx="256" cy="144.986" rx="184.371" ry="96.5"/>
		<path style="fill:#57565C;" d="M261.813,345.133L261.813,345.133c-15.52,0-28.1-12.581-28.1-28.1v-20.43
			c0-4.237,3.434-7.671,7.671-7.671h40.859c4.237,0,7.671,3.434,7.671,7.671v20.43C289.913,332.552,277.333,345.133,261.813,345.133
			z"/>
		<ellipse style="fill:#FFD7E2;" cx="167.817" cy="317.033" rx="29.973" ry="23.869"/>
		<ellipse style="fill:#FFD7E2;" cx="355.809" cy="317.033" rx="29.973" ry="23.869"/>
		<path style="fill:#57565C;" d="M342.47,303.93c-4.143,0-7.5-3.358-7.5-7.5V283.98c0-4.142,3.357-7.5,7.5-7.5
			c4.143,0,7.5,3.358,7.5,7.5v12.451C349.97,300.572,346.612,303.93,342.47,303.93z"/>
		<path style="fill:#57565C;" d="M181.156,303.93c-4.143,0-7.5-3.358-7.5-7.5V283.98c0-4.142,3.357-7.5,7.5-7.5
			c4.143,0,7.5,3.358,7.5,7.5v12.451C188.656,300.572,185.299,303.93,181.156,303.93z"/>
		<path style="fill:#FFC477;" d="M71.629,144.986c0,32.181,30.1,60.684,76.364,78.217c1.766-76.505,46.198-138.211,79.014-173.53
			C138.959,56.953,71.629,96.855,71.629,144.986z"/>
	</g>
	<g id="stroke_29_">
		<path d="M349.97,296.43V283.98c0-4.142-3.358-7.5-7.5-7.5c-4.143,0-7.5,3.358-7.5,7.5v12.451c0,4.142,3.357,7.5,7.5,7.5
			C346.612,303.93,349.97,300.572,349.97,296.43z"/>
		<path d="M188.656,296.43V283.98c0-4.142-3.357-7.5-7.5-7.5c-4.143,0-7.5,3.358-7.5,7.5v12.451c0,4.142,3.357,7.5,7.5,7.5
			C185.299,303.93,188.656,300.572,188.656,296.43z"/>
		<path d="M444.794,105.803c-31.619-27.92-62.91-39.964-66.748-41.378C343.851,49.257,301.089,40.985,256,40.985
			s-87.851,8.271-122.046,23.439c-3.839,1.414-35.129,13.458-66.748,41.378C36.547,132.874,0,180.508,0,253.698
			c0,29.699,10.801,56.068,33.021,80.614c1.48,1.636,5.594,4.406,10.594,0.527c3.273-2.539,3.307-7.523,0.527-10.594
			C24.532,302.584,15,279.508,15,253.698c0-29.758,6.468-57.431,19.224-82.25c8.315-16.18,19.318-31.219,32.794-44.847
			c-1.912,5.995-2.889,12.139-2.889,18.384c0,28.704,20.606,55.297,58.023,74.881c35.876,18.777,83.411,29.119,133.848,29.119
			c49.896,0,97.063-10.15,132.811-28.581c3.682-1.897,5.128-6.421,3.229-10.103c-1.897-3.683-6.424-5.13-10.102-3.229
			c-33.664,17.355-78.39,26.913-125.939,26.913c-48.059,0-93.123-9.734-126.892-27.409c-32.229-16.868-49.979-38.742-49.979-61.591
			c0-22.849,17.75-44.722,49.979-61.591C162.878,65.72,207.942,55.985,256,55.985s93.122,9.734,126.892,27.409
			c32.229,16.869,49.979,38.742,49.979,61.591c0,16.083-8.983,31.972-25.978,45.948c-3.199,2.632-3.66,7.357-1.029,10.557
			c2.632,3.199,7.358,3.658,10.557,1.029c20.575-16.922,31.45-36.816,31.45-57.534c0-6.245-0.978-12.389-2.889-18.384
			c13.477,13.628,24.479,28.667,32.794,44.847C490.532,196.268,497,223.94,497,253.698c0,67.104-65.845,104.97-129.522,141.588
			c-26.763,15.391-52.042,29.929-72.859,46.597c-0.037,0.029-0.073,0.06-0.109,0.089c-37.868,31.509-76.501,0.456-78.111-0.868
			c-0.035-0.029-0.07-0.059-0.107-0.087c-20.855-16.698-46.078-31.176-72.782-46.504c-26.784-15.374-54.481-31.272-77.037-49.452
			c-3.224-2.6-7.945-2.092-10.546,1.134c-2.599,3.225-2.092,7.946,1.134,10.546c23.476,18.921,51.693,35.118,78.982,50.781
			c26.172,15.022,50.891,29.211,70.836,45.174c1.104,0.904,12.943,10.377,30.275,15.332c5.983,1.711,13.036,2.987,20.765,2.987
			c13.96-0.001,30.121-4.167,46.13-17.467c19.909-15.931,44.682-30.177,70.908-45.259c32.72-18.816,66.554-38.273,92.378-62.275
			C497.39,318.077,512,287.881,512,253.698C512,180.508,475.453,132.874,444.794,105.803z"/>
		<path d="M297.414,317.033v-20.43c0-8.365-6.806-15.171-15.172-15.171h-40.858c-8.365,0-15.171,6.806-15.171,15.171v20.43
			c0,19.63,15.97,35.601,35.6,35.601S297.413,336.664,297.414,317.033z M241.213,317.033v-20.43c0-0.096,41.029-0.171,41.029-0.171
			c0.095,0,0.172,20.601,0.172,20.601c-0.001,11.359-9.242,20.601-20.602,20.601C250.454,337.634,241.213,328.393,241.213,317.033z"
			/>
	</g>
</g>
<g>
</g>
<g>
</g>
<g>
</g>
<g>
</g>
<g>
</g>
<g>
</g>
<g>
</g>
<g>
</g>
<g>
</g>
<g>
</g>
<g>
</g>
<g>
</g>
<g>
</g>
<g>
</g>
<g>
</g>
</svg>
