<?xml version="1.0" encoding="iso-8859-1"?>
<!-- Generator: Adobe Illustrator 19.0.0, SVG Export Plug-In . SVG Version: 6.00 Build 0)  -->
<svg version="1.1" id="Layer_1" xmlns="http://www.w3.org/2000/svg" xmlns:xlink="http://www.w3.org/1999/xlink" x="0px" y="0px"
	 viewBox="0 0 512 512" style="enable-background:new 0 0 512 512;" xml:space="preserve">
<g id="shoe">
	<g id="fill_30_">
		<path style="fill:#FFDFAB;" d="M291.314,157.073V59.974c0-25.564-20.724-46.288-46.288-46.288H51.65v433.59h433.048V327.262
			c0-68.383-55.436-123.819-123.819-123.819h-23.195C312.074,203.443,291.314,182.682,291.314,157.073z"/>
		<path style="fill:#FFD18F;" d="M309.961,194.246c-11.319-8.455-18.647-21.958-18.647-37.173V59.974
			c0-25.564-20.724-46.288-46.288-46.288H51.65v433.59h181.663C227.758,300.412,274.834,227.741,309.961,194.246z"/>
		<path style="fill:#FFC06C;" d="M322.851,261.777l38.028-58.334h-23.195c-25.609,0-46.37-20.76-46.37-46.37V59.974
			c0-25.564-20.724-46.288-46.288-46.288h-56.872v176.211c0,0-3.982,72.413,70.861,94.883
			C283.112,292.014,309.111,282.853,322.851,261.777z"/>
		<path style="fill:#FFAF50;" d="M254.503,283.333c15.645-43.574,37.181-71.652,55.458-89.087
			c-11.319-8.455-18.647-21.958-18.647-37.173V59.974c0-25.564-20.724-46.288-46.288-46.288h-56.871v176.211
			C188.154,189.897,184.337,259.365,254.503,283.333z"/>
		<path style="fill:#898890;" d="M188.154,102.976H52.145C27.488,102.976,7.5,82.988,7.5,58.331v0
			c0-24.657,19.988-44.645,44.645-44.645h136.009V102.976z"/>
		<path style="fill:#6E6D77;" d="M87.52,58.331L87.52,58.331c0-24.657,19.988-44.645,44.645-44.645h-80.02
			C27.488,13.686,7.5,33.674,7.5,58.331v0c0,24.657,19.988,44.645,44.645,44.645h80.02C107.508,102.976,87.52,82.988,87.52,58.331z"
			/>
		<path style="fill:#C68D6D;" d="M31.847,447.84v22.14c0,15.648,12.686,28.334,28.334,28.334h50.505
			c10.669,0,20.791-4.404,28.319-11.964c11.227-11.274,29.702-18.633,50.599-18.633s39.372,7.359,50.599,18.633
			c7.528,7.56,17.65,11.964,28.319,11.964h207.643c15.648,0,28.334-12.686,28.334-28.334v-22.14
			c0-15.648-12.686-28.334-28.334-28.334H60.181C44.533,419.506,31.847,432.191,31.847,447.84z"/>
		<path style="fill:#898890;" d="M296.728,94.123H262.69c-11.653,0-21.187-9.534-21.187-21.187l0,0
			c0-11.653,9.534-21.187,21.187-21.187h34.038c11.653,0,21.187,9.534,21.187,21.187l0,0
			C317.915,84.589,308.381,94.123,296.728,94.123z"/>
		<path style="fill:#898890;" d="M306.502,155.364l-33.976,2.055c-11.632,0.703-21.724-8.238-22.428-19.869v0
			c-0.703-11.632,8.238-21.724,19.869-22.427l33.976-2.055c11.632-0.703,21.724,8.238,22.428,19.869l0,0
			C327.075,144.568,318.134,154.661,306.502,155.364z"/>
		<path style="fill:#898890;" d="M331.523,209.045l-30.503,15.105c-10.443,5.171-23.218,0.858-28.389-9.585l0,0
			c-5.171-10.443-0.858-23.218,9.585-28.389l30.503-15.105c10.443-5.171,23.218-0.858,28.389,9.585l0,0
			C346.278,191.099,341.965,203.874,331.523,209.045z"/>
		<path style="fill:#B2785B;" d="M60.181,419.506c-15.648,0-28.334,12.685-28.334,28.334v22.14
			c0,15.648,12.686,28.334,28.334,28.334h50.505c6.945,0,13.66-1.867,19.576-5.255c-17.359-25.234-16.711-54.42-13.47-73.554H60.181
			z"/>
	</g>
	<path id="stroke_30_" d="M492.198,415.806v-88.544c0-72.41-58.91-131.319-131.319-131.319h-10.71
		c1.338-6.291,0.544-12.789-2.34-18.614c-2.185-4.412-5.494-8.205-9.568-10.968c-3.429-2.325-8.092-1.429-10.417,1.999
		c-2.325,3.429-1.36,7.993,1.999,10.417c8.004,5.778,7.354,18.834-1.648,23.548l-30.503,15.105c-6.763,3.345-14.99,0.57-18.34-6.192
		c-1.612-3.255-3.128-13.627,6.192-18.34l24.653-12.209c3.712-1.838,5.219-6.331,3.393-10.049
		c-3.629-7.386-12.995-1.934-12.995-1.934c-0.554-1.765-0.987-3.563-1.281-5.393l7.641-0.462c0,0,0,0,0,0
		c15.789-0.956,27.857-14.578,26.903-30.367c-0.955-15.789-14.578-27.858-30.367-26.903l-4.677,0.283v-4.324
		c14.847-1.073,26.601-13.487,26.601-28.603c0-15.818-12.869-28.687-28.687-28.687h-0.26c-6.823-22.334-27.685-38.063-51.443-38.063
		H52.145C23.392,6.186,0,29.578,0,58.331c0,26.035,19.179,47.673,44.15,51.532v305.943c-11.73,5.895-19.803,18.036-19.803,32.034
		v22.14c0,19.759,16.075,35.834,35.834,35.834h50.505c12.589,0,24.534-5.033,33.633-14.172
		c10.243-10.285,27.171-16.426,45.285-16.426c18.113,0,35.042,6.141,45.284,16.426c9.1,9.139,21.044,14.172,33.634,14.172h207.643
		c19.759,0,35.834-16.075,35.834-35.834v-22.14C512,433.842,503.927,421.701,492.198,415.806z M304.348,230.872
		c0,0,25.871-10.938,37.447-19.929h5.242l-30.469,46.738c-11.338,17.392-32.039,25.472-52.293,20.733
		c6.39-16.309,14.052-31.297,22.975-44.92C288.706,233.72,294.922,235.934,304.348,230.872z M304.397,120.553
		c0.28-0.017,13.518-0.874,14.489,12.836c0.533,7.528-5.303,14.033-12.836,14.489l-33.977,2.055
		c-3.628,0.214-14.266-0.623-14.488-12.837c-0.222-12.214,9.21-14.269,12.836-14.487L304.397,120.553z M310.415,72.936
		c0,7.547-6.14,13.688-13.687,13.688H262.69c-7.547,0-13.687-6.141-13.687-13.688c0-7.547,6.14-13.687,13.687-13.687h34.038
		C304.275,59.249,310.415,65.389,310.415,72.936z M280.494,44.249H262.69c-15.818,0-28.687,12.869-28.687,28.687
		c0,15.818,12.869,28.688,28.687,28.688h21.124v5.148l-14.299,0.865c-24.997,0.987-27.364,22.741-26.903,30.365
		c0.461,7.626,2.881,27.042,28.61,26.957c0.583-0.002,13.077-0.737,13.077-0.737c0.505,3.83,1.415,7.572,2.734,11.201l-8.146,4.034
		c-22.175,10.626-16.368,31.592-12.978,38.438c1.86,3.756,4.44,6.924,7.489,9.423c-9.049,14.129-16.834,29.575-23.34,46.304
		c-22.568-9.406-38.482-25.151-47.359-46.956c-7.815-19.195-7.064-36.204-7.057-36.355c0.007-0.138,0.011-0.274,0.011-0.412V21.186
		h49.371C260.563,21.186,274.384,30.507,280.494,44.249z M59.15,110.476h96.542c4.142,0,7.5-3.357,7.5-7.5
		c0-4.143-3.358-7.5-7.5-7.5H52.145C31.663,95.476,15,78.813,15,58.331c0-20.482,16.663-37.145,37.145-37.145h128.509v168.539
		c-0.101,2.407-0.55,20.834,7.9,41.971c7.407,18.529,23.148,42.365,56.416,56.052c-12.01,36.095-18.542,77.624-19.486,124.258
		c0,0-165.991,0.016-166.334,0.026V110.476z M497,469.98c0,11.488-9.346,20.834-20.834,20.834H268.523
		c-8.57,0-16.74-3.465-23.005-9.756c-12.996-13.051-33.898-20.842-55.913-20.842c-22.015,0-42.917,7.791-55.914,20.842
		c-6.265,6.291-14.434,9.756-23.004,9.756H60.182c-11.488,0-20.834-9.346-20.834-20.834v-22.14c0-11.488,9.346-20.835,20.834-20.835
		h359.204c4.142,0,7.5-3.358,7.5-7.5c0-4.143-3.358-7.5-7.5-7.5H240.487c0.933-44.955,7.192-84.859,18.671-119.397
		c5.562,1.458,11.162,2.167,16.683,2.166c21.227,0,41.268-10.456,53.292-28.901l35.759-54.853
		c62.287,2.124,112.306,53.448,112.306,116.242v84.769c-0.344-0.01-0.686-0.026-1.032-0.026h-26.753c-4.142,0-7.5,3.357-7.5,7.5
		c0,4.142,3.358,7.5,7.5,7.5h26.753c11.488,0,20.834,9.347,20.834,20.835V469.98z"/>
</g>
<g>
</g>
<g>
</g>
<g>
</g>
<g>
</g>
<g>
</g>
<g>
</g>
<g>
</g>
<g>
</g>
<g>
</g>
<g>
</g>
<g>
</g>
<g>
</g>
<g>
</g>
<g>
</g>
<g>
</g>
</svg>
