<?xml version="1.0" encoding="iso-8859-1"?>
<!-- Generator: Adobe Illustrator 19.0.0, SVG Export Plug-In . SVG Version: 6.00 Build 0)  -->
<svg version="1.1" id="Layer_1" xmlns="http://www.w3.org/2000/svg" xmlns:xlink="http://www.w3.org/1999/xlink" x="0px" y="0px"
	 viewBox="0 0 512 512" style="enable-background:new 0 0 512 512;" xml:space="preserve">
<g id="gardening_glove">
	<g id="fill_31_">
		<path style="fill:#FFEB99;" d="M306.341,281.525L306.341,281.525c-16.95,0-30.819-13.868-30.819-30.819V69.515
			c0-16.95,13.868-30.819,30.819-30.819l0,0c16.95,0,30.819,13.868,30.819,30.819v181.191
			C337.16,267.657,323.291,281.525,306.341,281.525z"/>
		<path style="fill:#FFDE55;" d="M244.704,250.329L244.704,250.329c-16.95,0-30.819-13.868-30.819-30.819V38.319
			c0-16.95,13.868-30.819,30.819-30.819l0,0c16.95,0,30.819,13.868,30.819,30.819V219.51
			C275.522,236.46,261.654,250.329,244.704,250.329z"/>
		<path style="fill:#FFEB99;" d="M183.066,281.525L183.066,281.525c-16.95,0-30.819-13.868-30.819-30.819V69.515
			c0-16.95,13.868-30.819,30.819-30.819l0,0c16.95,0,30.819,13.868,30.819,30.819v181.191
			C213.885,267.657,200.017,281.525,183.066,281.525z"/>
		<path style="fill:#FFDE55;" d="M121.429,324.193L121.429,324.193c-16.95,0-30.819-13.868-30.819-30.819V112.183
			c0-16.95,13.868-30.819,30.819-30.819l0,0c16.95,0,30.819,13.868,30.819,30.819v181.191
			C152.248,310.324,138.379,324.193,121.429,324.193z"/>
		<path style="fill:#FFDE55;" d="M240.581,335.663l128.122-128.122c11.986-11.986,31.598-11.986,43.584,0v0
			c11.986,11.986,12.137,29.14,0,43.584L311.723,379.247L240.581,335.663z"/>
		<path style="fill:#FFCD00;" d="M356.989,219.255L240.581,335.663l71.142,43.584l63.183-80.498
			C371.092,265.341,363.149,237.279,356.989,219.255z"/>
		<path style="fill:#FFDE55;" d="M279.193,299.409H148.576c-11.973,0-21.769,9.796-21.769,21.769v161.552
			c0,11.973,9.796,21.77,21.77,21.77l0,0c5.858,0,11.195-2.345,15.119-6.143c3.694-3.576,9.607-3.576,13.301,0
			c3.923,3.798,9.261,6.143,15.119,6.143s11.195-2.345,15.119-6.143c3.694-3.576,9.607-3.576,13.301,0
			c3.923,3.798,9.261,6.143,15.119,6.143s11.195-2.345,15.119-6.143c3.694-3.576,9.607-3.576,13.301,0
			c3.923,3.798,9.26,6.143,15.119,6.143h0c11.973,0,21.769-9.796,21.769-21.77V321.178
			C300.963,309.205,291.167,299.409,279.193,299.409z"/>
		<path style="fill:#FFCD00;" d="M279.193,299.409H148.576c-11.973,0-21.769,9.796-21.769,21.769v145.433
			c98.714,0.666,149.548-23.618,174.156-42.614V321.179C300.963,309.205,291.167,299.409,279.193,299.409z"/>
		<path style="fill:#FFCD00;" d="M192.115,504.5L192.115,504.5c-11.973,0-21.77-9.796-21.77-21.769V321.179
			c0-11.973,9.796-21.769,21.77-21.769l0,0c11.973,0,21.77,9.796,21.77,21.769v161.552C213.885,494.704,204.089,504.5,192.115,504.5
			z"/>
		<path style="fill:#FFCD00;" d="M279.193,504.5L279.193,504.5c-11.973,0-21.77-9.796-21.77-21.769V321.179
			c0-11.973,9.796-21.769,21.769-21.769h0c11.973,0,21.769,9.796,21.769,21.769v161.552
			C300.963,494.704,291.167,504.5,279.193,504.5z"/>
		<path style="fill:#FFB600;" d="M192.115,299.409L192.115,299.409c-11.973,0-21.769,9.796-21.769,21.769l0,143.981
			c16.093-1.245,30.553-3.229,43.539-5.739V321.179C213.885,309.205,204.089,299.409,192.115,299.409z"/>
		<path style="fill:#FFB600;" d="M279.193,299.409c-11.973,0-21.769,9.796-21.769,21.77v126.231
			c19.64-7.359,33.689-15.808,43.539-23.411V321.179C300.963,309.205,291.166,299.409,279.193,299.409z"/>
		<path style="fill:#B2E59C;" d="M221.847,422.322h-15.924c-63.685,0-115.313-51.627-115.313-115.313V202.779H337.16v104.231
			C337.16,370.695,285.532,422.322,221.847,422.322z"/>
		<path style="fill:#9AD880;" d="M90.61,232.735v74.275c0,63.686,51.627,115.313,115.313,115.313h15.924
			c21.079,0,40.842-5.659,57.844-15.536C168.147,384.216,108.321,271.879,90.61,232.735z"/>
	</g>
	<path id="stroke_31_" d="M417.59,202.239c-23.82-23.228-46.978-7.214-54.191-0.001l-18.74,18.74V69.516
		c0-21.129-17.19-38.318-38.319-38.318c-8.769,0-16.854,2.968-23.318,7.942c0,0-0.909-39.139-38.319-39.139
		s-38.318,39.139-38.318,39.139c-6.465-4.974-14.55-7.942-23.319-7.942c-21.129,0-38.319,17.189-38.319,38.318v12.29
		c-6.465-4.974-14.549-7.942-23.318-7.942c-21.129,0-38.319,17.189-38.319,38.318v137.633c0,4.143,3.358,7.5,7.5,7.5
		c4.142,0,7.5-3.357,7.5-7.5v-39.537H329.66v96.731c0,59.448-48.365,107.813-107.813,107.813h-15.923
		c-59.448,0-107.813-48.364-107.813-107.813v-25.484c0-4.143-3.358-7.5-7.5-7.5c-4.142,0-7.5,3.357-7.5,7.5v25.484
		c0,33.952,13.851,64.729,36.197,86.981v88.739c0,16.14,13.13,29.27,29.27,29.27c7.615,0,14.836-2.932,20.335-8.254
		c0.792-0.767,2.078-0.765,2.869,0c5.499,5.323,12.721,8.254,20.335,8.254c7.615,0,14.837-2.932,20.335-8.254
		c0.792-0.767,2.078-0.765,2.868,0c5.499,5.322,12.72,8.254,20.335,8.254c7.615,0,14.836-2.931,20.336-8.254
		c0.79-0.767,2.078-0.765,2.868,0c5.498,5.322,12.72,8.254,20.335,8.254c16.139,0,29.27-13.13,29.27-29.27v-88.739
		c3.223-3.209,6.264-6.599,9.117-10.147l0.043,0.034l100.489-128.026C432.578,238.553,432.558,216.835,417.59,202.239z
		 M221.385,38.319c0-12.858,10.46-23.319,23.318-23.319c12.858,0,23.319,10.461,23.319,23.319v156.959h-46.637V38.319z
		 M159.747,69.516c0-12.857,10.461-23.318,23.319-23.318s23.319,10.461,23.319,23.318v125.763h-46.638V69.516z M121.429,88.864
		c12.858,0,23.318,10.461,23.318,23.318v83.096H98.11v-83.096C98.11,99.325,108.571,88.864,121.429,88.864z M283.022,195.278V69.516
		c0-12.857,10.46-23.318,23.318-23.318c12.858,0,23.319,10.461,23.319,23.318v125.763H283.022z M148.577,497
		c-7.868,0-14.27-6.401-14.27-14.27v-76.012c8.728,6.287,18.311,11.456,28.539,15.299v60.714c0,2.323,0.272,4.602,0.796,6.804
		C161.782,490.337,158.556,497,148.577,497z M177.846,482.731V426.58c14.269,4.293,28.539,3.242,28.539,3.242v52.909
		c0,3.787-1.985,14.269-14.27,14.269C179.831,497,177.846,486.607,177.846,482.731z M293.463,482.73
		c0,7.868-6.401,14.27-14.27,14.27c-3.7,0-7.217-1.432-9.902-4.031c-6.655-6.443-17.081-6.442-23.734,0
		c-2.686,2.6-6.203,4.031-9.903,4.031c-9.018,0-13.208-6.666-15.07-7.467c0.526-2.204,0.801-4.482,0.801-6.801v-52.909
		c0,0,15.776,0.192,28.538-3.242v36.831c0,4.143,3.358,7.5,7.5,7.5c4.142,0,7.5-3.357,7.5-7.5v-41.393
		c10.228-3.843,19.811-9.012,28.539-15.299V482.73z M406.545,246.301c-0.054,0.064-0.106,0.129-0.158,0.194l-63.41,80.786
		c1.1-6.597,1.682-13.367,1.682-20.271v-64.818l29.346-29.347c4.38-4.38,19.121-13.667,32.978,0.001
		C416.323,222.057,416.091,234.94,406.545,246.301z"/>
</g>
<g>
</g>
<g>
</g>
<g>
</g>
<g>
</g>
<g>
</g>
<g>
</g>
<g>
</g>
<g>
</g>
<g>
</g>
<g>
</g>
<g>
</g>
<g>
</g>
<g>
</g>
<g>
</g>
<g>
</g>
</svg>
