<?xml version="1.0" encoding="iso-8859-1"?>
<!-- Generator: Adobe Illustrator 19.0.0, SVG Export Plug-In . SVG Version: 6.00 Build 0)  -->
<svg version="1.1" id="Layer_1" xmlns="http://www.w3.org/2000/svg" xmlns:xlink="http://www.w3.org/1999/xlink" x="0px" y="0px"
	 viewBox="0 0 512 512" style="enable-background:new 0 0 512 512;" xml:space="preserve">
<g id="water_shoe">
	<g id="fill_32_">
		<path style="fill:#ACABB1;" d="M378.944,337.814h-33.369c-29.985,0-52.75-26.926-47.834-56.506
			c8.292-49.898,16.833-130.718,10.842-233.877C307.282,25.024,288.75,7.5,266.305,7.5H99.921
			c-22.854,0-41.572,18.135-42.319,40.978c-1.88,57.484-2.883,162.539,10.975,229.696c17.251,83.603-4.515,115.385-10.572,189.282
			C56.369,487.399,72.103,504.5,92.113,504.5h22.793c8.588,0,17.481-3.081,24.975-8.446c10.639-7.617,24.373-12.207,39.371-12.207
			c14.999,0,28.733,4.59,39.371,12.207c7.494,5.365,16.378,8.446,25.594,8.446h148.189c34.83,0,63.065-28.235,63.065-63.065v-27.094
			C455.472,372.077,421.209,337.814,378.944,337.814z"/>
		<path style="fill:#898890;" d="M99.921,7.501c-22.854,0-41.572,18.135-42.319,40.978c-1.88,57.484-2.883,162.539,10.975,229.696
			c17.251,83.603-4.515,115.385-10.572,189.282C56.369,487.399,72.103,504.5,92.113,504.5h22.793c8.588,0,17.481-3.081,24.975-8.446
			c10.639-7.616,24.373-12.207,39.371-12.207c1.833,0,3.645,0.068,5.437,0.203c3.502-41.194,1.942-99.401-11.944-180.305
			c-28.432-165.65-7.143-260.602,4.515-296.245H99.921z"/>
		<path style="fill:#898890;" d="M183.432,381.238c91.552,0,114.309-99.93,114.309-99.93
			c8.292-49.899,16.833-130.718,10.842-233.877C307.282,25.024,288.75,7.5,266.305,7.5H99.921
			c-22.855,0-41.572,18.135-42.319,40.978c-1.88,57.484-2.883,162.539,10.975,229.696C68.576,278.174,91.88,381.238,183.432,381.238
			z"/>
		<path style="fill:#8ED7E8;" d="M92.113,504.5h22.793c8.589,0,17.481-3.081,24.975-8.446c10.638-7.616,24.373-12.207,39.371-12.207
			c14.998,0,28.733,4.591,39.371,12.207c7.494,5.365,16.378,8.446,25.594,8.446h148.189c31.711,0,57.947-23.408,62.393-53.886
			H59.716c-0.651,5.38-1.231,10.977-1.712,16.841C56.369,487.399,72.103,504.5,92.113,504.5z"/>
		<path style="fill:#7AC1DD;" d="M59.716,450.614c-0.651,5.381-1.231,10.977-1.712,16.841C56.369,487.399,72.103,504.5,92.113,504.5
			h22.793c8.589,0,17.481-3.081,24.975-8.445c10.638-7.617,24.373-12.207,39.371-12.207c1.833,0,3.646,0.068,5.438,0.203
			c0.858-10.097,1.413-21.211,1.556-33.436H59.716z"/>
		<path style="fill:#706F77;" d="M99.921,7.5c-22.854,0-41.572,18.135-42.319,40.978c-1.88,57.484-2.883,162.539,10.975,229.696
			c0,0,23.262,102.862,114.591,103.064c-2.15-23.166-5.517-48.914-10.422-77.493C144.313,138.096,165.603,43.144,177.26,7.5H99.921z
			"/>
	</g>
	<path id="stroke_32_" d="M378.944,330.315h-33.369c-12.065,0-23.459-5.277-31.259-14.48c-7.816-9.223-11.161-21.359-9.178-33.298
		c7.445-44.799,11.729-93.181,12.729-143.799c0.082-4.142-3.208-7.565-7.35-7.646c-0.051-0.001-0.102-0.002-0.151-0.002
		c-4.073,0-7.415,3.261-7.495,7.352c-0.986,49.809-5.188,97.381-12.492,141.403c-0.549,2.267-6.267,24.761-21.647,47.187
		c-21.254,30.992-49.954,46.707-85.301,46.707c-35.168,0-63.861-16.094-85.279-47.836c-16.055-23.793-21.945-48.049-22.247-49.325
		c-13.71-66.53-12.657-171.305-10.808-227.854C65.716,29.813,81.012,15,99.921,15h166.385c18.439,0,33.72,14.437,34.79,32.865
		c1.107,19.052,1.76,38.261,1.941,57.092c0.04,4.143,3.449,7.437,7.572,7.428c4.143-0.04,7.468-3.431,7.428-7.572
		c-0.185-19.072-0.847-38.524-1.967-57.816C314.54,20.644,292.682,0,266.306,0H99.921C72.872,0,50.99,21.187,50.105,48.233
		c-1.872,57.235-2.915,163.413,11.125,231.456c11.33,54.905,5.355,87.059-1.563,124.291c-3.507,18.873-7.133,38.389-9.139,62.863
		c-0.95,11.595,3.025,23.151,10.908,31.706C69.312,507.098,80.493,512,92.113,512h22.792c10.052,0,20.472-3.497,29.341-9.847
		c9.733-6.968,22.165-10.806,35.005-10.806c12.841,0,25.272,3.838,35.005,10.806c8.998,6.441,19.358,9.847,29.96,9.847h148.189
		c38.91,0,70.565-31.655,70.565-70.565v-27.094C462.972,368.009,425.277,330.315,378.944,330.315z M392.406,497H244.217
		c-7.451,0-14.792-2.435-21.228-7.044c-12.258-8.775-27.791-13.608-43.737-13.608s-31.479,4.833-43.737,13.609
		c-6.344,4.542-13.663,7.043-20.609,7.043H92.113c-7.55,0-14.527-3.06-19.646-8.614c-5.125-5.562-7.607-12.777-6.989-20.317
		c0.28-3.412,0.596-6.72,0.938-9.954h30.101c4.142,0,7.5-3.357,7.5-7.5c0-4.143-3.358-7.5-7.5-7.5H68.255
		c1.818-13.02,4.012-24.83,6.161-36.394c4.704-25.317,8.986-48.384,8.078-77.421c0.949,1.524,30.982,59.439,100.938,59.439
		c40.018,0,73.792-18.404,97.672-53.224c5.535-8.071,9.919-16.112,13.345-23.393c2.14,4.792,4.953,9.315,8.426,13.412
		c10.654,12.571,26.219,19.781,42.701,19.781h33.369c38.061,0,69.027,30.966,69.027,69.027c0,0-0.026,28.213-0.043,28.772H126.165
		c-4.142,0-7.5,3.357-7.5,7.5c0,4.143,3.358,7.5,7.5,7.5H445.41C438.31,480.628,417.236,497,392.406,497z"/>
</g>
<g>
</g>
<g>
</g>
<g>
</g>
<g>
</g>
<g>
</g>
<g>
</g>
<g>
</g>
<g>
</g>
<g>
</g>
<g>
</g>
<g>
</g>
<g>
</g>
<g>
</g>
<g>
</g>
<g>
</g>
</svg>
