<?xml version="1.0" encoding="iso-8859-1"?>
<!-- Generator: Adobe Illustrator 19.0.0, SVG Export Plug-In . SVG Version: 6.00 Build 0)  -->
<svg version="1.1" id="Layer_1" xmlns="http://www.w3.org/2000/svg" xmlns:xlink="http://www.w3.org/1999/xlink" x="0px" y="0px"
	 viewBox="0 0 512 512" style="enable-background:new 0 0 512 512;" xml:space="preserve">
<g id="hat_2">
	<g id="fill_33_">
		<ellipse style="fill:#DD9F80;" cx="256" cy="383.93" rx="248.5" ry="100.323"/>
		<path style="fill:#C68D6D;" d="M256,283.607c-137.243,0-248.5,44.916-248.5,100.323c0,54.096,106.039,98.191,238.789,100.247
			c96.888-34.398,117.53-100.247,117.53-100.247v-90.413C331.206,287.167,294.633,283.607,256,283.607z"/>
		<path style="fill:#EAB9A4;" d="M134.418,371.139c-9.07-7.867-14.443-19.157-14.915-31.154
			c-1.503-38.199,1.301-132.107,57.523-199.303C222.255,86.625,286.85,49.855,328.761,29.94
			c16.651-7.912,35.214,6.577,31.598,24.654c-8.863,44.301-17.529,114.54,1.464,167.049c18.048,49.898,26.49,88.909,30.348,112.011
			c2.66,15.931-3.644,32.003-16.422,41.881c-21.258,16.434-60.218,37.949-118.503,37.949
			C193.585,413.484,153.649,387.819,134.418,371.139z"/>
		<path style="fill:#DD9F80;" d="M220.283,97.965c-15.362,12.788-30.129,27.028-43.257,42.718
			C120.804,207.878,118,301.786,119.503,339.986c0.472,11.997,5.845,23.287,14.915,31.154
			c19.231,16.68,59.166,42.345,122.828,42.345c20.49,0,38.586-2.658,54.37-6.821c-24.276-35.987-64.142-98.165-87.244-150.674
			C201.154,203.218,211.067,136.593,220.283,97.965z"/>
		<path style="fill:#898890;" d="M120.756,291.482c-1.767,19.822-1.714,36.786-1.253,48.503
			c0.472,11.997,5.845,23.287,14.915,31.154c19.231,16.68,59.166,42.345,122.828,42.345c58.286,0,97.245-21.514,118.504-37.948
			c12.778-9.878,19.082-25.951,16.421-41.881c-1.521-9.11-3.76-20.704-7.015-34.454c-17.08,16.002-59.19,46.998-129.156,46.998
			C171.185,346.198,128.491,300.65,120.756,291.482z"/>
		<path style="fill:#71707A;" d="M255.999,346.198c-84.815,0-127.508-45.548-135.243-54.716
			c-1.767,19.822-1.715,36.786-1.253,48.503c0.472,11.997,5.845,23.287,14.915,31.153c19.231,16.68,59.167,42.345,122.828,42.345
			c20.49,0,38.587-2.657,54.37-6.82c-10.899-16.158-24.931-37.577-39.188-61.05C267.13,345.996,261.66,346.198,255.999,346.198z"/>
		<path style="fill:#FFEB99;" d="M272.098,352.866v42.196h-42.196v-42.196H272.098 M279.142,322.866h-56.283
			c-12.679,0-22.956,10.278-22.956,22.956v56.283c0,12.678,10.278,22.956,22.956,22.956h56.283
			c12.678,0,22.956-10.278,22.956-22.956v-56.283C302.098,333.144,291.82,322.866,279.142,322.866L279.142,322.866z"/>
	</g>
	<g id="stroke_33_">
		<path d="M272.098,345.365h-42.195c-4.143,0-7.5,3.357-7.5,7.5v42.196c0,4.143,3.357,7.5,7.5,7.5h42.195c4.143,0,7.5-3.357,7.5-7.5
			v-42.196C279.598,348.723,276.24,345.365,272.098,345.365z M264.598,387.562h-27.195v-27.196h27.195V387.562z"/>
		<path d="M391.132,291.976c-5.036-20.448-12.169-44.996-22.257-72.883c-18.923-52.319-8.851-124.599-1.162-163.028
			c2.233-11.165-1.961-22.455-10.946-29.462c-8.981-7.004-20.945-8.322-31.225-3.437C282.631,43.556,222.036,78.497,177.05,129.17
			c-2.75,3.098-2.469,7.838,0.629,10.588c3.099,2.751,7.839,2.468,10.588-0.629C231.58,90.341,290.325,56.507,331.979,36.715
			c5.199-2.472,11.017-1.828,15.563,1.716c4.551,3.549,6.593,9.041,5.462,14.691c-17.693,88.439-8.806,141.845,1.766,171.072
			c17.683,48.887,26.076,87.18,30.004,110.695c2.207,13.215-3.009,26.516-13.611,34.713c-12.522,9.68-33.036,22.292-61.564,29.813
			v-52.106c19.161-4.773,37.079-12.168,53.337-22.044c3.54-2.15,4.667-6.764,2.517-10.304c-2.15-3.542-6.764-4.666-10.304-2.517
			c-14.793,8.985-31.106,15.749-48.57,20.16c-4.93-10.193-15.375-17.24-27.435-17.24h-56.283c-11.053,0-20.748,5.92-26.086,14.755
			c-38.464-11.89-60.777-33.067-68.211-41.135c3.712-37.684,14.241-85.709,41.56-126.576c2.302-3.443,1.376-8.102-2.067-10.403
			c-3.441-2.3-8.101-1.376-10.403,2.067c-30.589,45.758-41.282,99.607-44.59,139.997c-32.433,9.039-59.646,21.162-78.951,35.217
			C11.795,345.535,0,364.43,0,383.93c0,30.061,27.515,57.724,77.477,77.894c47.806,19.3,111.207,29.929,178.523,29.929
			c76.283,0,147.826-13.807,196.284-37.879c3.709-1.843,5.223-6.344,3.38-10.054c-1.843-3.709-6.342-5.221-10.054-3.38
			c-46.454,23.077-115.565,36.313-189.61,36.313c-65.438,0-126.845-10.241-172.908-28.838C39.818,430.444,15,407.123,15,383.93
			c0-28.389,36.906-56.297,97.081-73.98c-0.51,12.266-0.374,22.658-0.073,30.331c0.554,14.049,6.93,27.361,17.495,36.525
			c12.546,10.881,33.841,25.682,64.516,35.072c4.082,12.013,15.463,20.684,28.839,20.684h56.283c11.93,0,22.273-6.898,27.268-16.912
			c34.618-7.819,59.267-22.847,73.927-34.18c14.982-11.582,22.351-30.377,19.232-49.051c-1.135-6.796-2.633-14.793-4.602-23.889
			C458.221,326.134,497,354.559,497,383.93c0,17.906-14.546,32.526-26.748,41.638c-3.319,2.479-4,7.178-1.523,10.497
			c3.338,4.473,9.15,2.527,10.497,1.523C500.667,421.577,512,403.023,512,383.93C512,345.668,466.907,311.441,391.132,291.976z
			 M126.997,339.691c-0.306-7.78-0.436-18.478,0.151-31.126c12.635,11.198,34.075,26.308,65.289,35.916
			c-0.019,0.445-0.034,51.081-0.034,51.081c-24.938-8.613-42.46-20.887-53.07-30.088
			C131.884,359.014,127.388,349.616,126.997,339.691z M294.598,402.106c0,8.522-6.934,15.456-15.456,15.456h-56.283
			c-8.522,0-15.456-6.934-15.456-15.456v-56.283c0-8.523,6.934-15.457,15.456-15.457h56.283c8.522,0,15.456,6.934,15.456,15.457
			V402.106z"/>
	</g>
</g>
<g>
</g>
<g>
</g>
<g>
</g>
<g>
</g>
<g>
</g>
<g>
</g>
<g>
</g>
<g>
</g>
<g>
</g>
<g>
</g>
<g>
</g>
<g>
</g>
<g>
</g>
<g>
</g>
<g>
</g>
</svg>
