<?xml version="1.0" encoding="iso-8859-1"?>
<!-- Generator: Adobe Illustrator 19.0.0, SVG Export Plug-In . SVG Version: 6.00 Build 0)  -->
<svg version="1.1" id="Layer_1" xmlns="http://www.w3.org/2000/svg" xmlns:xlink="http://www.w3.org/1999/xlink" x="0px" y="0px"
	 viewBox="0 0 512.038 512.038" style="enable-background:new 0 0 512.038 512.038;" xml:space="preserve">
<g id="watering_can">
	<g id="fill_35_">
		<path style="fill:#9AD880;" d="M375.184,98.703c16.389-1.761,31.393,1.169,44.598,8.707c19.442,11.1,32.674,31.395,37.261,57.148
			c5.134,28.831-0.975,60.361-17.202,88.784c-20.939,36.676-55.91,61.82-91.266,65.618c-16.39,1.761-31.396-1.169-44.6-8.707
			c-19.442-11.1-32.675-31.395-37.261-57.148c-5.134-28.83,0.975-60.361,17.202-88.784c20.939-36.675,55.91-61.819,91.267-65.618
			L375.184,98.703 M370.297,53.233c-48.273,5.187-96.786,37.076-126.096,88.414c-44.502,77.948-27.892,171.216,37.1,208.322
			c22.186,12.667,47.14,17.151,72.16,14.463c48.273-5.186,96.786-37.076,126.096-88.414c44.502-77.948,27.892-171.216-37.1-208.322
			C420.27,55.029,395.316,50.544,370.297,53.233L370.297,53.233z"/>
		<path style="fill:#8DC971;" d="M452.953,223.133c-3.142,10.28-7.527,20.429-13.111,30.21
			c-20.939,36.676-55.911,61.82-91.266,65.618c-16.39,1.761-31.396-1.169-44.6-8.707c-19.442-11.1-32.675-31.396-37.261-57.148
			c-5.134-28.83,0.975-60.361,17.202-88.784c13.132-23.001,31.783-41.463,52.587-52.972h-70.956
			c-7.87,9.157-15.053,19.276-21.346,30.298c-44.502,77.948-27.892,171.216,37.1,208.321c22.186,12.667,47.14,17.151,72.16,14.462
			c46.256-4.969,92.726-34.448,122.317-82.071C468.711,261.24,460.885,241.342,452.953,223.133z"/>
		<polygon style="fill:#C6C5CA;" points="52.058,206.742 150.078,404.871 200.289,305.356 86.297,163.317 		"/>
		<path style="fill:#ACABB1;" d="M105.772,315.315l44.306,89.557l50.211-99.516l-63.782-79.476
			C131.334,245.493,121.265,279.611,105.772,315.315z"/>
		<path style="fill:#D8D7DA;" d="M368.097,151.161H212.67c-16.65,0-30.99,11.743-34.274,28.066l-44.264,220.058
			c-6.269,31.165,17.562,60.266,49.351,60.266h213.802c31.789,0,55.619-29.101,49.351-60.266L402.37,179.227
			C399.087,162.904,384.747,151.161,368.097,151.161z"/>
		<path style="fill:#C6C5CA;" d="M245.856,322.041c-9.097-69.125,4.736-135.745,14.361-170.88H212.67
			c-16.65,0-30.99,11.743-34.274,28.066l-44.264,220.058c-6.269,31.165,17.562,60.266,49.351,60.266h75.353
			C256.366,421.067,252.307,371.057,245.856,322.041z"/>
		<path style="fill:#F9867A;" d="M14.303,184.988l66.394-55.152c11.343-9.423,28.704-2.693,30.589,11.932
			c2.251,17.459-1.563,40.229-26.298,60.775c-24.734,20.546-47.818,20.119-64.568,14.704C6.39,212.711,2.96,194.411,14.303,184.988z
			"/>
		<path style="fill:#57565C;" d="M290.383,374.01L290.383,374.01c-15.52,0-28.1-12.581-28.1-28.1v-20.43
			c0-4.237,3.434-7.671,7.671-7.671h40.859c4.237,0,7.671,3.434,7.671,7.671v20.43C318.483,361.429,305.903,374.01,290.383,374.01z"
			/>
		<ellipse style="fill:#FFA6BB;" cx="196.388" cy="345.909" rx="29.973" ry="23.869"/>
		<ellipse style="fill:#FFA6BB;" cx="384.379" cy="345.909" rx="29.973" ry="23.869"/>
		<path style="fill:#57565C;" d="M371.04,332.807c-4.143,0-7.5-3.358-7.5-7.5v-12.451c0-4.142,3.357-7.5,7.5-7.5s7.5,3.358,7.5,7.5
			v12.451C378.54,329.449,375.183,332.807,371.04,332.807z"/>
		<path style="fill:#57565C;" d="M209.727,332.807c-4.143,0-7.5-3.358-7.5-7.5v-12.451c0-4.142,3.357-7.5,7.5-7.5
			c4.143,0,7.5,3.358,7.5,7.5v12.451C217.227,329.449,213.869,332.807,209.727,332.807z"/>
	</g>
	<g id="stroke_35_">
		<path d="M371.04,305.356c-4.143,0-7.5,3.358-7.5,7.5v12.451c0,4.142,3.357,7.5,7.5,7.5c4.143,0,7.5-3.358,7.5-7.5v-12.451
			C378.54,308.714,375.183,305.356,371.04,305.356z"/>
		<path d="M209.727,305.356c-4.143,0-7.5,3.358-7.5,7.5v12.451c0,4.142,3.357,7.5,7.5,7.5c4.143,0,7.5-3.358,7.5-7.5v-12.451
			C217.227,308.714,213.869,305.356,209.727,305.356z"/>
		<path d="M494.72,111.842c-1.938-3.66-6.476-5.057-10.137-3.12c-3.661,1.938-5.058,6.476-3.121,10.138
			c23.496,44.393,20.27,103.187-8.419,153.438c-9.653,16.907-21.522,31.813-35.36,44.454l-7.377-36.674
			c5.999-7.129,11.388-14.856,16.048-23.018c17.096-29.944,23.514-63.263,18.072-93.818c-4.983-27.982-19.518-50.123-40.926-62.346
			c-14.564-8.314-31.042-11.565-48.975-9.667c-0.11,0.01-0.219,0.022-0.329,0.036c-31.49,3.447-63.226,22.931-85.6,52.396h-36.879
			c13.495-23.069,31.666-42.877,52.675-57.353c20.757-14.301,43.824-23.16,66.705-25.619c24.205-2.6,47.594,2.073,67.639,13.518
			c9.461,5.402,18.031,12.209,25.474,20.231c2.817,3.034,7.563,3.215,10.599,0.396c3.037-2.817,3.214-7.563,0.397-10.6
			c-8.48-9.14-18.247-16.896-29.033-23.055c-22.803-13.019-49.32-18.349-76.679-15.405c-25.354,2.725-50.619,12.748-73.613,28.182
			c-42.5,28.525-60.314,67.777-61.334,69.704H212.67c-20.147,0-37.653,14.335-41.626,34.087l-12.736,63.316l-46.989-58.551
			c8.113-15.353,8.884-30.238,7.406-41.704c-1.237-9.59-7.359-17.433-16.378-20.979c-9.069-3.565-18.954-1.982-26.442,4.237
			L9.511,179.219c-7.488,6.22-10.859,15.646-9.016,25.216c1.833,9.518,8.42,16.975,17.62,19.949
			c6.218,2.01,20.444,4.515,35.374,2.164l76.596,154.825l-3.306,16.433c-3.434,17.067,0.923,34.581,11.953,48.05
			c11.03,13.47,27.341,21.195,44.75,21.195h213.802c17.409,0,33.72-7.725,44.75-21.194c11.03-13.47,15.387-30.983,11.954-48.051
			l-12.899-64.128c17.899-14.873,33.024-33,44.981-53.943C517.281,225.065,520.596,160.733,494.72,111.842z M375.984,106.16
			c0.034-0.004,0.067-0.008,0.101-0.012c14.751-1.565,28.199,1.049,39.979,7.775c17.475,9.977,29.406,28.426,33.596,51.949
			c4.828,27.105-0.972,56.849-16.331,83.751c-2.147,3.76-4.473,7.41-6.946,10.944l-16.659-82.82
			c-3.973-19.752-21.479-34.087-41.626-34.087h-60.03C327.211,122.494,351.777,108.762,375.984,106.16z M22.729,210.11
			c-10.962-3.396-9.255-14.999-3.634-19.353h0.001l66.394-55.152c5.991-4.592,17.16-3.497,18.359,7.121
			c2.332,20.658-5.299,38.803-23.652,54.047C61.844,212.02,42.586,216.262,22.729,210.11z M430.428,436.353
			c-8.169,9.977-20.25,15.698-33.144,15.698H183.483c-12.895,0-24.975-5.722-33.145-15.698c-8.169-9.977-11.396-22.947-8.854-35.589
			l10.185-50.633c0.817-4.061-1.813-8.015-5.874-8.831c-4.058-0.816-8.015,1.813-8.831,5.874l-2.042,10.15l-66.961-135.35
			c7.061-3.061,14.38-7.48,21.821-13.661c5.027-4.176,9.243-8.445,12.784-12.742l51.888,64.655l-11.285,56.104
			c-0.817,4.06,1.813,8.015,5.873,8.831c4.063,0.821,8.015-1.811,8.832-5.874l27.876-138.581
			c2.57-12.773,13.892-22.045,26.921-22.045h155.426c13.03,0,24.352,9.27,26.921,22.044l44.265,220.059
			C441.825,413.405,438.598,426.377,430.428,436.353z"/>
		<path d="M310.813,310.309h-40.859c-8.365,0-15.171,6.806-15.171,15.171v20.43c0,19.63,15.97,35.601,35.6,35.601
			c19.628,0,35.599-15.97,35.601-35.601v-20.43C325.984,317.114,319.178,310.309,310.813,310.309z M310.984,345.908
			c-0.001,11.359-9.243,20.602-20.601,20.602c-11.359,0-20.6-9.241-20.6-20.601c0,0,0.077-20.601,0.171-20.601
			c0,0,41.03,0.075,41.03,0.171V345.908z"/>
	</g>
</g>
<g>
</g>
<g>
</g>
<g>
</g>
<g>
</g>
<g>
</g>
<g>
</g>
<g>
</g>
<g>
</g>
<g>
</g>
<g>
</g>
<g>
</g>
<g>
</g>
<g>
</g>
<g>
</g>
<g>
</g>
</svg>
