<?xml version="1.0" encoding="iso-8859-1"?>
<!-- Generator: Adobe Illustrator 19.0.0, SVG Export Plug-In . SVG Version: 6.00 Build 0)  -->
<svg version="1.1" id="Layer_1" xmlns="http://www.w3.org/2000/svg" xmlns:xlink="http://www.w3.org/1999/xlink" x="0px" y="0px"
	 viewBox="0 0 512 512" style="enable-background:new 0 0 512 512;" xml:space="preserve">
<g id="sweater">
	<g id="fill_36_">
		<rect x="152.312" y="41.07" style="fill:#DB5C56;" width="207.375" height="108.759"/>
		<path style="fill:#DB5C56;" d="M132.739,453.45H51.536c-24.32,0-44.036-19.716-44.036-44.036V149.83h125.239V453.45z"/>
		<path style="fill:#F27564;" d="M379.261,453.45h81.203c24.32,0,44.036-19.716,44.036-44.036V149.83H379.261V453.45z"/>
		<path style="fill:#7AC1DD;" d="M7.5,400.564v8.85c0,24.32,19.716,44.036,44.036,44.036h81.203v-52.886H7.5z"/>
		<path style="fill:#8ED7E8;" d="M504.5,400.564v8.85c0,24.32-19.716,44.036-44.036,44.036h-81.203v-52.886H504.5z"/>
		<path style="fill:#F79389;" d="M359.688,41.07c0,0-9.216,69.758-103.688,69.758S152.312,41.07,152.312,41.07
			S9.011,44.091,7.5,149.83c0,1.38,65.571-9.85,93.023,41.199c4.487,8.343,6.673,17.732,6.673,27.205v217.924
			c0,24.144,19.573,43.717,43.717,43.717h210.173c24.144,0,43.717-19.573,43.717-43.717V218.233c0-9.473,2.187-18.862,6.673-27.205
			C438.929,139.98,504.5,151.21,504.5,149.83C502.989,44.091,359.688,41.07,359.688,41.07z"/>
		<path style="fill:#F27564;" d="M213.71,479.874c-28.639-24.236-28.535-66.596-28.535-66.596s-0.099-116.541-0.09-187.315
			c0.003-27.438,18.666-51.394,45.293-58.015c51.448-12.792,81.616-45.493,81.616-45.493V99.956
			c-14.141,6.524-32.41,10.872-55.994,10.872c-94.471,0-103.688-69.758-103.688-69.758S9.01,44.091,7.5,149.83
			c0,1.38,65.571-9.849,93.023,41.199c4.487,8.343,6.673,17.732,6.673,27.205v217.924c0,24.144,19.573,43.717,43.717,43.717H213.71z
			"/>
		<path style="fill:#B2E59C;" d="M256,130.666c-34.459,0-82.047-8.047-113.073-46.386c-6.845-8.458-11.66-16.912-15.033-24.365
			c-5.431-12.001,2.209-25.838,15.267-27.563c0,0,15.117-2.178,20.991,11.41c2.218,5.13,5.754,11.062,10.773,16.954
			c17.11,20.089,44.387,30.275,81.074,30.275c37.559,0,65.226-10.655,82.233-31.67c4.413-5.453,7.711-10.811,9.637-15.587
			c5.566-13.798,20.642-11.426,20.642-11.426c13.221,1.747,20.992,15.771,15.458,27.905c-3.365,7.379-8.143,15.72-14.897,24.066
			C338.047,122.618,290.458,130.666,256,130.666z"/>
		<path style="fill:#ABEBF4;" d="M298.258,202.141l-42.266,20.882l-42.267-20.882c-9.324-4.606-20.262-4.606-29.586,0
			l-42.264,20.881l-36.131-17.852c0.958,4.273,1.452,8.656,1.452,13.062v34.818l19.886,9.825c9.324,4.607,20.262,4.607,29.587,0
			l42.264-20.881l42.267,20.882c9.324,4.606,20.262,4.606,29.585,0l42.267-20.882l42.273,20.883c9.323,4.606,20.26,4.606,29.583,0
			l19.896-9.829v-34.816c0-4.406,0.494-8.79,1.452-13.063l-36.14,17.852l-42.274-20.883
			C318.519,197.534,307.581,197.535,298.258,202.141z"/>
		<rect x="107.196" y="301.164" style="fill:#B2E59C;" width="297.608" height="42.148"/>
		<path style="fill:#9AD880;" d="M185.102,301.164h-77.906v42.148h77.929C185.117,329.984,185.109,315.654,185.102,301.164z"/>
		<path style="fill:#8ED7E8;" d="M127.082,262.878c9.324,4.607,20.262,4.607,29.586,0l28.417-14.041
			c-0.001-7.983-0.001-15.667,0-22.873c0.001-9.381,2.185-18.359,6.12-26.372c-2.42,0.576-4.791,1.426-7.066,2.55l-42.264,20.881
			l-36.131-17.852c0.958,4.273,1.452,8.656,1.452,13.062v34.818L127.082,262.878z"/>
		<path style="fill:#9AD880;" d="M174.925,60.716c-5.019-5.893-8.555-11.824-10.773-16.954c-5.874-13.588-20.991-11.41-20.991-11.41
			c-13.059,1.725-20.698,15.562-15.267,27.563c3.372,7.452,8.188,15.906,15.033,24.365c24.818,30.668,60.238,41.954,91.054,45.242
			c0,0-7.763-7.819-5.622-20.945c2.141-13.126,13.883-18.095,13.883-18.095C212.428,88.192,189.824,78.208,174.925,60.716z"/>
	</g>
	<path id="stroke_36_" d="M511.999,149.722c-0.518-36.289-16.54-65.086-47.618-85.591c-24.956-16.465-54.728-24.043-75.864-27.527
		c-4.354-6.435-11.121-10.662-18.932-11.72c-5.892-0.895-16.976,0.196-24.253,8.686H166.473c-7.449-8.342-18.548-9.48-24.293-8.655
		c-7.814,1.033-14.584,5.268-18.908,11.724c-21.123,3.5-50.822,11.09-75.714,27.533c-31.038,20.503-47.038,49.286-47.556,85.55
		C0,149.758,0,409.414,0,409.414c0,28.417,23.119,51.536,51.536,51.536h54.581c8.748,15.743,25.545,26.425,44.796,26.425h210.174
		c19.251,0,36.048-10.682,44.796-26.425h54.581c28.417,0,51.536-23.119,51.536-51.536C512,409.414,511.999,149.758,511.999,149.722z
		 M397.304,248.39l-15.718,7.764c-7.182,3.549-15.758,3.549-22.939,0l-42.273-20.883c-2.094-1.033-4.55-1.033-6.644,0
		l-42.267,20.882c-7.182,3.549-15.758,3.549-22.941,0l-42.267-20.882c-2.095-1.033-4.55-1.033-6.645,0l-42.265,20.882
		c-7.182,3.549-15.758,3.55-22.942-0.001l-15.707-7.76c0,0-0.004-30.342-0.004-30.434l23.861,11.789
		c2.094,1.035,4.551,1.034,6.645,0.001l42.264-20.882c7.182-3.549,15.758-3.55,22.941,0l42.268,20.882
		c2.094,1.033,4.55,1.034,6.644-0.001l42.266-20.881c7.182-3.549,15.758-3.55,22.94-0.001l42.274,20.883
		c1.047,0.517,3.462,1.554,6.644,0l23.87-11.791C397.307,218.048,397.304,248.39,397.304,248.39z M114.696,265.123l9.063,4.477
		c11.344,5.603,24.888,5.605,36.231,0l38.942-19.239l38.945,19.241c11.343,5.604,24.887,5.604,36.23,0l38.944-19.241l38.952,19.242
		c5.671,2.801,11.892,4.202,18.113,4.202s12.442-1.401,18.113-4.202l9.074-4.482v28.544H114.696V265.123z M412.304,218.233
		c0-8.443,1.999-16.622,5.779-23.653c13.765-25.596,40.31-38.144,78.917-37.326v235.81h-84.696V218.233z M336.808,48.571
		c-1.284,1.968-20.138,34.92-80.808,34.92s-79.322-32.665-80.766-34.92H336.808z M118.638,52.709
		c1.19,10.915,6.107,17.892,8.238,21.524c2.096,3.573,6.691,4.768,10.264,2.674c3.572-2.096,4.77-6.691,2.673-10.264
		c-1.864-3.179-3.576-6.482-5.086-9.82c-1.607-3.552-2.488-14.834,9.504-17.048c0.096-0.017,9.481-1.264,13.038,6.964
		c2.765,6.395,6.896,12.91,11.947,18.841c18.6,21.838,47.799,32.911,86.784,32.911c39.935,0,69.563-11.591,88.063-34.451
		c4.831-5.97,8.552-12.022,10.762-17.5c3.101-7.685,11.032-6.973,12.522-6.822c13.348,1.353,11.44,13.787,9.8,17.384
		c-3.661,8.027-8.338,15.584-13.903,22.46C334.078,115.6,288.826,123.165,256,123.165c-29.208,0-70.161-6.06-99.388-34.928
		c-2.948-2.91-7.696-2.882-10.606,0.065c-2.911,2.947-2.881,7.695,0.065,10.606c32.849,32.445,77.911,39.256,109.929,39.256
		c36.091,0,86.135-8.435,118.904-49.169c14.904-18.527,18.272-32.698,18.37-36.305c40.215,7.836,97.933,29.532,103.33,89.524
		c-8.725-0.224-23.091,0.607-38.799,4.318c-48.903,11.555-56.736,49.077-57.977,53.446l-29.711,14.677l-38.952-19.242
		c-11.343-5.602-24.885-5.604-36.229,0.002l-38.943,19.24l-38.945-19.241c-11.343-5.604-24.887-5.604-36.23,0.002l-38.942,19.239
		l-29.702-14.675c-1.241-4.37-8.369-37.254-57.978-53.448c-15.344-5.009-30.076-4.54-38.799-4.318
		C20.788,82.255,78.458,60.555,118.638,52.709z M51.536,445.95C31.39,445.95,15,429.56,15,409.414V157.254
		c38.617-0.811,65.152,11.729,78.917,37.325c3.78,7.031,5.779,15.211,5.779,23.653v174.831H39.092c-4.142,0-7.5,3.357-7.5,7.5
		s3.358,7.5,7.5,7.5h60.604v28.093c0,3.349,0.333,6.621,0.95,9.793H51.536z M361.087,472.374H150.913
		c-19.97,0-36.217-16.247-36.217-36.218v-85.345h206.736c4.142,0,7.5-3.357,7.5-7.5c0-4.143-3.358-7.5-7.5-7.5H114.696v-27.147
		h282.607v27.147h-44.867c-4.142,0-7.5,3.357-7.5,7.5c0,4.143,3.358,7.5,7.5,7.5h44.867v85.345
		C397.304,456.127,381.057,472.374,361.087,472.374z M460.464,445.95h-49.11c0.617-3.172,0.95-6.444,0.95-9.793v-28.093H497
		C497,408.064,496.155,445.95,460.464,445.95z"/>
</g>
<g>
</g>
<g>
</g>
<g>
</g>
<g>
</g>
<g>
</g>
<g>
</g>
<g>
</g>
<g>
</g>
<g>
</g>
<g>
</g>
<g>
</g>
<g>
</g>
<g>
</g>
<g>
</g>
<g>
</g>
</svg>
