<?xml version="1.0" encoding="iso-8859-1"?>
<!-- Generator: Adobe Illustrator 19.0.0, SVG Export Plug-In . SVG Version: 6.00 Build 0)  -->
<svg version="1.1" id="Layer_1" xmlns="http://www.w3.org/2000/svg" xmlns:xlink="http://www.w3.org/1999/xlink" x="0px" y="0px"
	 viewBox="0 0 511.988 511.988" style="enable-background:new 0 0 511.988 511.988;" xml:space="preserve">
<g id="vegetables_box">
	<g id="fill_37_">
		<rect x="101.017" y="264.059" style="fill:#938782;" width="302.878" height="175.874"/>
		<path style="fill:#8DC971;" d="M331.456,158.8c0,0-2.828-62.593,33.228-123.185c4.834-8.123,1.272-18.656-7.469-22.255
			c-3.877-1.596-7.934-3.246-11.609-4.732c-7.579-3.064-16.246,0.248-19.805,7.608c-11.145,23.05-28.543,75.08-22.418,138.726
			C303.532,153.764,331.456,158.8,331.456,158.8z"/>
		<path style="fill:#9AD880;" d="M298.312,158.795c0,0,10.51-61.769-17.815-126.338c-3.797-8.657,1.034-18.67,10.151-21.167
			c4.044-1.107,8.273-2.245,12.103-3.267c7.899-2.108,16.092,2.245,18.718,9.987c8.223,24.247,21.949,78.378,8.038,140.785
			C329.507,157.589,298.312,158.795,298.312,158.795z"/>
		<path style="fill:#FCE3C3;" d="M388.399,189.774c0,39.678-32.165,71.843-71.843,71.843c-39.678,0-71.843-32.165-71.843-71.843
			c0-39.678,32.165-57.663,71.843-57.663C356.234,132.111,388.399,150.097,388.399,189.774z"/>
		<path style="fill:#F7D8B7;" d="M244.713,189.774c0,39.678,32.165,71.843,71.843,71.843c3.108,0,6.161-0.196,9.165-0.579
			c4.427-70.609-9.581-108.22-24.028-128.029C269.147,137.088,244.713,155.192,244.713,189.774z"/>
		<path style="fill:#9AD880;" d="M213.268,158.8c0,0-2.828-62.593,33.228-123.185c4.834-8.123,1.272-18.656-7.469-22.255
			c-3.877-1.596-7.934-3.246-11.609-4.732c-7.579-3.064-16.246,0.248-19.805,7.608c-11.145,23.05-28.543,75.08-22.418,138.726
			C185.344,153.764,213.268,158.8,213.268,158.8z"/>
		<path style="fill:#B2E59C;" d="M180.125,158.795c0,0,10.51-61.769-17.815-126.338c-3.797-8.657,1.034-18.67,10.151-21.167
			c4.044-1.107,8.273-2.245,12.103-3.267c7.899-2.108,16.092,2.245,18.718,9.987c8.224,24.247,21.949,78.378,8.038,140.785
			C211.32,157.589,180.125,158.795,180.125,158.795z"/>
		<path style="fill:#FFF0D9;" d="M270.212,189.774c0,39.678-32.165,71.843-71.843,71.843c-39.678,0-71.843-32.165-71.843-71.843
			c0-39.678,32.165-57.663,71.843-57.663C238.047,132.111,270.212,150.097,270.212,189.774z"/>
		<path style="fill:#FCE3C3;" d="M195.814,132.136c-38.489,0.763-69.288,18.82-69.288,57.638c0,39.389,31.709,71.374,70.988,71.838
			C170.869,199.552,185.888,152.707,195.814,132.136z"/>
		<path style="fill:#C68D6D;" d="M134.64,450.175H67.394V179.797c0-18.569,15.053-33.623,33.623-33.623l0,0
			c18.569,0,33.623,15.053,33.623,33.623V450.175z"/>
		<path style="fill:#DD9F80;" d="M443.71,450.175h-67.245V179.797c0-18.569,15.053-33.623,33.623-33.623l0,0
			c18.569,0,33.623,15.053,33.623,33.623V450.175z"/>
		<path style="fill:#EAB9A4;" d="M449.645,332.392H62.343c-17.208,0-31.157-13.95-31.157-31.158v-46.312
			c0-17.208,13.95-31.158,31.157-31.158h387.302c17.208,0,31.158,13.95,31.158,31.158v46.312
			C480.802,318.442,466.853,332.392,449.645,332.392z"/>
		<path style="fill:#E5AC93;" d="M126.526,301.234v-46.312c0-17.208,13.95-31.158,31.158-31.158H62.343
			c-17.208,0-31.158,13.95-31.158,31.158v46.312c0,17.208,13.95,31.158,31.158,31.158h95.341
			C140.476,332.392,126.526,318.442,126.526,301.234z"/>
		<path style="fill:#EAB9A4;" d="M449.645,504.488H62.343c-17.208,0-31.157-13.95-31.157-31.158v-46.312
			c0-17.208,13.95-31.158,31.157-31.158h387.302c17.208,0,31.158,13.95,31.158,31.158v46.312
			C480.802,490.539,466.853,504.488,449.645,504.488z"/>
		<path style="fill:#E5AC93;" d="M126.526,473.331v-46.312c0-17.208,13.95-31.158,31.158-31.158H62.343
			c-17.208,0-31.158,13.95-31.158,31.158v46.312c0,17.208,13.95,31.158,31.158,31.158h95.341
			C140.476,504.488,126.526,490.539,126.526,473.331z"/>
		<circle style="fill:#938782;" cx="101.017" cy="257.495" r="7.5"/>
		<circle style="fill:#938782;" cx="101.017" cy="298.662" r="7.5"/>
		<circle style="fill:#938782;" cx="410.087" cy="257.495" r="7.5"/>
		<circle style="fill:#938782;" cx="410.087" cy="298.662" r="7.5"/>
		<circle style="fill:#938782;" cx="101.017" cy="432.841" r="7.5"/>
		<circle style="fill:#938782;" cx="101.017" cy="474.008" r="7.5"/>
		<circle style="fill:#938782;" cx="410.087" cy="432.841" r="7.5"/>
		<circle style="fill:#938782;" cx="410.087" cy="474.008" r="7.5"/>
	</g>
	<g id="stroke_37_">
		<circle cx="101.017" cy="257.495" r="7.5"/>
		<circle cx="101.017" cy="298.662" r="7.5"/>
		<circle cx="410.087" cy="257.495" r="7.5"/>
		<circle cx="410.087" cy="298.662" r="7.5"/>
		<circle cx="101.017" cy="432.841" r="7.5"/>
		<circle cx="101.017" cy="474.008" r="7.5"/>
		<circle cx="410.087" cy="432.841" r="7.5"/>
		<circle cx="410.087" cy="474.008" r="7.5"/>
		<path d="M488.303,301.235v-46.313c0-20.791-16.5-37.792-37.093-38.617v-36.509c0-22.675-18.447-41.122-41.122-41.122
			c-10.776,0-20.592,4.172-27.932,10.978c-9.345-10.975-23.2-18.657-40.217-22.41c0.297-3.378-0.008-39.64,29.19-87.792
			c3.457-5.701,4.152-12.65,2.04-18.988c-2.121-6.367-6.895-11.483-13.098-14.037c-3.892-1.603-7.965-3.259-11.653-4.75
			c-8.875-3.588-18.79-1.211-25.152,5.317c-5.648-5.783-14.164-8.423-22.447-6.215c-3.845,1.025-8.091,2.169-12.152,3.28
			c-6.47,1.771-11.837,6.263-14.726,12.319c-2.876,6.03-2.989,12.99-0.312,19.094c15.02,34.24,18.804,67.692,19.072,91.434
			c-14.055,2.862-26.061,8.368-35.202,16.178c-8.753-7.553-20.127-12.982-33.738-15.921c0.295-3.363,1.944-35.556,29.18-87.71
			c3.086-5.91,4.153-12.649,2.04-18.988c-2.122-6.366-6.896-11.483-13.099-14.037c-3.892-1.603-7.965-3.259-11.653-4.75
			c-8.876-3.589-18.792-1.211-25.153,5.317c-5.65-5.784-14.169-8.424-22.446-6.215c-3.845,1.025-8.09,2.169-12.151,3.28
			c-6.47,1.771-11.837,6.262-14.727,12.319c-2.876,6.03-2.989,12.989-0.312,19.094c8.927,20.351,14.809,42.563,17.482,66.02
			c0.469,4.116,4.186,7.057,8.301,6.603c4.116-0.47,7.072-4.186,6.603-8.302c-2.843-24.95-9.117-48.618-18.648-70.346
			c-0.939-2.141-3.291-8.396,5.262-10.92c4.006-1.182,8.241-2.236,12.058-3.255c4.081-1.091,8.187,1.225,9.681,5.15
			c20.117,52.856,12.257,101.526,11.838,104.54c-39.667-3.299-63.589,9.426-76.954,26.803c-7.511-8.044-18.198-13.087-30.046-13.087
			c-22.675,0-41.123,18.447-41.123,41.122v36.554c-20.178,1.269-36.209,18.079-36.209,38.572v46.313
			c0,20.492,16.031,37.303,36.209,38.571v48.64c-20.178,1.269-36.209,18.079-36.209,38.573v46.312
			c0,21.315,17.342,38.657,38.658,38.657h387.301c21.316,0,38.658-17.342,38.658-38.657v-46.312c0-20.792-16.5-37.793-37.093-38.618
			v-48.548C471.802,339.027,488.303,322.025,488.303,301.235z M383.965,388.361v-48.469h52.245v48.469H383.965z M410.088,153.674
			c14.403,0,26.122,11.719,26.122,26.122v36.469h-52.245v-36.469C383.965,165.393,395.683,153.674,410.088,153.674z M342.796,15.581
			c3.66,1.48,7.781,2.942,11.563,4.713c6.994,3.274,5.074,9.477,3.879,11.485c-6.859,11.527-12.727,23.734-17.602,36.527
			c-2.383-18.39-6.218-33.895-9.701-45.34c0.54-1.195,1.08-2.355,1.618-3.467C334.382,15.718,338.882,14.001,342.796,15.581z
			 M287.366,29.443c-0.94-2.14-2.887-8.476,5.262-10.919c4.001-1.2,8.241-2.236,12.059-3.255c4.078-1.091,8.332,1.173,9.681,5.15
			c6.582,19.408,16.633,58.067,12.706,104.62c-3.417-0.279-16.495-0.314-19.399-0.116C307.217,99.827,302.999,65.083,287.366,29.443
			z M212.75,22.972c0.54-1.195,1.08-2.364,1.617-3.473c1.827-3.78,6.325-5.5,10.242-3.919c3.661,1.48,7.77,2.965,11.563,4.713
			c7.322,3.374,5.075,9.477,3.879,11.485c-7.304,12.275-13.058,24.62-17.6,36.553C220.067,49.924,216.229,34.409,212.75,22.972z
			 M198.369,139.611c19.089,0,35.13,4.329,46.389,12.519c11.913,8.665,17.954,21.331,17.954,37.645
			c0,9.279-1.914,18.173-5.688,26.49H142.14v-36.469c0-4.898-0.864-9.597-2.443-13.957
			C148.998,149.145,170.248,139.611,198.369,139.611z M101.017,153.674c14.404,0,26.123,11.719,26.123,26.122v36.469H74.894v-36.469
			C74.894,165.393,86.613,153.674,101.017,153.674z M38.685,301.235v-46.313c0-13.045,10.613-23.657,23.658-23.657h249.056
			c4.143,0,7.5-3.357,7.5-7.5c0-4.143-3.357-7.5-7.5-7.5h-38.238c2.989-8.47,4.551-17.46,4.551-26.49
			c0-13.754-3.564-25.723-10.208-35.521c11.224-9.464,28.409-14.643,49.053-14.643c25.915,0,46.164,8.18,56.374,22.583
			c-2.54,5.339-3.966,11.307-3.966,17.602v36.469h-28.009c-4.143,0-7.5,3.357-7.5,7.5c0,4.143,3.357,7.5,7.5,7.5h108.689
			c13.045,0,23.658,10.612,23.658,23.657v46.313c0,13.045-10.613,23.657-23.658,23.657H62.343
			C49.298,324.892,38.685,314.28,38.685,301.235z M74.894,388.361v-48.469h52.246v48.469H74.894z M473.303,427.019v46.312
			c0,13.045-10.613,23.657-23.658,23.657H62.343c-13.045,0-23.658-10.612-23.658-23.657v-46.312
			c0-13.045,10.613-23.658,23.658-23.658h95.341c4.142,0,7.5-3.357,7.5-7.5c0-4.142-3.358-7.5-7.5-7.5H142.14v-48.469h226.825
			v48.469H188.617c-4.142,0-7.5,3.358-7.5,7.5c0,4.143,3.358,7.5,7.5,7.5h261.027C462.689,403.361,473.303,413.974,473.303,427.019z
			"/>
	</g>
</g>
<g>
</g>
<g>
</g>
<g>
</g>
<g>
</g>
<g>
</g>
<g>
</g>
<g>
</g>
<g>
</g>
<g>
</g>
<g>
</g>
<g>
</g>
<g>
</g>
<g>
</g>
<g>
</g>
<g>
</g>
</svg>
