<?xml version="1.0" encoding="iso-8859-1"?>
<!-- Generator: Adobe Illustrator 19.0.0, SVG Export Plug-In . SVG Version: 6.00 Build 0)  -->
<svg version="1.1" id="Layer_1" xmlns="http://www.w3.org/2000/svg" xmlns:xlink="http://www.w3.org/1999/xlink" x="0px" y="0px"
	 viewBox="0 0 511.955 511.955" style="enable-background:new 0 0 511.955 511.955;" xml:space="preserve">
<g id="broom">
	<g id="fill_38_">
		<path style="fill:#DD9F80;" d="M361.618,194.554l-44.216-44.216L451.104,16.635c12.21-12.21,32.006-12.21,44.216,0l0,0
			c12.21,12.21,12.21,32.006,0,44.216L361.618,194.554z"/>
		<path style="fill:#C68D6D;" d="M392.784,163.388c-7.686-34.258-7.152-63.1-4.332-84.101l-71.051,71.051l44.217,44.217
			L392.784,163.388z"/>
		
			<ellipse transform="matrix(0.7071 0.7071 -0.7071 0.7071 227.4303 -174.9489)" style="fill:#DDBDA2;" cx="324.897" cy="187.058" rx="51.058" ry="45.06"/>
		<path style="fill:#FCE5CA;" d="M159.745,490.058L21.898,352.211c-19.227-19.227-19.227-50.4,0-69.626L123.65,180.833
			c57.292-57.292,150.181-57.292,207.473,0l0,0c57.292,57.292,57.292,150.181,0,207.473L229.371,490.058
			C210.144,509.284,178.971,509.284,159.745,490.058z"/>
		<path style="fill:#EDCFB2;" d="M343.264,194.572c-3.712-4.767-7.758-9.356-12.141-13.739l0,0
			c-57.292-57.292-150.181-57.292-207.473,0L21.898,282.585c-19.227,19.227-19.227,50.4,0,69.626l41.752,41.752
			c10.319-17.324,22.122-28.283,22.122-28.283l95.959-100.242c16.841-17.593,39.999-27.474,64.34-28.253
			C290.524,235.761,326.864,208.958,343.264,194.572z"/>
		
			<rect x="67.728" y="280.303" transform="matrix(-0.7071 -0.7071 0.7071 -0.7071 155.6815 659.5288)" style="fill:#938782;" width="293.411" height="34.437"/>
		<path style="fill:#DDBDA2;" d="M99.002,329.99c7.244-7.244,7.244-19.098,0-26.342l0,0c-7.244-7.244-19.098-7.244-26.342,0
			l-49.526,49.526l26.342,26.342L99.002,329.99z"/>
		<path style="fill:#EDCFB2;" d="M153.655,384.643c7.244-7.244,7.244-19.098,0-26.342l0,0c-7.244-7.244-19.098-7.244-26.342,0
			l-49.526,49.526l26.342,26.342L153.655,384.643z"/>
		<path style="fill:#EDCFB2;" d="M208.308,439.296c7.244-7.244,7.244-19.098,0-26.342c-7.244-7.244-19.098-7.244-26.342,0
			L132.44,462.48l26.342,26.342L208.308,439.296z"/>
		<path style="fill:#57565C;" d="M321.262,304.759c-2.929-2.929-2.929-7.678,0-10.607l8.804-8.804c2.929-2.929,7.677-2.929,10.607,0
			c2.929,2.929,2.929,7.678,0,10.607l-8.804,8.804C328.94,307.688,324.191,307.688,321.262,304.759z"/>
		<path style="fill:#57565C;" d="M207.196,190.693c-2.929-2.929-2.929-7.678,0-10.607l8.804-8.804c2.929-2.929,7.677-2.929,10.607,0
			c2.929,2.929,2.929,7.678,0,10.607l-8.804,8.804C214.874,193.622,210.126,193.622,207.196,190.693z"/>
		<path style="fill:#57565C;" d="M258.676,253.279c-6.864-6.864-11.507-15.949-12.791-26.119c-0.52-4.11,2.391-7.862,6.501-8.381
			c4.109-0.521,7.862,2.391,8.381,6.5c1.711,13.544,12.365,24.198,25.909,25.909c4.108,0.518,7.02,4.271,6.5,8.381
			c-0.519,4.11-4.271,7.021-8.381,6.501C274.625,264.786,265.54,260.143,258.676,253.279z"/>
		<path style="fill:#7F716C;" d="M122.872,181.61l-24.35,24.35l71.602,71.602l11.607-12.125c4.128-4.312,8.634-8.16,13.445-11.525
			L122.872,181.61z"/>
	</g>
	<g id="stroke_38_">
		<path d="M331.865,304.763l8.804-8.804c2.929-2.929,2.929-7.677,0-10.607c-2.929-2.929-7.678-2.929-10.607,0l-8.804,8.804
			c-2.929,2.929-2.929,7.677,0,10.607S328.936,307.692,331.865,304.763z"/>
		<path d="M217.799,190.697l8.804-8.804c2.929-2.929,2.929-7.677,0-10.607c-2.929-2.929-7.678-2.929-10.607,0l-8.804,8.804
			c-2.929,2.929-2.929,7.677,0,10.607C210.122,193.626,214.87,193.626,217.799,190.697z"/>
		<path d="M258.673,253.283c6.864,6.864,15.949,11.507,26.119,12.791c4.11,0.52,7.862-2.391,8.381-6.501
			c0.52-4.109-2.392-7.862-6.5-8.381c-13.544-1.711-24.198-12.365-25.909-25.909c-0.518-4.109-4.271-7.021-8.381-6.5
			c-4.11,0.519-7.021,4.271-6.501,8.381C247.166,237.334,251.809,246.419,258.673,253.283z"/>
		<path d="M369.546,224.856c8.688-10.67,12.158-24.424,10.581-38.205L500.62,66.159c15.114-15.114,15.114-39.708,0-54.823
			c-15.115-15.114-39.708-15.114-54.823,0L325.304,131.829c-13.781-1.577-27.536,1.894-38.207,10.582
			c-14.423-6.064-29.775-9.947-45.529-11.395c-4.125-0.378-7.776,2.658-8.155,6.783c-0.379,4.124,2.658,7.776,6.782,8.155
			c32.263,2.963,62.669,17.235,85.62,40.186c52.76,52.76,54.228,137.676,4.418,192.233L133.578,181.716
			c21.798-19.944,48.709-32.176,78.224-35.48c4.116-0.461,7.08-4.171,6.619-8.288c-0.462-4.118-4.169-7.081-8.288-6.62
			c-35.056,3.924-66.797,19.209-91.791,44.203L16.59,277.285c-22.121,22.121-22.121,58.113,0,80.233l137.847,137.847
			c22.121,22.121,58.113,22.121,80.233,0l101.752-101.752C381.967,348.069,393,280.893,369.546,224.856z M456.403,21.942
			c9.266-9.266,24.343-9.266,33.61,0c9.266,9.266,9.266,24.343,0,33.61l-114.36,114.36c-3.082-7.197-7.613-14.034-13.594-20.016
			c-5.981-5.981-12.819-10.512-20.016-13.594L456.403,21.942z M302.76,150.067c14.776-7.3,34.7-3.556,48.692,10.436
			c13.981,13.981,17.731,33.886,10.453,48.659c-6.752-12.054-15.244-23.389-25.483-33.629
			C326.367,165.478,315.016,156.934,302.76,150.067z M33.736,353.177l44.222-44.223c4.339-4.339,11.397-4.339,15.736,0
			c4.339,4.339,4.339,11.397,0,15.736l-44.222,44.223L33.736,353.177z M88.389,407.83l44.222-44.223
			c4.339-4.339,11.397-4.339,15.736,0c4.339,4.339,4.339,11.397,0,15.736l-44.222,44.223L88.389,407.83z M143.042,462.483
			l44.223-44.223c4.339-4.339,11.397-4.339,15.736,0c4.339,4.339,4.339,11.397,0,15.736l-44.223,44.223L143.042,462.483z
			 M169.553,488.658l44.055-44.055c10.187-10.187,10.187-26.762,0-36.949s-26.762-10.187-36.949,0l-44.359,44.359l-17.704-17.704
			l44.359-44.359c10.187-10.187,10.187-26.762,0-36.949s-26.762-10.187-36.949,0L77.646,397.36l-17.704-17.704l44.359-44.359
			c10.187-10.187,10.187-26.762,0-36.949s-26.762-10.187-36.949,0l-44.055,44.055c-12.24-16.334-10.945-39.667,3.899-54.512
			l71.321-71.321l177.73,177.73c2.929,2.929,7.677,2.929,10.607,0c2.929-2.929,2.929-7.677,0-10.607l-177.73-177.73l13.744-13.744
			l196.867,196.867l-95.671,95.671C209.22,499.603,185.887,500.897,169.553,488.658z"/>
	</g>
</g>
<g>
</g>
<g>
</g>
<g>
</g>
<g>
</g>
<g>
</g>
<g>
</g>
<g>
</g>
<g>
</g>
<g>
</g>
<g>
</g>
<g>
</g>
<g>
</g>
<g>
</g>
<g>
</g>
<g>
</g>
</svg>
