<?xml version="1.0" encoding="iso-8859-1"?>
<!-- Generator: Adobe Illustrator 19.0.0, SVG Export Plug-In . SVG Version: 6.00 Build 0)  -->
<svg version="1.1" id="Layer_1" xmlns="http://www.w3.org/2000/svg" xmlns:xlink="http://www.w3.org/1999/xlink" x="0px" y="0px"
	 viewBox="0 0 511.998 511.998" style="enable-background:new 0 0 511.998 511.998;" xml:space="preserve">
<g id="backpack">
	<g id="fill_39_">
		<path style="fill:#D15B52;" d="M131.452,143.129c0,0-128.227,56.716-123.843,214.67c3.288,120.692,123.843,112.24,123.843,112.24
			v-74.841c0,0-60.387,5.585-61.976-54.745c-1.589-60.33,61.976-124.151,61.976-124.151V143.129z"/>
		<path style="fill:#E2675A;" d="M380.547,143.129c0,0,128.227,56.716,123.843,214.67c-3.288,120.692-123.843,112.24-123.843,112.24
			v-74.841c0,0,60.387,5.585,61.976-54.745c1.589-60.33-61.976-124.151-61.976-124.151V143.129z"/>
		<path style="fill:#ABEBF4;" d="M259.027,50.397c14.289,0,25.914,11.625,25.914,25.914v54.665h-51.828V76.311
			C233.113,62.022,244.738,50.397,259.027,50.397 M259.027,15.066L259.027,15.066c-33.825,0-61.245,27.42-61.245,61.245v89.997
			h122.49V76.311C320.272,42.486,292.851,15.066,259.027,15.066L259.027,15.066z"/>
		<path style="fill:#F27564;" d="M359.632,496.932H153.149c-32.538,0-58.916-26.378-58.916-58.916V241.14
			c0-89.557,72.6-162.158,162.157-162.158h0c89.557,0,162.158,72.6,162.158,162.158v196.875
			C418.548,470.554,392.17,496.932,359.632,496.932z"/>
		<path style="fill:#E2675A;" d="M373.463,128.927c-29.515-30.79-71.053-49.944-117.073-49.944h0
			c-89.557,0-162.157,72.6-162.157,162.158v196.875c0,32.538,26.378,58.916,58.916,58.916h90.241
			c-4.301-13.166-6.82-26.433-8.173-38.862c-3.569-32.769,14.842-64.207,45.293-76.826c80.668-33.429,92.954-101.789,92.954-101.789
			V128.927z"/>
		<path style="fill:#F79389;" d="M415.608,210.242C401.19,135.451,335.39,78.983,256.39,78.983h0
			c-78.999,0-144.8,56.467-159.217,131.258c12.392,56.221,62.512,98.317,122.457,98.317h73.52
			C353.096,308.558,403.216,266.463,415.608,210.242z"/>
		<path style="fill:#F9867A;" d="M183.726,96.13c-44.233,22.214-76.904,64.055-86.553,114.111
			c12.392,56.221,62.512,98.317,122.457,98.317h56.738C210.531,251.499,189.512,139.011,183.726,96.13z"/>
		<path style="fill:#ABEBF4;" d="M303.528,447.975h-94.275c-20.892,0-37.828-16.936-37.828-37.828v-10.442
			c0-20.892,16.936-37.828,37.828-37.828h94.275c20.892,0,37.828,16.936,37.828,37.828v10.442
			C341.356,431.038,324.42,447.975,303.528,447.975z"/>
		<path style="fill:#8ED7E8;" d="M303.528,361.876h-94.275c-20.892,0-37.828,16.936-37.828,37.828v10.442
			c0,20.892,16.936,37.828,37.828,37.828h25.551c0.778-28.968,18.402-55.416,45.706-66.731c12.69-5.259,23.697-11.391,33.22-17.976
			C310.486,362.362,307.06,361.876,303.528,361.876z"/>
		<path style="fill:#EAB9A4;" d="M192.509,342.809L192.509,342.809c-10.913,0-19.842-8.929-19.842-19.842v-72.565
			c0-10.913,8.929-19.842,19.842-19.842h0c10.913,0,19.842,8.929,19.842,19.842v72.565
			C212.351,333.88,203.422,342.809,192.509,342.809z"/>
		<path style="fill:#EAB9A4;" d="M320.272,342.809L320.272,342.809c-10.913,0-19.842-8.929-19.842-19.842v-72.565
			c0-10.913,8.929-19.842,19.842-19.842h0c10.913,0,19.842,8.929,19.842,19.842v72.565
			C340.114,333.88,331.185,342.809,320.272,342.809z"/>
		<path style="fill:#FFEB99;" d="M201.747,318.216h-18.476c-9.373,0-16.971-7.598-16.971-16.971v-18.476
			c0-9.373,7.598-16.971,16.971-16.971h18.476c9.373,0,16.971,7.598,16.971,16.971v18.476
			C218.718,310.618,211.119,318.216,201.747,318.216z"/>
		<path style="fill:#FFEB99;" d="M329.51,318.216h-18.476c-9.373,0-16.971-7.598-16.971-16.971v-18.476
			c0-9.373,7.598-16.971,16.971-16.971h18.476c9.373,0,16.971,7.598,16.971,16.971v18.476
			C346.48,310.618,338.882,318.216,329.51,318.216z"/>
		<path style="fill:#935B45;" d="M94.233,408.238v29.777c0,32.539,26.378,58.916,58.916,58.916h17.087
			C160.385,436.161,122.46,415.267,94.233,408.238z"/>
		<path style="fill:#B2785B;" d="M418.548,408.238v29.777c0,32.539-26.378,58.916-58.916,58.916h-17.086
			C352.396,436.161,390.321,415.267,418.548,408.238z"/>
	</g>
	<g id="stroke_39_">
		<path d="M209.252,455.475h94.275c24.994,0,45.329-20.335,45.329-45.329v-10.441c0-24.994-20.335-45.328-45.329-45.328h-94.275
			c-24.994,0-45.328,20.334-45.328,45.328v10.441C163.924,435.14,184.258,455.475,209.252,455.475z M178.924,399.705
			c0-16.723,13.605-30.328,30.328-30.328h94.275c16.724,0,30.329,13.605,30.329,30.328v10.441c0,16.724-13.605,30.329-30.329,30.329
			h-94.275c-16.723,0-30.328-13.605-30.328-30.329V399.705z"/>
		<path d="M489.056,244.045c-1.781-3.74-6.258-5.33-9.995-3.548c-3.74,1.78-5.328,6.255-3.548,9.995
			c15.268,32.073,22.461,68.107,21.379,107.103c-0.93,34.14-11.797,60.533-32.299,78.446
			c-12.945,11.311-28.125,17.771-41.471,21.476c1.899-6.17,2.927-12.718,2.927-19.502v-47.258
			c11.266-7.981,23.255-22.849,23.972-50.107c0.61-23.131-7.47-48.971-23.972-76.837c0,0,4.109-59.861-15.112-92.792
			c15.581,12.017,33.726,29.273,49.465,52.866c1.445,2.167,5.96,5.09,10.401,2.077c3.428-2.326,4.376-6.956,2.077-10.401
			c-27.064-40.566-60.836-63.623-79.082-73.98c-24.26-33.386-60.282-57.293-101.382-66.229c-0.51-17.982-15.286-32.456-33.39-32.456
			c-17.744,0-32.296,13.904-33.347,31.388c-6.943,1.277-13.754,2.975-20.398,5.077c0,0,0.387-56.797,53.745-56.797
			c23.526,0,44.692,15.716,51.47,38.217c1.194,3.965,5.378,6.21,9.345,5.018c3.966-1.195,6.213-5.379,5.019-9.345
			c-4.172-13.849-12.858-26.296-24.458-35.05c-11.999-9.055-26.307-13.841-41.375-13.841c-67.858,0-68.745,77.345-68.745,77.345
			c-28.436,12.056-53.104,31.671-71.226,56.57l-0.06-0.351c-28.852,16.2-122.69,79.716-118.883,216.873
			c1.048,38.488,13.634,68.54,37.407,89.32c19.521,17.063,43.092,24.474,60.497,27.684c11.937,17.734,32.194,29.424,55.132,29.424
			h206.483c23.01,0,43.318-11.766,55.241-29.593c17.313-3.296,40.404-10.738,59.591-27.501
			c23.784-20.781,36.375-50.837,37.423-89.33C513.034,316.623,505.354,278.28,489.056,244.045z M435.026,340.256
			c-0.322,12.226-3.344,22.177-8.978,29.783v-72.954C432.36,312.582,435.374,327.029,435.026,340.256z M259.027,57.898
			c8.937,0,16.4,6.401,18.062,14.857c-6.799-0.834-13.707-1.272-20.699-1.272c-5.146,0-10.246,0.234-15.291,0.689
			C242.984,64.008,250.298,57.898,259.027,57.898z M256.39,86.483c73.451,0,136.909,51.855,151.528,123.546
			c0.007,0.037,0.014,0.074,0.021,0.111c-7.238,30.85-26.962,57.672-53.958,74.009c0,0,0.899-14.631-6.367-17.828v-15.92
			c0-15.077-12.266-27.343-27.342-27.343c-15.076,0-27.342,12.266-27.342,27.343v15.92c-3.954,4.348-6.367,10.121-6.367,16.448
			v18.288h-60.345v-18.288c0-6.326-2.413-12.099-6.367-16.448v-15.92c0-15.077-12.266-27.343-27.342-27.343
			c-15.077,0-27.343,12.266-27.343,27.343v15.921c-7.451,4.229-6.366,17.83-6.366,17.83c-26.955-16.338-46.755-43.323-53.96-74.02
			C119.417,138.387,182.902,86.483,256.39,86.483z M301.563,301.246v-18.477c0-5.223,4.248-9.471,9.471-9.471h18.477
			c5.223,0,9.471,4.248,9.471,9.471v18.477c0,5.223-4.248,9.471-9.471,9.471h-18.477
			C305.811,310.716,301.563,306.468,301.563,301.246z M332.614,258.502c-1.017-0.129-23.666-0.129-24.684,0v-8.1
			c0-6.806,5.536-12.343,12.342-12.343c6.806,0,12.342,5.537,12.342,12.343V258.502z M332.338,325.548
			c-1.19,5.57-6.145,9.761-12.066,9.761s-10.875-4.191-12.066-9.761C309.134,325.655,331.409,325.655,332.338,325.548z
			 M211.218,301.246c0,5.223-4.248,9.471-9.471,9.471h-18.476c-5.223,0-9.471-4.248-9.471-9.471v-18.477
			c0-5.223,4.248-9.471,9.471-9.471h18.476c5.223,0,9.471,4.248,9.471,9.471V301.246z M204.851,258.502
			c-1.017-0.129-23.667-0.129-24.685,0v-8.1c0-6.806,5.537-12.343,12.343-12.343c6.806,0,12.342,5.537,12.342,12.343V258.502z
			 M204.575,325.548c-1.19,5.57-6.146,9.761-12.066,9.761c-5.92,0-10.877-4.191-12.067-9.761
			C181.371,325.655,203.646,325.655,204.575,325.548z M86.733,371.06c-6.139-7.727-9.423-18.022-9.76-30.804
			c-0.362-13.75,2.928-28.822,9.76-45.016V371.06z M47.392,436.031c-20.493-17.913-31.356-44.303-32.285-78.439
			C13.579,302.552,28.32,254.1,58.918,213.58c14.33-18.975,29.908-33.209,43.314-43.423c-18.161,39.881-15.5,92.343-15.5,92.343
			c-17.031,28.368-25.373,54.656-24.754,78.151c0.731,27.75,13.115,42.701,24.754,50.648v46.716c0,6.869,1.049,13.499,2.993,19.736
			C76.175,454.087,60.616,447.59,47.392,436.031z M101.733,438.015v-19.708c17.787,6.22,32.108,16.837,42.637,31.682
			c1.462,2.062,6.347,4.681,10.456,1.778c3.383-2.389,4.175-7.077,1.778-10.456c-13.159-18.554-32.052-31.864-54.871-38.767V244.624
			c12.523,24.099,32.268,43.92,57.069,56.702c0.021,6.294,2.428,12.037,6.364,16.366c0,0-3.872,32.617,27.343,32.617
			c31.215,0,27.342-32.616,27.342-32.616c0.477-0.524,0.928-1.072,1.358-1.636h70.363c0.43,0.564,0.881,1.112,1.358,1.636
			c0,0-4.454,32.616,27.342,32.616c31.795,0,27.342-32.616,27.342-32.616c3.938-4.33,6.346-10.075,6.365-16.37
			c24.525-12.669,44.454-32.747,57.069-56.896v158.109c-16.537,4.979-30.848,13.194-42.592,24.491
			c-16.143,15.528-26.937,36.506-32.157,62.405h-159.81c-1.41-6.991-3.229-13.663-5.438-19.898
			c-1.382-3.904-5.667-5.951-9.573-4.565c-3.904,1.382-5.948,5.669-4.565,9.573c1.66,4.69,3.077,9.676,4.243,14.891h-8.006
			C124.798,489.432,101.733,466.367,101.733,438.015z M359.632,489.432h-7.993c9.758-43.586,35.797-62.809,59.409-71.121v19.704
			C411.048,466.367,387.983,489.432,359.632,489.432z"/>
	</g>
</g>
<g>
</g>
<g>
</g>
<g>
</g>
<g>
</g>
<g>
</g>
<g>
</g>
<g>
</g>
<g>
</g>
<g>
</g>
<g>
</g>
<g>
</g>
<g>
</g>
<g>
</g>
<g>
</g>
<g>
</g>
</svg>
