<?xml version="1.0" encoding="iso-8859-1"?>
<!-- Generator: Adobe Illustrator 19.0.0, SVG Export Plug-In . SVG Version: 6.00 Build 0)  -->
<svg version="1.1" id="Layer_1" xmlns="http://www.w3.org/2000/svg" xmlns:xlink="http://www.w3.org/1999/xlink" x="0px" y="0px"
	 viewBox="0 0 512.025 512.025" style="enable-background:new 0 0 512.025 512.025;" xml:space="preserve">
<g id="soup">
	<g id="fill_40_">
		<path style="fill:#7AC1DD;" d="M299.911,504.525h-83.822c-21.607,0-39.122-17.516-39.122-39.122v-44.552h162.066v44.552
			C339.033,487.01,321.517,504.525,299.911,504.525z"/>
		<path style="fill:#61A5CE;" d="M176.967,465.403c0,4.613,0.798,9.039,2.265,13.149c92.413,3.388,140.24-11.022,159.801-19.387
			v-38.314H176.967V465.403z"/>
		<path style="fill:#8ED7E8;" d="M297.727,446.999h-83.429c-72.635,0-131.517-58.882-131.517-131.517v-82.898h346.462v82.898
			C429.244,388.117,370.362,446.999,297.727,446.999z"/>
		<path style="fill:#7AC1DD;" d="M82.782,232.585v82.898C82.782,388.118,141.664,447,214.298,447h15.225
			c-3.273-4.553-6.05-9.48-8.373-14.645c-16.939-37.658-0.577-82.314,36.703-100.07c43.142-20.547,60.664-55.249,60.664-55.249
			l0.639-44.452H82.782z"/>
		<path style="fill:#ABEBF4;" d="M427.937,277.037H84.089c-19.415,0-35.3-15.885-35.3-35.3v0c0-19.415,15.885-35.3,35.3-35.3
			h343.848c19.415,0,35.3,15.885,35.3,35.3v0C463.236,261.152,447.351,277.037,427.937,277.037z"/>
		<path style="fill:#8ED7E8;" d="M142.785,241.737L142.785,241.737c0-19.415,15.885-35.3,35.3-35.3H84.089
			c-19.415,0-35.3,15.885-35.3,35.3l0,0c0,19.415,15.885,35.3,35.3,35.3h93.996C158.67,277.037,142.785,261.152,142.785,241.737z"/>
		<path style="fill:#FFF0D9;" d="M244.997,171.633c-6.068-5.514-16.224-14.745-16.224-31.853s10.156-26.339,16.224-31.853
			c5.35-4.862,5.536-5.497,5.536-7.698c0-2.198-0.186-2.834-5.535-7.694c-6.069-5.515-16.225-14.744-16.225-31.852
			s10.157-26.338,16.225-31.852c5.349-4.86,16.62-24.339,28.869-20.901c14.409,4.045,8.339,23.02,6.822,26.923
			c-3.397,8.737-9.545,14.323-13.739,18.135c-5.349,4.86-5.536,5.495-5.536,7.695c0,2.199,0.186,2.835,5.536,7.695
			c6.068,5.514,16.225,14.743,16.225,31.851c0,17.109-10.156,26.339-16.224,31.853c-5.35,4.862-5.536,5.497-5.536,7.698
			s0.186,2.836,5.536,7.698c4.305,3.912,10.668,9.695,14.002,18.835c1.365,3.743,3.127,13.065-4.721,18.695
			C266.345,192.1,250.347,176.495,244.997,171.633z"/>
		<path style="fill:#FFF0D9;" d="M155.331,171.633c-6.068-5.514-16.224-14.745-16.224-31.853s10.156-26.339,16.224-31.853
			c5.35-4.862,7.724-22.842,19.573-24.488c8.122-1.128,18.604-0.318,18.604,16.79c0,6.416-1.428,11.724-3.533,16.143
			c-3.509,7.366-8.898,12.264-12.691,15.71c-5.35,4.862-5.536,5.497-5.536,7.698s0.186,2.836,5.536,7.698
			c4.305,3.912,10.668,9.695,14.002,18.835c1.365,3.743,3.127,13.065-4.721,18.695C176.679,192.1,160.681,176.495,155.331,171.633z"
			/>
		<path style="fill:#FFF0D9;" d="M334.742,171.633c-6.068-5.514-16.224-14.745-16.224-31.853s10.156-26.339,16.224-31.853
			c5.35-4.862,7.724-22.842,19.573-24.488c8.122-1.128,18.604-0.318,18.604,16.79c0,6.416-1.428,11.724-3.533,16.143
			c-3.509,7.366-8.898,12.264-12.691,15.71c-5.35,4.862-5.536,5.497-5.536,7.698s0.186,2.836,5.536,7.698
			c4.305,3.912,10.668,9.695,14.002,18.835c1.365,3.743,3.127,13.065-4.721,18.695C356.09,192.1,340.092,176.495,334.742,171.633z"
			/>
		<path style="fill:#57565C;" d="M256.012,383.271L256.012,383.271c-15.52,0-28.1-12.581-28.1-28.1v-20.43
			c0-4.237,3.434-7.671,7.671-7.671h40.859c4.237,0,7.671,3.434,7.671,7.671v20.43C284.112,370.69,271.532,383.271,256.012,383.271z
			"/>
		<ellipse style="fill:#FFA6BB;" cx="162.017" cy="355.17" rx="29.973" ry="23.869"/>
		<ellipse style="fill:#FFA6BB;" cx="350.008" cy="355.17" rx="29.973" ry="23.869"/>
		<path style="fill:#57565C;" d="M336.67,342.068c-4.143,0-7.5-3.358-7.5-7.5v-12.451c0-4.142,3.357-7.5,7.5-7.5
			c4.143,0,7.5,3.358,7.5,7.5v12.451C344.17,338.71,340.812,342.068,336.67,342.068z"/>
		<path style="fill:#57565C;" d="M175.356,342.068c-4.143,0-7.5-3.358-7.5-7.5v-12.451c0-4.142,3.357-7.5,7.5-7.5
			c4.143,0,7.5,3.358,7.5,7.5v12.451C182.856,338.71,179.499,342.068,175.356,342.068z"/>
	</g>
	<g id="stroke_40_">
		<path d="M336.67,314.617c-4.143,0-7.5,3.358-7.5,7.5v12.451c0,4.142,3.357,7.5,7.5,7.5c4.143,0,7.5-3.358,7.5-7.5v-12.451
			C344.17,317.975,340.812,314.617,336.67,314.617z"/>
		<path d="M175.356,314.617c-4.143,0-7.5,3.358-7.5,7.5v12.451c0,4.142,3.357,7.5,7.5,7.5c4.143,0,7.5-3.358,7.5-7.5v-12.451
			C182.856,317.975,179.499,314.617,175.356,314.617z"/>
		<path d="M470.736,241.736c0-23.6-19.2-42.8-42.8-42.8H84.089c-23.6,0-42.8,19.2-42.8,42.801c0,20.581,14.604,37.812,33.993,41.884
			v31.861c0,30.575,9.736,59.584,28.155,83.89c16.706,22.045,39.997,38.845,66.03,47.735v18.296
			c0,25.707,20.915,46.622,46.622,46.622h83.822c25.708,0,46.622-20.915,46.622-46.622v-19.756
			c52.649-19.806,90.211-70.677,90.211-130.165v-31.861C456.132,279.549,470.736,262.318,470.736,241.736z M427.937,269.537h-42.174
			c-4.142,0-7.5,3.357-7.5,7.5c0,4.143,3.358,7.5,7.5,7.5h35.981v30.945c0,68.383-55.634,124.017-124.017,124.017
			c0,0-87.339-0.045-89.273-0.135c-4.153-0.194-7.647,3.008-7.838,7.147c-0.191,4.138,3.008,7.646,7.146,7.838
			c2.164,0.1,89.965,0.15,89.965,0.15c11.656,0,22.979-1.45,33.806-4.165v15.069c0,17.437-14.185,31.622-31.622,31.622h-83.822
			c-17.437,0-31.622-14.185-31.622-31.622l-0.153-24.265c-0.184-3.06-2.238-5.82-5.347-6.742
			c-25.095-7.444-47.674-23.101-63.575-44.084c-16.427-21.678-25.11-47.553-25.11-74.83v-30.945h265.482c4.142,0,7.5-3.357,7.5-7.5
			c0-4.143-3.358-7.5-7.5-7.5H84.089c-15.329,0-27.8-12.472-27.8-27.801s12.471-27.8,27.8-27.8h343.848
			c15.329,0,27.8,12.472,27.8,27.801S443.266,269.537,427.937,269.537z"/>
		<path d="M221.273,139.78c0,20.427,34.73,68.503,59.329,51.321c10.255-7.163,10.423-19.327,7.396-27.359
			c-4.744-12.585-17.767-23.438-18.31-23.962c0.543-0.525,20.986-15.085,20.986-39.552c0-24.645-20.442-39.021-20.984-39.546
			c0.543-0.525,13.954-12.733,17.989-23.112c1.03-2.649,5.903-16.392,0.682-26.846c-2.476-4.958-6.787-8.421-12.467-10.016
			c-14.129-3.971-25.221,9.666-31.851,17.812c-2.615,3.213-2.13,7.937,1.083,10.551c3.212,2.615,7.936,2.131,10.551-1.082
			c3.737-4.592,11.508-14.148,16.163-12.839c2.014,0.565,5.53,5.374,1.858,16.984c-2.293,7.252-7.977,11.834-11.792,15.302
			c-5.398,4.904-7.993,7.516-7.993,13.246c0,5.73,2.595,8.342,7.992,13.246c5.811,5.279,13.769,12.51,13.769,26.3
			c0,13.791-7.958,21.022-13.769,26.304c-5.397,4.905-7.992,7.518-7.992,13.248s2.595,8.343,7.994,13.249
			c3.924,3.567,9.299,8.452,11.999,15.854c0.581,1.592,1.984,6.803-2.047,10.031c-8.35,6.687-35.585-25.344-35.585-39.134
			s7.957-21.023,13.768-26.304c5.398-4.905,7.992-7.517,7.992-13.248c0-5.73-2.595-8.342-7.992-13.244
			c-5.811-5.28-13.768-12.513-13.768-26.302c0-3.711,0.593-7.221,1.763-10.434c1.417-3.893-0.589-8.196-4.481-9.613
			c-3.893-1.418-8.196,0.589-9.614,4.48c-1.771,4.862-2.668,10.1-2.668,15.566c0,28.098,20.442,39.023,20.985,39.548
			C241.714,100.755,221.273,111.884,221.273,139.78z"/>
		<path d="M190.936,191.102c10.157-7.302,10.339-19.296,7.395-27.359c-4.824-13.215-17.767-23.438-18.309-23.962
			c0.543-0.525,11.448-7.735,16.724-20.184c2.566-6.055,4.262-12.454,4.262-19.368c0-8.898-2.471-15.563-7.345-19.806
			c-7.093-6.176-16.655-4.883-19.791-4.413c-17.69,2.65-22.815,25.602-23.585,26.366c-6.528,5.933-18.68,16.976-18.68,37.404
			S168.787,207.024,190.936,191.102z M160.376,113.477c2.986-2.714,4.828-6.726,6.778-10.973c2.395-5.216,7.928-15.682,16.66-10.769
			c6.25,3.517,1.277,17.449-0.609,21.411c-2.874,6.034-7.36,10.11-10.964,13.386c-5.398,4.905-7.992,7.518-7.992,13.248
			s2.595,8.343,7.994,13.249c3.924,3.567,9.299,8.452,11.999,15.854c0.58,1.592,1.977,6.794-2.047,10.031
			c-9.835,7.912-35.585-25.343-35.585-39.134S154.565,118.758,160.376,113.477z"/>
		<path d="M370.347,191.102c10.157-7.302,10.339-19.296,7.396-27.359c-4.824-13.215-17.767-23.438-18.31-23.962
			c0.543-0.525,11.448-7.735,16.724-20.184c2.566-6.055,4.262-12.454,4.262-19.368c0-8.898-2.471-15.563-7.345-19.806
			c-7.093-6.176-16.655-4.883-19.791-4.413c-17.69,2.65-22.815,25.602-23.585,26.366c-6.528,5.933-18.68,16.976-18.68,37.404
			S348.198,207.024,370.347,191.102z M339.786,113.477c2.986-2.714,4.828-6.726,6.778-10.973c2.395-5.216,7.928-15.682,16.66-10.769
			c6.25,3.517,1.277,17.449-0.609,21.411c-2.875,6.034-7.36,10.11-10.964,13.386c-5.398,4.905-7.992,7.518-7.992,13.248
			s2.595,8.343,7.994,13.249c3.924,3.567,9.299,8.452,11.999,15.854c0.581,1.592,1.977,6.794-2.047,10.031
			c-9.835,7.912-35.585-25.343-35.585-39.134S333.975,118.758,339.786,113.477z"/>
		<path d="M276.442,319.57h-40.859c-8.365,0-15.171,6.806-15.171,15.171v20.43c0,19.63,15.97,35.6,35.6,35.6
			c19.629,0,35.6-15.97,35.601-35.6v-20.43C291.613,326.376,284.808,319.57,276.442,319.57z M276.613,355.171
			c0,11.358-9.242,20.6-20.601,20.6c-11.359,0-20.6-9.241-20.6-20.6v-20.43c0-0.094,41.201-0.094,41.201,0V355.171z"/>
	</g>
</g>
<g>
</g>
<g>
</g>
<g>
</g>
<g>
</g>
<g>
</g>
<g>
</g>
<g>
</g>
<g>
</g>
<g>
</g>
<g>
</g>
<g>
</g>
<g>
</g>
<g>
</g>
<g>
</g>
<g>
</g>
</svg>
