<?xml version="1.0" encoding="iso-8859-1"?>
<!-- Generator: Adobe Illustrator 19.0.0, SVG Export Plug-In . SVG Version: 6.00 Build 0)  -->
<svg version="1.1" id="Layer_1" xmlns="http://www.w3.org/2000/svg" xmlns:xlink="http://www.w3.org/1999/xlink" x="0px" y="0px"
	 viewBox="0 0 512 512" style="enable-background:new 0 0 512 512;" xml:space="preserve">
<g id="raincoat">
	<g id="fill_41_">
		<path style="fill:#FFCD00;" d="M106.427,259.25c0,0-34.345,7.093-34.184,72.512V477.35c0,14.995,12.156,27.15,27.15,27.15h74.765
			V259.25H106.427z"/>
		<path style="fill:#EDBF00;" d="M106.427,259.25c0,0-34.345,7.092-34.184,72.512v105.234
			c27.263-65.821,68.875-60.881,101.915-90.566v-87.18H106.427z"/>
		<path style="fill:#FFDE55;" d="M405.573,259.25c0,0,34.345,7.093,34.184,72.512V477.35c0,14.995-12.156,27.15-27.15,27.15h-74.765
			V259.25H405.573z"/>
		<path style="fill:#FFEB99;" d="M334.629,201.454c13.877-53.985,10.91-104.415,10.91-104.415H166.461
			c0,0-2.966,50.43,10.91,104.415c4.455,17.332-5.141,35.18-22.068,40.99c-22.553,7.74-48.876,16.806-48.876,16.806
			s38.614-1.133,53.095,41.58c3.083,9.093,4.408,18.684,4.261,28.283c-0.516,33.763,0.284,175.386,0.284,175.386h183.866
			c0,0,0.8-141.624,0.284-175.386c-0.147-9.6,1.179-19.191,4.261-28.283c14.48-42.713,53.095-41.58,53.095-41.58
			s-26.323-9.066-48.876-16.806C339.77,236.634,330.173,218.786,334.629,201.454z"/>
		<path style="fill:#FFDE55;" d="M259.792,97.039h-93.331c0,0-2.966,50.43,10.91,104.415c4.455,17.332-5.141,35.18-22.068,40.989
			c-22.553,7.741-48.876,16.806-48.876,16.806s38.614-1.133,53.095,41.58c3.083,9.093,4.408,18.684,4.261,28.283
			c-0.516,33.763,0.284,175.386,0.284,175.386h95.725V97.039z"/>
		<path style="fill:#FFCD00;" d="M189.986,328.025c47.991-72.057-12.615-126.57-12.615-126.571
			c4.455,17.332-5.141,35.18-22.068,40.989c-22.553,7.741-48.876,16.806-48.876,16.806s38.614-1.133,53.095,41.58
			c3.083,9.093,4.408,18.684,4.261,28.284c-0.088,5.777-0.138,14.713-0.16,25.556C173.022,348.244,181.964,340.07,189.986,328.025z"
			/>
		<path style="fill:#FFDE55;" d="M259.792,290.754c61.934,0,96.905-48.311,96.905-48.311c-16.927-5.809-26.523-23.657-22.068-40.99
			c13.877-53.985,10.91-104.415,10.91-104.415H166.461c0,0-2.966,50.43,10.91,104.415c4.455,17.332-5.141,35.18-22.068,40.99
			C155.304,242.444,197.858,290.754,259.792,290.754z"/>
		<path style="fill:#FFCD00;" d="M259.792,97.039h-93.331c0,0-2.966,50.43,10.91,104.415c4.455,17.332-5.141,35.18-22.068,40.99
			c0,0,42.554,48.311,104.488,48.311L259.792,97.039L259.792,97.039z"/>
		<path style="fill:#EDBF00;" d="M177.371,201.454c4.455,17.332-5.141,35.18-22.068,40.99c0,0,20.125,22.84,52.822,37.111
			C212.307,232.887,177.371,201.454,177.371,201.454z"/>
		<path style="fill:#C6A82C;" d="M345.539,97.039c0,49.451-40.088,129.792-89.539,129.792s-89.539-80.341-89.539-129.792
			S206.549,7.5,256,7.5S345.539,47.588,345.539,97.039z"/>
		<path style="fill:#B29724;" d="M256,226.831c40.677,0,75.018-54.361,85.925-101.173C325.653,89.056,293.28,64.108,256,64.108
			s-69.65,24.96-85.922,61.562C180.985,172.482,215.324,226.831,256,226.831z"/>
		<circle style="fill:#898890;" cx="289.429" cy="256" r="7.5"/>
		<circle style="fill:#898890;" cx="289.429" cy="328.025" r="7.5"/>
		<circle style="fill:#898890;" cx="289.429" cy="400.05" r="7.5"/>
		<circle style="fill:#898890;" cx="289.429" cy="472.075" r="7.5"/>
	</g>
	<g id="stroke_41_">
		<circle cx="289.429" cy="256" r="7.5"/>
		<circle cx="289.429" cy="328.025" r="7.5"/>
		<circle cx="289.429" cy="400.05" r="7.5"/>
		<circle cx="289.429" cy="472.075" r="7.5"/>
		<path d="M407.709,252.053c-2.993-1.031-27.441-9.449-48.578-16.703c-13.125-4.504-20.697-18.572-17.238-32.028
			c13.744-53.47,11.355-102.722,11.143-106.547c-0.069-25.934-10.229-50.275-28.632-68.564c-2.939-2.921-7.688-2.906-10.607,0.032
			c-2.92,2.938-2.905,7.686,0.033,10.607c15.611,15.516,24.209,36.182,24.209,58.19c0,23.57-9.855,54.776-25.108,79.503
			c-16.775,27.193-37.525,42.789-56.931,42.789s-40.155-15.596-56.931-42.789c-15.253-24.727-25.108-55.933-25.108-79.503
			C173.961,51.803,210.764,15,256,15c11.874,0,23.324,2.479,34.032,7.367c3.768,1.72,8.217,0.061,9.938-3.707
			c1.72-3.769,0.06-8.218-3.708-9.938C283.584,2.935,270.038,0,256,0c-53.418,0-96.89,43.386-97.036,96.771
			c-0.211,3.804-2.604,53.068,11.143,106.551c3.459,13.456-4.113,27.524-17.238,32.028c-21.137,7.254-45.585,15.672-48.578,16.703
			c-5.251,1.376-39.712,12.961-39.548,79.709V477.35c0,19.106,15.544,34.65,34.65,34.65h313.213c19.107,0,34.65-15.544,34.65-34.65
			V331.78C447.421,265.015,412.96,253.428,407.709,252.053z M325.697,184.417c2.718-4.407,5.268-8.974,7.637-13.646
			c-1.507,9.309-3.449,19.011-5.969,28.815c-4.493,17.477,2.96,35.611,17.406,45.246c-11.215,11.884-38.152,35.434-77.479,38.159
			v-49.862C288.43,228.659,308.83,211.759,325.697,184.417z M184.635,199.587c-2.521-9.809-4.471-19.521-5.978-28.833
			c2.372,4.677,4.924,9.251,7.646,13.664c18.877,30.6,42.179,48.118,65.988,49.772v48.805
			c-40.151-2.724-71.137-26.592-84.366-38.633C181.914,234.614,189.055,216.782,184.635,199.587z M99.394,497
			c-10.835,0-19.65-8.815-19.65-19.65V331.743c-0.131-53.495,23.372-63.589,27.679-64.988c5.02,0.154,33.508,2.595,44.996,36.483
			c2.704,7.976,4.004,16.643,3.865,25.761c-0.358,23.392-0.083,98.602,0.112,141.352c0.019,4.131,3.373,7.466,7.499,7.466
			c0.011,0,0.023,0,0.035,0c4.142-0.018,7.485-3.393,7.466-7.534c-0.195-42.694-0.469-117.792-0.114-141.055
			c0.166-10.837-1.401-21.201-4.657-30.806c-7.866-23.201-22.384-34.66-33.934-40.279c6.436-2.213,13.547-4.657,20.498-7.044
			c11.2,11.233,47.988,43.937,99.102,46.927V497H99.394z M267.292,497V298.024c50.04-2.96,81.763-34.846,91.95-46.778
			c6.813,2.34,13.764,4.728,20.067,6.896c-11.549,5.619-26.068,17.078-33.934,40.279c-3.256,9.604-4.823,19.969-4.657,30.806
			c0.441,28.84-0.089,138.106-0.245,167.772H267.292z M432.257,477.35c0,10.835-8.815,19.65-19.65,19.65h-57.133
			c0.155-29.78,0.685-139.044,0.242-168.001c-0.139-9.118,1.161-17.785,3.865-25.761c11.528-34.006,39.87-36.353,44.995-36.486
			c1.63,0.542,6.941,2.697,12.465,9.114c6.984,8.112,15.293,24.393,15.216,55.895V477.35z"/>
	</g>
</g>
<g>
</g>
<g>
</g>
<g>
</g>
<g>
</g>
<g>
</g>
<g>
</g>
<g>
</g>
<g>
</g>
<g>
</g>
<g>
</g>
<g>
</g>
<g>
</g>
<g>
</g>
<g>
</g>
<g>
</g>
</svg>
