<?xml version="1.0" encoding="iso-8859-1"?>
<!-- Generator: Adobe Illustrator 19.0.0, SVG Export Plug-In . SVG Version: 6.00 Build 0)  -->
<svg version="1.1" id="Layer_1" xmlns="http://www.w3.org/2000/svg" xmlns:xlink="http://www.w3.org/1999/xlink" x="0px" y="0px"
	 viewBox="0 0 511.802 511.802" style="enable-background:new 0 0 511.802 511.802;" xml:space="preserve">
<g id="cloud_2">
	<g id="fill_42_">
		<path style="fill:#FFEB99;" d="M237.959,280.179l-48.1,96.141c-7.367,14.726,3.34,32.056,19.806,32.056h40.244l-31.132,56.928
			c-7.721,14.119,11.159,27.577,21.987,15.672l76.155-83.728c12.939-14.225,2.846-37.049-16.384-37.049H269.5l54.846-90.903
			L237.959,280.179z"/>
		<path style="fill:#FFDE55;" d="M324.346,269.296l-86.387,10.883l-40.794,81.539c30.989-12.794,59.942-11.164,82.777-18.824
			L324.346,269.296z"/>
		<path style="fill:#ACABB1;" d="M468.828,89.44c-24.648-22.548-56.81-31.681-87.547-27.827
			c-15.749,1.975-31.632-1.836-44.778-10.731c-22.994-15.558-50.722-24.646-80.575-24.646c-29.848,0-57.571,9.085-80.562,24.637
			c-12.936,8.751-28.563,12.876-44.047,10.831C98.729,57.4,64.575,67.75,39.524,92.791c-42.78,42.764-42.812,112.003-0.071,154.807
			c25.055,25.092,59.249,35.47,91.881,31.156c15.479-2.046,31.101,2.085,44.033,10.833c22.992,15.552,50.715,24.638,80.562,24.638
			c29.846,0,57.568-9.084,80.559-24.635c13.231-8.949,29.215-12.636,45.071-10.697c33.942,4.153,69.313-7.601,94.153-34.755
			C516.53,199.518,513.448,130.258,468.828,89.44z"/>
		<path style="fill:#8ED7E8;" d="M140.868,375.911c0,17.634-14.296,31.93-31.93,31.93c-17.634,0-31.93-14.296-31.93-31.93
			c0-17.634,14.295-55.345,31.93-55.345C126.573,320.566,140.868,358.277,140.868,375.911z"/>
		<path style="fill:#8ED7E8;" d="M434.623,413.449c0,17.634-14.296,31.93-31.93,31.93c-17.634,0-31.93-14.296-31.93-31.93
			c0-17.634,14.296-55.345,31.93-55.345C420.327,358.104,434.623,395.815,434.623,413.449z"/>
		<path style="fill:#57565C;" d="M336.575,180.029c-4.143,0-7.5-3.358-7.5-7.5v-12.451c0-4.142,3.357-7.5,7.5-7.5s7.5,3.358,7.5,7.5
			v12.451C344.075,176.671,340.717,180.029,336.575,180.029z"/>
		<path style="fill:#57565C;" d="M175.261,180.029c-4.143,0-7.5-3.358-7.5-7.5v-12.451c0-4.142,3.357-7.5,7.5-7.5
			c4.143,0,7.5,3.358,7.5,7.5v12.451C182.761,176.671,179.404,180.029,175.261,180.029z"/>
		<path style="fill:#57565C;" d="M255.918,187.882c-9.707,0-19.414-3.141-27.514-9.424c-3.274-2.539-3.868-7.25-1.329-10.523
			c2.537-3.274,7.25-3.869,10.522-1.33c10.787,8.367,25.853,8.367,36.641,0c3.271-2.539,7.984-1.944,10.522,1.33
			c2.539,3.273,1.944,7.984-1.329,10.523C275.332,184.741,265.625,187.882,255.918,187.882z"/>
		<path style="fill:#9C9CA0;" d="M210.086,209.842c-107.349-23.585-107.018-102.705-96.713-149.029
			C86.559,61.67,60,72.323,39.524,92.791c-42.78,42.765-42.812,112.002-0.071,154.807c25.055,25.092,59.249,35.47,91.881,31.156
			c15.479-2.046,31.101,2.085,44.033,10.833c22.992,15.552,50.715,24.638,80.563,24.638c29.846,0,57.568-9.084,80.559-24.635
			c2.148-1.453,4.365-2.765,6.646-3.939C319.379,255.911,278.908,224.962,210.086,209.842z"/>
	</g>
	<g id="stroke_42_">
		<path d="M329.075,160.079v12.451c0,4.142,3.358,7.5,7.5,7.5c4.143,0,7.5-3.358,7.5-7.5v-12.451c0-4.142-3.357-7.5-7.5-7.5
			C332.432,152.579,329.075,155.936,329.075,160.079z"/>
		<path d="M167.761,160.079v12.451c0,4.142,3.357,7.5,7.5,7.5c4.143,0,7.5-3.358,7.5-7.5v-12.451c0-4.142-3.357-7.5-7.5-7.5
			C171.119,152.579,167.761,155.936,167.761,160.079z"/>
		<path d="M274.238,166.606c-10.787,8.367-25.853,8.367-36.641,0c-3.272-2.539-7.985-1.944-10.522,1.329
			c-2.539,3.273-1.944,7.984,1.329,10.523c8.1,6.283,17.807,9.424,27.514,9.424s19.414-3.141,27.514-9.424
			c3.273-2.539,3.868-7.25,1.329-10.523C282.223,164.662,277.51,164.067,274.238,166.606z"/>
		<path d="M511.802,165.03c0-59.801-46.656-88.558-51.354-91.74c-3.431-2.323-8.093-1.426-10.416,2.002
			c-2.323,3.43-1.427,8.093,2.002,10.416c4.098,2.776,44.782,34.507,44.782,79.989c0,27.244-8.249,53.276-26.639,73.378
			c-22.204,24.273-54.985,36.375-87.709,32.374c-17.775-2.18-35.596,2.061-50.184,11.929
			c-22.582,15.274-48.985,23.348-76.357,23.348c-27.372,0-53.777-8.074-76.36-23.35c-14.803-10.015-32.283-14.295-49.218-12.058
			c-31.782,4.206-62.979-6.374-85.59-29.02C5.044,202.523,5.074,137.834,44.826,98.096c22.603-22.596,53.771-33.144,85.512-28.957
			c16.949,2.238,34.432-2.043,49.231-12.055c22.583-15.274,48.987-23.349,76.36-23.349c27.379,0,53.788,8.077,76.372,23.357
			c14.651,9.912,32.374,14.159,49.914,11.961c14.816-1.854,30.12-0.419,44.255,4.162c3.941,1.279,8.17-0.882,9.447-4.822
			c1.277-3.94-0.882-8.17-4.822-9.447c-16.215-5.255-33.768-6.908-50.746-4.775c-13.932,1.747-28.005-1.629-39.642-9.502
			c-25.076-16.966-54.392-25.934-84.778-25.934c-30.379,0-59.69,8.965-84.764,25.925c-11.757,7.952-25.555,11.364-38.863,9.607
			c-36.398-4.808-72.151,7.3-98.08,33.219c-45.599,45.583-45.633,119.785-0.076,165.411c22.203,22.236,51.614,34.329,82.488,34.327
			c5.193,0,10.434-0.343,15.682-1.036c13.294-1.754,27.089,1.656,38.848,9.61c25.075,16.961,54.386,25.926,84.765,25.926
			c10.095,0,20.066-1.012,29.808-2.956l-22.659,37.555c-1.397,2.316-1.44,5.206-0.109,7.563c1.33,2.355,3.826,3.813,6.531,3.813
			h31.035c5.973,0,10.98,3.261,13.395,8.723c2.416,5.463,1.459,11.361-2.56,15.779l-76.155,83.729
			c-3.378,3.716-7.015,1.599-8.048,0.862c-1.034-0.737-4.219-3.483-1.81-7.889l31.132-56.928c1.271-2.324,1.222-5.146-0.129-7.424
			c-1.351-2.278-3.803-3.675-6.451-3.675h-40.244c-5.191,0-9.732-2.532-12.461-6.948c-2.729-4.416-2.961-9.61-0.639-14.253
			l18.391-36.76c1.853-3.704,0.353-8.21-3.352-10.063c-3.705-1.853-8.209-0.352-10.064,3.352l-18.391,36.76
			c-4.631,9.258-4.148,20.042,1.293,28.849c5.441,8.806,14.87,14.064,25.221,14.064h27.594l-25.063,45.829
			c-5.291,9.674-2.715,20.9,6.264,27.301c3.843,2.739,16.327,8.914,27.851-2.983l76.155-83.729
			c8.012-8.81,9.998-21.048,5.182-31.939c-4.816-10.891-15.206-17.656-27.114-17.656h-17.751l23.973-39.73
			c11.91-4.242,23.305-9.977,33.933-17.166c11.588-7.839,25.783-11.195,39.958-9.465c37.526,4.59,75.126-9.293,100.599-37.138
			C502.339,226.141,511.802,196.281,511.802,165.03z"/>
		<path d="M108.938,313.066c-10.968,0-21.098,8.722-29.294,25.223c-6.063,12.204-10.135,27.323-10.135,37.622
			c0,21.741,17.688,39.43,39.43,39.43s39.43-17.689,39.43-39.43c0-10.299-4.073-25.418-10.135-37.622
			C130.036,321.788,119.906,313.066,108.938,313.066z M108.938,400.341c-13.471,0-24.43-10.959-24.43-24.43
			c0-17.323,14.123-47.845,24.43-47.845s24.43,30.521,24.43,47.845C133.368,389.382,122.409,400.341,108.938,400.341z"/>
		<path d="M402.692,350.604c-10.968,0-21.098,8.722-29.294,25.223c-6.063,12.204-10.136,27.323-10.136,37.622
			c0,21.741,17.689,39.43,39.43,39.43c21.741,0,39.43-17.688,39.43-39.43c0-10.299-4.073-25.418-10.135-37.622
			C423.79,359.326,413.66,350.604,402.692,350.604z M402.692,437.879c-13.471,0-24.43-10.959-24.43-24.43
			c0-17.323,14.123-47.845,24.43-47.845c10.307,0,24.43,30.521,24.43,47.845C427.122,426.92,416.163,437.879,402.692,437.879z"/>
	</g>
</g>
<g>
</g>
<g>
</g>
<g>
</g>
<g>
</g>
<g>
</g>
<g>
</g>
<g>
</g>
<g>
</g>
<g>
</g>
<g>
</g>
<g>
</g>
<g>
</g>
<g>
</g>
<g>
</g>
<g>
</g>
</svg>
