<?xml version="1.0" encoding="iso-8859-1"?>
<!-- Generator: Adobe Illustrator 19.0.0, SVG Export Plug-In . SVG Version: 6.00 Build 0)  -->
<svg version="1.1" id="Layer_1" xmlns="http://www.w3.org/2000/svg" xmlns:xlink="http://www.w3.org/1999/xlink" x="0px" y="0px"
	 viewBox="0 0 511.933 511.933" style="enable-background:new 0 0 511.933 511.933;" xml:space="preserve">
<g id="wind">
	<g id="fill_43_">
		<path style="fill:#ABEBF4;" d="M228.538,235.622H24.682c-9.489,0-17.182-7.693-17.182-17.182c0-9.489,7.693-17.182,17.182-17.182
			h203.856c23.051,0,41.805-18.754,41.805-41.805c0-23.052-18.754-41.806-41.805-41.806c-9.489,0-17.182-7.693-17.182-17.182
			s7.693-17.182,17.182-17.182c42,0,76.169,34.169,76.169,76.169C304.706,201.453,270.537,235.622,228.538,235.622z"/>
		<path style="fill:#ABEBF4;" d="M375.998,447.778c-9.489,0-17.182-7.693-17.182-17.182c0-9.489,7.693-17.182,17.182-17.182
			c23.051,0,41.805-18.754,41.805-41.805s-18.754-41.805-41.805-41.805H182.986c-9.489,0-17.182-7.693-17.182-17.182
			s7.693-17.182,17.182-17.182h193.012c42,0,76.169,34.169,76.169,76.169S417.998,447.778,375.998,447.778z"/>
		<path style="fill:#8ED7E8;" d="M100.915,329.804H24.682c-9.489,0-17.182-7.693-17.182-17.182s7.693-17.182,17.182-17.182h76.233
			c9.489,0,17.182,7.693,17.182,17.182S110.404,329.804,100.915,329.804z"/>
		
			<ellipse transform="matrix(0.7071 0.7071 -0.7071 0.7071 287.274 -260.7767)" style="fill:#F27564;" cx="458.422" cy="216.382" rx="33.856" ry="55.667"/>
		<path style="fill:#E2675A;" d="M462.828,255.085c-17.784-21.014-20.378-49.946-19.435-70.469c-3.051,2.341-6.04,4.956-8.911,7.827
			c-21.739,21.739-28.645,50.081-15.423,63.302C428.542,265.229,445.804,264.357,462.828,255.085z"/>
		<path style="fill:#B2785B;" d="M400.159,274.645c-2.929-2.93-2.929-7.678,0-10.607l58.374-58.375c2.93-2.928,7.678-2.928,10.607,0
			c2.929,2.93,2.929,7.678,0,10.607l-58.374,58.375C406.521,278.602,401.624,276.109,400.159,274.645z"/>
		
			<ellipse transform="matrix(0.2434 0.9699 -0.9699 0.2434 548.6266 99.8029)" style="fill:#97AF8C;" cx="210.342" cy="401.56" rx="33.856" ry="55.667"/>
		<path style="fill:#8C9E82;" d="M202.101,368.723c-29.82,7.483-50.304,28.258-45.753,46.393
			c4.1,16.337,27.118,24.958,53.442,21.039C187.712,402.91,202.101,368.723,202.101,368.723z"/>
		<path style="fill:#B2785B;" d="M130.424,421.615c-1.008-4.018,1.432-8.092,5.449-9.1l80.071-20.094
			c4.013-1.005,8.091,1.431,9.1,5.449c1.008,4.018-1.432,8.092-5.449,9.1l-80.071,20.094
			C134.269,428.392,131.278,425.02,130.424,421.615z"/>
		<ellipse style="fill:#97AF8C;" cx="396.137" cy="98.011" rx="55.667" ry="33.856"/>
		<path style="fill:#8C9E82;" d="M396.137,131.866c9.337,0,18.143-1.4,25.871-3.871c-28.105-15.138-45.643-41.473-54.772-58.925
			c-16.048,5.94-26.767,16.679-26.767,28.94C340.47,116.708,365.393,131.866,396.137,131.866z"/>
		<path style="fill:#B2785B;" d="M471.033,105.511h-82.554c-4.143,0-7.5-3.357-7.5-7.5c0-4.143,3.357-7.5,7.5-7.5h82.554
			c4.143,0,7.5,3.357,7.5,7.5C478.533,102.153,475.176,105.511,471.033,105.511z"/>
	</g>
	<g id="stroke_43_">
		<path d="M24.682,243.122h203.855c46.135,0,83.669-37.534,83.669-83.67c0-46.135-37.534-83.669-83.669-83.669
			c-13.609,0-24.682,11.072-24.682,24.683c0,13.609,11.072,24.682,24.682,24.682c18.916,0,34.306,15.39,34.306,34.306
			c0,18.916-15.39,34.306-34.306,34.306H92.327c-4.143,0-7.5,3.357-7.5,7.5c0,4.143,3.357,7.5,7.5,7.5h136.21
			c27.188,0,49.306-22.118,49.306-49.306s-22.118-49.306-49.306-49.306c-5.339,0-9.682-4.343-9.682-9.682
			c0-5.339,4.343-9.683,9.682-9.683c37.864,0,68.669,30.805,68.669,68.669c0,37.864-30.805,68.67-68.669,68.67H24.682
			c-5.339,0-9.682-4.343-9.682-9.682c0-5.339,4.343-9.682,9.682-9.682h37.468c4.143,0,7.5-3.357,7.5-7.5c0-4.143-3.357-7.5-7.5-7.5
			H24.682C11.072,193.759,0,204.831,0,218.44C0,232.05,11.072,243.122,24.682,243.122z"/>
		<path d="M375.998,287.94H182.986c-13.609,0-24.682,11.072-24.682,24.682c0,13.61,11.072,24.683,24.682,24.683h193.012
			c18.916,0,34.305,15.389,34.305,34.305c0,18.916-15.389,34.305-34.305,34.305c-13.609,0-24.682,11.072-24.682,24.682
			c0,13.61,11.072,24.683,24.682,24.683c21.045,0,41.172-7.872,56.674-22.165c3.045-2.808,3.237-7.553,0.43-10.598
			c-2.808-3.045-7.553-3.237-10.598-0.43c-12.724,11.731-29.239,18.192-46.506,18.192c-5.339,0-9.682-4.344-9.682-9.683
			c0-5.339,4.343-9.682,9.682-9.682c27.187,0,49.305-22.118,49.305-49.305c0-27.186-22.118-49.305-49.305-49.305H182.986
			c-5.339,0-9.682-4.344-9.682-9.683c0-5.339,4.343-9.682,9.682-9.682h193.012c37.864,0,68.669,30.805,68.669,68.669
			c0,9.811-2.034,19.288-6.046,28.168c-1.705,3.775-0.027,8.218,3.747,9.923c3.776,1.705,8.218,0.027,9.923-3.747
			c4.895-10.835,7.376-22.39,7.376-34.344C459.667,325.474,422.133,287.94,375.998,287.94z"/>
		<path d="M100.915,287.94H24.682C11.072,287.94,0,299.013,0,312.622c0,13.61,11.072,24.683,24.682,24.683h76.233
			c13.609,0,24.682-11.072,24.682-24.683C125.597,299.013,114.524,287.94,100.915,287.94z M100.915,322.305H24.682
			c-5.339,0-9.682-4.344-9.682-9.683c0-5.339,4.343-9.682,9.682-9.682h76.233c5.339,0,9.682,4.343,9.682,9.682
			C110.597,317.961,106.254,322.305,100.915,322.305z"/>
		<path d="M503.089,171.716c-16.399-16.396-48.863-9.622-73.91,15.423c-22.271,22.272-30.078,50.399-20.01,67.89l-9.009,9.01
			c-2.929,2.93-2.929,7.678,0,10.607c1.465,1.464,6.362,3.957,10.607,0l8.997-8.997c5.014,2.894,25.46,7.9,46.652-3.978
			c3.613-2.025,4.98-6.536,2.999-10.173c-1.98-3.639-6.536-4.983-10.173-2.999c-10.584,5.765-20.731,7.705-28.052,5.724
			l37.952-37.952c2.929-2.93,2.929-7.678,0-10.607c-2.93-2.928-7.678-2.928-10.607,0l-38.002,38.003
			c-3.323-11.906,4.143-30.809,19.254-45.92c18.464-18.464,42.594-25.527,52.696-15.423c8.661,8.66,4.419,29.002-9.655,46.309
			c-2.614,3.214-2.127,7.938,1.086,10.551c3.215,2.615,7.939,2.127,10.551-1.086C513.955,214.128,517.583,186.211,503.089,171.716z"
			/>
		<path d="M244.914,361.596c-13.049-4.045-28.903-4.099-44.638-0.147c-15.737,3.949-29.688,11.48-39.28,21.207
			c-8.26,8.374-12.628,17.652-12.771,26.761l-12.352,3.1c-4.018,1.008-6.457,5.082-5.449,9.1c0.855,3.405,3.845,6.777,9.1,5.449
			l12.353-3.1c4.426,7.961,12.658,14.078,23.893,17.56c6.607,2.048,25.567,5.046,44.638,0.147
			c34.308-8.812,56.847-32.994,51.202-55.486C268.747,374.776,259.267,366.044,244.914,361.596z M216.757,427.123
			c-34.004,8.479-45.494-3.229-49.238-7.084l52.076-13.068c4.018-1.008,6.457-5.082,5.449-9.1c-1.009-4.018-5.087-6.454-9.1-5.449
			l-52.078,13.069c1.48-5.167,12.678-22.628,40.06-29.494c31.732-7.957,51.057,5.563,53.134,13.839
			C260.538,403.692,242.091,420.806,216.757,427.123z"/>
		<path d="M396.137,139.366c31.497,0,56.907-14.368,62.155-33.855h12.742c4.143,0,7.5-3.357,7.5-7.5c0-4.143-3.357-7.5-7.5-7.5
			h-12.742c-5.248-19.488-30.658-33.856-62.155-33.856c-35.421,0-63.167,18.165-63.167,41.356
			C332.97,121.201,360.716,139.366,396.137,139.366z M396.137,71.655c21.37,0,40.018,8.087,46.087,18.855h-53.744
			c-4.143,0-7.5,3.357-7.5,7.5c0,4.143,3.357,7.5,7.5,7.5h53.744c-6.069,10.769-24.717,18.855-46.087,18.855
			c-26.109,0-48.167-12.069-48.167-26.355C347.97,83.724,370.027,71.655,396.137,71.655z"/>
	</g>
</g>
<g>
</g>
<g>
</g>
<g>
</g>
<g>
</g>
<g>
</g>
<g>
</g>
<g>
</g>
<g>
</g>
<g>
</g>
<g>
</g>
<g>
</g>
<g>
</g>
<g>
</g>
<g>
</g>
<g>
</g>
</svg>
