<?xml version="1.0" encoding="iso-8859-1"?>
<!-- Generator: Adobe Illustrator 19.0.0, SVG Export Plug-In . SVG Version: 6.00 Build 0)  -->
<svg version="1.1" id="Layer_1" xmlns="http://www.w3.org/2000/svg" xmlns:xlink="http://www.w3.org/1999/xlink" x="0px" y="0px"
	 viewBox="0 0 512 512" style="enable-background:new 0 0 512 512;" xml:space="preserve">
<g id="tractor">
	<g id="fill_44_">
		<polygon style="fill:#CCF8FF;" points="78.291,234.925 78.291,39.077 283.998,39.077 340.743,232.081 		"/>
		<path style="fill:#ABEBF4;" d="M167.947,120.204c34.11-22.704,95.599-28.212,130.788-29.436l-14.736-50.121H78.291v110.72
			C108.94,145.567,144.336,135.919,167.947,120.204z"/>
		<polygon style="fill:#ABEBF4;" points="198.106,40.647 78.291,40.647 78.291,236.495 198.106,235.073 		"/>
		<path style="fill:#8ED7E8;" d="M78.291,151.367c30.649-5.801,66.045-15.448,89.656-31.164c8.599-5.724,18.94-10.355,30.16-14.1
			l0-65.456H78.291V151.367z"/>
		<rect x="366.982" y="125.098" style="fill:#ACABB1;" width="36.31" height="119.657"/>
		<path style="fill:#C6C5CA;" d="M396.069,147.379h-21.865c-10.369,0-18.775-8.406-18.775-18.775v-9.487
			c0-10.369,8.406-18.775,18.775-18.775h21.865c10.369,0,18.775,8.406,18.775,18.775v9.487
			C414.845,138.973,406.439,147.379,396.069,147.379z"/>
		<path style="fill:#ED736E;" d="M489.706,411.003H78.291V206.396h355.587c30.833,0,55.829,24.995,55.829,55.829V411.003z"/>
		<path style="fill:#F79389;" d="M126.197,198.459c-30.583,0-59.146,8.808-83.29,24.017c-13.66,8.605-18.844,26.012-12.511,40.863
			l39.173,91.853h175.69c21.75,0,37.843-20.65,32.062-41.618C259.046,247.285,198.216,198.459,126.197,198.459z"/>
		<circle style="fill:#898890;" cx="126.197" cy="355.192" r="118.697"/>
		<path style="fill:#76757F;" d="M126.197,473.889c32.777,0,62.452-13.286,83.931-34.766L42.265,271.26
			C20.786,292.74,7.5,322.415,7.5,355.192C7.5,420.746,60.642,473.889,126.197,473.889z"/>
		<circle style="fill:#898890;" cx="423.949" cy="393.338" r="80.551"/>
		<path style="fill:#76757F;" d="M423.949,473.889c22.243,0,42.381-9.016,56.958-23.593L366.991,336.38
			c-14.577,14.577-23.593,34.715-23.593,56.958C343.398,437.825,379.462,473.889,423.949,473.889z"/>
		<path style="fill:#F79389;" d="M296.219,71.42H75.99c-9.16,0-16.654-7.494-16.654-16.654l0,0c0-9.16,7.495-16.654,16.654-16.654
			h220.23c9.16,0,16.654,7.494,16.654,16.654l0,0C312.874,63.925,305.379,71.42,296.219,71.42z"/>
		<path style="fill:#FFEB99;" d="M423.949,263.862L423.949,263.862c0,10.508,8.598,19.107,19.106,19.107h46.65v-20.743
			c0-6.104-0.977-11.972-2.788-17.47h-43.862C432.547,244.755,423.949,253.353,423.949,263.862z"/>
		<circle style="fill:#ACABB1;" cx="126.197" cy="355.192" r="54.471"/>
		<circle style="fill:#ACABB1;" cx="423.949" cy="393.338" r="33.269"/>
		<path style="fill:#898890;" d="M87.68,316.675c-9.857,9.857-15.954,23.475-15.954,38.516c0,30.083,24.387,54.471,54.471,54.471
			c15.041,0,28.659-6.097,38.517-15.954L87.68,316.675z"/>
		<path style="fill:#898890;" d="M423.949,426.607c9.187,0,17.504-3.724,23.524-9.744l-47.049-47.049
			c-6.021,6.02-9.744,14.338-9.744,23.524C390.681,411.712,405.576,426.607,423.949,426.607z"/>
	</g>
	<g id="stroke_44_">
		<path d="M497.206,344.543v-82.318c0-6.751-2.786-63.329-63.329-63.329h-23.086v-48.539c6.967-4.73,11.554-12.716,11.554-21.753
			v-9.487c0-14.488-11.787-26.275-26.275-26.275h-21.865c-14.488,0-26.275,11.787-26.275,26.275v9.487
			c0,9.037,4.586,17.021,11.553,21.752v48.54h-20.678L303.225,77.88c9.913-3.01,17.149-12.232,17.149-23.115
			c0-13.318-10.836-24.154-24.154-24.154h-29.54c-4.143,0-7.5,3.357-7.5,7.5s3.357,7.5,7.5,7.5h29.54
			c5.048,0,9.154,4.106,9.154,9.154c0,5.048-4.106,9.154-9.154,9.154H75.989c-5.048,0-9.154-4.106-9.154-9.154
			c0-5.048,4.106-9.154,9.154-9.154h160.774c4.143,0,7.5-3.357,7.5-7.5s-3.357-7.5-7.5-7.5H75.989
			c-13.318,0-24.154,10.836-24.154,24.154c0,11.534,8.128,21.2,18.956,23.585v122.254c-11.103,3.988-21.85,9.087-31.882,15.526
			c-34.628,22.224-11.16,60.121-11.16,60.121c-2.977,3.711-5.764,7.587-8.322,11.635C6.718,308.009,0,331.282,0,355.191
			c0,69.585,56.612,126.197,126.197,126.197c46.526,0,87.247-25.312,109.13-62.886h104.242
			c10.853,36.328,44.571,62.886,84.381,62.886c48.552,0,88.051-39.499,88.051-88.051C512,375.303,506.546,358.519,497.206,344.543z
			 M362.929,119.116c0-6.217,5.059-11.275,11.275-11.275h21.865c6.217,0,11.275,5.059,11.275,11.275v9.487
			c0,6.217-5.059,11.275-11.275,11.275h-21.865c-6.217,0-11.275-5.059-11.275-11.275V119.116z M374.481,154.879h21.31v44.017h-21.31
			V154.879z M323.169,198.895H205.606V78.92h82.289L323.169,198.895z M85.791,78.92h104.815v119.976h-14.125
			c-15.96-5.165-32.883-7.936-50.284-7.936c-13.717,0-27.279,1.716-40.406,5.051V78.92z M126.197,466.389
			C64.883,466.389,15,416.506,15,355.191c0-42.454,23.617-80.607,61.636-99.569c3.706-1.85,5.213-6.353,3.364-10.06
			c-1.85-3.706-6.351-5.212-10.06-3.364c-11.451,5.712-21.91,13.111-31.07,21.894c0,0-12.893-22.122,8.034-35.27
			c23.761-14.93,51.163-22.862,79.293-22.862c66.931,0,126.101,45.072,143.893,109.608c2.098,7.606,0.533,15.602-4.291,21.936
			c-3.503,4.6-8.299,7.796-13.694,9.267c-4.348-65.673-59.154-117.776-125.909-117.776c-8.617,0-17.23,0.874-25.6,2.599
			c-4.057,0.836-6.668,4.802-5.832,8.859c0.836,4.058,4.803,6.668,8.859,5.832c7.375-1.52,14.97-2.29,22.572-2.29
			c61.313,0,111.196,49.883,111.196,111.196C237.394,416.506,187.511,466.389,126.197,466.389z M242.773,403.503
			c5.353-12.87,8.637-26.807,9.429-41.398c10.105-1.716,19.167-7.157,25.531-15.512c7.687-10.092,10.172-22.854,6.819-35.012
			c-11.578-41.994-39.078-76.495-74.849-97.686h224.174c17.517,0,32.887,9.37,41.363,23.359h-32.185
			c-14.671,0-26.607,11.936-26.607,26.606s11.936,26.607,26.607,26.607h12.457c4.143,0,7.5-3.357,7.5-7.5s-3.357-7.5-7.5-7.5
			h-12.457c-6.399,0-11.607-5.207-11.607-11.607c0-6.399,5.207-11.606,11.607-11.606h38.111c0.678,3.219,1.04,6.552,1.04,9.97
			v65.151c-15.535-13.737-35.938-22.088-58.257-22.088c-48.552,0-88.051,39.499-88.051,88.051c0,3.438,0.205,6.829,0.59,10.165
			H242.773z M423.949,466.389c-40.28,0-73.051-32.771-73.051-73.051s32.771-73.051,73.051-73.051S497,353.058,497,393.338
			S464.229,466.389,423.949,466.389z"/>
		<path d="M126.197,293.221c-34.171,0-61.971,27.8-61.971,61.971s27.8,61.971,61.971,61.971c34.17,0,61.97-27.8,61.97-61.971
			S160.367,293.221,126.197,293.221z M126.197,402.162c-25.899,0-46.971-21.071-46.971-46.971c0-25.899,21.071-46.971,46.971-46.971
			s46.97,21.071,46.97,46.971C173.167,381.091,152.097,402.162,126.197,402.162z"/>
		<path d="M423.949,352.57c-22.479,0-40.768,18.289-40.768,40.768s18.289,40.769,40.768,40.769c22.48,0,40.769-18.289,40.769-40.769
			S446.429,352.57,423.949,352.57z M423.949,419.107c-14.209,0-25.768-11.56-25.768-25.769c0-14.209,11.56-25.768,25.768-25.768
			c14.209,0,25.769,11.559,25.769,25.768C449.718,407.547,438.158,419.107,423.949,419.107z"/>
	</g>
</g>
<g>
</g>
<g>
</g>
<g>
</g>
<g>
</g>
<g>
</g>
<g>
</g>
<g>
</g>
<g>
</g>
<g>
</g>
<g>
</g>
<g>
</g>
<g>
</g>
<g>
</g>
<g>
</g>
<g>
</g>
</svg>
