<?xml version="1.0" encoding="iso-8859-1"?>
<!-- Generator: Adobe Illustrator 19.0.0, SVG Export Plug-In . SVG Version: 6.00 Build 0)  -->
<svg version="1.1" id="Layer_1" xmlns="http://www.w3.org/2000/svg" xmlns:xlink="http://www.w3.org/1999/xlink" x="0px" y="0px"
	 viewBox="0 0 512 512" style="enable-background:new 0 0 512 512;" xml:space="preserve">
<g id="hay">
	<g id="fill_45_">
		<path style="fill:#FFD097;" d="M357.892,402.608H154.108V109.392h203.784c80.969,0,146.608,65.639,146.608,146.608v0
			C504.5,336.97,438.861,402.608,357.892,402.608z"/>
		<path style="fill:#FFC477;" d="M491.391,316.683c-44.392,0-110.846,0-203.791,0l-133.492,85.926h203.784
			C417.217,402.608,468.314,367.369,491.391,316.683z"/>
		<circle style="fill:#FCE5CA;" cx="154.108" cy="256" r="146.608"/>
		<path style="fill:#FFDAAA;" d="M56.558,146.598C26.463,173.448,7.5,212.496,7.5,256c0,80.97,65.639,146.608,146.608,146.608
			c59.326,0,110.415-35.239,133.492-85.926C287.599,316.683,94.886,319.686,56.558,146.598z"/>
		<path style="fill:#EDBF00;" d="M280.244,316.651c-0.001,0.011-0.001,0.021-0.002,0.031
			C280.255,316.689,280.254,316.676,280.244,316.651z"/>
		<path style="fill:#FFDAAA;" d="M247.559,256c0-39.956-16.077-63.809-29.564-76.781c-17.133-16.481-40.313-25.556-65.269-25.556
			c-24.238,0-47.101,8.486-64.378,23.895c-19.462,17.357-29.748,41.378-29.748,69.463c0,40.37,23.104,73.271,57.491,81.87
			c8.709,2.175,17.536-3.117,19.715-11.827c2.178-8.709-3.117-17.536-11.827-19.714c-19.659-4.916-32.866-25.141-32.866-50.329
			c0-18.555,6.527-34.185,18.876-45.199c11.149-9.943,26.726-15.646,42.737-15.646c16.509,0,31.684,5.851,42.73,16.475
			c12.816,12.328,19.591,30.775,19.591,53.349c0,42.043-23.301,76.586-69.256,102.667c-24.487,13.898-49.375,21.729-63.128,25.384
			c15.302,8.555,32.287,14.449,50.343,17.049c8.998-3.812,18.517-8.349,28.048-13.714C217.645,355.536,247.559,310.103,247.559,256z
			"/>
		<path style="fill:#FFD097;" d="M203.921,302.755c-11.12,21.549-30.543,40.255-58.131,55.912
			c-24.487,13.897-49.375,21.729-63.128,25.383c15.302,8.555,32.287,14.449,50.343,17.049c8.998-3.812,18.517-8.349,28.048-13.714
			c36.148-20.345,61.412-46.233,74.948-76.38C226.086,309.026,215.232,306.354,203.921,302.755z"/>
		<path style="fill:#FFD097;" d="M116.09,328.892c8.709,2.175,17.536-3.117,19.715-11.827c2.178-8.709-3.117-17.536-11.827-19.714
			c-19.659-4.916-32.866-25.141-32.866-50.329c0-6.575,0.82-12.786,2.428-18.551c-7.566-9.943-14.431-20.995-20.369-33.305
			c-9.592,14.733-14.572,32.308-14.572,51.856C58.599,287.391,81.703,320.292,116.09,328.892z"/>
		<circle style="fill:#FFC477;" cx="427.707" cy="201.862" r="15"/>
		<circle style="fill:#FFC477;" cx="361.681" cy="161.574" r="15"/>
		<circle style="fill:#FFC477;" cx="433.721" cy="274.591" r="15"/>
		<circle style="fill:#FFC477;" cx="355.111" cy="241" r="15"/>
	</g>
	<g id="stroke_45_">
		<path d="M460.451,140.972c-3.091-2.756-7.832-2.487-10.589,0.604c-2.758,3.091-2.488,7.832,0.603,10.59
			C480.039,178.551,497,216.396,497,256c0,76.705-62.403,139.108-139.108,139.108H220.391
			c51.893-24.826,87.825-77.848,87.825-139.108s-35.932-114.282-87.825-139.108h137.501c23.761,0,47.185,6.138,67.814,17.618
			c4.211,2.344,8.833-0.427,10.207-2.883c2.022-3.615,0.731-8.186-2.884-10.207c-22.835-12.775-48.817-19.528-75.137-19.528H154.108
			C69.133,101.892,0,171.024,0,256s69.133,154.108,154.108,154.108h203.784C442.868,410.108,512,340.976,512,256
			C512,212.127,493.211,170.2,460.451,140.972z M15,256c0-76.705,62.404-139.108,139.108-139.108S293.216,179.295,293.216,256
			c0,73.673-57.571,134.142-130.085,138.808c0.533-0.295,22.38-11.641,35.238-23.826c3.007-2.849,3.625-7.375,0.979-10.561
			c-2.647-3.188-7.375-3.625-10.561-0.979c-9.253,7.684-19.822,14.887-31.413,21.409c-7.914,4.454-16.433,8.651-25.338,12.5
			c-9.906-1.586-19.468-4.217-28.564-7.785c13.259-4.509,29.745-11.139,46.02-20.376c48.476-27.511,73.055-64.248,73.055-109.19
			c0-24.661-7.57-44.977-21.892-58.754c-12.449-11.976-29.47-18.57-47.929-18.57c-17.827,0-35.224,6.396-47.729,17.549
			c-13.99,12.478-21.384,30.042-21.384,50.797c0,28.689,15.578,51.502,38.547,57.606c7.442,1.977,6.938,8.349,6.37,10.618
			c-1.171,4.683-5.932,7.546-10.619,6.37c-30.989-7.749-51.811-37.727-51.811-74.594c0-25.888,9.42-47.973,27.241-63.866
			c15.901-14.182,36.992-21.992,59.386-21.992c23.008,0,44.342,8.332,60.07,23.462c12.438,11.963,27.263,34.056,27.263,71.375
			c0,30.734-10.148,58.496-30.164,82.513c-2.652,3.183-2.222,7.911,0.96,10.564c3.182,2.651,7.912,2.222,10.563-0.96
			c22.322-26.786,33.64-57.778,33.64-92.116c0-42.597-17.328-68.204-31.864-82.186c-18.537-17.831-43.563-27.651-70.469-27.651
			c-26.081,0-50.717,9.161-69.37,25.797c-21.102,18.821-32.256,44.776-32.256,75.061c0,43.872,25.387,79.696,63.174,89.146
			c12.708,3.175,25.631-4.579,28.808-17.284c1.54-6.155,2.63-23.523-17.283-28.81c-16.2-4.301-27.186-21.367-27.186-43.053
			c0-16.357,5.66-30.052,16.368-39.602c9.794-8.734,23.552-13.744,37.746-13.744c14.561,0,27.89,5.107,37.53,14.381
			c11.311,10.88,17.29,27.459,17.29,47.943c0,39.146-22.023,71.493-65.458,96.145c-22.276,12.644-45.065,20.131-58.312,23.829
			C42.659,351.777,15,307.061,15,256z"/>
		<path d="M427.707,179.361c-12.407,0-22.5,10.094-22.5,22.5c0,12.406,10.093,22.5,22.5,22.5c12.407,0,22.5-10.094,22.5-22.5
			C450.207,189.455,440.114,179.361,427.707,179.361z M427.707,209.361c-4.136,0-7.5-3.364-7.5-7.5c0-4.136,3.364-7.5,7.5-7.5
			c4.136,0,7.5,3.364,7.5,7.5C435.207,205.997,431.843,209.361,427.707,209.361z"/>
		<path d="M361.681,139.074c-12.407,0-22.5,10.094-22.5,22.5c0,12.406,10.093,22.5,22.5,22.5s22.5-10.094,22.5-22.5
			C384.181,149.168,374.088,139.074,361.681,139.074z M361.681,169.074c-4.136,0-7.5-3.364-7.5-7.5c0-4.136,3.364-7.5,7.5-7.5
			s7.5,3.364,7.5,7.5C369.181,165.71,365.817,169.074,361.681,169.074z"/>
		<path d="M411.221,274.592c0,12.406,10.093,22.5,22.5,22.5s22.5-10.094,22.5-22.5c0-12.406-10.093-22.5-22.5-22.5
			S411.221,262.186,411.221,274.592z M441.221,274.592c0,4.136-3.364,7.5-7.5,7.5s-7.5-3.364-7.5-7.5s3.364-7.5,7.5-7.5
			S441.221,270.456,441.221,274.592z"/>
		<path d="M355.111,218.5c-12.407,0-22.5,10.094-22.5,22.5c0,12.406,10.093,22.5,22.5,22.5s22.5-10.094,22.5-22.5
			C377.611,228.594,367.518,218.5,355.111,218.5z M355.111,248.5c-4.136,0-7.5-3.364-7.5-7.5s3.364-7.5,7.5-7.5s7.5,3.364,7.5,7.5
			S359.247,248.5,355.111,248.5z"/>
	</g>
</g>
<g>
</g>
<g>
</g>
<g>
</g>
<g>
</g>
<g>
</g>
<g>
</g>
<g>
</g>
<g>
</g>
<g>
</g>
<g>
</g>
<g>
</g>
<g>
</g>
<g>
</g>
<g>
</g>
<g>
</g>
</svg>
