<?xml version="1.0" encoding="iso-8859-1"?>
<!-- Generator: Adobe Illustrator 19.0.0, SVG Export Plug-In . SVG Version: 6.00 Build 0)  -->
<svg version="1.1" id="Layer_1" xmlns="http://www.w3.org/2000/svg" xmlns:xlink="http://www.w3.org/1999/xlink" x="0px" y="0px"
	 viewBox="0 0 512 512" style="enable-background:new 0 0 512 512;" xml:space="preserve">
<g id="bell">
	<g id="fill_46_">
		<circle style="fill:#F79389;" cx="256" cy="448.039" r="56.461"/>
		<path style="fill:#F27564;" d="M256,391.578c-31.183,0-56.461,25.279-56.461,56.461c0,16.75,7.292,31.794,18.877,42.135
			c31.979-16.94,67.292-16.261,86.6-14.091c4.74-8.264,7.446-17.833,7.446-28.044C312.461,416.856,287.183,391.578,256,391.578z"/>
		<path style="fill:#ABEBF4;" d="M256,168.749L256,168.749c-16.324,0-29.68-13.356-29.68-29.68V37.18
			c0-16.324,13.356-29.68,29.68-29.68l0,0c16.324,0,29.68,13.356,29.68,29.68v101.889C285.68,155.393,272.324,168.749,256,168.749z"
			/>
		<path style="fill:#8ED7E8;" d="M259.792,44.772c-13.527-0.381-24.548-2.406-33.472-5.215v99.511
			c0,16.324,13.356,29.68,29.68,29.68l0,0c16.324,0,29.68-13.356,29.68-29.68v-91.74C276.927,45.936,268.194,45.009,259.792,44.772z
			"/>
		<path style="fill:#FFEB99;" d="M427.932,404.092c-14.732-19.466-23.103-42.736-24.038-66.825l-5.032-129.614
			c0,0,0.226-137.867-142.863-137.867S113.137,207.654,113.137,207.654l-5.032,129.614c-0.935,24.089-9.306,47.358-24.038,66.825
			L70.749,421.69c-12.255,16.193-0.27,38.962,20.508,38.962h329.485c20.779,0,32.763-22.768,20.508-38.962L427.932,404.092z"/>
		<path style="fill:#FFDE55;" d="M216.249,346.204C191.065,181.43,254.9,104.075,293.365,73.353
			c-11.219-2.296-23.633-3.566-37.365-3.566c-143.089,0-142.863,137.867-142.863,137.867l-5.032,129.614
			c-0.935,24.088-9.306,47.358-24.038,66.825L70.749,421.69c-12.255,16.193-0.27,38.962,20.508,38.962h99.309
			C212.549,431.224,223.524,393.804,216.249,346.204z"/>
		<path style="fill:#57565C;" d="M255.999,323.918L255.999,323.918c-15.52,0-28.1-12.581-28.1-28.1v-20.43
			c0-4.237,3.434-7.671,7.671-7.671h40.859c4.237,0,7.671,3.434,7.671,7.671v20.43C284.099,311.337,271.52,323.918,255.999,323.918z
			"/>
		<ellipse style="fill:#FFA6BB;" cx="162.004" cy="295.818" rx="29.973" ry="23.869"/>
		<ellipse style="fill:#FFA6BB;" cx="349.996" cy="295.818" rx="29.973" ry="23.869"/>
		<path style="fill:#57565C;" d="M336.657,282.715c-4.143,0-7.5-3.358-7.5-7.5v-12.451c0-4.142,3.357-7.5,7.5-7.5s7.5,3.358,7.5,7.5
			v12.451C344.157,279.357,340.799,282.715,336.657,282.715z"/>
		<path style="fill:#57565C;" d="M175.343,282.715c-4.143,0-7.5-3.358-7.5-7.5v-12.451c0-4.142,3.357-7.5,7.5-7.5
			c4.143,0,7.5,3.358,7.5,7.5v12.451C182.843,279.357,179.486,282.715,175.343,282.715z"/>
	</g>
	<g id="stroke_46_">
		<path d="M329.157,262.764v12.451c0,4.142,3.357,7.5,7.5,7.5s7.5-3.358,7.5-7.5v-12.451c0-4.142-3.357-7.5-7.5-7.5
			S329.157,258.622,329.157,262.764z"/>
		<path d="M167.843,262.764v12.451c0,4.142,3.357,7.5,7.5,7.5c4.143,0,7.5-3.358,7.5-7.5v-12.451c0-4.142-3.357-7.5-7.5-7.5
			C171.201,255.264,167.843,258.622,167.843,262.764z"/>
		<path d="M447.231,417.164l-13.318-17.598c-13.857-18.31-21.645-39.952-22.524-62.59l-5.026-129.475
			c-0.018-4.26-1.034-62.802-41.762-104.622c-2.891-2.969-7.639-3.031-10.606-0.141c-2.967,2.89-3.03,7.639-0.14,10.605
			c37.033,38.025,37.508,93.747,37.509,94.296c0,0.102,0.002,0.202,0.006,0.304l5.032,129.614
			c0.998,25.719,9.834,50.291,25.552,71.061l13.318,17.598c3.855,5.094,4.475,11.516,1.659,17.179
			c-3.038,6.109-9.089,9.757-16.186,9.757H91.258c-7.098,0-13.148-3.647-16.187-9.757c-2.816-5.663-2.196-12.085,1.659-17.179
			l13.318-17.598c15.718-20.77,24.554-45.342,25.552-71.061l5.032-129.614c0.004-0.102,0.006-0.202,0.006-0.304
			c-0.001-0.566,0.348-57.087,38.473-95.274C182.349,89.09,214.948,77.287,256,77.287c28.767,0,53.557,5.836,73.68,17.346
			c3.595,2.055,8.177,0.808,10.234-2.787c2.057-3.596,0.809-8.178-2.787-10.234c-13.045-7.46-27.751-12.765-43.947-15.911V37.18
			C293.18,16.679,276.501,0,256,0s-37.18,16.679-37.18,37.18v28.492c-28.229,5.464-51.793,17.534-70.325,36.097
			c-41.807,41.875-42.839,101.428-42.857,105.733l-5.026,129.475c-0.879,22.638-8.668,44.28-22.524,62.59l-13.318,17.598
			c-7.367,9.734-8.536,22.037-3.129,32.911c5.545,11.15,16.894,18.077,29.618,18.077h209.404C292.877,485.476,275.522,497,256,497
			c-13.128,0-25.457-5.127-34.715-14.435c-2.921-2.937-7.67-2.948-10.607-0.028c-2.937,2.921-2.95,7.669-0.029,10.607
			C222.744,505.303,238.85,512,256,512c27.746,0,52.128-17.832,60.72-43.848h104.022c12.724,0,24.073-6.927,29.618-18.077
			C455.767,439.201,454.598,426.898,447.231,417.164z M233.82,37.18C233.82,24.95,243.77,15,256,15c12.23,0,22.18,9.95,22.18,22.18
			v26.267c-7.144-0.767-14.538-1.159-22.18-1.159c-7.656,0-15.047,0.391-22.18,1.152V37.18z"/>
		<path d="M235.57,260.217c-8.365,0-15.171,6.806-15.171,15.172v20.43c0,19.63,15.97,35.6,35.6,35.6
			c19.629,0,35.6-15.97,35.601-35.6v-20.43c0-8.366-6.806-15.172-15.171-15.172H235.57z M276.601,295.818
			c0,11.358-9.242,20.6-20.601,20.6s-20.6-9.241-20.6-20.6c0,0,0.077-20.602,0.171-20.602h40.859
			C276.524,275.217,276.601,295.818,276.601,295.818z"/>
	</g>
</g>
<g>
</g>
<g>
</g>
<g>
</g>
<g>
</g>
<g>
</g>
<g>
</g>
<g>
</g>
<g>
</g>
<g>
</g>
<g>
</g>
<g>
</g>
<g>
</g>
<g>
</g>
<g>
</g>
<g>
</g>
</svg>
