<?xml version="1.0" encoding="iso-8859-1"?>
<!-- Generator: Adobe Illustrator 19.0.0, SVG Export Plug-In . SVG Version: 6.00 Build 0)  -->
<svg version="1.1" id="Layer_1" xmlns="http://www.w3.org/2000/svg" xmlns:xlink="http://www.w3.org/1999/xlink" x="0px" y="0px"
	 viewBox="0 0 512 512" style="enable-background:new 0 0 512 512;" xml:space="preserve">
<g id="thermometer">
	<g id="fill_47_">
		<path style="fill:#FFDAAA;" d="M353.482,504.5H158.517c-31.438,0-56.923-25.485-56.923-56.923V64.423
			c0-31.438,25.485-56.923,56.923-56.923h194.965c31.438,0,56.923,25.485,56.923,56.923v383.154
			C410.406,479.014,384.92,504.5,353.482,504.5z"/>
		<path style="fill:#FFC477;" d="M174.751,447.576V64.423c0-31.438,25.485-56.923,56.923-56.923h-73.157
			c-31.438,0-56.923,25.485-56.923,56.923v383.154c0,31.438,25.485,56.923,56.923,56.923h73.157
			C200.236,504.5,174.751,479.014,174.751,447.576z"/>
		<path style="fill:#F27564;" d="M295.541,314.457V113.207c0-21.748-17.794-39.541-39.541-39.541h0
			c-21.748,0-39.542,17.794-39.542,39.542v201.245c0,10.189-3.142,20.159-9.137,28.398c-7.586,10.426-11.906,23.378-11.444,37.363
			c1.053,31.883,27.364,57.668,59.261,58.114c33.617,0.47,61.016-26.64,61.016-60.149c0-13.101-4.194-25.218-11.308-35.093
			C298.835,334.738,295.541,324.744,295.541,314.457z"/>
		<path style="fill:#E2675A;" d="M233.471,397.87c-0.528-15.973,4.406-30.767,13.07-42.674c6.847-9.41,10.435-20.797,10.435-32.435
			V92.911c0-6.738,1.511-13.149,4.186-18.907c-1.69-0.223-3.414-0.338-5.162-0.338l0,0c-21.748,0-39.542,17.794-39.542,39.541
			v201.245c0,10.189-3.142,20.159-9.136,28.398c-7.586,10.426-11.906,23.378-11.444,37.363
			c0.975,29.499,23.589,53.779,52.226,57.599C239.384,426.71,233.967,412.875,233.471,397.87z"/>
		<path style="fill:#8ED7E8;" d="M256,73.666L256,73.666c-21.748,0-39.542,17.794-39.542,39.541v89.69h79.083v-89.69
			C295.541,91.46,277.747,73.666,256,73.666z"/>
		<path style="fill:#7AC1DD;" d="M261.162,74.004c-1.69-0.223-3.414-0.338-5.163-0.338c-21.748,0-39.542,17.794-39.542,39.541v89.69
			h40.518V92.91C256.976,86.173,258.487,79.762,261.162,74.004z"/>
		<circle style="fill:#938782;" cx="157.95" cy="66.109" r="15"/>
		<circle style="fill:#938782;" cx="157.95" cy="447.361" r="15"/>
		<circle style="fill:#938782;" cx="355.845" cy="66.109" r="15"/>
		<circle style="fill:#938782;" cx="355.845" cy="447.361" r="15"/>
	</g>
	<g id="stroke_47_">
		<path d="M353.482,0H158.517c-35.523,0-64.423,28.9-64.423,64.423v285.252c0,4.142,3.358,7.5,7.5,7.5s7.5-3.358,7.5-7.5V64.423
			c0-27.252,22.171-49.423,49.423-49.423h194.965c27.252,0,49.424,22.171,49.424,49.423v383.153
			c0,27.252-22.172,49.424-49.424,49.424H158.517c-27.252,0-49.423-22.172-49.423-49.424v-66.522c0-4.142-3.358-7.5-7.5-7.5
			s-7.5,3.358-7.5,7.5v66.522c0,35.523,28.9,64.424,64.423,64.424h194.965c35.523,0,64.424-28.9,64.424-64.424V64.423
			C417.906,28.9,389.006,0,353.482,0z"/>
		<path d="M256,66.166c-25.939,0-47.042,21.103-47.042,47.042v201.245c0,8.768-2.663,17.061-7.701,23.984
			c-8.926,12.267-13.378,26.799-12.876,42.024c0.574,17.354,7.787,33.675,20.31,45.953c12.52,12.275,29.423,19.418,47.32,19.418
			c17.897,0,34.729-6.896,47.491-19.48c12.996-12.815,20.153-29.925,20.153-48.176c0-14.272-4.399-27.923-12.723-39.477
			c-5.162-7.166-7.891-15.55-7.891-24.244v-201.25C303.042,87.269,281.939,66.166,256,66.166z M308.655,378.178
			c0,14.205-5.57,27.521-15.686,37.495c-9.933,9.794-24.233,15.155-37.726,15.155c-13.493,0-26.296-5.56-36.051-15.124
			c-9.755-9.565-15.374-22.257-15.819-35.738c-0.392-11.853,3.071-23.162,10.012-32.702c6.916-9.505,10.572-20.851,10.572-32.811
			V210.397h38.723c4.143,0,7.5-3.357,7.5-7.5s-3.357-7.5-7.5-7.5h-38.723v-82.189c0-17.668,14.374-32.042,32.042-32.042
			s32.042,14.373,32.042,32.041v201.25c0,11.86,3.707,23.276,10.72,33.012C305.234,356.453,308.655,367.072,308.655,378.178z"/>
		<path d="M157.95,88.609c12.407,0,22.5-10.094,22.5-22.5c0-12.406-10.093-22.5-22.5-22.5c-12.407,0-22.5,10.094-22.5,22.5
			C135.45,78.516,145.543,88.609,157.95,88.609z M157.95,58.609c4.136,0,7.5,3.364,7.5,7.5c0,4.136-3.364,7.5-7.5,7.5
			s-7.5-3.364-7.5-7.5C150.45,61.974,153.814,58.609,157.95,58.609z"/>
		<path d="M157.95,469.861c12.407,0,22.5-10.094,22.5-22.5c0-12.406-10.093-22.5-22.5-22.5c-12.407,0-22.5,10.094-22.5,22.5
			C135.45,459.767,145.543,469.861,157.95,469.861z M157.95,439.861c4.136,0,7.5,3.364,7.5,7.5c0,4.136-3.364,7.5-7.5,7.5
			s-7.5-3.364-7.5-7.5C150.45,443.225,153.814,439.861,157.95,439.861z"/>
		<path d="M355.844,88.609c12.406,0,22.5-10.094,22.5-22.5c0-12.406-10.094-22.5-22.5-22.5c-12.406,0-22.5,10.094-22.5,22.5
			C333.344,78.516,343.438,88.609,355.844,88.609z M355.844,58.609c4.136,0,7.5,3.364,7.5,7.5c0,4.136-3.364,7.5-7.5,7.5
			c-4.136,0-7.5-3.364-7.5-7.5C348.344,61.974,351.709,58.609,355.844,58.609z"/>
		<path d="M355.844,469.861c12.406,0,22.5-10.094,22.5-22.5c0-12.406-10.094-22.5-22.5-22.5c-12.406,0-22.5,10.094-22.5,22.5
			C333.344,459.767,343.438,469.861,355.844,469.861z M355.844,439.861c4.136,0,7.5,3.364,7.5,7.5c0,4.136-3.364,7.5-7.5,7.5
			c-4.136,0-7.5-3.364-7.5-7.5C348.344,443.225,351.709,439.861,355.844,439.861z"/>
	</g>
</g>
<g>
</g>
<g>
</g>
<g>
</g>
<g>
</g>
<g>
</g>
<g>
</g>
<g>
</g>
<g>
</g>
<g>
</g>
<g>
</g>
<g>
</g>
<g>
</g>
<g>
</g>
<g>
</g>
<g>
</g>
</svg>
