<?xml version="1.0" encoding="iso-8859-1"?>
<!-- Generator: Adobe Illustrator 19.0.0, SVG Export Plug-In . SVG Version: 6.00 Build 0)  -->
<svg version="1.1" id="Layer_1" xmlns="http://www.w3.org/2000/svg" xmlns:xlink="http://www.w3.org/1999/xlink" x="0px" y="0px"
	 viewBox="0 0 512 512" style="enable-background:new 0 0 512 512;" xml:space="preserve">
<g id="pinecone">
	<g id="fill_48_">
		<path style="fill:#97AF8C;" d="M333.936,165.869l-26.538-40.91c-9.263-14.28-14.193-30.937-14.193-47.959V44.705
			C293.205,24.157,276.548,7.5,256,7.5h0c-20.548,0-37.205,16.657-37.205,37.205V77c0,17.021-4.93,33.679-14.193,47.959
			l-26.538,40.91H333.936z"/>
		<path style="fill:#8C9E82;" d="M218.795,65.236V77c0,17.021-4.93,33.679-14.193,47.959l-26.538,40.91h155.872l-26.538-40.91
			c-5.053-7.789-8.818-16.292-11.195-25.169c-15.003-5.293-28.751-9.857-39.443-12.895
			C240.038,82.144,227.747,73.976,218.795,65.236z"/>
		<path style="fill:#C68D6D;" d="M206.099,432.058c0-27.979,22.682-36.901,50.661-36.901s50.661,8.922,50.661,36.901
			c0,14.274-13.185,38.564-26.103,58.935c-11.419,18.009-37.697,18.009-49.117,0C219.284,470.622,206.099,446.332,206.099,432.058z"
			/>
		<path style="fill:#DD9F80;" d="M168.461,378.617c3.568-27.751,27.202-33.708,54.953-30.14c27.751,3.568,49.11,15.309,45.542,43.06
			c-1.82,14.157-17.995,36.568-33.404,55.126c-13.623,16.406-39.686,13.055-48.715-6.263
			C176.621,418.547,166.64,392.774,168.461,378.617z"/>
		<path style="fill:#EAB9A4;" d="M343.539,378.617c-3.568-27.751-27.202-33.708-54.953-30.14
			c-27.751,3.568-49.11,15.309-45.542,43.06c1.82,14.157,17.995,36.568,33.404,55.126c13.623,16.406,39.686,13.055,48.715-6.263
			C335.379,418.547,345.359,392.774,343.539,378.617z"/>
		<path style="fill:#B2785B;" d="M281.157,348.356c-10.05-26.112,7.914-42.585,34.026-52.635
			c26.112-10.05,50.485-9.87,60.534,16.242c5.127,13.321,1.546,40.726-3.192,64.378c-4.189,20.909-28.713,30.347-45.839,17.642
			C307.314,379.61,286.284,361.677,281.157,348.356z"/>
		<path style="fill:#B2785B;" d="M230.843,348.356c10.05-26.112-7.914-42.585-34.026-52.635
			c-26.112-10.05-50.485-9.87-60.534,16.242c-5.127,13.321-1.546,40.726,3.192,64.378c4.189,20.909,28.713,30.347,45.839,17.642
			C204.686,379.61,225.716,361.677,230.843,348.356z"/>
		<path style="fill:#C68D6D;" d="M206.099,312.389c0-27.979,22.682-36.901,50.661-36.901s50.661,8.922,50.661,36.901
			c0,14.274-13.185,38.564-26.103,58.935c-11.419,18.009-37.697,18.009-49.117,0C219.284,350.953,206.099,326.663,206.099,312.389z"
			/>
		<path style="fill:#DD9F80;" d="M319.764,285.097c-12.458-25.053,3.879-43.141,28.931-55.598
			c25.053-12.458,49.334-14.568,61.792,10.484c6.356,12.781,5.365,40.401,2.869,64.393c-2.206,21.21-25.736,32.91-43.979,21.869
			C348.741,313.757,326.119,297.878,319.764,285.097z"/>
		<path style="fill:#C68D6D;" d="M192.236,285.097c12.458-25.053-3.879-43.141-28.932-55.598
			c-25.053-12.458-49.334-14.568-61.792,10.484c-6.356,12.781-5.365,40.401-2.869,64.393c2.206,21.21,25.735,32.91,43.979,21.869
			C163.259,313.757,185.88,297.878,192.236,285.097z"/>
		<path style="fill:#DD9F80;" d="M167.008,248.852c0-27.979,22.682-36.901,50.661-36.901s50.661,8.922,50.661,36.901
			c0,14.274-13.185,38.564-26.103,58.935c-11.419,18.009-37.697,18.009-49.116,0C180.193,287.416,167.008,263.126,167.008,248.852z"
			/>
		<path style="fill:#EAB9A4;" d="M243.671,248.852c0-27.979,22.682-36.901,50.661-36.901c27.979,0,50.661,8.922,50.661,36.901
			c0,14.274-13.185,38.564-26.103,58.935c-11.419,18.009-37.697,18.009-49.116,0C256.856,287.416,243.671,263.126,243.671,248.852z"
			/>
		<path style="fill:#935B45;" d="M340.3,237.351c-15.28-23.438-1.152-43.299,22.287-58.579c23.439-15.28,47.312-20.193,62.591,3.246
			c7.795,11.957,10.015,39.506,10.319,63.625c0.269,21.323-21.744,35.673-41.145,26.823
			C372.406,262.456,348.095,249.309,340.3,237.351z"/>
		<path style="fill:#B2785B;" d="M274.316,203.653c-11.799-25.601,5.086-43.281,30.556-55.019
			c25.47-11.738,49.879-13.09,61.678,12.511c6.019,13.061,4.259,40.818,1.091,64.877c-2.801,21.269-26.722,32.293-44.711,20.606
			C302.581,233.407,280.335,216.713,274.316,203.653z"/>
		<path style="fill:#935B45;" d="M171.7,237.351c15.28-23.438,1.152-43.299-22.287-58.579c-23.438-15.28-47.311-20.193-62.591,3.246
			c-7.795,11.957-10.015,39.506-10.319,63.625c-0.269,21.323,21.744,35.673,41.145,26.823
			C139.594,262.456,163.904,249.309,171.7,237.351z"/>
		<path style="fill:#B2785B;" d="M237.684,203.653c11.799-25.601-5.086-43.281-30.556-55.019
			c-25.47-11.738-49.879-13.09-61.678,12.511c-6.019,13.061-4.259,40.818-1.091,64.877c2.801,21.269,26.722,32.293,44.711,20.606
			C209.419,233.407,231.665,216.713,237.684,203.653z"/>
		<path style="fill:#C68D6D;" d="M205.339,166.542c0-27.979,22.682-36.901,50.661-36.901s50.661,8.922,50.661,36.901
			c0,14.274-13.185,38.564-26.103,58.935c-11.419,18.009-37.697,18.009-49.116,0C218.524,205.105,205.339,180.816,205.339,166.542z"
			/>
	</g>
	<path id="stroke_48_" d="M431.462,177.922c-7.693-11.801-17.87-18.328-30.246-19.4c-7.896-0.683-16.576,0.96-25.889,4.873
		c-0.568-1.975-1.221-3.773-1.966-5.388c-6.561-14.239-17.475-22.731-31.559-24.557c-5.849-0.76-12.274-0.368-19.213,1.145
		l-8.898-13.717c-7.237-11.157-11.635-24.059-12.718-37.311c-0.338-4.128-3.97-7.212-8.085-6.863
		c-4.129,0.337-7.202,3.957-6.864,8.086c1.284,15.716,6.5,31.018,15.083,44.251l6.619,10.204
		c-0.661,0.264-17.091-17.105-51.726-17.105s-51.064,17.369-51.726,17.104l6.619-10.204C220.97,113.509,226.295,95.514,226.295,77
		V44.705C226.295,28.325,239.62,15,256,15s29.705,13.325,29.705,29.705v10.119c0,4.143,3.357,7.5,7.5,7.5s7.5-3.357,7.5-7.5V44.705
		C300.705,20.055,280.65,0,256,0s-44.705,20.055-44.705,44.705V77c0,15.609-4.49,30.782-12.985,43.877l-8.899,13.718
		c-6.938-1.513-13.362-1.904-19.213-1.145c-14.085,1.825-24.998,10.317-31.56,24.556c-0.744,1.614-1.397,3.411-1.964,5.384
		c-9.16-3.848-17.704-5.495-25.488-4.901c-12.557,0.961-22.868,7.499-30.648,19.433c-3.479,5.337-6.093,12.954-7.992,23.287
		c-0.749,4.074,1.946,7.983,6.02,8.732c0.459,0.085,7.486,0.546,8.732-6.02c1.944-10.236,4.197-15.341,5.807-17.809
		c5.892-9.039,16.501-19.292,41.125-7.376c-0.833,12.303,0.064,28.301,2.693,48.264c1.089,8.271,4.873,15.704,10.598,21.333
		c-8.546,5.398-19.583,11.195-32.986,17.309c-6.762,3.083-14.516,2.502-20.74-1.557c-6.226-4.059-9.887-10.918-9.793-18.349
		c0.059-4.583,0.19-9.023,0.373-13.196c0.357-8.127-7.383-7.84-7.498-7.84c-3.985,0-7.304,3.138-7.486,7.16
		c-0.197,4.336-0.327,8.94-0.387,13.686c-0.159,12.596,8.331,28.871,20.329,33.213c0.234,7.928,0.85,16.77,1.851,26.391
		c1.304,12.528,8.815,23.357,20.095,28.967c4.844,2.409,10.035,3.668,15.237,3.821c0.626,11.012,2.5,24.371,5.606,39.873
		c2.474,12.352,10.971,22.429,22.727,26.953c3.451,1.328,7.014,2.104,10.582,2.36c3.228,10.347,8.125,22.57,14.611,36.448
		c5.325,11.391,15.939,19.153,28.404,20.78c4.378,9.012,10.22,19.296,17.423,30.655c6.746,10.639,18.295,16.99,30.894,16.99
		c12.597-0.001,24.145-6.352,30.891-16.99c7.27-11.464,13.162-21.843,17.555-30.92c11.745-2.072,21.665-9.631,26.753-20.514
		c6.501-13.91,11.405-26.159,14.634-36.526c9.389-0.667,18.509-4.884,25.068-12.421c2.719-3.125,2.39-7.862-0.735-10.581
		c-3.123-2.717-7.86-2.389-10.581,0.735c-6.455,7.417-19.14,10.635-29.19,3.177c-14.617-10.844-26.12-20.759-33.651-28.973
		c8.069-14.213,13.352-26.085,15.796-35.482c11.205-6.574,14.121-15.195,15.172-16.903c8.946,7.839,32.403,24.851,42.127,28.62
		c-0.307,7.057-1.216,15.355-2.733,24.796c-0.657,4.09,1.876,8.061,7.414,8.691c3.595,0.409,6.804-2.624,7.397-6.311
		c1.462-9.104,2.393-17.28,2.802-24.456c5.203-0.153,10.398-1.412,15.243-3.821c11.279-5.609,18.791-16.438,20.095-28.968
		c1-9.619,1.616-18.46,1.851-26.391c12.171-5.531,20.488-20.617,20.329-33.213C442.565,211.288,438.792,189.167,431.462,177.922z
		 M339.874,148.325c8.952,1.161,15.45,6.381,19.864,15.96c2.46,5.337,5.791,20.327,0.468,60.758
		c-0.978,7.421-5.6,13.713-12.363,16.83c-6.764,3.117-14.551,2.544-20.827-1.534c-13.477-8.756-24.272-16.749-32.207-23.833
		c12.985-22.213,19.353-38.649,19.353-49.964c0-4.662-0.58-9.015-1.698-13.037C323.186,149.1,332.393,147.358,339.874,148.325z
		 M256,137.141c43.161,0,43.161,22.13,43.161,29.401c0,5.823-3.239,20.7-24.936,54.918c-3.979,6.276-10.793,10.023-18.225,10.023
		c-7.432,0-14.245-3.747-18.225-10.023c-21.697-34.218-24.936-49.095-24.936-54.918C212.839,159.27,212.839,137.141,256,137.141z
		 M247.511,284.201c-3.311,6.047-7.204,12.607-11.619,19.57c-3.98,6.276-10.792,10.022-18.224,10.022
		c-7.433,0-14.245-3.746-18.225-10.023c-11.757-18.541-19.695-34.099-23.079-45.053c5.875-0.517,11.637-2.452,16.791-5.8
		c12.977-8.431,23.678-16.275,31.959-23.412c3.023,4.764,7.014,8.659,11.627,11.516C235.052,256,239.921,269.219,247.511,284.201z
		 M152.262,164.284c4.414-9.578,10.912-14.798,19.864-15.959c7.485-0.972,16.689,0.773,27.411,5.179
		c-1.118,4.022-1.698,8.375-1.698,13.037c0,11.316,6.368,27.752,19.353,49.965c-7.934,7.083-18.729,15.075-32.207,23.832
		c-6.277,4.077-14.064,4.651-20.827,1.534c-6.764-3.117-11.386-9.409-12.363-16.83C146.471,184.612,149.802,169.622,152.262,164.284
		z M106.103,303.602c-0.786-7.558-1.323-14.585-1.617-21.027c0.355,0.01,6.591,0.912,16.274-3.285
		c16.811-7.288,30.025-14.854,39.82-21.604c2.064,9.335,7.145,21.283,15.193,35.719c-8.262,7.63-20.93,16.677-37.033,26.424
		c-6.358,3.849-14.128,4.169-20.782,0.86C111.304,317.38,106.872,310.992,106.103,303.602z M146.828,374.868
		c-3.158-15.77-4.976-29.064-5.433-39.646c1.748-0.718,20.818-9.964,42.133-28.622c4.848,9.59,11.463,15.001,16.962,17.924
		c2.484,8.989,7.484,20.174,14.943,33.43c-7.501,8.413-19.341,18.693-34.589,30.004c-5.968,4.429-13.674,5.479-20.608,2.809
		C153.301,388.099,148.288,382.154,146.828,374.868z M193.63,437.224c-5.716-12.23-10.11-23.021-13.128-32.209
		c3.267-1.196,6.394-2.867,9.28-5.008c14.248-10.571,25.505-20.149,33.624-28.594c4.329,7.332,8.135,11.234,11.772,13.897
		c-0.017,2.329,0.112,4.725,0.429,7.183c0.924,7.182,4.693,16.106,11.4,26.938c-4.716,6.802-10.481,14.318-17.227,22.441
		c-4.747,5.717-11.987,8.561-19.353,7.617C203.057,448.541,196.776,443.956,193.63,437.224z M274.983,486.977
		C271.004,493.253,264.191,497,256.76,497c-7.432,0-14.245-3.747-18.225-10.023c-5.572-8.788-10.255-16.843-14.031-24.095
		c6.462-2.099,12.305-5.994,16.817-11.429c5.509-6.635,10.403-12.905,14.663-18.767c4.232,5.81,9.124,12.058,14.695,18.767
		c4.816,5.8,11.142,9.856,18.124,11.836C285.062,470.438,280.452,478.354,274.983,486.977z M322.218,400.006
		c2.899,2.151,6.032,3.804,9.29,4.978c-3.018,9.197-7.416,19.997-13.137,32.24c-3.147,6.732-9.428,11.317-16.799,12.265
		c-7.376,0.945-14.605-1.9-19.353-7.617c-24.205-29.151-30.242-43.583-31.531-50.057c1.987,0.33,26.781,3.343,38.826-19.449
		C297.556,380.575,308.508,389.835,322.218,400.006z M274.983,367.308c-3.979,6.276-10.792,10.023-18.224,10.023
		c-7.432,0-14.245-3.747-18.225-10.022c-9.639-15.204-16.656-28.255-20.756-38.518c12.555-0.037,24.055-6.379,30.782-16.987
		c2.662-4.197,5.144-8.261,7.439-12.173c2.287,3.888,4.749,7.929,7.44,12.172c6.746,10.64,19.17,18.356,32.328,16.947
		C291.675,339.005,284.65,352.064,274.983,367.308z M312.556,303.772c-3.979,6.275-10.792,10.023-18.224,10.023
		c-7.433,0-14.245-3.748-18.225-10.024c-21.697-34.218-24.852-43.919-24.849-57.593c1.559,0.201,3.141,0.305,4.742,0.305
		c12.593,0,24.137-6.347,30.885-16.979c8.283,7.138,18.984,14.982,31.959,23.412c5.155,3.35,10.916,5.284,16.79,5.801
		C332.248,269.676,324.304,285.244,312.556,303.772z M405.896,303.601c-0.769,7.392-5.2,13.779-11.854,17.089
		c-6.654,3.309-14.424,2.987-20.781-0.859c-16.103-9.747-28.77-18.794-37.033-26.423c8.047-14.434,13.135-26.386,15.199-35.716
		c9.795,6.75,23.147,13.998,39.813,21.6c4.875,2.225,11.341,3.9,16.273,3.285C407.219,289.017,406.682,296.044,405.896,303.601z
		 M418.205,264.087c-6.225,4.059-13.979,4.64-20.74,1.557c-13.402-6.114-24.439-11.911-32.986-17.309
		c5.725-5.629,9.509-13.061,10.598-21.333c2.63-19.976,3.528-35.981,2.692-48.287c12.749-6.26,29.419-10.563,41.127,7.398
		c3.181,4.879,8.592,19.112,9.103,59.625C428.092,253.169,424.431,260.028,418.205,264.087z"/>
</g>
<g>
</g>
<g>
</g>
<g>
</g>
<g>
</g>
<g>
</g>
<g>
</g>
<g>
</g>
<g>
</g>
<g>
</g>
<g>
</g>
<g>
</g>
<g>
</g>
<g>
</g>
<g>
</g>
<g>
</g>
</svg>
