<?xml version="1.0" encoding="iso-8859-1"?>
<!-- Generator: Adobe Illustrator 19.0.0, SVG Export Plug-In . SVG Version: 6.00 Build 0)  -->
<svg version="1.1" id="Layer_1" xmlns="http://www.w3.org/2000/svg" xmlns:xlink="http://www.w3.org/1999/xlink" x="0px" y="0px"
	 viewBox="0 0 511.918 511.918" style="enable-background:new 0 0 511.918 511.918;" xml:space="preserve">
<g id="almond">
	<g id="fill_49_">
		<path style="fill:#EDCFB2;" d="M283.012,504.422c0,0,59.445,5.868,71.397-89.516C367.155,313.19,378.313,2.325,283.012,7.558
			C283.012,7.558,90.399,263.854,283.012,504.422z"/>
		<path style="fill:#DD9F80;" d="M421.063,312.264c0,76.243-61.807,138.05-138.05,138.05c-76.243,0-138.05-61.807-138.05-138.05
			S206.77,61.666,283.013,61.666C359.255,61.666,421.063,236.021,421.063,312.264z"/>
		<path style="fill:#C68D6D;" d="M309.138,289.55c-26.873-71.411-17.576-177.173-11.231-225.684c-4.893-1.441-9.862-2.2-14.894-2.2
			c-76.243,0-138.05,174.355-138.05,250.598c0,76.243,61.807,138.05,138.05,138.05c44.292,0,83.71-20.857,108.971-53.287
			C368.077,363.807,330.426,346.122,309.138,289.55z"/>
		<path style="fill:#FCE5CA;" d="M283.012,7.558c-39.452,0-96.905,22.169-146.578,127.788
			c-27.263,57.968-45.579,129.065-45.579,176.918c0,105.957,86.202,192.158,192.157,192.158
			C202.827,290.821,283.012,7.558,283.012,7.558z"/>
		<circle style="fill:#EDCFB2;" cx="178.301" cy="260.117" r="15"/>
		<circle style="fill:#EDCFB2;" cx="212.406" cy="347.536" r="15"/>
		<circle style="fill:#EDCFB2;" cx="178.301" cy="417.348" r="15"/>
		<circle style="fill:#EDCFB2;" cx="136.681" cy="340.301" r="15"/>
		<path style="fill:#C68D6D;" d="M323.815,383.613c-5.511-6.186-4.964-15.668,1.222-21.179
			c29.608-26.378,36.478-51.403,27.228-99.174c-1.575-8.133,3.742-16.003,11.875-17.578c8.132-1.576,16.003,3.742,17.578,11.875
			c9.373,48.406,7.335,89.282-36.725,127.277C335.999,392.591,326.779,386.939,323.815,383.613z"/>
		<path style="fill:#B2785B;" d="M344.994,384.834c7.244-6.248,13.349-12.568,18.458-18.992c-7.07-6.873-14.32-13.926-21.362-21.898
			c-4.511,6.296-10.162,12.35-17.053,18.489c-6.186,5.511-6.732,14.993-1.222,21.179
			C326.779,386.939,335.999,392.591,344.994,384.834z"/>
	</g>
	<g id="stroke_49_">
		<path d="M178.302,237.617c-12.406,0-22.5,10.094-22.5,22.5c0,12.406,10.094,22.5,22.5,22.5c12.406,0,22.5-10.094,22.5-22.5
			C200.802,247.71,190.708,237.617,178.302,237.617z M178.302,267.617c-4.136,0-7.5-3.364-7.5-7.5c0-4.136,3.364-7.5,7.5-7.5
			c4.136,0,7.5,3.364,7.5,7.5C185.802,264.252,182.437,267.617,178.302,267.617z"/>
		<path d="M234.906,347.536c0-12.406-10.094-22.5-22.5-22.5c-12.406,0-22.5,10.094-22.5,22.5c0,12.406,10.094,22.5,22.5,22.5
			C224.812,370.036,234.906,359.942,234.906,347.536z M204.906,347.536c0-4.136,3.364-7.5,7.5-7.5c4.136,0,7.5,3.364,7.5,7.5
			c0,4.136-3.364,7.5-7.5,7.5C208.27,355.036,204.906,351.671,204.906,347.536z"/>
		<path d="M178.302,394.848c-12.406,0-22.5,10.094-22.5,22.5c0,12.406,10.094,22.5,22.5,22.5c12.406,0,22.5-10.094,22.5-22.5
			C200.802,404.942,190.708,394.848,178.302,394.848z M178.302,424.848c-4.136,0-7.5-3.364-7.5-7.5c0-4.136,3.364-7.5,7.5-7.5
			c4.136,0,7.5,3.364,7.5,7.5C185.802,421.484,182.437,424.848,178.302,424.848z"/>
		<path d="M136.681,317.801c-12.406,0-22.5,10.094-22.5,22.5c0,12.406,10.094,22.5,22.5,22.5c12.406,0,22.5-10.094,22.5-22.5
			C159.181,327.895,149.087,317.801,136.681,317.801z M136.681,347.801c-4.136,0-7.5-3.364-7.5-7.5c0-4.136,3.364-7.5,7.5-7.5
			c4.136,0,7.5,3.364,7.5,7.5C144.181,344.437,140.816,347.801,136.681,347.801z"/>
		<path d="M421.062,319.764c4.143,0,7.5-3.357,7.5-7.5c0-40.975-16.92-105.569-41.146-157.082
			c-6.986-14.854-16.984-33.67-29.557-51.026C344.029,33.407,318.843-1.647,283.036,0.059c-0.008,0-0.016-0.001-0.024-0.001
			c-61.357,0-104.687,48.587-130.231,89.347c-2.199,3.51-1.137,8.138,2.373,10.338c3.507,2.198,8.138,1.139,10.338-2.373
			c38.196-60.947,78.132-78.755,107.662-81.802c-5.824,23.046-19.862,83.581-27.672,159.555
			c-5.862,57.037-7.135,111.559-3.781,162.049c3.912,58.906,14.168,112.477,30.513,159.439
			c-96.816-5.607-173.857-86.148-173.857-184.346c0-80.906,49.263-182.878,51.493-187.232c1.889-3.687,0.432-8.206-3.255-10.095
			c-3.686-1.89-8.206-0.433-10.095,3.255c-2.308,4.505-53.144,103.969-53.144,194.072c0,109.979,89.384,199.472,199.321,199.654
			c47.113,0,70.042-51.764,75.449-74.922c31.992-19.248,56.251-50.596,65.955-88.754c1.021-4.015-1.405-8.097-5.42-9.117
			c-4.009-1.026-8.096,1.405-9.117,5.42c-14.714,57.859-69.542,101.693-137.421,97.817c-7.748-32.823-12.929-68.271-15.444-106.02
			c-3.306-49.611-2.063-103.241,3.695-159.4c4.279-41.736,10.457-78.728,16.085-107.251c2.196-0.334,27.369-2.417,54.829,25.553
			c15.172,15.453,29.563,38.699,42.554,66.323c23.387,49.728,39.721,111.696,39.721,150.698
			C413.562,316.407,416.92,319.764,421.062,319.764z M340.001,446.238c-14.135,42.994-41.004,49.715-51.752,50.633
			c-4.551-12.576-8.648-25.66-12.28-39.234C278.317,457.749,306.054,460.968,340.001,446.238z M279.612,54.272
			c3.921-18.509,7.288-32.037,9.127-39.102c11.831,1.214,22.002,8.873,30.977,23.286c6.469,10.386,12.125,24.108,16.912,40.967
			C309.284,51.764,280.748,54.204,279.612,54.272z"/>
		<path d="M320.048,356.834c-9.264,8.253-10.086,22.504-1.832,31.768c3.458,3.881,16.163,15.309,31.677,1.912
			c21.923-18.931,35.284-39.763,40.81-63.73c4.533-19.665,4.033-41.456-1.62-70.653c-1.142-5.9-4.515-11.003-9.495-14.367
			c-4.98-3.365-10.973-4.589-16.872-3.445c-12.181,2.359-20.172,14.188-17.813,26.367
			C353.654,309.884,347.615,332.275,320.048,356.834z M330.026,368.034c31.589-28.143,39.336-55.933,29.603-106.199
			c-0.786-4.06,1.832-8.289,5.939-8.789c6.323-0.77,8.407,3.971,8.788,5.938c9.284,47.945,6.791,84.772-34.259,120.172
			c-5.711,4.922-10.633-0.477-10.682-0.531C326.664,375.535,326.938,370.785,330.026,368.034z"/>
	</g>
</g>
<g>
</g>
<g>
</g>
<g>
</g>
<g>
</g>
<g>
</g>
<g>
</g>
<g>
</g>
<g>
</g>
<g>
</g>
<g>
</g>
<g>
</g>
<g>
</g>
<g>
</g>
<g>
</g>
<g>
</g>
</svg>
