<?xml version="1.0" encoding="iso-8859-1"?>
<!-- Generator: Adobe Illustrator 19.0.0, SVG Export Plug-In . SVG Version: 6.00 Build 0)  -->
<svg version="1.1" id="Layer_1" xmlns="http://www.w3.org/2000/svg" xmlns:xlink="http://www.w3.org/1999/xlink" x="0px" y="0px"
	 viewBox="0 0 512.008 512.008" style="enable-background:new 0 0 512.008 512.008;" xml:space="preserve">
<g id="leaf_1">
	<g id="fill_1_">
		<path style="fill:#F27564;" d="M464.254,289.987l15.141-33.82c6.723-15.018-4.543-31.905-20.991-31.465l-95.512,2.557
			l14.184-95.733c2.041-13.773-9.73-25.64-23.519-23.712l-40.663,5.687l-38.429-73.109c-7.816-14.869-29.106-14.869-36.922,0
			l-38.429,73.109l-40.663-5.687c-13.789-1.928-25.56,9.938-23.519,23.712l14.184,95.733l-95.512-2.557
			c-16.448-0.44-27.714,16.447-20.991,31.465l15.14,33.82l-31.019,22.508c-15.218,11.043-10.824,34.798,7.338,39.666l165.937,44.478
			c43.233,11.588,88.756,11.588,131.989,0l165.937-44.478c18.161-4.868,22.555-28.623,7.338-39.666L464.254,289.987z"/>
		<path style="fill:#E5675A;" d="M206.701,246.503c4.411-87.823,46.288-168.771,67.763-206.111
			c-7.816-14.869-29.106-14.869-36.922,0l-38.429,73.109l-40.663-5.687c-13.789-1.929-25.56,9.938-23.519,23.712l14.184,95.733
			l-95.512-2.557c-16.448-0.44-27.714,16.447-20.991,31.465l15.14,33.82l-31.019,22.508c-15.218,11.043-10.824,34.798,7.338,39.666
			l128.463,34.433l0.002-0.001C177.26,355.417,203.601,308.237,206.701,246.503z"/>
		<path style="fill:#935B45;" d="M386.599,298.471c-2.556-11.148-13.769-18.179-24.917-15.623l-105.678,24.228l-105.678-24.228
			c-11.148-2.556-22.361,4.474-24.917,15.623s4.474,22.361,15.623,24.917l114.973,26.359l114.973-26.359
			C382.125,320.832,389.155,309.619,386.599,298.471z"/>
		<path style="fill:#B2785B;" d="M256.004,482.768L256.004,482.768c-11.438,0-20.796-9.358-20.796-20.796v-282.37
			c0-11.438,9.358-20.796,20.796-20.796l0,0c11.438,0,20.796,9.358,20.796,20.796v282.37
			C276.8,473.41,267.442,482.768,256.004,482.768z"/>
	</g>
	<path id="stroke_1_" d="M499.678,306.425l-26.09-18.932l12.652-28.262c4.217-9.42,3.315-20.17-2.413-28.756
		c-5.727-8.586-15.31-13.545-25.624-13.27l-86.583,2.317l12.875-86.898c1.322-8.926-1.564-17.719-7.918-24.125
		c-6.353-6.406-15.122-9.36-24.059-8.113l-35.44,4.956l-35.975-68.441c-4.916-9.352-14.534-15.162-25.1-15.162
		c-10.566,0-20.184,5.81-25.1,15.162l-35.975,68.441l-35.439-4.956c-8.938-1.251-17.705,1.708-24.059,8.113
		c-6.354,6.406-9.24,15.199-7.918,24.125l2.956,19.946c0.607,4.098,4.419,6.928,8.519,6.32c4.097-0.607,6.926-4.421,6.319-8.518
		l-2.955-19.946c-0.623-4.204,0.736-8.346,3.729-11.363c2.993-3.018,7.124-4.414,11.333-3.821l40.663,5.687
		c3.136,0.438,6.205-1.138,7.677-3.938l38.429-73.109c2.351-4.472,6.77-7.142,11.822-7.142c5.052,0,9.472,2.67,11.822,7.142
		l38.429,73.109c1.472,2.8,4.548,4.377,7.677,3.938l40.664-5.687c4.208-0.591,8.339,0.805,11.332,3.821
		c2.993,3.017,4.352,7.159,3.729,11.363l-14.185,95.733c-1.146,7.59,5.391,8.633,7.62,8.597l95.512-2.557
		c5.208-0.151,9.853,2.266,12.745,6.6c2.892,4.334,3.329,9.547,1.2,14.303l-15.14,33.82c-1.45,3.239-0.432,7.051,2.44,9.135
		l31.019,22.508c4.747,3.445,6.945,8.945,5.878,14.714c-1.067,5.768-5.087,10.119-10.753,11.637l-165.937,44.478
		c-11.705,3.137-23.699,5.405-35.757,6.795v-87.905l79.059-18.126c3.439-0.789,12.956-0.573,15.93,9.988
		c1.987,7.057-2.842,14.292-9.988,15.931l-63.507,14.56c-4.038,0.926-6.56,4.949-5.635,8.986c0.796,3.474,3.288,6.789,8.986,5.635
		l63.508-14.561c15.207-3.487,24.743-18.696,21.257-33.903c-1.684-7.345-9.235-26.843-33.903-21.257L284.3,292.895V179.602
		c0-15.603-12.693-28.296-28.296-28.296c-15.603,0-28.296,12.693-28.296,28.296v113.292l-75.706-17.357
		c-24.909-5.983-32.22,13.912-33.904,21.256c-3.486,15.208,6.049,30.417,21.257,33.904l88.353,20.257v45.235
		c-12.057-1.39-24.051-3.658-35.757-6.795L26.015,344.917c-5.666-1.519-9.686-5.869-10.753-11.637
		c-1.067-5.769,1.13-11.269,5.878-14.714l31.019-22.508c2.872-2.084,3.891-5.896,2.44-9.135l-15.14-33.82
		c-2.129-4.755-1.691-9.969,1.2-14.303c2.892-4.333,7.54-6.726,12.745-6.601l95.512,2.557c2.213,0.067,8.995,0.075,7.62-8.596
		l-6.385-43.093c-0.607-4.097-4.423-6.926-8.518-6.32c-4.098,0.607-6.927,4.421-6.32,8.518l5.076,34.258l-86.583-2.317
		c-10.333-0.279-19.896,4.684-25.624,13.27c-5.728,8.586-6.63,19.336-2.413,28.756l12.652,28.262l-26.09,18.932
		c-9.403,6.823-13.932,18.159-11.818,29.583c2.113,11.424,10.398,20.389,21.619,23.397l165.937,44.478
		c12.97,3.477,26.274,5.955,39.64,7.407v50.682c0,15.603,12.693,28.296,28.296,28.296c15.602,0,28.296-12.693,28.296-28.296V411.29
		c13.367-1.452,26.671-3.93,39.641-7.407l165.936-44.478c11.222-3.008,19.506-11.973,21.619-23.397
		C513.609,324.584,509.081,313.248,499.678,306.425z M142.707,316.078c-7.146-1.638-11.627-8.785-9.988-15.931
		c0.788-3.439,3.848-12.234,15.93-9.988l79.059,18.126v27.281L142.707,316.078z M269.3,461.972c0,7.331-5.964,13.296-13.296,13.296
		c-7.332,0-13.296-5.964-13.296-13.296v-282.37c0-7.331,5.964-13.296,13.296-13.296c7.331,0,13.296,5.964,13.296,13.296V461.972z"/>
</g>
<g>
</g>
<g>
</g>
<g>
</g>
<g>
</g>
<g>
</g>
<g>
</g>
<g>
</g>
<g>
</g>
<g>
</g>
<g>
</g>
<g>
</g>
<g>
</g>
<g>
</g>
<g>
</g>
<g>
</g>
</svg>
